G04 #@! TF.GenerationSoftware,KiCad,Pcbnew,7.0.11*
G04 #@! TF.CreationDate,2024-12-23T17:17:55+01:00*
G04 #@! TF.ProjectId,Aviator_Controller,41766961-746f-4725-9f43-6f6e74726f6c,rev?*
G04 #@! TF.SameCoordinates,Original*
G04 #@! TF.FileFunction,Soldermask,Bot*
G04 #@! TF.FilePolarity,Negative*
%FSLAX46Y46*%
G04 Gerber Fmt 4.6, Leading zero omitted, Abs format (unit mm)*
G04 Created by KiCad (PCBNEW 7.0.11) date 2024-12-23 17:17:55*
%MOMM*%
%LPD*%
G01*
G04 APERTURE LIST*
%ADD10C,0.010000*%
%ADD11O,1.204000X2.304000*%
%ADD12R,1.700000X1.700000*%
%ADD13O,1.700000X1.700000*%
G04 APERTURE END LIST*
D10*
X155351000Y-48001000D02*
X155383000Y-48003000D01*
X155414000Y-48007000D01*
X155445000Y-48013000D01*
X155475000Y-48020000D01*
X155505000Y-48029000D01*
X155535000Y-48040000D01*
X155564000Y-48052000D01*
X155592000Y-48065000D01*
X155620000Y-48080000D01*
X155647000Y-48097000D01*
X155673000Y-48115000D01*
X155698000Y-48134000D01*
X155721000Y-48154000D01*
X155744000Y-48176000D01*
X155766000Y-48199000D01*
X155786000Y-48222000D01*
X155805000Y-48247000D01*
X155823000Y-48273000D01*
X155840000Y-48300000D01*
X155855000Y-48328000D01*
X155868000Y-48356000D01*
X155880000Y-48385000D01*
X155891000Y-48415000D01*
X155900000Y-48445000D01*
X155907000Y-48475000D01*
X155913000Y-48506000D01*
X155917000Y-48537000D01*
X155919000Y-48569000D01*
X155920000Y-48600000D01*
X155920000Y-49000000D01*
X155920000Y-49400000D01*
X155919000Y-49431000D01*
X155917000Y-49463000D01*
X155913000Y-49494000D01*
X155907000Y-49525000D01*
X155900000Y-49555000D01*
X155891000Y-49585000D01*
X155880000Y-49615000D01*
X155868000Y-49644000D01*
X155855000Y-49672000D01*
X155840000Y-49700000D01*
X155823000Y-49727000D01*
X155805000Y-49753000D01*
X155786000Y-49778000D01*
X155766000Y-49801000D01*
X155744000Y-49824000D01*
X155721000Y-49846000D01*
X155698000Y-49866000D01*
X155673000Y-49885000D01*
X155647000Y-49903000D01*
X155620000Y-49920000D01*
X155592000Y-49935000D01*
X155564000Y-49948000D01*
X155535000Y-49960000D01*
X155505000Y-49971000D01*
X155475000Y-49980000D01*
X155445000Y-49987000D01*
X155414000Y-49993000D01*
X155383000Y-49997000D01*
X155351000Y-49999000D01*
X155320000Y-50000000D01*
X155289000Y-49999000D01*
X155257000Y-49997000D01*
X155226000Y-49993000D01*
X155195000Y-49987000D01*
X155165000Y-49980000D01*
X155135000Y-49971000D01*
X155105000Y-49960000D01*
X155076000Y-49948000D01*
X155048000Y-49935000D01*
X155020000Y-49920000D01*
X154993000Y-49903000D01*
X154967000Y-49885000D01*
X154942000Y-49866000D01*
X154919000Y-49846000D01*
X154896000Y-49824000D01*
X154874000Y-49801000D01*
X154854000Y-49778000D01*
X154835000Y-49753000D01*
X154817000Y-49727000D01*
X154800000Y-49700000D01*
X154785000Y-49672000D01*
X154772000Y-49644000D01*
X154760000Y-49615000D01*
X154749000Y-49585000D01*
X154740000Y-49555000D01*
X154733000Y-49525000D01*
X154727000Y-49494000D01*
X154723000Y-49463000D01*
X154721000Y-49431000D01*
X154720000Y-49400000D01*
X154720000Y-49000000D01*
X154720000Y-48600000D01*
X154721000Y-48569000D01*
X154723000Y-48537000D01*
X154727000Y-48506000D01*
X154733000Y-48475000D01*
X154740000Y-48445000D01*
X154749000Y-48415000D01*
X154760000Y-48385000D01*
X154772000Y-48356000D01*
X154785000Y-48328000D01*
X154800000Y-48300000D01*
X154817000Y-48273000D01*
X154835000Y-48247000D01*
X154854000Y-48222000D01*
X154874000Y-48199000D01*
X154896000Y-48176000D01*
X154919000Y-48154000D01*
X154942000Y-48134000D01*
X154967000Y-48115000D01*
X154993000Y-48097000D01*
X155020000Y-48080000D01*
X155048000Y-48065000D01*
X155076000Y-48052000D01*
X155105000Y-48040000D01*
X155135000Y-48029000D01*
X155165000Y-48020000D01*
X155195000Y-48013000D01*
X155226000Y-48007000D01*
X155257000Y-48003000D01*
X155289000Y-48001000D01*
X155320000Y-48000000D01*
X155351000Y-48001000D01*
G36*
X155351000Y-48001000D02*
G01*
X155383000Y-48003000D01*
X155414000Y-48007000D01*
X155445000Y-48013000D01*
X155475000Y-48020000D01*
X155505000Y-48029000D01*
X155535000Y-48040000D01*
X155564000Y-48052000D01*
X155592000Y-48065000D01*
X155620000Y-48080000D01*
X155647000Y-48097000D01*
X155673000Y-48115000D01*
X155698000Y-48134000D01*
X155721000Y-48154000D01*
X155744000Y-48176000D01*
X155766000Y-48199000D01*
X155786000Y-48222000D01*
X155805000Y-48247000D01*
X155823000Y-48273000D01*
X155840000Y-48300000D01*
X155855000Y-48328000D01*
X155868000Y-48356000D01*
X155880000Y-48385000D01*
X155891000Y-48415000D01*
X155900000Y-48445000D01*
X155907000Y-48475000D01*
X155913000Y-48506000D01*
X155917000Y-48537000D01*
X155919000Y-48569000D01*
X155920000Y-48600000D01*
X155920000Y-49000000D01*
X155920000Y-49400000D01*
X155919000Y-49431000D01*
X155917000Y-49463000D01*
X155913000Y-49494000D01*
X155907000Y-49525000D01*
X155900000Y-49555000D01*
X155891000Y-49585000D01*
X155880000Y-49615000D01*
X155868000Y-49644000D01*
X155855000Y-49672000D01*
X155840000Y-49700000D01*
X155823000Y-49727000D01*
X155805000Y-49753000D01*
X155786000Y-49778000D01*
X155766000Y-49801000D01*
X155744000Y-49824000D01*
X155721000Y-49846000D01*
X155698000Y-49866000D01*
X155673000Y-49885000D01*
X155647000Y-49903000D01*
X155620000Y-49920000D01*
X155592000Y-49935000D01*
X155564000Y-49948000D01*
X155535000Y-49960000D01*
X155505000Y-49971000D01*
X155475000Y-49980000D01*
X155445000Y-49987000D01*
X155414000Y-49993000D01*
X155383000Y-49997000D01*
X155351000Y-49999000D01*
X155320000Y-50000000D01*
X155289000Y-49999000D01*
X155257000Y-49997000D01*
X155226000Y-49993000D01*
X155195000Y-49987000D01*
X155165000Y-49980000D01*
X155135000Y-49971000D01*
X155105000Y-49960000D01*
X155076000Y-49948000D01*
X155048000Y-49935000D01*
X155020000Y-49920000D01*
X154993000Y-49903000D01*
X154967000Y-49885000D01*
X154942000Y-49866000D01*
X154919000Y-49846000D01*
X154896000Y-49824000D01*
X154874000Y-49801000D01*
X154854000Y-49778000D01*
X154835000Y-49753000D01*
X154817000Y-49727000D01*
X154800000Y-49700000D01*
X154785000Y-49672000D01*
X154772000Y-49644000D01*
X154760000Y-49615000D01*
X154749000Y-49585000D01*
X154740000Y-49555000D01*
X154733000Y-49525000D01*
X154727000Y-49494000D01*
X154723000Y-49463000D01*
X154721000Y-49431000D01*
X154720000Y-49400000D01*
X154720000Y-49000000D01*
X154720000Y-48600000D01*
X154721000Y-48569000D01*
X154723000Y-48537000D01*
X154727000Y-48506000D01*
X154733000Y-48475000D01*
X154740000Y-48445000D01*
X154749000Y-48415000D01*
X154760000Y-48385000D01*
X154772000Y-48356000D01*
X154785000Y-48328000D01*
X154800000Y-48300000D01*
X154817000Y-48273000D01*
X154835000Y-48247000D01*
X154854000Y-48222000D01*
X154874000Y-48199000D01*
X154896000Y-48176000D01*
X154919000Y-48154000D01*
X154942000Y-48134000D01*
X154967000Y-48115000D01*
X154993000Y-48097000D01*
X155020000Y-48080000D01*
X155048000Y-48065000D01*
X155076000Y-48052000D01*
X155105000Y-48040000D01*
X155135000Y-48029000D01*
X155165000Y-48020000D01*
X155195000Y-48013000D01*
X155226000Y-48007000D01*
X155257000Y-48003000D01*
X155289000Y-48001000D01*
X155320000Y-48000000D01*
X155351000Y-48001000D01*
G37*
X146711000Y-48001000D02*
X146743000Y-48003000D01*
X146774000Y-48007000D01*
X146805000Y-48013000D01*
X146835000Y-48020000D01*
X146865000Y-48029000D01*
X146895000Y-48040000D01*
X146924000Y-48052000D01*
X146952000Y-48065000D01*
X146980000Y-48080000D01*
X147007000Y-48097000D01*
X147033000Y-48115000D01*
X147058000Y-48134000D01*
X147081000Y-48154000D01*
X147104000Y-48176000D01*
X147126000Y-48199000D01*
X147146000Y-48222000D01*
X147165000Y-48247000D01*
X147183000Y-48273000D01*
X147200000Y-48300000D01*
X147215000Y-48328000D01*
X147228000Y-48356000D01*
X147240000Y-48385000D01*
X147251000Y-48415000D01*
X147260000Y-48445000D01*
X147267000Y-48475000D01*
X147273000Y-48506000D01*
X147277000Y-48537000D01*
X147279000Y-48569000D01*
X147280000Y-48600000D01*
X147280000Y-49000000D01*
X147280000Y-49400000D01*
X147279000Y-49431000D01*
X147277000Y-49463000D01*
X147273000Y-49494000D01*
X147267000Y-49525000D01*
X147260000Y-49555000D01*
X147251000Y-49585000D01*
X147240000Y-49615000D01*
X147228000Y-49644000D01*
X147215000Y-49672000D01*
X147200000Y-49700000D01*
X147183000Y-49727000D01*
X147165000Y-49753000D01*
X147146000Y-49778000D01*
X147126000Y-49801000D01*
X147104000Y-49824000D01*
X147081000Y-49846000D01*
X147058000Y-49866000D01*
X147033000Y-49885000D01*
X147007000Y-49903000D01*
X146980000Y-49920000D01*
X146952000Y-49935000D01*
X146924000Y-49948000D01*
X146895000Y-49960000D01*
X146865000Y-49971000D01*
X146835000Y-49980000D01*
X146805000Y-49987000D01*
X146774000Y-49993000D01*
X146743000Y-49997000D01*
X146711000Y-49999000D01*
X146680000Y-50000000D01*
X146649000Y-49999000D01*
X146617000Y-49997000D01*
X146586000Y-49993000D01*
X146555000Y-49987000D01*
X146525000Y-49980000D01*
X146495000Y-49971000D01*
X146465000Y-49960000D01*
X146436000Y-49948000D01*
X146408000Y-49935000D01*
X146380000Y-49920000D01*
X146353000Y-49903000D01*
X146327000Y-49885000D01*
X146302000Y-49866000D01*
X146279000Y-49846000D01*
X146256000Y-49824000D01*
X146234000Y-49801000D01*
X146214000Y-49778000D01*
X146195000Y-49753000D01*
X146177000Y-49727000D01*
X146160000Y-49700000D01*
X146145000Y-49672000D01*
X146132000Y-49644000D01*
X146120000Y-49615000D01*
X146109000Y-49585000D01*
X146100000Y-49555000D01*
X146093000Y-49525000D01*
X146087000Y-49494000D01*
X146083000Y-49463000D01*
X146081000Y-49431000D01*
X146080000Y-49400000D01*
X146080000Y-49000000D01*
X146080000Y-48600000D01*
X146081000Y-48569000D01*
X146083000Y-48537000D01*
X146087000Y-48506000D01*
X146093000Y-48475000D01*
X146100000Y-48445000D01*
X146109000Y-48415000D01*
X146120000Y-48385000D01*
X146132000Y-48356000D01*
X146145000Y-48328000D01*
X146160000Y-48300000D01*
X146177000Y-48273000D01*
X146195000Y-48247000D01*
X146214000Y-48222000D01*
X146234000Y-48199000D01*
X146256000Y-48176000D01*
X146279000Y-48154000D01*
X146302000Y-48134000D01*
X146327000Y-48115000D01*
X146353000Y-48097000D01*
X146380000Y-48080000D01*
X146408000Y-48065000D01*
X146436000Y-48052000D01*
X146465000Y-48040000D01*
X146495000Y-48029000D01*
X146525000Y-48020000D01*
X146555000Y-48013000D01*
X146586000Y-48007000D01*
X146617000Y-48003000D01*
X146649000Y-48001000D01*
X146680000Y-48000000D01*
X146711000Y-48001000D01*
G36*
X146711000Y-48001000D02*
G01*
X146743000Y-48003000D01*
X146774000Y-48007000D01*
X146805000Y-48013000D01*
X146835000Y-48020000D01*
X146865000Y-48029000D01*
X146895000Y-48040000D01*
X146924000Y-48052000D01*
X146952000Y-48065000D01*
X146980000Y-48080000D01*
X147007000Y-48097000D01*
X147033000Y-48115000D01*
X147058000Y-48134000D01*
X147081000Y-48154000D01*
X147104000Y-48176000D01*
X147126000Y-48199000D01*
X147146000Y-48222000D01*
X147165000Y-48247000D01*
X147183000Y-48273000D01*
X147200000Y-48300000D01*
X147215000Y-48328000D01*
X147228000Y-48356000D01*
X147240000Y-48385000D01*
X147251000Y-48415000D01*
X147260000Y-48445000D01*
X147267000Y-48475000D01*
X147273000Y-48506000D01*
X147277000Y-48537000D01*
X147279000Y-48569000D01*
X147280000Y-48600000D01*
X147280000Y-49000000D01*
X147280000Y-49400000D01*
X147279000Y-49431000D01*
X147277000Y-49463000D01*
X147273000Y-49494000D01*
X147267000Y-49525000D01*
X147260000Y-49555000D01*
X147251000Y-49585000D01*
X147240000Y-49615000D01*
X147228000Y-49644000D01*
X147215000Y-49672000D01*
X147200000Y-49700000D01*
X147183000Y-49727000D01*
X147165000Y-49753000D01*
X147146000Y-49778000D01*
X147126000Y-49801000D01*
X147104000Y-49824000D01*
X147081000Y-49846000D01*
X147058000Y-49866000D01*
X147033000Y-49885000D01*
X147007000Y-49903000D01*
X146980000Y-49920000D01*
X146952000Y-49935000D01*
X146924000Y-49948000D01*
X146895000Y-49960000D01*
X146865000Y-49971000D01*
X146835000Y-49980000D01*
X146805000Y-49987000D01*
X146774000Y-49993000D01*
X146743000Y-49997000D01*
X146711000Y-49999000D01*
X146680000Y-50000000D01*
X146649000Y-49999000D01*
X146617000Y-49997000D01*
X146586000Y-49993000D01*
X146555000Y-49987000D01*
X146525000Y-49980000D01*
X146495000Y-49971000D01*
X146465000Y-49960000D01*
X146436000Y-49948000D01*
X146408000Y-49935000D01*
X146380000Y-49920000D01*
X146353000Y-49903000D01*
X146327000Y-49885000D01*
X146302000Y-49866000D01*
X146279000Y-49846000D01*
X146256000Y-49824000D01*
X146234000Y-49801000D01*
X146214000Y-49778000D01*
X146195000Y-49753000D01*
X146177000Y-49727000D01*
X146160000Y-49700000D01*
X146145000Y-49672000D01*
X146132000Y-49644000D01*
X146120000Y-49615000D01*
X146109000Y-49585000D01*
X146100000Y-49555000D01*
X146093000Y-49525000D01*
X146087000Y-49494000D01*
X146083000Y-49463000D01*
X146081000Y-49431000D01*
X146080000Y-49400000D01*
X146080000Y-49000000D01*
X146080000Y-48600000D01*
X146081000Y-48569000D01*
X146083000Y-48537000D01*
X146087000Y-48506000D01*
X146093000Y-48475000D01*
X146100000Y-48445000D01*
X146109000Y-48415000D01*
X146120000Y-48385000D01*
X146132000Y-48356000D01*
X146145000Y-48328000D01*
X146160000Y-48300000D01*
X146177000Y-48273000D01*
X146195000Y-48247000D01*
X146214000Y-48222000D01*
X146234000Y-48199000D01*
X146256000Y-48176000D01*
X146279000Y-48154000D01*
X146302000Y-48134000D01*
X146327000Y-48115000D01*
X146353000Y-48097000D01*
X146380000Y-48080000D01*
X146408000Y-48065000D01*
X146436000Y-48052000D01*
X146465000Y-48040000D01*
X146495000Y-48029000D01*
X146525000Y-48020000D01*
X146555000Y-48013000D01*
X146586000Y-48007000D01*
X146617000Y-48003000D01*
X146649000Y-48001000D01*
X146680000Y-48000000D01*
X146711000Y-48001000D01*
G37*
D11*
X155320000Y-53180000D03*
X146680000Y-53180000D03*
D12*
X131368800Y-107437000D03*
D13*
X131368800Y-109977000D03*
X131318000Y-62839600D03*
D12*
X131318000Y-65379600D03*
X145034000Y-98450400D03*
D13*
X145034000Y-100990400D03*
D12*
X130505200Y-52171600D03*
D13*
X130505200Y-49631600D03*
X133045200Y-52171600D03*
X133045200Y-49631600D03*
X135585200Y-52171600D03*
X135585200Y-49631600D03*
D12*
X131267200Y-78943200D03*
D13*
X131267200Y-81483200D03*
X131267200Y-84023200D03*
X131267200Y-86563200D03*
X162915600Y-109778800D03*
D12*
X162915600Y-107238800D03*
X131267200Y-100126800D03*
D13*
X131267200Y-102666800D03*
D12*
X158394400Y-107386200D03*
D13*
X158394400Y-109926200D03*
D12*
X139090400Y-98597800D03*
D13*
X139090400Y-101137800D03*
D12*
X153263600Y-107233800D03*
D13*
X153263600Y-109773800D03*
X131318000Y-70967600D03*
D12*
X131318000Y-73507600D03*
X147878800Y-107391200D03*
D13*
X147878800Y-109931200D03*
D12*
X170738800Y-84785200D03*
D13*
X170738800Y-82245200D03*
X170738800Y-79705200D03*
D12*
X170738800Y-96012000D03*
D13*
X170738800Y-93472000D03*
X170738800Y-90932000D03*
X170738800Y-68021200D03*
X170738800Y-70561200D03*
D12*
X170738800Y-73101200D03*
X170789600Y-108138200D03*
D13*
X170789600Y-105598200D03*
X170789600Y-103058200D03*
D12*
X137261600Y-107543600D03*
D13*
X137261600Y-110083600D03*
D12*
X142646400Y-107386200D03*
D13*
X142646400Y-109926200D03*
X131267200Y-95605600D03*
D12*
X131267200Y-93065600D03*
X150825200Y-98445400D03*
D13*
X150825200Y-100985400D03*
M02*
