M48
; DRILL file {KiCad 7.0.11} date Mon Dec 23 17:17:58 2024
; FORMAT={-:-/ absolute / inch / decimal}
; #@! TF.CreationDate,2024-12-23T17:17:58+01:00
; #@! TF.GenerationSoftware,Kicad,Pcbnew,7.0.11
; #@! TF.FileFunction,Plated,1,2,PTH
FMAT,2
INCH
; #@! TA.AperFunction,Plated,PTH,ViaDrill
T1C0.0118
; #@! TA.AperFunction,Plated,PTH,ComponentDrill
T2C0.0236
; #@! TA.AperFunction,Plated,PTH,ComponentDrill
T3C0.0394
%
G90
G05
T1
X5.09Y-2.68
X5.11Y-2.32
X5.12Y-3.02
X5.12Y-3.54
X5.12Y-3.86
X5.18Y-2.38
X5.21Y-2.27
X5.21Y-2.68
X5.23Y-3.5
X5.24Y-4.09
X5.25Y-3.0
X5.25Y-3.57
X5.29Y-4.35
X5.3Y-2.29
X5.328Y-3.254
X5.34Y-3.49
X5.348Y-3.296
X5.36Y-2.38
X5.37Y-2.7
X5.37Y-3.93
X5.38Y-3.82
X5.384Y-2.24
X5.388Y-3.15
X5.43Y-3.4
X5.43Y-4.07
X5.446Y-2.176
X5.45Y-2.68
X5.47Y-3.69
X5.48Y-3.29
X5.5Y-3.16
X5.5Y-3.37
X5.5Y-4.27
X5.54Y-1.93
X5.54Y-2.0
X5.54Y-2.21
X5.56Y-3.24
X5.57Y-2.07
X5.57Y-3.61
X5.574Y-2.886
X5.58Y-2.62
X5.58Y-2.66
X5.6Y-4.0
X5.602Y-3.128
X5.612Y-2.914
X5.64Y-2.13
X5.64Y-3.63
X5.67Y-2.35
X5.68Y-2.17
X5.68Y-3.53
X5.694Y-2.734
X5.73Y-2.78
X5.73Y-3.38
X5.73Y-3.43
X5.73Y-4.27
X5.76Y-2.43
X5.76Y-2.85
X5.766Y-2.496
X5.778Y-2.586
X5.78Y-2.17
X5.78Y-3.6
X5.79Y-2.33
X5.8Y-3.97
X5.84Y-2.69
X5.85Y-2.16
X5.85Y-2.36
X5.85Y-3.27
X5.856Y-2.586
X5.868Y-2.844
X5.87Y-1.94
X5.872Y-3.014
X5.89Y-2.04
X5.89Y-3.23
X5.9Y-3.52
X5.914Y-2.928
X5.93Y-3.58
X5.93Y-4.27
X5.95Y-1.93
X5.954Y-2.986
X5.96Y-2.868
X5.9691Y-3.14
X5.97Y-3.28
X6.0Y-2.06
X6.002Y-2.928
X6.02Y-1.94
X6.02Y-2.39
X6.02Y-3.63
X6.03Y-3.72
X6.03Y-3.87
X6.04Y-3.28
X6.044Y-2.844
X6.044Y-3.018
X6.05Y-2.34
X6.0567Y-2.176
X6.07Y-3.4
X6.07Y-3.45
X6.088Y-3.314
X6.1Y-2.52
X6.11Y-2.17
X6.11Y-2.27
X6.11Y-2.36
X6.11Y-3.67
X6.13Y-3.85
X6.14Y-2.48
X6.14Y-3.3
X6.14Y-3.77
X6.14Y-4.27
X6.146Y-2.67
X6.17Y-3.47
X6.198Y-2.63
X6.206Y-3.118
X6.21Y-3.54
X6.21Y-3.7
X6.22Y-2.42
X6.224Y-2.606
X6.23Y-2.14
X6.235Y-2.721
X6.24Y-2.32
X6.24Y-2.51
X6.242Y-3.116
X6.252Y-2.582
X6.26Y-2.22
X6.27Y-2.81
X6.278Y-3.118
X6.28Y-2.76
X6.286Y-2.558
X6.3Y-3.0
X6.3Y-4.08
X6.31Y-3.21
X6.31Y-3.44
X6.31Y-3.53
X6.33Y-2.73
X6.33Y-4.26
X6.346Y-2.958
X6.36Y-2.8
X6.36Y-3.98
X6.366Y-2.63
X6.38Y-2.09
X6.38Y-2.956
X6.39Y-1.92
X6.409Y-2.631
X6.416Y-2.954
X6.43Y-3.91
X6.45Y-2.954
X6.46Y-2.85
X6.474Y-2.638
X6.484Y-2.952
X6.53Y-2.05
X6.54Y-2.09
X6.556Y-2.6645
X6.56Y-1.91
X6.6Y-2.17
X6.72Y-2.02
X6.72Y-2.09
X6.75Y-1.93
X6.77Y-2.16
X6.77Y-2.38
X6.78Y-2.27
X6.79Y-2.49
T2
X5.7748Y-1.9291
X6.115Y-1.9291
T3
X5.138Y-1.954
X5.138Y-2.054
X5.168Y-3.108
X5.168Y-3.208
X5.168Y-3.308
X5.168Y-3.408
X5.168Y-3.664
X5.168Y-3.764
X5.168Y-3.942
X5.168Y-4.042
X5.17Y-2.474
X5.17Y-2.574
X5.17Y-2.794
X5.17Y-2.894
X5.172Y-4.2298
X5.172Y-4.3298
X5.238Y-1.954
X5.238Y-2.054
X5.338Y-1.954
X5.338Y-2.054
X5.404Y-4.234
X5.404Y-4.334
X5.476Y-3.8818
X5.476Y-3.9818
X5.616Y-4.2278
X5.616Y-4.3278
X5.71Y-3.876
X5.71Y-3.976
X5.822Y-4.228
X5.822Y-4.328
X5.938Y-3.8758
X5.938Y-3.9758
X6.034Y-4.2218
X6.034Y-4.3218
X6.236Y-4.2278
X6.236Y-4.3278
X6.414Y-4.222
X6.414Y-4.322
X6.722Y-2.678
X6.722Y-2.778
X6.722Y-2.878
X6.722Y-3.138
X6.722Y-3.238
X6.722Y-3.338
X6.722Y-3.58
X6.722Y-3.68
X6.722Y-3.78
X6.724Y-4.0574
X6.724Y-4.1574
X6.724Y-4.2574
T2
X5.7748Y-2.1154G85X5.7748Y-2.072
G05
X6.115Y-2.1154G85X6.115Y-2.072
G05
M30
