G04 #@! TF.GenerationSoftware,KiCad,Pcbnew,7.0.11*
G04 #@! TF.CreationDate,2024-12-23T17:17:55+01:00*
G04 #@! TF.ProjectId,Aviator_Controller,41766961-746f-4725-9f43-6f6e74726f6c,rev?*
G04 #@! TF.SameCoordinates,Original*
G04 #@! TF.FileFunction,Legend,Top*
G04 #@! TF.FilePolarity,Positive*
%FSLAX46Y46*%
G04 Gerber Fmt 4.6, Leading zero omitted, Abs format (unit mm)*
G04 Created by KiCad (PCBNEW 7.0.11) date 2024-12-23 17:17:55*
%MOMM*%
%LPD*%
G01*
G04 APERTURE LIST*
G04 Aperture macros list*
%AMRoundRect*
0 Rectangle with rounded corners*
0 $1 Rounding radius*
0 $2 $3 $4 $5 $6 $7 $8 $9 X,Y pos of 4 corners*
0 Add a 4 corners polygon primitive as box body*
4,1,4,$2,$3,$4,$5,$6,$7,$8,$9,$2,$3,0*
0 Add four circle primitives for the rounded corners*
1,1,$1+$1,$2,$3*
1,1,$1+$1,$4,$5*
1,1,$1+$1,$6,$7*
1,1,$1+$1,$8,$9*
0 Add four rect primitives between the rounded corners*
20,1,$1+$1,$2,$3,$4,$5,0*
20,1,$1+$1,$4,$5,$6,$7,0*
20,1,$1+$1,$6,$7,$8,$9,0*
20,1,$1+$1,$8,$9,$2,$3,0*%
G04 Aperture macros list end*
%ADD10C,0.500000*%
%ADD11C,1.000000*%
%ADD12C,0.100000*%
%ADD13C,0.150000*%
%ADD14C,0.200000*%
%ADD15C,0.127000*%
%ADD16C,0.152400*%
%ADD17C,0.120000*%
%ADD18C,0.010000*%
%ADD19RoundRect,0.102000X0.300000X0.575000X-0.300000X0.575000X-0.300000X-0.575000X0.300000X-0.575000X0*%
%ADD20RoundRect,0.102000X0.150000X0.575000X-0.150000X0.575000X-0.150000X-0.575000X0.150000X-0.575000X0*%
%ADD21O,1.204000X2.304000*%
%ADD22RoundRect,0.102000X-0.900000X0.700000X-0.900000X-0.700000X0.900000X-0.700000X0.900000X0.700000X0*%
%ADD23R,0.406400X0.812800*%
%ADD24R,2.489200X1.752600*%
%ADD25RoundRect,0.237500X-0.237500X0.300000X-0.237500X-0.300000X0.237500X-0.300000X0.237500X0.300000X0*%
%ADD26RoundRect,0.237500X-0.237500X0.250000X-0.237500X-0.250000X0.237500X-0.250000X0.237500X0.250000X0*%
%ADD27R,5.600000X5.600000*%
%ADD28RoundRect,0.062500X0.375000X-0.062500X0.375000X0.062500X-0.375000X0.062500X-0.375000X-0.062500X0*%
%ADD29RoundRect,0.062500X0.062500X-0.375000X0.062500X0.375000X-0.062500X0.375000X-0.062500X-0.375000X0*%
%ADD30R,5.700000X1.600000*%
%ADD31R,1.700000X1.700000*%
%ADD32O,1.700000X1.700000*%
%ADD33RoundRect,0.237500X0.237500X-0.250000X0.237500X0.250000X-0.237500X0.250000X-0.237500X-0.250000X0*%
%ADD34RoundRect,0.150000X0.587500X0.150000X-0.587500X0.150000X-0.587500X-0.150000X0.587500X-0.150000X0*%
%ADD35RoundRect,0.237500X-0.250000X-0.237500X0.250000X-0.237500X0.250000X0.237500X-0.250000X0.237500X0*%
%ADD36RoundRect,0.250000X-0.337500X-0.475000X0.337500X-0.475000X0.337500X0.475000X-0.337500X0.475000X0*%
%ADD37RoundRect,0.237500X0.300000X0.237500X-0.300000X0.237500X-0.300000X-0.237500X0.300000X-0.237500X0*%
%ADD38RoundRect,0.237500X0.237500X-0.300000X0.237500X0.300000X-0.237500X0.300000X-0.237500X-0.300000X0*%
%ADD39RoundRect,0.237500X0.250000X0.237500X-0.250000X0.237500X-0.250000X-0.237500X0.250000X-0.237500X0*%
%ADD40RoundRect,0.250000X0.337500X0.475000X-0.337500X0.475000X-0.337500X-0.475000X0.337500X-0.475000X0*%
%ADD41RoundRect,0.250000X-0.475000X0.337500X-0.475000X-0.337500X0.475000X-0.337500X0.475000X0.337500X0*%
%ADD42RoundRect,0.237500X-0.300000X-0.237500X0.300000X-0.237500X0.300000X0.237500X-0.300000X0.237500X0*%
%ADD43RoundRect,0.250000X0.475000X-0.337500X0.475000X0.337500X-0.475000X0.337500X-0.475000X-0.337500X0*%
G04 APERTURE END LIST*
D10*
G36*
X162845428Y-99457339D02*
G01*
X158488286Y-99457339D01*
X158488286Y-98778767D01*
X158916857Y-98778767D01*
X158935887Y-98874438D01*
X158990080Y-98955544D01*
X159071186Y-99009737D01*
X159166857Y-99028767D01*
X160881137Y-99028767D01*
X160881142Y-99028768D01*
X160881147Y-99028767D01*
X162166857Y-99028767D01*
X162262528Y-99009737D01*
X162343634Y-98955544D01*
X162397827Y-98874438D01*
X162416857Y-98778767D01*
X162397827Y-98683096D01*
X162343634Y-98601990D01*
X162262528Y-98547797D01*
X162166857Y-98528767D01*
X160984696Y-98528767D01*
X160833172Y-98377243D01*
X162316857Y-97264481D01*
X162381976Y-97191855D01*
X162414345Y-97099837D01*
X162409035Y-97002436D01*
X162366857Y-96914481D01*
X162294230Y-96849362D01*
X162202212Y-96816993D01*
X162104812Y-96822303D01*
X162016857Y-96864481D01*
X160476030Y-98020100D01*
X159343634Y-96887704D01*
X159262528Y-96833511D01*
X159166857Y-96814481D01*
X159071186Y-96833511D01*
X158990080Y-96887704D01*
X158935887Y-96968810D01*
X158916857Y-97064481D01*
X158935887Y-97160152D01*
X158990080Y-97241258D01*
X160277588Y-98528767D01*
X159166857Y-98528767D01*
X159071186Y-98547797D01*
X158990080Y-98601990D01*
X158935887Y-98683096D01*
X158916857Y-98778767D01*
X158488286Y-98778767D01*
X158488286Y-95778767D01*
X158916857Y-95778767D01*
X158919966Y-95794397D01*
X158918853Y-95810295D01*
X158929400Y-95841827D01*
X158935887Y-95874438D01*
X158944740Y-95887688D01*
X158949796Y-95902802D01*
X158971607Y-95927897D01*
X158990080Y-95955544D01*
X159003331Y-95964398D01*
X159013785Y-95976426D01*
X159043539Y-95991263D01*
X159071186Y-96009737D01*
X159086816Y-96012846D01*
X159101078Y-96019958D01*
X159134245Y-96022280D01*
X159166857Y-96028767D01*
X162166857Y-96028767D01*
X162262528Y-96009737D01*
X162343634Y-95955544D01*
X162397827Y-95874438D01*
X162416857Y-95778767D01*
X162397827Y-95683096D01*
X162343634Y-95601990D01*
X162262528Y-95547797D01*
X162166857Y-95528767D01*
X160108248Y-95528767D01*
X162290891Y-94281542D01*
X162315984Y-94259732D01*
X162343634Y-94241258D01*
X162352488Y-94228006D01*
X162364516Y-94217553D01*
X162379354Y-94187797D01*
X162397827Y-94160152D01*
X162400935Y-94144522D01*
X162408048Y-94130261D01*
X162410370Y-94097091D01*
X162416857Y-94064481D01*
X162413747Y-94048850D01*
X162414861Y-94032954D01*
X162404314Y-94001424D01*
X162397827Y-93968810D01*
X162388971Y-93955556D01*
X162383917Y-93940446D01*
X162362108Y-93915353D01*
X162343634Y-93887704D01*
X162330382Y-93878849D01*
X162319929Y-93866822D01*
X162290174Y-93851984D01*
X162262528Y-93833511D01*
X162246897Y-93830401D01*
X162232636Y-93823290D01*
X162199468Y-93820967D01*
X162166857Y-93814481D01*
X159166857Y-93814481D01*
X159071186Y-93833511D01*
X158990080Y-93887704D01*
X158935887Y-93968810D01*
X158916857Y-94064481D01*
X158935887Y-94160152D01*
X158990080Y-94241258D01*
X159071186Y-94295451D01*
X159166857Y-94314481D01*
X161225465Y-94314481D01*
X159042822Y-95561706D01*
X159017726Y-95583517D01*
X158990080Y-95601990D01*
X158981225Y-95615241D01*
X158969198Y-95625695D01*
X158954360Y-95655449D01*
X158935887Y-95683096D01*
X158932777Y-95698726D01*
X158925666Y-95712988D01*
X158923343Y-95746155D01*
X158916857Y-95778767D01*
X158488286Y-95778767D01*
X158488286Y-92635910D01*
X158916857Y-92635910D01*
X158935887Y-92731581D01*
X158990080Y-92812687D01*
X159071186Y-92866880D01*
X159166857Y-92885910D01*
X160595428Y-92885910D01*
X162166857Y-92885910D01*
X162262528Y-92866880D01*
X162343634Y-92812687D01*
X162397827Y-92731581D01*
X162416857Y-92635910D01*
X162416857Y-91207338D01*
X162397827Y-91111667D01*
X162343634Y-91030561D01*
X162262528Y-90976368D01*
X162166857Y-90957338D01*
X162071186Y-90976368D01*
X161990080Y-91030561D01*
X161935887Y-91111667D01*
X161916857Y-91207338D01*
X161916857Y-92385910D01*
X160845428Y-92385910D01*
X160845428Y-91635910D01*
X160826398Y-91540239D01*
X160772205Y-91459133D01*
X160691099Y-91404940D01*
X160595428Y-91385910D01*
X160499757Y-91404940D01*
X160418651Y-91459133D01*
X160364458Y-91540239D01*
X160345428Y-91635910D01*
X160345428Y-92385910D01*
X159416857Y-92385910D01*
X159416857Y-91207338D01*
X159397827Y-91111667D01*
X159343634Y-91030561D01*
X159262528Y-90976368D01*
X159166857Y-90957338D01*
X159071186Y-90976368D01*
X158990080Y-91030561D01*
X158935887Y-91111667D01*
X158916857Y-91207338D01*
X158916857Y-92635910D01*
X158488286Y-92635910D01*
X158488286Y-90528767D01*
X162845428Y-90528767D01*
X162845428Y-99457339D01*
G37*
D11*
X123444000Y-47244000D02*
X127762000Y-47244000D01*
X127762000Y-112268000D01*
X123444000Y-112268000D01*
X123444000Y-47244000D01*
X174244000Y-47244000D02*
X178816000Y-47244000D01*
X178816000Y-112268000D01*
X174244000Y-112268000D01*
X174244000Y-47244000D01*
D12*
G36*
X139409676Y-54343391D02*
G01*
X138023962Y-54343391D01*
X138023962Y-53960058D01*
X138166819Y-53960058D01*
X138171272Y-53970810D01*
X138172098Y-53982419D01*
X138219716Y-54077656D01*
X138225933Y-54083048D01*
X138229083Y-54090651D01*
X138276701Y-54138270D01*
X138284304Y-54141419D01*
X138289696Y-54147636D01*
X138384934Y-54195255D01*
X138396542Y-54196080D01*
X138407295Y-54200534D01*
X138502533Y-54200534D01*
X138513285Y-54196080D01*
X138524894Y-54195255D01*
X138620131Y-54147637D01*
X138625523Y-54141419D01*
X138633126Y-54138270D01*
X138680745Y-54090652D01*
X138683894Y-54083048D01*
X138690111Y-54077657D01*
X138737730Y-53982419D01*
X138738132Y-53976750D01*
X138741516Y-53972185D01*
X138787804Y-53787033D01*
X138829339Y-53703961D01*
X138865484Y-53667817D01*
X138942908Y-53629106D01*
X139014539Y-53629106D01*
X139091961Y-53667817D01*
X139128108Y-53703963D01*
X139166819Y-53781385D01*
X139166819Y-53999564D01*
X139121766Y-54134723D01*
X139124479Y-54172894D01*
X139153389Y-54197968D01*
X139191560Y-54195255D01*
X139216634Y-54166345D01*
X139264253Y-54023489D01*
X139263669Y-54015280D01*
X139266819Y-54007677D01*
X139266819Y-53769582D01*
X139262365Y-53758829D01*
X139261540Y-53747221D01*
X139213921Y-53651983D01*
X139207704Y-53646591D01*
X139204555Y-53638988D01*
X139156935Y-53591369D01*
X139149331Y-53588219D01*
X139143940Y-53582003D01*
X139048703Y-53534385D01*
X139037094Y-53533559D01*
X139026342Y-53529106D01*
X138931104Y-53529106D01*
X138920351Y-53533559D01*
X138908743Y-53534385D01*
X138813505Y-53582004D01*
X138808113Y-53588220D01*
X138800510Y-53591370D01*
X138752892Y-53638989D01*
X138749742Y-53646591D01*
X138743525Y-53651984D01*
X138695907Y-53747221D01*
X138695504Y-53752889D01*
X138692121Y-53757455D01*
X138645833Y-53942605D01*
X138604297Y-54025677D01*
X138568153Y-54061822D01*
X138490730Y-54100534D01*
X138419099Y-54100534D01*
X138341675Y-54061822D01*
X138305530Y-54025678D01*
X138266819Y-53948255D01*
X138266819Y-53730076D01*
X138311872Y-53594918D01*
X138309159Y-53556746D01*
X138280249Y-53531672D01*
X138242077Y-53534386D01*
X138217004Y-53563295D01*
X138169385Y-53706152D01*
X138169968Y-53714359D01*
X138166819Y-53721963D01*
X138166819Y-53960058D01*
X138023962Y-53960058D01*
X138023962Y-53293391D01*
X138166819Y-53293391D01*
X138181464Y-53328746D01*
X138216819Y-53343391D01*
X138252174Y-53328746D01*
X138266819Y-53293391D01*
X138266819Y-53057677D01*
X139216819Y-53057677D01*
X139252174Y-53043032D01*
X139266819Y-53007677D01*
X139252174Y-52972322D01*
X139216819Y-52957677D01*
X138266819Y-52957677D01*
X138266819Y-52721963D01*
X138252174Y-52686608D01*
X138216819Y-52671963D01*
X138181464Y-52686608D01*
X138166819Y-52721963D01*
X138166819Y-53293391D01*
X138023962Y-53293391D01*
X138023962Y-52388629D01*
X138785866Y-52388629D01*
X138800511Y-52423984D01*
X138835866Y-52438629D01*
X138871221Y-52423984D01*
X138885866Y-52388629D01*
X138885866Y-51626725D01*
X138871221Y-51591370D01*
X138835866Y-51576725D01*
X138800511Y-51591370D01*
X138785866Y-51626725D01*
X138785866Y-52388629D01*
X138023962Y-52388629D01*
X138023962Y-51150534D01*
X138166819Y-51150534D01*
X138181464Y-51185889D01*
X138216819Y-51200534D01*
X139216819Y-51200534D01*
X139252174Y-51185889D01*
X139266819Y-51150534D01*
X139266819Y-50674344D01*
X139252174Y-50638989D01*
X139216819Y-50624344D01*
X139181464Y-50638989D01*
X139166819Y-50674344D01*
X139166819Y-51100534D01*
X138216819Y-51100534D01*
X138181464Y-51115179D01*
X138166819Y-51150534D01*
X138023962Y-51150534D01*
X138023962Y-50341010D01*
X138166819Y-50341010D01*
X138181464Y-50376365D01*
X138216819Y-50391010D01*
X139216819Y-50391010D01*
X139252174Y-50376365D01*
X139266819Y-50341010D01*
X139252174Y-50305655D01*
X139216819Y-50291010D01*
X138216819Y-50291010D01*
X138181464Y-50305655D01*
X138166819Y-50341010D01*
X138023962Y-50341010D01*
X138023962Y-49864820D01*
X138166819Y-49864820D01*
X138171774Y-49876782D01*
X138173407Y-49889627D01*
X138178836Y-49893831D01*
X138181464Y-49900175D01*
X138193425Y-49905129D01*
X138203663Y-49913058D01*
X138210474Y-49912192D01*
X138216819Y-49914820D01*
X139216819Y-49914820D01*
X139252174Y-49900175D01*
X139266819Y-49864820D01*
X139252174Y-49829465D01*
X139216819Y-49814820D01*
X138405097Y-49814820D01*
X139241626Y-49336804D01*
X139245830Y-49331374D01*
X139252174Y-49328747D01*
X139257128Y-49316785D01*
X139265057Y-49306548D01*
X139264191Y-49299736D01*
X139266819Y-49293392D01*
X139261863Y-49281429D01*
X139260231Y-49268585D01*
X139254801Y-49264380D01*
X139252174Y-49258037D01*
X139240212Y-49253082D01*
X139229975Y-49245154D01*
X139223163Y-49246019D01*
X139216819Y-49243392D01*
X138216819Y-49243392D01*
X138181464Y-49258037D01*
X138166819Y-49293392D01*
X138181464Y-49328747D01*
X138216819Y-49343392D01*
X139028541Y-49343392D01*
X138192012Y-49821408D01*
X138187807Y-49826837D01*
X138181464Y-49829465D01*
X138176509Y-49841426D01*
X138168581Y-49851664D01*
X138169446Y-49858475D01*
X138166819Y-49864820D01*
X138023962Y-49864820D01*
X138023962Y-48817201D01*
X138166819Y-48817201D01*
X138181464Y-48852556D01*
X138216819Y-48867201D01*
X139216819Y-48867201D01*
X139252174Y-48852556D01*
X139266819Y-48817201D01*
X139252174Y-48781846D01*
X139216819Y-48767201D01*
X138808957Y-48767201D01*
X138721510Y-48679754D01*
X139246819Y-48285773D01*
X139266316Y-48252844D01*
X139256819Y-48215773D01*
X139223890Y-48196276D01*
X139186819Y-48205773D01*
X138650081Y-48608325D01*
X138252174Y-48210418D01*
X138216819Y-48195773D01*
X138181464Y-48210418D01*
X138166819Y-48245773D01*
X138181464Y-48281128D01*
X138667537Y-48767201D01*
X138216819Y-48767201D01*
X138181464Y-48781846D01*
X138166819Y-48817201D01*
X138023962Y-48817201D01*
X138023962Y-48052916D01*
X139409676Y-48052916D01*
X139409676Y-54343391D01*
G37*
X129857331Y-56748214D02*
X129607331Y-56391071D01*
X129428760Y-56748214D02*
X129428760Y-55998214D01*
X129428760Y-55998214D02*
X129714474Y-55998214D01*
X129714474Y-55998214D02*
X129785903Y-56033928D01*
X129785903Y-56033928D02*
X129821617Y-56069642D01*
X129821617Y-56069642D02*
X129857331Y-56141071D01*
X129857331Y-56141071D02*
X129857331Y-56248214D01*
X129857331Y-56248214D02*
X129821617Y-56319642D01*
X129821617Y-56319642D02*
X129785903Y-56355357D01*
X129785903Y-56355357D02*
X129714474Y-56391071D01*
X129714474Y-56391071D02*
X129428760Y-56391071D01*
X130143046Y-56712500D02*
X130250189Y-56748214D01*
X130250189Y-56748214D02*
X130428760Y-56748214D01*
X130428760Y-56748214D02*
X130500189Y-56712500D01*
X130500189Y-56712500D02*
X130535903Y-56676785D01*
X130535903Y-56676785D02*
X130571617Y-56605357D01*
X130571617Y-56605357D02*
X130571617Y-56533928D01*
X130571617Y-56533928D02*
X130535903Y-56462500D01*
X130535903Y-56462500D02*
X130500189Y-56426785D01*
X130500189Y-56426785D02*
X130428760Y-56391071D01*
X130428760Y-56391071D02*
X130285903Y-56355357D01*
X130285903Y-56355357D02*
X130214474Y-56319642D01*
X130214474Y-56319642D02*
X130178760Y-56283928D01*
X130178760Y-56283928D02*
X130143046Y-56212500D01*
X130143046Y-56212500D02*
X130143046Y-56141071D01*
X130143046Y-56141071D02*
X130178760Y-56069642D01*
X130178760Y-56069642D02*
X130214474Y-56033928D01*
X130214474Y-56033928D02*
X130285903Y-55998214D01*
X130285903Y-55998214D02*
X130464474Y-55998214D01*
X130464474Y-55998214D02*
X130571617Y-56033928D01*
X130785903Y-55998214D02*
X131214475Y-55998214D01*
X131000189Y-56748214D02*
X131000189Y-55998214D01*
X132049731Y-55947414D02*
X132514017Y-55947414D01*
X132514017Y-55947414D02*
X132264017Y-56233128D01*
X132264017Y-56233128D02*
X132371160Y-56233128D01*
X132371160Y-56233128D02*
X132442589Y-56268842D01*
X132442589Y-56268842D02*
X132478303Y-56304557D01*
X132478303Y-56304557D02*
X132514017Y-56375985D01*
X132514017Y-56375985D02*
X132514017Y-56554557D01*
X132514017Y-56554557D02*
X132478303Y-56625985D01*
X132478303Y-56625985D02*
X132442589Y-56661700D01*
X132442589Y-56661700D02*
X132371160Y-56697414D01*
X132371160Y-56697414D02*
X132156874Y-56697414D01*
X132156874Y-56697414D02*
X132085446Y-56661700D01*
X132085446Y-56661700D02*
X132049731Y-56625985D01*
X132835446Y-56625985D02*
X132871160Y-56661700D01*
X132871160Y-56661700D02*
X132835446Y-56697414D01*
X132835446Y-56697414D02*
X132799732Y-56661700D01*
X132799732Y-56661700D02*
X132835446Y-56625985D01*
X132835446Y-56625985D02*
X132835446Y-56697414D01*
X133121160Y-55947414D02*
X133585446Y-55947414D01*
X133585446Y-55947414D02*
X133335446Y-56233128D01*
X133335446Y-56233128D02*
X133442589Y-56233128D01*
X133442589Y-56233128D02*
X133514018Y-56268842D01*
X133514018Y-56268842D02*
X133549732Y-56304557D01*
X133549732Y-56304557D02*
X133585446Y-56375985D01*
X133585446Y-56375985D02*
X133585446Y-56554557D01*
X133585446Y-56554557D02*
X133549732Y-56625985D01*
X133549732Y-56625985D02*
X133514018Y-56661700D01*
X133514018Y-56661700D02*
X133442589Y-56697414D01*
X133442589Y-56697414D02*
X133228303Y-56697414D01*
X133228303Y-56697414D02*
X133156875Y-56661700D01*
X133156875Y-56661700D02*
X133121160Y-56625985D01*
X135343731Y-56473585D02*
X135308017Y-56509300D01*
X135308017Y-56509300D02*
X135200874Y-56545014D01*
X135200874Y-56545014D02*
X135129446Y-56545014D01*
X135129446Y-56545014D02*
X135022303Y-56509300D01*
X135022303Y-56509300D02*
X134950874Y-56437871D01*
X134950874Y-56437871D02*
X134915160Y-56366442D01*
X134915160Y-56366442D02*
X134879446Y-56223585D01*
X134879446Y-56223585D02*
X134879446Y-56116442D01*
X134879446Y-56116442D02*
X134915160Y-55973585D01*
X134915160Y-55973585D02*
X134950874Y-55902157D01*
X134950874Y-55902157D02*
X135022303Y-55830728D01*
X135022303Y-55830728D02*
X135129446Y-55795014D01*
X135129446Y-55795014D02*
X135200874Y-55795014D01*
X135200874Y-55795014D02*
X135308017Y-55830728D01*
X135308017Y-55830728D02*
X135343731Y-55866442D01*
X136022303Y-56545014D02*
X135665160Y-56545014D01*
X135665160Y-56545014D02*
X135665160Y-55795014D01*
X136272303Y-56545014D02*
X136272303Y-55795014D01*
X136700874Y-56545014D02*
X136379446Y-56116442D01*
X136700874Y-55795014D02*
X136272303Y-56223585D01*
X130135960Y-54831357D02*
X130243103Y-54867071D01*
X130243103Y-54867071D02*
X130278817Y-54902785D01*
X130278817Y-54902785D02*
X130314531Y-54974214D01*
X130314531Y-54974214D02*
X130314531Y-55081357D01*
X130314531Y-55081357D02*
X130278817Y-55152785D01*
X130278817Y-55152785D02*
X130243103Y-55188500D01*
X130243103Y-55188500D02*
X130171674Y-55224214D01*
X130171674Y-55224214D02*
X129885960Y-55224214D01*
X129885960Y-55224214D02*
X129885960Y-54474214D01*
X129885960Y-54474214D02*
X130135960Y-54474214D01*
X130135960Y-54474214D02*
X130207389Y-54509928D01*
X130207389Y-54509928D02*
X130243103Y-54545642D01*
X130243103Y-54545642D02*
X130278817Y-54617071D01*
X130278817Y-54617071D02*
X130278817Y-54688500D01*
X130278817Y-54688500D02*
X130243103Y-54759928D01*
X130243103Y-54759928D02*
X130207389Y-54795642D01*
X130207389Y-54795642D02*
X130135960Y-54831357D01*
X130135960Y-54831357D02*
X129885960Y-54831357D01*
X130778817Y-54474214D02*
X130850246Y-54474214D01*
X130850246Y-54474214D02*
X130921674Y-54509928D01*
X130921674Y-54509928D02*
X130957389Y-54545642D01*
X130957389Y-54545642D02*
X130993103Y-54617071D01*
X130993103Y-54617071D02*
X131028817Y-54759928D01*
X131028817Y-54759928D02*
X131028817Y-54938500D01*
X131028817Y-54938500D02*
X130993103Y-55081357D01*
X130993103Y-55081357D02*
X130957389Y-55152785D01*
X130957389Y-55152785D02*
X130921674Y-55188500D01*
X130921674Y-55188500D02*
X130850246Y-55224214D01*
X130850246Y-55224214D02*
X130778817Y-55224214D01*
X130778817Y-55224214D02*
X130707389Y-55188500D01*
X130707389Y-55188500D02*
X130671674Y-55152785D01*
X130671674Y-55152785D02*
X130635960Y-55081357D01*
X130635960Y-55081357D02*
X130600246Y-54938500D01*
X130600246Y-54938500D02*
X130600246Y-54759928D01*
X130600246Y-54759928D02*
X130635960Y-54617071D01*
X130635960Y-54617071D02*
X130671674Y-54545642D01*
X130671674Y-54545642D02*
X130707389Y-54509928D01*
X130707389Y-54509928D02*
X130778817Y-54474214D01*
X132463217Y-54459128D02*
X132391789Y-54423414D01*
X132391789Y-54423414D02*
X132284646Y-54423414D01*
X132284646Y-54423414D02*
X132177503Y-54459128D01*
X132177503Y-54459128D02*
X132106074Y-54530557D01*
X132106074Y-54530557D02*
X132070360Y-54601985D01*
X132070360Y-54601985D02*
X132034646Y-54744842D01*
X132034646Y-54744842D02*
X132034646Y-54851985D01*
X132034646Y-54851985D02*
X132070360Y-54994842D01*
X132070360Y-54994842D02*
X132106074Y-55066271D01*
X132106074Y-55066271D02*
X132177503Y-55137700D01*
X132177503Y-55137700D02*
X132284646Y-55173414D01*
X132284646Y-55173414D02*
X132356074Y-55173414D01*
X132356074Y-55173414D02*
X132463217Y-55137700D01*
X132463217Y-55137700D02*
X132498931Y-55101985D01*
X132498931Y-55101985D02*
X132498931Y-54851985D01*
X132498931Y-54851985D02*
X132356074Y-54851985D01*
X132820360Y-55173414D02*
X132820360Y-54423414D01*
X132820360Y-54423414D02*
X133248931Y-55173414D01*
X133248931Y-55173414D02*
X133248931Y-54423414D01*
X133606074Y-55173414D02*
X133606074Y-54423414D01*
X133606074Y-54423414D02*
X133784645Y-54423414D01*
X133784645Y-54423414D02*
X133891788Y-54459128D01*
X133891788Y-54459128D02*
X133963217Y-54530557D01*
X133963217Y-54530557D02*
X133998931Y-54601985D01*
X133998931Y-54601985D02*
X134034645Y-54744842D01*
X134034645Y-54744842D02*
X134034645Y-54851985D01*
X134034645Y-54851985D02*
X133998931Y-54994842D01*
X133998931Y-54994842D02*
X133963217Y-55066271D01*
X133963217Y-55066271D02*
X133891788Y-55137700D01*
X133891788Y-55137700D02*
X133784645Y-55173414D01*
X133784645Y-55173414D02*
X133606074Y-55173414D01*
X135067560Y-55173414D02*
X135067560Y-54423414D01*
X135067560Y-54423414D02*
X135246131Y-54423414D01*
X135246131Y-54423414D02*
X135353274Y-54459128D01*
X135353274Y-54459128D02*
X135424703Y-54530557D01*
X135424703Y-54530557D02*
X135460417Y-54601985D01*
X135460417Y-54601985D02*
X135496131Y-54744842D01*
X135496131Y-54744842D02*
X135496131Y-54851985D01*
X135496131Y-54851985D02*
X135460417Y-54994842D01*
X135460417Y-54994842D02*
X135424703Y-55066271D01*
X135424703Y-55066271D02*
X135353274Y-55137700D01*
X135353274Y-55137700D02*
X135246131Y-55173414D01*
X135246131Y-55173414D02*
X135067560Y-55173414D01*
X135817560Y-55173414D02*
X135817560Y-54423414D01*
X136317560Y-54423414D02*
X136460417Y-54423414D01*
X136460417Y-54423414D02*
X136531846Y-54459128D01*
X136531846Y-54459128D02*
X136603274Y-54530557D01*
X136603274Y-54530557D02*
X136638989Y-54673414D01*
X136638989Y-54673414D02*
X136638989Y-54923414D01*
X136638989Y-54923414D02*
X136603274Y-55066271D01*
X136603274Y-55066271D02*
X136531846Y-55137700D01*
X136531846Y-55137700D02*
X136460417Y-55173414D01*
X136460417Y-55173414D02*
X136317560Y-55173414D01*
X136317560Y-55173414D02*
X136246132Y-55137700D01*
X136246132Y-55137700D02*
X136174703Y-55066271D01*
X136174703Y-55066271D02*
X136138989Y-54923414D01*
X136138989Y-54923414D02*
X136138989Y-54673414D01*
X136138989Y-54673414D02*
X136174703Y-54530557D01*
X136174703Y-54530557D02*
X136246132Y-54459128D01*
X136246132Y-54459128D02*
X136317560Y-54423414D01*
D13*
X143633866Y-47714819D02*
X143633866Y-48429104D01*
X143633866Y-48429104D02*
X143586247Y-48571961D01*
X143586247Y-48571961D02*
X143491009Y-48667200D01*
X143491009Y-48667200D02*
X143348152Y-48714819D01*
X143348152Y-48714819D02*
X143252914Y-48714819D01*
X144538628Y-48048152D02*
X144538628Y-48714819D01*
X144300533Y-47667200D02*
X144062438Y-48381485D01*
X144062438Y-48381485D02*
X144681485Y-48381485D01*
X154512228Y-89172990D02*
X154988419Y-89172990D01*
X153988419Y-89506323D02*
X154512228Y-89172990D01*
X154512228Y-89172990D02*
X153988419Y-88839657D01*
X154988419Y-87982514D02*
X154988419Y-88553942D01*
X154988419Y-88268228D02*
X153988419Y-88268228D01*
X153988419Y-88268228D02*
X154131276Y-88363466D01*
X154131276Y-88363466D02*
X154226514Y-88458704D01*
X154226514Y-88458704D02*
X154274133Y-88553942D01*
X167790820Y-53162104D02*
X168600343Y-53162104D01*
X168600343Y-53162104D02*
X168695581Y-53114485D01*
X168695581Y-53114485D02*
X168743201Y-53066866D01*
X168743201Y-53066866D02*
X168790820Y-52971628D01*
X168790820Y-52971628D02*
X168790820Y-52781152D01*
X168790820Y-52781152D02*
X168743201Y-52685914D01*
X168743201Y-52685914D02*
X168695581Y-52638295D01*
X168695581Y-52638295D02*
X168600343Y-52590676D01*
X168600343Y-52590676D02*
X167790820Y-52590676D01*
X167886058Y-52162104D02*
X167838439Y-52114485D01*
X167838439Y-52114485D02*
X167790820Y-52019247D01*
X167790820Y-52019247D02*
X167790820Y-51781152D01*
X167790820Y-51781152D02*
X167838439Y-51685914D01*
X167838439Y-51685914D02*
X167886058Y-51638295D01*
X167886058Y-51638295D02*
X167981296Y-51590676D01*
X167981296Y-51590676D02*
X168076534Y-51590676D01*
X168076534Y-51590676D02*
X168219391Y-51638295D01*
X168219391Y-51638295D02*
X168790820Y-52209723D01*
X168790820Y-52209723D02*
X168790820Y-51590676D01*
X160684380Y-49290266D02*
X160732000Y-49337885D01*
X160732000Y-49337885D02*
X160779619Y-49480742D01*
X160779619Y-49480742D02*
X160779619Y-49575980D01*
X160779619Y-49575980D02*
X160732000Y-49718837D01*
X160732000Y-49718837D02*
X160636761Y-49814075D01*
X160636761Y-49814075D02*
X160541523Y-49861694D01*
X160541523Y-49861694D02*
X160351047Y-49909313D01*
X160351047Y-49909313D02*
X160208190Y-49909313D01*
X160208190Y-49909313D02*
X160017714Y-49861694D01*
X160017714Y-49861694D02*
X159922476Y-49814075D01*
X159922476Y-49814075D02*
X159827238Y-49718837D01*
X159827238Y-49718837D02*
X159779619Y-49575980D01*
X159779619Y-49575980D02*
X159779619Y-49480742D01*
X159779619Y-49480742D02*
X159827238Y-49337885D01*
X159827238Y-49337885D02*
X159874857Y-49290266D01*
X159779619Y-48956932D02*
X159779619Y-48337885D01*
X159779619Y-48337885D02*
X160160571Y-48671218D01*
X160160571Y-48671218D02*
X160160571Y-48528361D01*
X160160571Y-48528361D02*
X160208190Y-48433123D01*
X160208190Y-48433123D02*
X160255809Y-48385504D01*
X160255809Y-48385504D02*
X160351047Y-48337885D01*
X160351047Y-48337885D02*
X160589142Y-48337885D01*
X160589142Y-48337885D02*
X160684380Y-48385504D01*
X160684380Y-48385504D02*
X160732000Y-48433123D01*
X160732000Y-48433123D02*
X160779619Y-48528361D01*
X160779619Y-48528361D02*
X160779619Y-48814075D01*
X160779619Y-48814075D02*
X160732000Y-48909313D01*
X160732000Y-48909313D02*
X160684380Y-48956932D01*
X136649619Y-86444057D02*
X136173428Y-86777390D01*
X136649619Y-87015485D02*
X135649619Y-87015485D01*
X135649619Y-87015485D02*
X135649619Y-86634533D01*
X135649619Y-86634533D02*
X135697238Y-86539295D01*
X135697238Y-86539295D02*
X135744857Y-86491676D01*
X135744857Y-86491676D02*
X135840095Y-86444057D01*
X135840095Y-86444057D02*
X135982952Y-86444057D01*
X135982952Y-86444057D02*
X136078190Y-86491676D01*
X136078190Y-86491676D02*
X136125809Y-86539295D01*
X136125809Y-86539295D02*
X136173428Y-86634533D01*
X136173428Y-86634533D02*
X136173428Y-87015485D01*
X135744857Y-86063104D02*
X135697238Y-86015485D01*
X135697238Y-86015485D02*
X135649619Y-85920247D01*
X135649619Y-85920247D02*
X135649619Y-85682152D01*
X135649619Y-85682152D02*
X135697238Y-85586914D01*
X135697238Y-85586914D02*
X135744857Y-85539295D01*
X135744857Y-85539295D02*
X135840095Y-85491676D01*
X135840095Y-85491676D02*
X135935333Y-85491676D01*
X135935333Y-85491676D02*
X136078190Y-85539295D01*
X136078190Y-85539295D02*
X136649619Y-86110723D01*
X136649619Y-86110723D02*
X136649619Y-85491676D01*
X136649619Y-84539295D02*
X136649619Y-85110723D01*
X136649619Y-84825009D02*
X135649619Y-84825009D01*
X135649619Y-84825009D02*
X135792476Y-84920247D01*
X135792476Y-84920247D02*
X135887714Y-85015485D01*
X135887714Y-85015485D02*
X135935333Y-85110723D01*
X136700419Y-82532457D02*
X136224228Y-82865790D01*
X136700419Y-83103885D02*
X135700419Y-83103885D01*
X135700419Y-83103885D02*
X135700419Y-82722933D01*
X135700419Y-82722933D02*
X135748038Y-82627695D01*
X135748038Y-82627695D02*
X135795657Y-82580076D01*
X135795657Y-82580076D02*
X135890895Y-82532457D01*
X135890895Y-82532457D02*
X136033752Y-82532457D01*
X136033752Y-82532457D02*
X136128990Y-82580076D01*
X136128990Y-82580076D02*
X136176609Y-82627695D01*
X136176609Y-82627695D02*
X136224228Y-82722933D01*
X136224228Y-82722933D02*
X136224228Y-83103885D01*
X135795657Y-82151504D02*
X135748038Y-82103885D01*
X135748038Y-82103885D02*
X135700419Y-82008647D01*
X135700419Y-82008647D02*
X135700419Y-81770552D01*
X135700419Y-81770552D02*
X135748038Y-81675314D01*
X135748038Y-81675314D02*
X135795657Y-81627695D01*
X135795657Y-81627695D02*
X135890895Y-81580076D01*
X135890895Y-81580076D02*
X135986133Y-81580076D01*
X135986133Y-81580076D02*
X136128990Y-81627695D01*
X136128990Y-81627695D02*
X136700419Y-82199123D01*
X136700419Y-82199123D02*
X136700419Y-81580076D01*
X135700419Y-80961028D02*
X135700419Y-80865790D01*
X135700419Y-80865790D02*
X135748038Y-80770552D01*
X135748038Y-80770552D02*
X135795657Y-80722933D01*
X135795657Y-80722933D02*
X135890895Y-80675314D01*
X135890895Y-80675314D02*
X136081371Y-80627695D01*
X136081371Y-80627695D02*
X136319466Y-80627695D01*
X136319466Y-80627695D02*
X136509942Y-80675314D01*
X136509942Y-80675314D02*
X136605180Y-80722933D01*
X136605180Y-80722933D02*
X136652800Y-80770552D01*
X136652800Y-80770552D02*
X136700419Y-80865790D01*
X136700419Y-80865790D02*
X136700419Y-80961028D01*
X136700419Y-80961028D02*
X136652800Y-81056266D01*
X136652800Y-81056266D02*
X136605180Y-81103885D01*
X136605180Y-81103885D02*
X136509942Y-81151504D01*
X136509942Y-81151504D02*
X136319466Y-81199123D01*
X136319466Y-81199123D02*
X136081371Y-81199123D01*
X136081371Y-81199123D02*
X135890895Y-81151504D01*
X135890895Y-81151504D02*
X135795657Y-81103885D01*
X135795657Y-81103885D02*
X135748038Y-81056266D01*
X135748038Y-81056266D02*
X135700419Y-80961028D01*
X145555619Y-74574304D02*
X146365142Y-74574304D01*
X146365142Y-74574304D02*
X146460380Y-74526685D01*
X146460380Y-74526685D02*
X146508000Y-74479066D01*
X146508000Y-74479066D02*
X146555619Y-74383828D01*
X146555619Y-74383828D02*
X146555619Y-74193352D01*
X146555619Y-74193352D02*
X146508000Y-74098114D01*
X146508000Y-74098114D02*
X146460380Y-74050495D01*
X146460380Y-74050495D02*
X146365142Y-74002876D01*
X146365142Y-74002876D02*
X145555619Y-74002876D01*
X146555619Y-73002876D02*
X146555619Y-73574304D01*
X146555619Y-73288590D02*
X145555619Y-73288590D01*
X145555619Y-73288590D02*
X145698476Y-73383828D01*
X145698476Y-73383828D02*
X145793714Y-73479066D01*
X145793714Y-73479066D02*
X145841333Y-73574304D01*
X167066933Y-63853219D02*
X166590743Y-63853219D01*
X166590743Y-63853219D02*
X166590743Y-62853219D01*
X167924076Y-63853219D02*
X167352648Y-63853219D01*
X167638362Y-63853219D02*
X167638362Y-62853219D01*
X167638362Y-62853219D02*
X167543124Y-62996076D01*
X167543124Y-62996076D02*
X167447886Y-63091314D01*
X167447886Y-63091314D02*
X167352648Y-63138933D01*
G36*
X134379307Y-109379461D02*
G01*
X133265021Y-109379461D01*
X133265021Y-108899718D01*
X133373303Y-108899718D01*
X133382212Y-108950242D01*
X133421512Y-108983219D01*
X133447164Y-108987742D01*
X133970708Y-108987742D01*
X134049507Y-109014008D01*
X134095898Y-109060399D01*
X134122164Y-109139197D01*
X134122164Y-109198457D01*
X134139711Y-109246666D01*
X134184140Y-109272318D01*
X134234664Y-109263409D01*
X134267641Y-109224109D01*
X134272164Y-109198457D01*
X134272164Y-109127028D01*
X134271603Y-109125489D01*
X134268315Y-109103312D01*
X134232601Y-108996168D01*
X134229813Y-108992656D01*
X134229423Y-108988188D01*
X134214483Y-108966852D01*
X134143054Y-108895424D01*
X134138991Y-108893529D01*
X134136644Y-108889709D01*
X134113739Y-108877306D01*
X134006595Y-108841591D01*
X134004960Y-108841635D01*
X133982878Y-108837742D01*
X133447164Y-108837742D01*
X133398955Y-108855289D01*
X133373303Y-108899718D01*
X133265021Y-108899718D01*
X133265021Y-108372201D01*
X133372319Y-108372201D01*
X133378432Y-108393092D01*
X133382212Y-108414528D01*
X133385515Y-108417300D01*
X133386727Y-108421439D01*
X133405562Y-108439432D01*
X133506526Y-108506741D01*
X133564095Y-108564311D01*
X133594368Y-108624854D01*
X133631623Y-108660126D01*
X133682833Y-108663200D01*
X133724039Y-108632636D01*
X133735958Y-108582737D01*
X133728531Y-108557771D01*
X133692817Y-108486343D01*
X133691628Y-108485217D01*
X133678768Y-108466852D01*
X133663944Y-108452028D01*
X134122164Y-108452028D01*
X134122164Y-108591313D01*
X134139711Y-108639522D01*
X134184140Y-108665174D01*
X134234664Y-108656265D01*
X134267641Y-108616965D01*
X134272164Y-108591313D01*
X134272164Y-108162742D01*
X134254617Y-108114533D01*
X134210188Y-108088881D01*
X134159664Y-108097790D01*
X134126687Y-108137090D01*
X134122164Y-108162742D01*
X134122164Y-108302028D01*
X133447164Y-108302028D01*
X133443110Y-108303503D01*
X133438921Y-108302483D01*
X133419408Y-108312130D01*
X133398955Y-108319575D01*
X133396799Y-108323309D01*
X133392932Y-108325221D01*
X133384185Y-108345155D01*
X133373303Y-108364004D01*
X133374051Y-108368251D01*
X133372319Y-108372201D01*
X133265021Y-108372201D01*
X133265021Y-107912742D01*
X133372164Y-107912742D01*
X133389711Y-107960951D01*
X133434140Y-107986603D01*
X133484664Y-107977694D01*
X133517641Y-107938394D01*
X133522164Y-107912742D01*
X133522164Y-107526482D01*
X134167620Y-107803106D01*
X134218843Y-107805968D01*
X134259922Y-107775236D01*
X134271636Y-107725288D01*
X134248504Y-107679496D01*
X134226707Y-107665234D01*
X133476708Y-107343806D01*
X133467862Y-107343311D01*
X133460188Y-107338881D01*
X133442953Y-107341920D01*
X133425485Y-107340944D01*
X133418390Y-107346251D01*
X133409664Y-107347790D01*
X133398416Y-107361193D01*
X133384405Y-107371676D01*
X133382381Y-107380303D01*
X133376687Y-107387090D01*
X133372164Y-107412742D01*
X133372164Y-107912742D01*
X133265021Y-107912742D01*
X133265021Y-107231738D01*
X134379307Y-107231738D01*
X134379307Y-109379461D01*
G37*
G36*
X142455476Y-65008793D02*
G01*
X141019762Y-65008793D01*
X141019762Y-64398099D01*
X141163758Y-64398099D01*
X141172667Y-64448623D01*
X141211967Y-64481600D01*
X141237619Y-64486123D01*
X141939734Y-64486123D01*
X142054247Y-64524294D01*
X142124448Y-64594494D01*
X142162619Y-64709007D01*
X142162619Y-64792075D01*
X142180166Y-64840284D01*
X142224595Y-64865936D01*
X142275119Y-64857027D01*
X142308096Y-64817727D01*
X142312619Y-64792075D01*
X142312619Y-64696837D01*
X142312059Y-64695299D01*
X142308770Y-64673119D01*
X142261151Y-64530263D01*
X142258364Y-64526752D01*
X142257974Y-64522284D01*
X142243033Y-64500947D01*
X142147794Y-64405709D01*
X142143730Y-64403814D01*
X142141383Y-64399993D01*
X142118478Y-64387591D01*
X141975621Y-64339972D01*
X141973986Y-64340016D01*
X141951904Y-64336123D01*
X141237619Y-64336123D01*
X141189410Y-64353670D01*
X141163758Y-64398099D01*
X141019762Y-64398099D01*
X141019762Y-63839694D01*
X141162619Y-63839694D01*
X141164152Y-63843907D01*
X141163111Y-63848268D01*
X141170537Y-63873235D01*
X141218156Y-63968473D01*
X141219345Y-63969598D01*
X141232205Y-63987965D01*
X141279824Y-64035584D01*
X141326320Y-64057265D01*
X141375875Y-64043988D01*
X141405301Y-64001962D01*
X141400830Y-63950855D01*
X141385890Y-63929518D01*
X141346877Y-63890505D01*
X141312619Y-63821989D01*
X141312619Y-63619304D01*
X141346877Y-63550788D01*
X141377284Y-63520381D01*
X141445800Y-63486123D01*
X141511163Y-63486123D01*
X141625676Y-63524294D01*
X142184586Y-64083203D01*
X142205039Y-64092740D01*
X142224595Y-64104031D01*
X142227975Y-64103434D01*
X142231083Y-64104884D01*
X142252885Y-64099042D01*
X142275119Y-64095122D01*
X142277323Y-64092494D01*
X142280637Y-64091607D01*
X142293585Y-64073115D01*
X142308096Y-64055822D01*
X142308904Y-64051237D01*
X142310064Y-64049581D01*
X142309776Y-64046292D01*
X142312619Y-64030170D01*
X142312619Y-63411123D01*
X142295072Y-63362914D01*
X142250643Y-63337262D01*
X142200119Y-63346171D01*
X142167142Y-63385471D01*
X142162619Y-63411123D01*
X142162619Y-63849104D01*
X141719223Y-63405709D01*
X141715159Y-63403814D01*
X141712812Y-63399993D01*
X141689907Y-63387591D01*
X141547050Y-63339972D01*
X141545415Y-63340016D01*
X141523333Y-63336123D01*
X141428095Y-63336123D01*
X141423881Y-63337656D01*
X141419520Y-63336615D01*
X141394554Y-63344041D01*
X141299316Y-63391660D01*
X141298190Y-63392849D01*
X141279824Y-63405709D01*
X141232205Y-63453328D01*
X141231514Y-63454809D01*
X141218156Y-63472820D01*
X141170537Y-63568058D01*
X141170024Y-63572511D01*
X141167142Y-63575947D01*
X141162619Y-63601599D01*
X141162619Y-63839694D01*
X141019762Y-63839694D01*
X141019762Y-62739629D01*
X141162774Y-62739629D01*
X141168887Y-62760520D01*
X141172667Y-62781956D01*
X141175970Y-62784728D01*
X141177182Y-62788867D01*
X141196016Y-62806860D01*
X141332694Y-62897978D01*
X141414075Y-62979359D01*
X141456251Y-63063711D01*
X141493505Y-63098983D01*
X141544715Y-63102058D01*
X141585921Y-63071494D01*
X141597841Y-63021595D01*
X141590415Y-62996629D01*
X141542796Y-62901391D01*
X141541609Y-62900267D01*
X141528747Y-62881899D01*
X141466304Y-62819456D01*
X142162619Y-62819456D01*
X142162619Y-63030170D01*
X142180166Y-63078379D01*
X142224595Y-63104031D01*
X142275119Y-63095122D01*
X142308096Y-63055822D01*
X142312619Y-63030170D01*
X142312619Y-62458742D01*
X142295072Y-62410533D01*
X142250643Y-62384881D01*
X142200119Y-62393790D01*
X142167142Y-62433090D01*
X142162619Y-62458742D01*
X142162619Y-62669456D01*
X141237619Y-62669456D01*
X141233565Y-62670931D01*
X141229376Y-62669911D01*
X141209863Y-62679558D01*
X141189410Y-62687003D01*
X141187254Y-62690737D01*
X141183387Y-62692649D01*
X141174640Y-62712583D01*
X141163758Y-62731432D01*
X141164506Y-62735679D01*
X141162774Y-62739629D01*
X141019762Y-62739629D01*
X141019762Y-62242024D01*
X142455476Y-62242024D01*
X142455476Y-65008793D01*
G37*
X166672419Y-97670857D02*
X166196228Y-98004190D01*
X166672419Y-98242285D02*
X165672419Y-98242285D01*
X165672419Y-98242285D02*
X165672419Y-97861333D01*
X165672419Y-97861333D02*
X165720038Y-97766095D01*
X165720038Y-97766095D02*
X165767657Y-97718476D01*
X165767657Y-97718476D02*
X165862895Y-97670857D01*
X165862895Y-97670857D02*
X166005752Y-97670857D01*
X166005752Y-97670857D02*
X166100990Y-97718476D01*
X166100990Y-97718476D02*
X166148609Y-97766095D01*
X166148609Y-97766095D02*
X166196228Y-97861333D01*
X166196228Y-97861333D02*
X166196228Y-98242285D01*
X166672419Y-96718476D02*
X166672419Y-97289904D01*
X166672419Y-97004190D02*
X165672419Y-97004190D01*
X165672419Y-97004190D02*
X165815276Y-97099428D01*
X165815276Y-97099428D02*
X165910514Y-97194666D01*
X165910514Y-97194666D02*
X165958133Y-97289904D01*
X165672419Y-96099428D02*
X165672419Y-96004190D01*
X165672419Y-96004190D02*
X165720038Y-95908952D01*
X165720038Y-95908952D02*
X165767657Y-95861333D01*
X165767657Y-95861333D02*
X165862895Y-95813714D01*
X165862895Y-95813714D02*
X166053371Y-95766095D01*
X166053371Y-95766095D02*
X166291466Y-95766095D01*
X166291466Y-95766095D02*
X166481942Y-95813714D01*
X166481942Y-95813714D02*
X166577180Y-95861333D01*
X166577180Y-95861333D02*
X166624800Y-95908952D01*
X166624800Y-95908952D02*
X166672419Y-96004190D01*
X166672419Y-96004190D02*
X166672419Y-96099428D01*
X166672419Y-96099428D02*
X166624800Y-96194666D01*
X166624800Y-96194666D02*
X166577180Y-96242285D01*
X166577180Y-96242285D02*
X166481942Y-96289904D01*
X166481942Y-96289904D02*
X166291466Y-96337523D01*
X166291466Y-96337523D02*
X166053371Y-96337523D01*
X166053371Y-96337523D02*
X165862895Y-96289904D01*
X165862895Y-96289904D02*
X165767657Y-96242285D01*
X165767657Y-96242285D02*
X165720038Y-96194666D01*
X165720038Y-96194666D02*
X165672419Y-96099428D01*
G36*
X146022486Y-96431707D02*
G01*
X143909338Y-96431707D01*
X143909338Y-96236540D01*
X144016481Y-96236540D01*
X144025390Y-96287064D01*
X144064690Y-96320041D01*
X144090342Y-96324564D01*
X144161771Y-96324564D01*
X144163309Y-96324003D01*
X144185488Y-96320715D01*
X144292631Y-96285001D01*
X144296143Y-96282213D01*
X144300611Y-96281823D01*
X144321947Y-96266883D01*
X144352290Y-96236540D01*
X144623625Y-96236540D01*
X144632534Y-96287064D01*
X144671834Y-96320041D01*
X144697486Y-96324564D01*
X145126057Y-96324564D01*
X145174266Y-96307017D01*
X145199918Y-96262588D01*
X145196469Y-96243028D01*
X145301343Y-96243028D01*
X145307184Y-96264830D01*
X145311105Y-96287064D01*
X145313732Y-96289268D01*
X145314620Y-96292582D01*
X145333111Y-96305530D01*
X145350405Y-96320041D01*
X145354989Y-96320849D01*
X145356646Y-96322009D01*
X145359934Y-96321721D01*
X145376057Y-96324564D01*
X145840343Y-96324564D01*
X145888552Y-96307017D01*
X145914204Y-96262588D01*
X145905295Y-96212064D01*
X145865995Y-96179087D01*
X145840343Y-96174564D01*
X145557123Y-96174564D01*
X145857662Y-95874025D01*
X145859557Y-95869960D01*
X145863377Y-95867614D01*
X145875780Y-95844709D01*
X145911494Y-95737567D01*
X145911449Y-95735932D01*
X145915343Y-95713850D01*
X145915343Y-95642421D01*
X145913809Y-95638208D01*
X145914852Y-95633847D01*
X145907425Y-95608881D01*
X145871711Y-95537451D01*
X145870521Y-95536325D01*
X145857662Y-95517959D01*
X145821948Y-95482245D01*
X145820466Y-95481554D01*
X145802456Y-95468196D01*
X145731027Y-95432482D01*
X145726573Y-95431969D01*
X145723138Y-95429087D01*
X145697486Y-95424564D01*
X145518915Y-95424564D01*
X145514702Y-95426097D01*
X145510341Y-95425055D01*
X145485375Y-95432482D01*
X145413945Y-95468196D01*
X145412819Y-95469385D01*
X145394453Y-95482245D01*
X145358739Y-95517959D01*
X145337058Y-95564456D01*
X145350335Y-95614010D01*
X145392361Y-95643437D01*
X145443468Y-95638965D01*
X145464805Y-95624025D01*
X145491912Y-95596917D01*
X145536620Y-95574564D01*
X145679781Y-95574564D01*
X145724487Y-95596916D01*
X145742989Y-95615418D01*
X145765343Y-95660125D01*
X145765343Y-95701680D01*
X145739077Y-95780478D01*
X145323024Y-96196531D01*
X145313486Y-96216984D01*
X145302196Y-96236540D01*
X145302792Y-96239920D01*
X145301343Y-96243028D01*
X145196469Y-96243028D01*
X145191009Y-96212064D01*
X145151709Y-96179087D01*
X145126057Y-96174564D01*
X144986771Y-96174564D01*
X144986771Y-95499564D01*
X144985295Y-95495510D01*
X144986316Y-95491321D01*
X144976669Y-95471810D01*
X144969224Y-95451355D01*
X144965489Y-95449198D01*
X144963578Y-95445333D01*
X144943651Y-95436590D01*
X144924795Y-95425703D01*
X144920545Y-95426452D01*
X144916597Y-95424720D01*
X144895709Y-95430831D01*
X144874271Y-95434612D01*
X144871498Y-95437915D01*
X144867359Y-95439127D01*
X144849367Y-95457962D01*
X144782059Y-95558924D01*
X144724486Y-95616496D01*
X144663944Y-95646768D01*
X144628672Y-95684023D01*
X144625598Y-95735233D01*
X144656162Y-95776439D01*
X144706061Y-95788358D01*
X144731028Y-95780932D01*
X144802455Y-95745217D01*
X144803578Y-95744030D01*
X144821947Y-95731168D01*
X144836771Y-95716344D01*
X144836771Y-96174564D01*
X144697486Y-96174564D01*
X144649277Y-96192111D01*
X144623625Y-96236540D01*
X144352290Y-96236540D01*
X144393375Y-96195454D01*
X144395269Y-96191391D01*
X144399090Y-96189044D01*
X144411493Y-96166138D01*
X144447208Y-96058995D01*
X144447163Y-96057360D01*
X144451057Y-96035278D01*
X144451057Y-95499564D01*
X144433510Y-95451355D01*
X144389081Y-95425703D01*
X144338557Y-95434612D01*
X144305580Y-95473912D01*
X144301057Y-95499564D01*
X144301057Y-96023106D01*
X144274789Y-96101907D01*
X144228399Y-96148298D01*
X144149601Y-96174564D01*
X144090342Y-96174564D01*
X144042133Y-96192111D01*
X144016481Y-96236540D01*
X143909338Y-96236540D01*
X143909338Y-95317421D01*
X146022486Y-95317421D01*
X146022486Y-96431707D01*
G37*
X140060819Y-63482457D02*
X139584628Y-63815790D01*
X140060819Y-64053885D02*
X139060819Y-64053885D01*
X139060819Y-64053885D02*
X139060819Y-63672933D01*
X139060819Y-63672933D02*
X139108438Y-63577695D01*
X139108438Y-63577695D02*
X139156057Y-63530076D01*
X139156057Y-63530076D02*
X139251295Y-63482457D01*
X139251295Y-63482457D02*
X139394152Y-63482457D01*
X139394152Y-63482457D02*
X139489390Y-63530076D01*
X139489390Y-63530076D02*
X139537009Y-63577695D01*
X139537009Y-63577695D02*
X139584628Y-63672933D01*
X139584628Y-63672933D02*
X139584628Y-64053885D01*
X140060819Y-62530076D02*
X140060819Y-63101504D01*
X140060819Y-62815790D02*
X139060819Y-62815790D01*
X139060819Y-62815790D02*
X139203676Y-62911028D01*
X139203676Y-62911028D02*
X139298914Y-63006266D01*
X139298914Y-63006266D02*
X139346533Y-63101504D01*
X139060819Y-62196742D02*
X139060819Y-61530076D01*
X139060819Y-61530076D02*
X140060819Y-61958647D01*
X134575561Y-60494057D02*
X134480323Y-60446438D01*
X134480323Y-60446438D02*
X134385085Y-60351200D01*
X134385085Y-60351200D02*
X134242228Y-60208342D01*
X134242228Y-60208342D02*
X134146990Y-60160723D01*
X134146990Y-60160723D02*
X134051752Y-60160723D01*
X134099371Y-60398819D02*
X134004133Y-60351200D01*
X134004133Y-60351200D02*
X133908895Y-60255961D01*
X133908895Y-60255961D02*
X133861276Y-60065485D01*
X133861276Y-60065485D02*
X133861276Y-59732152D01*
X133861276Y-59732152D02*
X133908895Y-59541676D01*
X133908895Y-59541676D02*
X134004133Y-59446438D01*
X134004133Y-59446438D02*
X134099371Y-59398819D01*
X134099371Y-59398819D02*
X134289847Y-59398819D01*
X134289847Y-59398819D02*
X134385085Y-59446438D01*
X134385085Y-59446438D02*
X134480323Y-59541676D01*
X134480323Y-59541676D02*
X134527942Y-59732152D01*
X134527942Y-59732152D02*
X134527942Y-60065485D01*
X134527942Y-60065485D02*
X134480323Y-60255961D01*
X134480323Y-60255961D02*
X134385085Y-60351200D01*
X134385085Y-60351200D02*
X134289847Y-60398819D01*
X134289847Y-60398819D02*
X134099371Y-60398819D01*
X134908895Y-59494057D02*
X134956514Y-59446438D01*
X134956514Y-59446438D02*
X135051752Y-59398819D01*
X135051752Y-59398819D02*
X135289847Y-59398819D01*
X135289847Y-59398819D02*
X135385085Y-59446438D01*
X135385085Y-59446438D02*
X135432704Y-59494057D01*
X135432704Y-59494057D02*
X135480323Y-59589295D01*
X135480323Y-59589295D02*
X135480323Y-59684533D01*
X135480323Y-59684533D02*
X135432704Y-59827390D01*
X135432704Y-59827390D02*
X134861276Y-60398819D01*
X134861276Y-60398819D02*
X135480323Y-60398819D01*
X166824819Y-86444057D02*
X166348628Y-86777390D01*
X166824819Y-87015485D02*
X165824819Y-87015485D01*
X165824819Y-87015485D02*
X165824819Y-86634533D01*
X165824819Y-86634533D02*
X165872438Y-86539295D01*
X165872438Y-86539295D02*
X165920057Y-86491676D01*
X165920057Y-86491676D02*
X166015295Y-86444057D01*
X166015295Y-86444057D02*
X166158152Y-86444057D01*
X166158152Y-86444057D02*
X166253390Y-86491676D01*
X166253390Y-86491676D02*
X166301009Y-86539295D01*
X166301009Y-86539295D02*
X166348628Y-86634533D01*
X166348628Y-86634533D02*
X166348628Y-87015485D01*
X166824819Y-85491676D02*
X166824819Y-86063104D01*
X166824819Y-85777390D02*
X165824819Y-85777390D01*
X165824819Y-85777390D02*
X165967676Y-85872628D01*
X165967676Y-85872628D02*
X166062914Y-85967866D01*
X166062914Y-85967866D02*
X166110533Y-86063104D01*
X165920057Y-85110723D02*
X165872438Y-85063104D01*
X165872438Y-85063104D02*
X165824819Y-84967866D01*
X165824819Y-84967866D02*
X165824819Y-84729771D01*
X165824819Y-84729771D02*
X165872438Y-84634533D01*
X165872438Y-84634533D02*
X165920057Y-84586914D01*
X165920057Y-84586914D02*
X166015295Y-84539295D01*
X166015295Y-84539295D02*
X166110533Y-84539295D01*
X166110533Y-84539295D02*
X166253390Y-84586914D01*
X166253390Y-84586914D02*
X166824819Y-85158342D01*
X166824819Y-85158342D02*
X166824819Y-84539295D01*
X152823942Y-63040419D02*
X152490609Y-62564228D01*
X152252514Y-63040419D02*
X152252514Y-62040419D01*
X152252514Y-62040419D02*
X152633466Y-62040419D01*
X152633466Y-62040419D02*
X152728704Y-62088038D01*
X152728704Y-62088038D02*
X152776323Y-62135657D01*
X152776323Y-62135657D02*
X152823942Y-62230895D01*
X152823942Y-62230895D02*
X152823942Y-62373752D01*
X152823942Y-62373752D02*
X152776323Y-62468990D01*
X152776323Y-62468990D02*
X152728704Y-62516609D01*
X152728704Y-62516609D02*
X152633466Y-62564228D01*
X152633466Y-62564228D02*
X152252514Y-62564228D01*
X153776323Y-63040419D02*
X153204895Y-63040419D01*
X153490609Y-63040419D02*
X153490609Y-62040419D01*
X153490609Y-62040419D02*
X153395371Y-62183276D01*
X153395371Y-62183276D02*
X153300133Y-62278514D01*
X153300133Y-62278514D02*
X153204895Y-62326133D01*
X154347752Y-62468990D02*
X154252514Y-62421371D01*
X154252514Y-62421371D02*
X154204895Y-62373752D01*
X154204895Y-62373752D02*
X154157276Y-62278514D01*
X154157276Y-62278514D02*
X154157276Y-62230895D01*
X154157276Y-62230895D02*
X154204895Y-62135657D01*
X154204895Y-62135657D02*
X154252514Y-62088038D01*
X154252514Y-62088038D02*
X154347752Y-62040419D01*
X154347752Y-62040419D02*
X154538228Y-62040419D01*
X154538228Y-62040419D02*
X154633466Y-62088038D01*
X154633466Y-62088038D02*
X154681085Y-62135657D01*
X154681085Y-62135657D02*
X154728704Y-62230895D01*
X154728704Y-62230895D02*
X154728704Y-62278514D01*
X154728704Y-62278514D02*
X154681085Y-62373752D01*
X154681085Y-62373752D02*
X154633466Y-62421371D01*
X154633466Y-62421371D02*
X154538228Y-62468990D01*
X154538228Y-62468990D02*
X154347752Y-62468990D01*
X154347752Y-62468990D02*
X154252514Y-62516609D01*
X154252514Y-62516609D02*
X154204895Y-62564228D01*
X154204895Y-62564228D02*
X154157276Y-62659466D01*
X154157276Y-62659466D02*
X154157276Y-62849942D01*
X154157276Y-62849942D02*
X154204895Y-62945180D01*
X154204895Y-62945180D02*
X154252514Y-62992800D01*
X154252514Y-62992800D02*
X154347752Y-63040419D01*
X154347752Y-63040419D02*
X154538228Y-63040419D01*
X154538228Y-63040419D02*
X154633466Y-62992800D01*
X154633466Y-62992800D02*
X154681085Y-62945180D01*
X154681085Y-62945180D02*
X154728704Y-62849942D01*
X154728704Y-62849942D02*
X154728704Y-62659466D01*
X154728704Y-62659466D02*
X154681085Y-62564228D01*
X154681085Y-62564228D02*
X154633466Y-62516609D01*
X154633466Y-62516609D02*
X154538228Y-62468990D01*
X154429619Y-57367466D02*
X153953428Y-57700799D01*
X154429619Y-57938894D02*
X153429619Y-57938894D01*
X153429619Y-57938894D02*
X153429619Y-57557942D01*
X153429619Y-57557942D02*
X153477238Y-57462704D01*
X153477238Y-57462704D02*
X153524857Y-57415085D01*
X153524857Y-57415085D02*
X153620095Y-57367466D01*
X153620095Y-57367466D02*
X153762952Y-57367466D01*
X153762952Y-57367466D02*
X153858190Y-57415085D01*
X153858190Y-57415085D02*
X153905809Y-57462704D01*
X153905809Y-57462704D02*
X153953428Y-57557942D01*
X153953428Y-57557942D02*
X153953428Y-57938894D01*
X153762952Y-56510323D02*
X154429619Y-56510323D01*
X153382000Y-56748418D02*
X154096285Y-56986513D01*
X154096285Y-56986513D02*
X154096285Y-56367466D01*
X150252133Y-67364780D02*
X150204514Y-67412400D01*
X150204514Y-67412400D02*
X150061657Y-67460019D01*
X150061657Y-67460019D02*
X149966419Y-67460019D01*
X149966419Y-67460019D02*
X149823562Y-67412400D01*
X149823562Y-67412400D02*
X149728324Y-67317161D01*
X149728324Y-67317161D02*
X149680705Y-67221923D01*
X149680705Y-67221923D02*
X149633086Y-67031447D01*
X149633086Y-67031447D02*
X149633086Y-66888590D01*
X149633086Y-66888590D02*
X149680705Y-66698114D01*
X149680705Y-66698114D02*
X149728324Y-66602876D01*
X149728324Y-66602876D02*
X149823562Y-66507638D01*
X149823562Y-66507638D02*
X149966419Y-66460019D01*
X149966419Y-66460019D02*
X150061657Y-66460019D01*
X150061657Y-66460019D02*
X150204514Y-66507638D01*
X150204514Y-66507638D02*
X150252133Y-66555257D01*
X150823562Y-66888590D02*
X150728324Y-66840971D01*
X150728324Y-66840971D02*
X150680705Y-66793352D01*
X150680705Y-66793352D02*
X150633086Y-66698114D01*
X150633086Y-66698114D02*
X150633086Y-66650495D01*
X150633086Y-66650495D02*
X150680705Y-66555257D01*
X150680705Y-66555257D02*
X150728324Y-66507638D01*
X150728324Y-66507638D02*
X150823562Y-66460019D01*
X150823562Y-66460019D02*
X151014038Y-66460019D01*
X151014038Y-66460019D02*
X151109276Y-66507638D01*
X151109276Y-66507638D02*
X151156895Y-66555257D01*
X151156895Y-66555257D02*
X151204514Y-66650495D01*
X151204514Y-66650495D02*
X151204514Y-66698114D01*
X151204514Y-66698114D02*
X151156895Y-66793352D01*
X151156895Y-66793352D02*
X151109276Y-66840971D01*
X151109276Y-66840971D02*
X151014038Y-66888590D01*
X151014038Y-66888590D02*
X150823562Y-66888590D01*
X150823562Y-66888590D02*
X150728324Y-66936209D01*
X150728324Y-66936209D02*
X150680705Y-66983828D01*
X150680705Y-66983828D02*
X150633086Y-67079066D01*
X150633086Y-67079066D02*
X150633086Y-67269542D01*
X150633086Y-67269542D02*
X150680705Y-67364780D01*
X150680705Y-67364780D02*
X150728324Y-67412400D01*
X150728324Y-67412400D02*
X150823562Y-67460019D01*
X150823562Y-67460019D02*
X151014038Y-67460019D01*
X151014038Y-67460019D02*
X151109276Y-67412400D01*
X151109276Y-67412400D02*
X151156895Y-67364780D01*
X151156895Y-67364780D02*
X151204514Y-67269542D01*
X151204514Y-67269542D02*
X151204514Y-67079066D01*
X151204514Y-67079066D02*
X151156895Y-66983828D01*
X151156895Y-66983828D02*
X151109276Y-66936209D01*
X151109276Y-66936209D02*
X151014038Y-66888590D01*
G36*
X135707723Y-79107876D02*
G01*
X133892196Y-79107876D01*
X133892196Y-78876995D01*
X134035053Y-78876995D01*
X134043962Y-78927519D01*
X134083262Y-78960496D01*
X134108914Y-78965019D01*
X134204152Y-78965019D01*
X134205690Y-78964458D01*
X134227869Y-78961170D01*
X134370726Y-78913551D01*
X134374238Y-78910763D01*
X134378705Y-78910373D01*
X134400042Y-78895433D01*
X134411992Y-78883483D01*
X134796105Y-78883483D01*
X134801946Y-78905285D01*
X134805867Y-78927519D01*
X134808494Y-78929723D01*
X134809382Y-78933037D01*
X134827873Y-78945985D01*
X134845167Y-78960496D01*
X134849751Y-78961304D01*
X134851408Y-78962464D01*
X134854696Y-78962176D01*
X134870819Y-78965019D01*
X135489866Y-78965019D01*
X135538075Y-78947472D01*
X135563727Y-78903043D01*
X135554818Y-78852519D01*
X135515518Y-78819542D01*
X135489866Y-78815019D01*
X135051885Y-78815019D01*
X135495280Y-78371623D01*
X135497175Y-78367558D01*
X135500995Y-78365212D01*
X135513398Y-78342307D01*
X135561017Y-78199451D01*
X135560972Y-78197815D01*
X135564866Y-78175733D01*
X135564866Y-78080495D01*
X135563332Y-78076281D01*
X135564374Y-78071920D01*
X135556948Y-78046954D01*
X135509329Y-77951716D01*
X135508139Y-77950590D01*
X135495280Y-77932224D01*
X135447661Y-77884605D01*
X135446179Y-77883914D01*
X135428169Y-77870556D01*
X135332931Y-77822937D01*
X135328477Y-77822424D01*
X135325042Y-77819542D01*
X135299390Y-77815019D01*
X135061295Y-77815019D01*
X135057081Y-77816552D01*
X135052720Y-77815511D01*
X135027754Y-77822937D01*
X134932516Y-77870556D01*
X134931390Y-77871745D01*
X134913024Y-77884605D01*
X134865405Y-77932224D01*
X134843724Y-77978721D01*
X134857001Y-78028275D01*
X134899027Y-78057702D01*
X134950134Y-78053230D01*
X134971471Y-78038290D01*
X135010484Y-77999277D01*
X135079000Y-77965019D01*
X135281685Y-77965019D01*
X135350201Y-77999277D01*
X135380608Y-78029684D01*
X135414866Y-78098200D01*
X135414866Y-78163563D01*
X135376694Y-78278076D01*
X134817786Y-78836986D01*
X134808248Y-78857439D01*
X134796958Y-78876995D01*
X134797554Y-78880375D01*
X134796105Y-78883483D01*
X134411992Y-78883483D01*
X134495281Y-78800193D01*
X134497175Y-78796129D01*
X134500995Y-78793783D01*
X134513398Y-78770878D01*
X134561017Y-78628022D01*
X134560972Y-78626386D01*
X134564866Y-78604304D01*
X134564866Y-77890019D01*
X134547319Y-77841810D01*
X134502890Y-77816158D01*
X134452366Y-77825067D01*
X134419389Y-77864367D01*
X134414866Y-77890019D01*
X134414866Y-78592134D01*
X134376694Y-78706647D01*
X134306495Y-78776847D01*
X134191982Y-78815019D01*
X134108914Y-78815019D01*
X134060705Y-78832566D01*
X134035053Y-78876995D01*
X133892196Y-78876995D01*
X133892196Y-77672162D01*
X135707723Y-77672162D01*
X135707723Y-79107876D01*
G37*
X155821142Y-81182380D02*
X155773523Y-81230000D01*
X155773523Y-81230000D02*
X155630666Y-81277619D01*
X155630666Y-81277619D02*
X155535428Y-81277619D01*
X155535428Y-81277619D02*
X155392571Y-81230000D01*
X155392571Y-81230000D02*
X155297333Y-81134761D01*
X155297333Y-81134761D02*
X155249714Y-81039523D01*
X155249714Y-81039523D02*
X155202095Y-80849047D01*
X155202095Y-80849047D02*
X155202095Y-80706190D01*
X155202095Y-80706190D02*
X155249714Y-80515714D01*
X155249714Y-80515714D02*
X155297333Y-80420476D01*
X155297333Y-80420476D02*
X155392571Y-80325238D01*
X155392571Y-80325238D02*
X155535428Y-80277619D01*
X155535428Y-80277619D02*
X155630666Y-80277619D01*
X155630666Y-80277619D02*
X155773523Y-80325238D01*
X155773523Y-80325238D02*
X155821142Y-80372857D01*
X156773523Y-81277619D02*
X156202095Y-81277619D01*
X156487809Y-81277619D02*
X156487809Y-80277619D01*
X156487809Y-80277619D02*
X156392571Y-80420476D01*
X156392571Y-80420476D02*
X156297333Y-80515714D01*
X156297333Y-80515714D02*
X156202095Y-80563333D01*
X157154476Y-80372857D02*
X157202095Y-80325238D01*
X157202095Y-80325238D02*
X157297333Y-80277619D01*
X157297333Y-80277619D02*
X157535428Y-80277619D01*
X157535428Y-80277619D02*
X157630666Y-80325238D01*
X157630666Y-80325238D02*
X157678285Y-80372857D01*
X157678285Y-80372857D02*
X157725904Y-80468095D01*
X157725904Y-80468095D02*
X157725904Y-80563333D01*
X157725904Y-80563333D02*
X157678285Y-80706190D01*
X157678285Y-80706190D02*
X157106857Y-81277619D01*
X157106857Y-81277619D02*
X157725904Y-81277619D01*
X146511180Y-81294266D02*
X146558800Y-81341885D01*
X146558800Y-81341885D02*
X146606419Y-81484742D01*
X146606419Y-81484742D02*
X146606419Y-81579980D01*
X146606419Y-81579980D02*
X146558800Y-81722837D01*
X146558800Y-81722837D02*
X146463561Y-81818075D01*
X146463561Y-81818075D02*
X146368323Y-81865694D01*
X146368323Y-81865694D02*
X146177847Y-81913313D01*
X146177847Y-81913313D02*
X146034990Y-81913313D01*
X146034990Y-81913313D02*
X145844514Y-81865694D01*
X145844514Y-81865694D02*
X145749276Y-81818075D01*
X145749276Y-81818075D02*
X145654038Y-81722837D01*
X145654038Y-81722837D02*
X145606419Y-81579980D01*
X145606419Y-81579980D02*
X145606419Y-81484742D01*
X145606419Y-81484742D02*
X145654038Y-81341885D01*
X145654038Y-81341885D02*
X145701657Y-81294266D01*
X146606419Y-80818075D02*
X146606419Y-80627599D01*
X146606419Y-80627599D02*
X146558800Y-80532361D01*
X146558800Y-80532361D02*
X146511180Y-80484742D01*
X146511180Y-80484742D02*
X146368323Y-80389504D01*
X146368323Y-80389504D02*
X146177847Y-80341885D01*
X146177847Y-80341885D02*
X145796895Y-80341885D01*
X145796895Y-80341885D02*
X145701657Y-80389504D01*
X145701657Y-80389504D02*
X145654038Y-80437123D01*
X145654038Y-80437123D02*
X145606419Y-80532361D01*
X145606419Y-80532361D02*
X145606419Y-80722837D01*
X145606419Y-80722837D02*
X145654038Y-80818075D01*
X145654038Y-80818075D02*
X145701657Y-80865694D01*
X145701657Y-80865694D02*
X145796895Y-80913313D01*
X145796895Y-80913313D02*
X146034990Y-80913313D01*
X146034990Y-80913313D02*
X146130228Y-80865694D01*
X146130228Y-80865694D02*
X146177847Y-80818075D01*
X146177847Y-80818075D02*
X146225466Y-80722837D01*
X146225466Y-80722837D02*
X146225466Y-80532361D01*
X146225466Y-80532361D02*
X146177847Y-80437123D01*
X146177847Y-80437123D02*
X146130228Y-80389504D01*
X146130228Y-80389504D02*
X146034990Y-80341885D01*
X136212342Y-67612419D02*
X135879009Y-67136228D01*
X135640914Y-67612419D02*
X135640914Y-66612419D01*
X135640914Y-66612419D02*
X136021866Y-66612419D01*
X136021866Y-66612419D02*
X136117104Y-66660038D01*
X136117104Y-66660038D02*
X136164723Y-66707657D01*
X136164723Y-66707657D02*
X136212342Y-66802895D01*
X136212342Y-66802895D02*
X136212342Y-66945752D01*
X136212342Y-66945752D02*
X136164723Y-67040990D01*
X136164723Y-67040990D02*
X136117104Y-67088609D01*
X136117104Y-67088609D02*
X136021866Y-67136228D01*
X136021866Y-67136228D02*
X135640914Y-67136228D01*
X137164723Y-67612419D02*
X136593295Y-67612419D01*
X136879009Y-67612419D02*
X136879009Y-66612419D01*
X136879009Y-66612419D02*
X136783771Y-66755276D01*
X136783771Y-66755276D02*
X136688533Y-66850514D01*
X136688533Y-66850514D02*
X136593295Y-66898133D01*
X138021866Y-66612419D02*
X137831390Y-66612419D01*
X137831390Y-66612419D02*
X137736152Y-66660038D01*
X137736152Y-66660038D02*
X137688533Y-66707657D01*
X137688533Y-66707657D02*
X137593295Y-66850514D01*
X137593295Y-66850514D02*
X137545676Y-67040990D01*
X137545676Y-67040990D02*
X137545676Y-67421942D01*
X137545676Y-67421942D02*
X137593295Y-67517180D01*
X137593295Y-67517180D02*
X137640914Y-67564800D01*
X137640914Y-67564800D02*
X137736152Y-67612419D01*
X137736152Y-67612419D02*
X137926628Y-67612419D01*
X137926628Y-67612419D02*
X138021866Y-67564800D01*
X138021866Y-67564800D02*
X138069485Y-67517180D01*
X138069485Y-67517180D02*
X138117104Y-67421942D01*
X138117104Y-67421942D02*
X138117104Y-67183847D01*
X138117104Y-67183847D02*
X138069485Y-67088609D01*
X138069485Y-67088609D02*
X138021866Y-67040990D01*
X138021866Y-67040990D02*
X137926628Y-66993371D01*
X137926628Y-66993371D02*
X137736152Y-66993371D01*
X137736152Y-66993371D02*
X137640914Y-67040990D01*
X137640914Y-67040990D02*
X137593295Y-67088609D01*
X137593295Y-67088609D02*
X137545676Y-67183847D01*
G36*
X163596604Y-105372507D02*
G01*
X162198881Y-105372507D01*
X162198881Y-105177340D01*
X162306024Y-105177340D01*
X162314933Y-105227864D01*
X162354233Y-105260841D01*
X162379885Y-105265364D01*
X162451314Y-105265364D01*
X162452852Y-105264803D01*
X162475031Y-105261515D01*
X162582174Y-105225801D01*
X162585686Y-105223013D01*
X162590154Y-105222623D01*
X162611490Y-105207683D01*
X162641833Y-105177340D01*
X162913168Y-105177340D01*
X162922077Y-105227864D01*
X162961377Y-105260841D01*
X162987029Y-105265364D01*
X163415600Y-105265364D01*
X163463809Y-105247817D01*
X163489461Y-105203388D01*
X163480552Y-105152864D01*
X163441252Y-105119887D01*
X163415600Y-105115364D01*
X163276314Y-105115364D01*
X163276314Y-104440364D01*
X163274838Y-104436310D01*
X163275859Y-104432121D01*
X163266212Y-104412610D01*
X163258767Y-104392155D01*
X163255032Y-104389998D01*
X163253121Y-104386133D01*
X163233194Y-104377390D01*
X163214338Y-104366503D01*
X163210088Y-104367252D01*
X163206140Y-104365520D01*
X163185252Y-104371631D01*
X163163814Y-104375412D01*
X163161041Y-104378715D01*
X163156902Y-104379927D01*
X163138910Y-104398762D01*
X163071602Y-104499724D01*
X163014029Y-104557296D01*
X162953487Y-104587568D01*
X162918215Y-104624823D01*
X162915141Y-104676033D01*
X162945705Y-104717239D01*
X162995604Y-104729158D01*
X163020571Y-104721732D01*
X163091998Y-104686017D01*
X163093121Y-104684830D01*
X163111490Y-104671968D01*
X163126314Y-104657144D01*
X163126314Y-105115364D01*
X162987029Y-105115364D01*
X162938820Y-105132911D01*
X162913168Y-105177340D01*
X162641833Y-105177340D01*
X162682918Y-105136254D01*
X162684812Y-105132191D01*
X162688633Y-105129844D01*
X162701036Y-105106938D01*
X162736751Y-104999795D01*
X162736706Y-104998160D01*
X162740600Y-104976078D01*
X162740600Y-104440364D01*
X162723053Y-104392155D01*
X162678624Y-104366503D01*
X162628100Y-104375412D01*
X162595123Y-104414712D01*
X162590600Y-104440364D01*
X162590600Y-104963906D01*
X162564332Y-105042707D01*
X162517942Y-105089098D01*
X162439144Y-105115364D01*
X162379885Y-105115364D01*
X162331676Y-105132911D01*
X162306024Y-105177340D01*
X162198881Y-105177340D01*
X162198881Y-104258377D01*
X163596604Y-104258377D01*
X163596604Y-105372507D01*
G37*
G36*
X133601935Y-100332208D02*
G01*
X133620438Y-100350711D01*
X133642792Y-100395418D01*
X133642792Y-100502865D01*
X133620438Y-100547572D01*
X133601936Y-100566074D01*
X133557230Y-100588427D01*
X133556926Y-100588427D01*
X133512218Y-100566073D01*
X133493716Y-100547571D01*
X133471364Y-100502865D01*
X133471364Y-100395418D01*
X133493717Y-100350711D01*
X133512219Y-100332208D01*
X133556926Y-100309856D01*
X133557230Y-100309856D01*
X133601935Y-100332208D01*
G37*
G36*
X134030508Y-100332209D02*
G01*
X134049011Y-100350712D01*
X134071364Y-100395418D01*
X134071364Y-100502865D01*
X134049011Y-100547571D01*
X134030508Y-100566073D01*
X133985802Y-100588427D01*
X133878355Y-100588427D01*
X133833647Y-100566073D01*
X133815146Y-100547572D01*
X133792792Y-100502864D01*
X133792792Y-100395419D01*
X133815145Y-100350712D01*
X133833648Y-100332208D01*
X133878355Y-100309856D01*
X133985802Y-100309856D01*
X134030508Y-100332209D01*
G37*
G36*
X134328507Y-102165861D02*
G01*
X133214221Y-102165861D01*
X133214221Y-101686118D01*
X133322503Y-101686118D01*
X133331412Y-101736642D01*
X133370712Y-101769619D01*
X133396364Y-101774142D01*
X133919908Y-101774142D01*
X133998707Y-101800408D01*
X134045098Y-101846799D01*
X134071364Y-101925597D01*
X134071364Y-101984857D01*
X134088911Y-102033066D01*
X134133340Y-102058718D01*
X134183864Y-102049809D01*
X134216841Y-102010509D01*
X134221364Y-101984857D01*
X134221364Y-101913428D01*
X134220803Y-101911889D01*
X134217515Y-101889712D01*
X134181801Y-101782568D01*
X134179013Y-101779056D01*
X134178623Y-101774588D01*
X134163683Y-101753252D01*
X134092254Y-101681824D01*
X134088191Y-101679929D01*
X134085844Y-101676109D01*
X134062939Y-101663706D01*
X133955795Y-101627991D01*
X133954160Y-101628035D01*
X133932078Y-101624142D01*
X133396364Y-101624142D01*
X133348155Y-101641689D01*
X133322503Y-101686118D01*
X133214221Y-101686118D01*
X133214221Y-101158601D01*
X133321519Y-101158601D01*
X133327632Y-101179492D01*
X133331412Y-101200928D01*
X133334715Y-101203700D01*
X133335927Y-101207839D01*
X133354762Y-101225832D01*
X133455726Y-101293141D01*
X133513295Y-101350711D01*
X133543568Y-101411254D01*
X133580823Y-101446526D01*
X133632033Y-101449600D01*
X133673239Y-101419036D01*
X133685158Y-101369137D01*
X133677731Y-101344171D01*
X133642017Y-101272743D01*
X133640828Y-101271617D01*
X133627968Y-101253252D01*
X133613144Y-101238428D01*
X134071364Y-101238428D01*
X134071364Y-101377713D01*
X134088911Y-101425922D01*
X134133340Y-101451574D01*
X134183864Y-101442665D01*
X134216841Y-101403365D01*
X134221364Y-101377713D01*
X134221364Y-100949142D01*
X134203817Y-100900933D01*
X134159388Y-100875281D01*
X134108864Y-100884190D01*
X134075887Y-100923490D01*
X134071364Y-100949142D01*
X134071364Y-101088428D01*
X133396364Y-101088428D01*
X133392310Y-101089903D01*
X133388121Y-101088883D01*
X133368608Y-101098530D01*
X133348155Y-101105975D01*
X133345999Y-101109709D01*
X133342132Y-101111621D01*
X133333385Y-101131555D01*
X133322503Y-101150404D01*
X133323251Y-101154651D01*
X133321519Y-101158601D01*
X133214221Y-101158601D01*
X133214221Y-100520570D01*
X133321364Y-100520570D01*
X133322897Y-100524782D01*
X133321855Y-100529144D01*
X133329282Y-100554111D01*
X133364996Y-100625540D01*
X133366185Y-100626665D01*
X133379045Y-100645032D01*
X133414759Y-100680746D01*
X133416240Y-100681437D01*
X133434251Y-100694795D01*
X133505681Y-100730509D01*
X133510133Y-100731021D01*
X133513569Y-100733904D01*
X133539221Y-100738427D01*
X133574935Y-100738427D01*
X133579147Y-100736893D01*
X133583509Y-100737936D01*
X133608476Y-100730509D01*
X133679905Y-100694795D01*
X133681030Y-100693605D01*
X133699397Y-100680746D01*
X133717792Y-100662350D01*
X133736188Y-100680746D01*
X133737669Y-100681437D01*
X133755680Y-100694795D01*
X133827110Y-100730509D01*
X133831562Y-100731021D01*
X133834998Y-100733904D01*
X133860650Y-100738427D01*
X134003507Y-100738427D01*
X134007720Y-100736893D01*
X134012081Y-100737935D01*
X134037048Y-100730509D01*
X134108476Y-100694795D01*
X134109601Y-100693606D01*
X134127967Y-100680747D01*
X134163682Y-100645033D01*
X134164372Y-100643551D01*
X134177732Y-100625540D01*
X134213446Y-100554110D01*
X134213958Y-100549657D01*
X134216841Y-100546222D01*
X134221364Y-100520570D01*
X134221364Y-100377713D01*
X134219830Y-100373499D01*
X134220872Y-100369139D01*
X134213446Y-100344172D01*
X134177732Y-100272744D01*
X134176545Y-100271620D01*
X134163683Y-100253252D01*
X134127968Y-100217537D01*
X134126486Y-100216846D01*
X134108476Y-100203488D01*
X134037048Y-100167774D01*
X134032594Y-100167261D01*
X134029159Y-100164379D01*
X134003507Y-100159856D01*
X133860650Y-100159856D01*
X133856437Y-100161389D01*
X133852076Y-100160347D01*
X133827110Y-100167774D01*
X133755680Y-100203488D01*
X133754555Y-100204675D01*
X133736187Y-100217538D01*
X133717792Y-100235933D01*
X133699398Y-100217538D01*
X133697916Y-100216847D01*
X133679905Y-100203488D01*
X133608476Y-100167774D01*
X133604022Y-100167261D01*
X133600587Y-100164379D01*
X133574935Y-100159856D01*
X133539221Y-100159856D01*
X133535008Y-100161389D01*
X133530647Y-100160347D01*
X133505681Y-100167774D01*
X133434251Y-100203488D01*
X133433126Y-100204675D01*
X133414758Y-100217538D01*
X133379044Y-100253253D01*
X133378352Y-100254735D01*
X133364996Y-100272744D01*
X133329282Y-100344172D01*
X133328769Y-100348625D01*
X133325887Y-100352061D01*
X133321364Y-100377713D01*
X133321364Y-100520570D01*
X133214221Y-100520570D01*
X133214221Y-100052713D01*
X134328507Y-100052713D01*
X134328507Y-102165861D01*
G37*
X158024533Y-57655619D02*
X157691200Y-57179428D01*
X157453105Y-57655619D02*
X157453105Y-56655619D01*
X157453105Y-56655619D02*
X157834057Y-56655619D01*
X157834057Y-56655619D02*
X157929295Y-56703238D01*
X157929295Y-56703238D02*
X157976914Y-56750857D01*
X157976914Y-56750857D02*
X158024533Y-56846095D01*
X158024533Y-56846095D02*
X158024533Y-56988952D01*
X158024533Y-56988952D02*
X157976914Y-57084190D01*
X157976914Y-57084190D02*
X157929295Y-57131809D01*
X157929295Y-57131809D02*
X157834057Y-57179428D01*
X157834057Y-57179428D02*
X157453105Y-57179428D01*
X158929295Y-56655619D02*
X158453105Y-56655619D01*
X158453105Y-56655619D02*
X158405486Y-57131809D01*
X158405486Y-57131809D02*
X158453105Y-57084190D01*
X158453105Y-57084190D02*
X158548343Y-57036571D01*
X158548343Y-57036571D02*
X158786438Y-57036571D01*
X158786438Y-57036571D02*
X158881676Y-57084190D01*
X158881676Y-57084190D02*
X158929295Y-57131809D01*
X158929295Y-57131809D02*
X158976914Y-57227047D01*
X158976914Y-57227047D02*
X158976914Y-57465142D01*
X158976914Y-57465142D02*
X158929295Y-57560380D01*
X158929295Y-57560380D02*
X158881676Y-57608000D01*
X158881676Y-57608000D02*
X158786438Y-57655619D01*
X158786438Y-57655619D02*
X158548343Y-57655619D01*
X158548343Y-57655619D02*
X158453105Y-57608000D01*
X158453105Y-57608000D02*
X158405486Y-57560380D01*
X158499980Y-71204057D02*
X158547600Y-71251676D01*
X158547600Y-71251676D02*
X158595219Y-71394533D01*
X158595219Y-71394533D02*
X158595219Y-71489771D01*
X158595219Y-71489771D02*
X158547600Y-71632628D01*
X158547600Y-71632628D02*
X158452361Y-71727866D01*
X158452361Y-71727866D02*
X158357123Y-71775485D01*
X158357123Y-71775485D02*
X158166647Y-71823104D01*
X158166647Y-71823104D02*
X158023790Y-71823104D01*
X158023790Y-71823104D02*
X157833314Y-71775485D01*
X157833314Y-71775485D02*
X157738076Y-71727866D01*
X157738076Y-71727866D02*
X157642838Y-71632628D01*
X157642838Y-71632628D02*
X157595219Y-71489771D01*
X157595219Y-71489771D02*
X157595219Y-71394533D01*
X157595219Y-71394533D02*
X157642838Y-71251676D01*
X157642838Y-71251676D02*
X157690457Y-71204057D01*
X158595219Y-70251676D02*
X158595219Y-70823104D01*
X158595219Y-70537390D02*
X157595219Y-70537390D01*
X157595219Y-70537390D02*
X157738076Y-70632628D01*
X157738076Y-70632628D02*
X157833314Y-70727866D01*
X157833314Y-70727866D02*
X157880933Y-70823104D01*
X158595219Y-69299295D02*
X158595219Y-69870723D01*
X158595219Y-69585009D02*
X157595219Y-69585009D01*
X157595219Y-69585009D02*
X157738076Y-69680247D01*
X157738076Y-69680247D02*
X157833314Y-69775485D01*
X157833314Y-69775485D02*
X157880933Y-69870723D01*
X140256419Y-71508857D02*
X139780228Y-71842190D01*
X140256419Y-72080285D02*
X139256419Y-72080285D01*
X139256419Y-72080285D02*
X139256419Y-71699333D01*
X139256419Y-71699333D02*
X139304038Y-71604095D01*
X139304038Y-71604095D02*
X139351657Y-71556476D01*
X139351657Y-71556476D02*
X139446895Y-71508857D01*
X139446895Y-71508857D02*
X139589752Y-71508857D01*
X139589752Y-71508857D02*
X139684990Y-71556476D01*
X139684990Y-71556476D02*
X139732609Y-71604095D01*
X139732609Y-71604095D02*
X139780228Y-71699333D01*
X139780228Y-71699333D02*
X139780228Y-72080285D01*
X140256419Y-70556476D02*
X140256419Y-71127904D01*
X140256419Y-70842190D02*
X139256419Y-70842190D01*
X139256419Y-70842190D02*
X139399276Y-70937428D01*
X139399276Y-70937428D02*
X139494514Y-71032666D01*
X139494514Y-71032666D02*
X139542133Y-71127904D01*
X139256419Y-69651714D02*
X139256419Y-70127904D01*
X139256419Y-70127904D02*
X139732609Y-70175523D01*
X139732609Y-70175523D02*
X139684990Y-70127904D01*
X139684990Y-70127904D02*
X139637371Y-70032666D01*
X139637371Y-70032666D02*
X139637371Y-69794571D01*
X139637371Y-69794571D02*
X139684990Y-69699333D01*
X139684990Y-69699333D02*
X139732609Y-69651714D01*
X139732609Y-69651714D02*
X139827847Y-69604095D01*
X139827847Y-69604095D02*
X140065942Y-69604095D01*
X140065942Y-69604095D02*
X140161180Y-69651714D01*
X140161180Y-69651714D02*
X140208800Y-69699333D01*
X140208800Y-69699333D02*
X140256419Y-69794571D01*
X140256419Y-69794571D02*
X140256419Y-70032666D01*
X140256419Y-70032666D02*
X140208800Y-70127904D01*
X140208800Y-70127904D02*
X140161180Y-70175523D01*
G36*
X159382886Y-105474107D02*
G01*
X157269738Y-105474107D01*
X157269738Y-105278940D01*
X157376881Y-105278940D01*
X157385790Y-105329464D01*
X157425090Y-105362441D01*
X157450742Y-105366964D01*
X157522171Y-105366964D01*
X157523709Y-105366403D01*
X157545888Y-105363115D01*
X157653031Y-105327401D01*
X157656543Y-105324613D01*
X157661011Y-105324223D01*
X157682347Y-105309283D01*
X157712690Y-105278940D01*
X157984025Y-105278940D01*
X157992934Y-105329464D01*
X158032234Y-105362441D01*
X158057886Y-105366964D01*
X158486457Y-105366964D01*
X158534666Y-105349417D01*
X158560318Y-105304988D01*
X158551409Y-105254464D01*
X158512109Y-105221487D01*
X158486457Y-105216964D01*
X158347171Y-105216964D01*
X158347171Y-104892572D01*
X158697458Y-104892572D01*
X158703980Y-104916913D01*
X158710207Y-104941360D01*
X158710607Y-104941648D01*
X158710736Y-104942126D01*
X158731359Y-104956566D01*
X158751863Y-104971306D01*
X158752357Y-104971268D01*
X158752762Y-104971552D01*
X158777871Y-104969354D01*
X158803023Y-104967468D01*
X158803376Y-104967123D01*
X158803869Y-104967080D01*
X158825206Y-104952139D01*
X158852313Y-104925030D01*
X158897020Y-104902678D01*
X159040181Y-104902678D01*
X159084886Y-104925030D01*
X159103389Y-104943533D01*
X159125743Y-104988240D01*
X159125743Y-105131402D01*
X159103389Y-105176108D01*
X159084886Y-105194611D01*
X159040181Y-105216964D01*
X158897020Y-105216964D01*
X158852313Y-105194611D01*
X158825206Y-105167503D01*
X158778710Y-105145821D01*
X158729155Y-105159097D01*
X158699728Y-105201122D01*
X158704198Y-105252230D01*
X158719138Y-105273567D01*
X158754852Y-105309282D01*
X158756333Y-105309972D01*
X158774345Y-105323332D01*
X158845775Y-105359046D01*
X158850227Y-105359558D01*
X158853663Y-105362441D01*
X158879315Y-105366964D01*
X159057886Y-105366964D01*
X159062098Y-105365430D01*
X159066460Y-105366473D01*
X159091427Y-105359046D01*
X159162856Y-105323332D01*
X159163980Y-105322144D01*
X159182349Y-105309282D01*
X159218063Y-105273567D01*
X159218754Y-105272084D01*
X159232111Y-105254076D01*
X159267825Y-105182648D01*
X159268337Y-105178194D01*
X159271220Y-105174759D01*
X159275743Y-105149107D01*
X159275743Y-104970535D01*
X159274209Y-104966321D01*
X159275251Y-104961961D01*
X159267825Y-104936994D01*
X159232111Y-104865566D01*
X159230922Y-104864440D01*
X159218063Y-104846075D01*
X159182349Y-104810360D01*
X159180867Y-104809669D01*
X159162856Y-104796310D01*
X159091427Y-104760596D01*
X159086973Y-104760083D01*
X159083538Y-104757201D01*
X159057886Y-104752678D01*
X158879315Y-104752678D01*
X158875102Y-104754211D01*
X158870741Y-104753169D01*
X158861876Y-104755806D01*
X158875760Y-104616964D01*
X159165029Y-104616964D01*
X159213238Y-104599417D01*
X159238890Y-104554988D01*
X159229981Y-104504464D01*
X159190681Y-104471487D01*
X159165029Y-104466964D01*
X158807886Y-104466964D01*
X158792918Y-104472411D01*
X158777035Y-104473603D01*
X158769528Y-104480925D01*
X158759677Y-104484511D01*
X158751713Y-104498304D01*
X158740311Y-104509427D01*
X158735580Y-104526246D01*
X158734025Y-104528940D01*
X158734332Y-104530682D01*
X158733258Y-104534502D01*
X158697544Y-104891644D01*
X158697666Y-104892124D01*
X158697458Y-104892572D01*
X158347171Y-104892572D01*
X158347171Y-104541964D01*
X158345695Y-104537910D01*
X158346716Y-104533721D01*
X158337069Y-104514210D01*
X158329624Y-104493755D01*
X158325889Y-104491598D01*
X158323978Y-104487733D01*
X158304051Y-104478990D01*
X158285195Y-104468103D01*
X158280945Y-104468852D01*
X158276997Y-104467120D01*
X158256109Y-104473231D01*
X158234671Y-104477012D01*
X158231898Y-104480315D01*
X158227759Y-104481527D01*
X158209767Y-104500362D01*
X158142459Y-104601324D01*
X158084886Y-104658896D01*
X158024344Y-104689168D01*
X157989072Y-104726423D01*
X157985998Y-104777633D01*
X158016562Y-104818839D01*
X158066461Y-104830758D01*
X158091428Y-104823332D01*
X158162855Y-104787617D01*
X158163978Y-104786430D01*
X158182347Y-104773568D01*
X158197171Y-104758744D01*
X158197171Y-105216964D01*
X158057886Y-105216964D01*
X158009677Y-105234511D01*
X157984025Y-105278940D01*
X157712690Y-105278940D01*
X157753775Y-105237854D01*
X157755669Y-105233791D01*
X157759490Y-105231444D01*
X157771893Y-105208538D01*
X157807608Y-105101395D01*
X157807563Y-105099760D01*
X157811457Y-105077678D01*
X157811457Y-104541964D01*
X157793910Y-104493755D01*
X157749481Y-104468103D01*
X157698957Y-104477012D01*
X157665980Y-104516312D01*
X157661457Y-104541964D01*
X157661457Y-105065506D01*
X157635189Y-105144307D01*
X157588799Y-105190698D01*
X157510001Y-105216964D01*
X157450742Y-105216964D01*
X157402533Y-105234511D01*
X157376881Y-105278940D01*
X157269738Y-105278940D01*
X157269738Y-104359821D01*
X159382886Y-104359821D01*
X159382886Y-105474107D01*
G37*
X136942533Y-75842019D02*
X136609200Y-75365828D01*
X136371105Y-75842019D02*
X136371105Y-74842019D01*
X136371105Y-74842019D02*
X136752057Y-74842019D01*
X136752057Y-74842019D02*
X136847295Y-74889638D01*
X136847295Y-74889638D02*
X136894914Y-74937257D01*
X136894914Y-74937257D02*
X136942533Y-75032495D01*
X136942533Y-75032495D02*
X136942533Y-75175352D01*
X136942533Y-75175352D02*
X136894914Y-75270590D01*
X136894914Y-75270590D02*
X136847295Y-75318209D01*
X136847295Y-75318209D02*
X136752057Y-75365828D01*
X136752057Y-75365828D02*
X136371105Y-75365828D01*
X137275867Y-74842019D02*
X137942533Y-74842019D01*
X137942533Y-74842019D02*
X137513962Y-75842019D01*
X166723219Y-102071466D02*
X166247028Y-102404799D01*
X166723219Y-102642894D02*
X165723219Y-102642894D01*
X165723219Y-102642894D02*
X165723219Y-102261942D01*
X165723219Y-102261942D02*
X165770838Y-102166704D01*
X165770838Y-102166704D02*
X165818457Y-102119085D01*
X165818457Y-102119085D02*
X165913695Y-102071466D01*
X165913695Y-102071466D02*
X166056552Y-102071466D01*
X166056552Y-102071466D02*
X166151790Y-102119085D01*
X166151790Y-102119085D02*
X166199409Y-102166704D01*
X166199409Y-102166704D02*
X166247028Y-102261942D01*
X166247028Y-102261942D02*
X166247028Y-102642894D01*
X166151790Y-101500037D02*
X166104171Y-101595275D01*
X166104171Y-101595275D02*
X166056552Y-101642894D01*
X166056552Y-101642894D02*
X165961314Y-101690513D01*
X165961314Y-101690513D02*
X165913695Y-101690513D01*
X165913695Y-101690513D02*
X165818457Y-101642894D01*
X165818457Y-101642894D02*
X165770838Y-101595275D01*
X165770838Y-101595275D02*
X165723219Y-101500037D01*
X165723219Y-101500037D02*
X165723219Y-101309561D01*
X165723219Y-101309561D02*
X165770838Y-101214323D01*
X165770838Y-101214323D02*
X165818457Y-101166704D01*
X165818457Y-101166704D02*
X165913695Y-101119085D01*
X165913695Y-101119085D02*
X165961314Y-101119085D01*
X165961314Y-101119085D02*
X166056552Y-101166704D01*
X166056552Y-101166704D02*
X166104171Y-101214323D01*
X166104171Y-101214323D02*
X166151790Y-101309561D01*
X166151790Y-101309561D02*
X166151790Y-101500037D01*
X166151790Y-101500037D02*
X166199409Y-101595275D01*
X166199409Y-101595275D02*
X166247028Y-101642894D01*
X166247028Y-101642894D02*
X166342266Y-101690513D01*
X166342266Y-101690513D02*
X166532742Y-101690513D01*
X166532742Y-101690513D02*
X166627980Y-101642894D01*
X166627980Y-101642894D02*
X166675600Y-101595275D01*
X166675600Y-101595275D02*
X166723219Y-101500037D01*
X166723219Y-101500037D02*
X166723219Y-101309561D01*
X166723219Y-101309561D02*
X166675600Y-101214323D01*
X166675600Y-101214323D02*
X166627980Y-101166704D01*
X166627980Y-101166704D02*
X166532742Y-101119085D01*
X166532742Y-101119085D02*
X166342266Y-101119085D01*
X166342266Y-101119085D02*
X166247028Y-101166704D01*
X166247028Y-101166704D02*
X166199409Y-101214323D01*
X166199409Y-101214323D02*
X166151790Y-101309561D01*
X158024533Y-60760780D02*
X157976914Y-60808400D01*
X157976914Y-60808400D02*
X157834057Y-60856019D01*
X157834057Y-60856019D02*
X157738819Y-60856019D01*
X157738819Y-60856019D02*
X157595962Y-60808400D01*
X157595962Y-60808400D02*
X157500724Y-60713161D01*
X157500724Y-60713161D02*
X157453105Y-60617923D01*
X157453105Y-60617923D02*
X157405486Y-60427447D01*
X157405486Y-60427447D02*
X157405486Y-60284590D01*
X157405486Y-60284590D02*
X157453105Y-60094114D01*
X157453105Y-60094114D02*
X157500724Y-59998876D01*
X157500724Y-59998876D02*
X157595962Y-59903638D01*
X157595962Y-59903638D02*
X157738819Y-59856019D01*
X157738819Y-59856019D02*
X157834057Y-59856019D01*
X157834057Y-59856019D02*
X157976914Y-59903638D01*
X157976914Y-59903638D02*
X158024533Y-59951257D01*
X158929295Y-59856019D02*
X158453105Y-59856019D01*
X158453105Y-59856019D02*
X158405486Y-60332209D01*
X158405486Y-60332209D02*
X158453105Y-60284590D01*
X158453105Y-60284590D02*
X158548343Y-60236971D01*
X158548343Y-60236971D02*
X158786438Y-60236971D01*
X158786438Y-60236971D02*
X158881676Y-60284590D01*
X158881676Y-60284590D02*
X158929295Y-60332209D01*
X158929295Y-60332209D02*
X158976914Y-60427447D01*
X158976914Y-60427447D02*
X158976914Y-60665542D01*
X158976914Y-60665542D02*
X158929295Y-60760780D01*
X158929295Y-60760780D02*
X158881676Y-60808400D01*
X158881676Y-60808400D02*
X158786438Y-60856019D01*
X158786438Y-60856019D02*
X158548343Y-60856019D01*
X158548343Y-60856019D02*
X158453105Y-60808400D01*
X158453105Y-60808400D02*
X158405486Y-60760780D01*
G36*
X139780887Y-95647716D02*
G01*
X139799389Y-95666218D01*
X139821743Y-95710925D01*
X139821743Y-95854087D01*
X139799389Y-95898794D01*
X139780888Y-95917295D01*
X139736181Y-95939650D01*
X139628734Y-95939650D01*
X139584027Y-95917296D01*
X139565524Y-95898793D01*
X139543172Y-95854087D01*
X139543172Y-95710925D01*
X139565524Y-95666219D01*
X139584026Y-95647717D01*
X139628734Y-95625364D01*
X139736181Y-95625364D01*
X139780887Y-95647716D01*
G37*
G36*
X140078886Y-96482507D02*
G01*
X137965738Y-96482507D01*
X137965738Y-96287340D01*
X138072881Y-96287340D01*
X138081790Y-96337864D01*
X138121090Y-96370841D01*
X138146742Y-96375364D01*
X138218171Y-96375364D01*
X138219709Y-96374803D01*
X138241888Y-96371515D01*
X138349031Y-96335801D01*
X138352543Y-96333013D01*
X138357011Y-96332623D01*
X138378347Y-96317683D01*
X138408690Y-96287340D01*
X138680025Y-96287340D01*
X138688934Y-96337864D01*
X138728234Y-96370841D01*
X138753886Y-96375364D01*
X139182457Y-96375364D01*
X139230666Y-96357817D01*
X139256318Y-96313388D01*
X139247409Y-96262864D01*
X139208109Y-96229887D01*
X139182457Y-96225364D01*
X139043171Y-96225364D01*
X139043171Y-95871792D01*
X139393172Y-95871792D01*
X139394705Y-95876004D01*
X139393663Y-95880366D01*
X139401090Y-95905333D01*
X139436804Y-95976762D01*
X139437993Y-95977887D01*
X139450853Y-95996254D01*
X139486567Y-96031968D01*
X139488052Y-96032660D01*
X139506059Y-96046017D01*
X139577487Y-96081732D01*
X139581941Y-96082244D01*
X139585377Y-96085127D01*
X139611029Y-96089650D01*
X139753886Y-96089650D01*
X139758099Y-96088116D01*
X139762461Y-96089158D01*
X139787427Y-96081732D01*
X139794636Y-96078127D01*
X139791418Y-96090997D01*
X139731313Y-96181155D01*
X139709457Y-96203011D01*
X139664752Y-96225364D01*
X139539600Y-96225364D01*
X139491391Y-96242911D01*
X139465739Y-96287340D01*
X139474648Y-96337864D01*
X139513948Y-96370841D01*
X139539600Y-96375364D01*
X139682457Y-96375364D01*
X139686669Y-96373830D01*
X139691031Y-96374873D01*
X139715998Y-96367446D01*
X139787427Y-96331732D01*
X139788551Y-96330544D01*
X139806920Y-96317682D01*
X139842634Y-96281967D01*
X139844110Y-96278800D01*
X139852004Y-96270538D01*
X139923433Y-96163395D01*
X139923535Y-96162973D01*
X139933790Y-96139982D01*
X139969504Y-95997125D01*
X139969143Y-95993676D01*
X139971743Y-95978935D01*
X139971743Y-95693221D01*
X139970209Y-95689008D01*
X139971252Y-95684647D01*
X139963825Y-95659681D01*
X139928111Y-95588251D01*
X139926921Y-95587125D01*
X139914062Y-95568759D01*
X139878348Y-95533045D01*
X139876866Y-95532354D01*
X139858856Y-95518996D01*
X139787427Y-95483282D01*
X139782973Y-95482769D01*
X139779538Y-95479887D01*
X139753886Y-95475364D01*
X139611029Y-95475364D01*
X139606816Y-95476897D01*
X139602455Y-95475855D01*
X139577489Y-95483282D01*
X139506059Y-95518996D01*
X139504933Y-95520185D01*
X139486567Y-95533045D01*
X139450853Y-95568759D01*
X139450162Y-95570240D01*
X139436804Y-95588251D01*
X139401090Y-95659680D01*
X139400577Y-95664133D01*
X139397695Y-95667569D01*
X139393172Y-95693221D01*
X139393172Y-95871792D01*
X139043171Y-95871792D01*
X139043171Y-95550364D01*
X139041695Y-95546310D01*
X139042716Y-95542121D01*
X139033069Y-95522610D01*
X139025624Y-95502155D01*
X139021889Y-95499998D01*
X139019978Y-95496133D01*
X139000051Y-95487390D01*
X138981195Y-95476503D01*
X138976945Y-95477252D01*
X138972997Y-95475520D01*
X138952109Y-95481631D01*
X138930671Y-95485412D01*
X138927898Y-95488715D01*
X138923759Y-95489927D01*
X138905767Y-95508762D01*
X138838459Y-95609724D01*
X138780886Y-95667296D01*
X138720344Y-95697568D01*
X138685072Y-95734823D01*
X138681998Y-95786033D01*
X138712562Y-95827239D01*
X138762461Y-95839158D01*
X138787428Y-95831732D01*
X138858855Y-95796017D01*
X138859978Y-95794830D01*
X138878347Y-95781968D01*
X138893171Y-95767144D01*
X138893171Y-96225364D01*
X138753886Y-96225364D01*
X138705677Y-96242911D01*
X138680025Y-96287340D01*
X138408690Y-96287340D01*
X138449775Y-96246254D01*
X138451669Y-96242191D01*
X138455490Y-96239844D01*
X138467893Y-96216938D01*
X138503608Y-96109795D01*
X138503563Y-96108160D01*
X138507457Y-96086078D01*
X138507457Y-95550364D01*
X138489910Y-95502155D01*
X138445481Y-95476503D01*
X138394957Y-95485412D01*
X138361980Y-95524712D01*
X138357457Y-95550364D01*
X138357457Y-96073906D01*
X138331189Y-96152707D01*
X138284799Y-96199098D01*
X138206001Y-96225364D01*
X138146742Y-96225364D01*
X138098533Y-96242911D01*
X138072881Y-96287340D01*
X137965738Y-96287340D01*
X137965738Y-95368221D01*
X140078886Y-95368221D01*
X140078886Y-96482507D01*
G37*
X157973733Y-62792780D02*
X157926114Y-62840400D01*
X157926114Y-62840400D02*
X157783257Y-62888019D01*
X157783257Y-62888019D02*
X157688019Y-62888019D01*
X157688019Y-62888019D02*
X157545162Y-62840400D01*
X157545162Y-62840400D02*
X157449924Y-62745161D01*
X157449924Y-62745161D02*
X157402305Y-62649923D01*
X157402305Y-62649923D02*
X157354686Y-62459447D01*
X157354686Y-62459447D02*
X157354686Y-62316590D01*
X157354686Y-62316590D02*
X157402305Y-62126114D01*
X157402305Y-62126114D02*
X157449924Y-62030876D01*
X157449924Y-62030876D02*
X157545162Y-61935638D01*
X157545162Y-61935638D02*
X157688019Y-61888019D01*
X157688019Y-61888019D02*
X157783257Y-61888019D01*
X157783257Y-61888019D02*
X157926114Y-61935638D01*
X157926114Y-61935638D02*
X157973733Y-61983257D01*
X158830876Y-61888019D02*
X158640400Y-61888019D01*
X158640400Y-61888019D02*
X158545162Y-61935638D01*
X158545162Y-61935638D02*
X158497543Y-61983257D01*
X158497543Y-61983257D02*
X158402305Y-62126114D01*
X158402305Y-62126114D02*
X158354686Y-62316590D01*
X158354686Y-62316590D02*
X158354686Y-62697542D01*
X158354686Y-62697542D02*
X158402305Y-62792780D01*
X158402305Y-62792780D02*
X158449924Y-62840400D01*
X158449924Y-62840400D02*
X158545162Y-62888019D01*
X158545162Y-62888019D02*
X158735638Y-62888019D01*
X158735638Y-62888019D02*
X158830876Y-62840400D01*
X158830876Y-62840400D02*
X158878495Y-62792780D01*
X158878495Y-62792780D02*
X158926114Y-62697542D01*
X158926114Y-62697542D02*
X158926114Y-62459447D01*
X158926114Y-62459447D02*
X158878495Y-62364209D01*
X158878495Y-62364209D02*
X158830876Y-62316590D01*
X158830876Y-62316590D02*
X158735638Y-62268971D01*
X158735638Y-62268971D02*
X158545162Y-62268971D01*
X158545162Y-62268971D02*
X158449924Y-62316590D01*
X158449924Y-62316590D02*
X158402305Y-62364209D01*
X158402305Y-62364209D02*
X158354686Y-62459447D01*
G36*
X153647744Y-104537716D02*
G01*
X153666246Y-104556218D01*
X153688600Y-104600925D01*
X153688600Y-104744087D01*
X153666246Y-104788794D01*
X153647745Y-104807295D01*
X153603038Y-104829650D01*
X153495591Y-104829650D01*
X153450884Y-104807296D01*
X153432381Y-104788793D01*
X153410029Y-104744087D01*
X153410029Y-104600925D01*
X153432381Y-104556219D01*
X153450883Y-104537717D01*
X153495591Y-104515364D01*
X153603038Y-104515364D01*
X153647744Y-104537716D01*
G37*
G36*
X153945743Y-105372507D02*
G01*
X152546881Y-105372507D01*
X152546881Y-105177340D01*
X152654024Y-105177340D01*
X152662933Y-105227864D01*
X152702233Y-105260841D01*
X152727885Y-105265364D01*
X152799314Y-105265364D01*
X152800852Y-105264803D01*
X152823031Y-105261515D01*
X152930174Y-105225801D01*
X152933686Y-105223013D01*
X152938154Y-105222623D01*
X152959490Y-105207683D01*
X153030918Y-105136254D01*
X153032812Y-105132191D01*
X153036633Y-105129844D01*
X153049036Y-105106938D01*
X153084751Y-104999795D01*
X153084706Y-104998160D01*
X153088600Y-104976078D01*
X153088600Y-104761792D01*
X153260029Y-104761792D01*
X153261562Y-104766004D01*
X153260520Y-104770366D01*
X153267947Y-104795333D01*
X153303661Y-104866762D01*
X153304850Y-104867887D01*
X153317710Y-104886254D01*
X153353424Y-104921968D01*
X153354909Y-104922660D01*
X153372916Y-104936017D01*
X153444344Y-104971732D01*
X153448798Y-104972244D01*
X153452234Y-104975127D01*
X153477886Y-104979650D01*
X153620743Y-104979650D01*
X153624956Y-104978116D01*
X153629318Y-104979158D01*
X153654284Y-104971732D01*
X153661493Y-104968127D01*
X153658275Y-104980997D01*
X153598170Y-105071155D01*
X153576314Y-105093011D01*
X153531609Y-105115364D01*
X153406457Y-105115364D01*
X153358248Y-105132911D01*
X153332596Y-105177340D01*
X153341505Y-105227864D01*
X153380805Y-105260841D01*
X153406457Y-105265364D01*
X153549314Y-105265364D01*
X153553526Y-105263830D01*
X153557888Y-105264873D01*
X153582855Y-105257446D01*
X153654284Y-105221732D01*
X153655408Y-105220544D01*
X153673777Y-105207682D01*
X153709491Y-105171967D01*
X153710967Y-105168800D01*
X153718861Y-105160538D01*
X153790290Y-105053395D01*
X153790392Y-105052973D01*
X153800647Y-105029982D01*
X153836361Y-104887125D01*
X153836000Y-104883676D01*
X153838600Y-104868935D01*
X153838600Y-104583221D01*
X153837066Y-104579008D01*
X153838109Y-104574647D01*
X153830682Y-104549681D01*
X153794968Y-104478251D01*
X153793778Y-104477125D01*
X153780919Y-104458759D01*
X153745205Y-104423045D01*
X153743723Y-104422354D01*
X153725713Y-104408996D01*
X153654284Y-104373282D01*
X153649830Y-104372769D01*
X153646395Y-104369887D01*
X153620743Y-104365364D01*
X153477886Y-104365364D01*
X153473673Y-104366897D01*
X153469312Y-104365855D01*
X153444346Y-104373282D01*
X153372916Y-104408996D01*
X153371790Y-104410185D01*
X153353424Y-104423045D01*
X153317710Y-104458759D01*
X153317019Y-104460240D01*
X153303661Y-104478251D01*
X153267947Y-104549680D01*
X153267434Y-104554133D01*
X153264552Y-104557569D01*
X153260029Y-104583221D01*
X153260029Y-104761792D01*
X153088600Y-104761792D01*
X153088600Y-104440364D01*
X153071053Y-104392155D01*
X153026624Y-104366503D01*
X152976100Y-104375412D01*
X152943123Y-104414712D01*
X152938600Y-104440364D01*
X152938600Y-104963906D01*
X152912332Y-105042707D01*
X152865942Y-105089098D01*
X152787144Y-105115364D01*
X152727885Y-105115364D01*
X152679676Y-105132911D01*
X152654024Y-105177340D01*
X152546881Y-105177340D01*
X152546881Y-104258221D01*
X153945743Y-104258221D01*
X153945743Y-105372507D01*
G37*
X143246019Y-51525466D02*
X142769828Y-51858799D01*
X143246019Y-52096894D02*
X142246019Y-52096894D01*
X142246019Y-52096894D02*
X142246019Y-51715942D01*
X142246019Y-51715942D02*
X142293638Y-51620704D01*
X142293638Y-51620704D02*
X142341257Y-51573085D01*
X142341257Y-51573085D02*
X142436495Y-51525466D01*
X142436495Y-51525466D02*
X142579352Y-51525466D01*
X142579352Y-51525466D02*
X142674590Y-51573085D01*
X142674590Y-51573085D02*
X142722209Y-51620704D01*
X142722209Y-51620704D02*
X142769828Y-51715942D01*
X142769828Y-51715942D02*
X142769828Y-52096894D01*
X142341257Y-51144513D02*
X142293638Y-51096894D01*
X142293638Y-51096894D02*
X142246019Y-51001656D01*
X142246019Y-51001656D02*
X142246019Y-50763561D01*
X142246019Y-50763561D02*
X142293638Y-50668323D01*
X142293638Y-50668323D02*
X142341257Y-50620704D01*
X142341257Y-50620704D02*
X142436495Y-50573085D01*
X142436495Y-50573085D02*
X142531733Y-50573085D01*
X142531733Y-50573085D02*
X142674590Y-50620704D01*
X142674590Y-50620704D02*
X143246019Y-51192132D01*
X143246019Y-51192132D02*
X143246019Y-50573085D01*
G36*
X142071766Y-69689125D02*
G01*
X142148753Y-69727619D01*
X142179161Y-69758026D01*
X142213419Y-69826542D01*
X142213419Y-69886370D01*
X142179161Y-69954885D01*
X142148753Y-69985292D01*
X142071766Y-70023786D01*
X141898232Y-70067170D01*
X141678605Y-70067170D01*
X141505071Y-70023786D01*
X141428084Y-69985293D01*
X141397677Y-69954886D01*
X141363419Y-69886370D01*
X141363419Y-69826542D01*
X141397677Y-69758026D01*
X141428084Y-69727619D01*
X141505071Y-69689125D01*
X141678605Y-69645742D01*
X141898232Y-69645742D01*
X142071766Y-69689125D01*
G37*
G36*
X142506276Y-72120793D02*
G01*
X141070562Y-72120793D01*
X141070562Y-71510099D01*
X141214558Y-71510099D01*
X141223467Y-71560623D01*
X141262767Y-71593600D01*
X141288419Y-71598123D01*
X141990534Y-71598123D01*
X142105047Y-71636294D01*
X142175248Y-71706494D01*
X142213419Y-71821007D01*
X142213419Y-71904075D01*
X142230966Y-71952284D01*
X142275395Y-71977936D01*
X142325919Y-71969027D01*
X142358896Y-71929727D01*
X142363419Y-71904075D01*
X142363419Y-71808837D01*
X142362859Y-71807299D01*
X142359570Y-71785119D01*
X142311951Y-71642263D01*
X142309164Y-71638752D01*
X142308774Y-71634284D01*
X142293833Y-71612947D01*
X142198594Y-71517709D01*
X142194530Y-71515814D01*
X142192183Y-71511993D01*
X142169278Y-71499591D01*
X142026421Y-71451972D01*
X142024786Y-71452016D01*
X142002704Y-71448123D01*
X141288419Y-71448123D01*
X141240210Y-71465670D01*
X141214558Y-71510099D01*
X141070562Y-71510099D01*
X141070562Y-70951694D01*
X141213419Y-70951694D01*
X141214952Y-70955907D01*
X141213911Y-70960268D01*
X141221337Y-70985235D01*
X141268956Y-71080473D01*
X141270145Y-71081598D01*
X141283005Y-71099965D01*
X141330624Y-71147584D01*
X141377120Y-71169265D01*
X141426675Y-71155988D01*
X141456101Y-71113962D01*
X141451630Y-71062855D01*
X141436690Y-71041518D01*
X141397677Y-71002505D01*
X141363419Y-70933989D01*
X141363419Y-70731304D01*
X141397677Y-70662788D01*
X141428084Y-70632381D01*
X141496600Y-70598123D01*
X141561963Y-70598123D01*
X141676476Y-70636294D01*
X142235386Y-71195203D01*
X142255839Y-71204740D01*
X142275395Y-71216031D01*
X142278775Y-71215434D01*
X142281883Y-71216884D01*
X142303685Y-71211042D01*
X142325919Y-71207122D01*
X142328123Y-71204494D01*
X142331437Y-71203607D01*
X142344385Y-71185115D01*
X142358896Y-71167822D01*
X142359704Y-71163237D01*
X142360864Y-71161581D01*
X142360576Y-71158292D01*
X142363419Y-71142170D01*
X142363419Y-70523123D01*
X142345872Y-70474914D01*
X142301443Y-70449262D01*
X142250919Y-70458171D01*
X142217942Y-70497471D01*
X142213419Y-70523123D01*
X142213419Y-70961104D01*
X141770023Y-70517709D01*
X141765959Y-70515814D01*
X141763612Y-70511993D01*
X141740707Y-70499591D01*
X141597850Y-70451972D01*
X141596215Y-70452016D01*
X141574133Y-70448123D01*
X141478895Y-70448123D01*
X141474681Y-70449656D01*
X141470320Y-70448615D01*
X141445354Y-70456041D01*
X141350116Y-70503660D01*
X141348990Y-70504849D01*
X141330624Y-70517709D01*
X141283005Y-70565328D01*
X141282314Y-70566809D01*
X141268956Y-70584820D01*
X141221337Y-70680058D01*
X141220824Y-70684511D01*
X141217942Y-70687947D01*
X141213419Y-70713599D01*
X141213419Y-70951694D01*
X141070562Y-70951694D01*
X141070562Y-69904075D01*
X141213419Y-69904075D01*
X141214952Y-69908288D01*
X141213911Y-69912649D01*
X141221337Y-69937616D01*
X141268956Y-70032854D01*
X141270145Y-70033979D01*
X141283005Y-70052346D01*
X141330624Y-70099965D01*
X141332105Y-70100656D01*
X141350116Y-70114014D01*
X141445354Y-70161633D01*
X141448882Y-70162039D01*
X141460705Y-70167312D01*
X141651181Y-70214931D01*
X141654629Y-70214570D01*
X141669371Y-70217170D01*
X141907466Y-70217170D01*
X141910723Y-70215984D01*
X141925656Y-70214931D01*
X142116132Y-70167312D01*
X142119076Y-70165323D01*
X142131483Y-70161633D01*
X142226721Y-70114014D01*
X142227846Y-70112825D01*
X142246212Y-70099966D01*
X142293832Y-70052347D01*
X142294522Y-70050865D01*
X142307882Y-70032854D01*
X142355501Y-69937616D01*
X142356013Y-69933162D01*
X142358896Y-69929727D01*
X142363419Y-69904075D01*
X142363419Y-69808837D01*
X142361885Y-69804623D01*
X142362927Y-69800262D01*
X142355501Y-69775296D01*
X142307882Y-69680058D01*
X142306694Y-69678933D01*
X142293832Y-69660565D01*
X142246212Y-69612946D01*
X142244729Y-69612254D01*
X142226721Y-69598898D01*
X142131483Y-69551279D01*
X142127954Y-69550872D01*
X142116132Y-69545600D01*
X141925656Y-69497981D01*
X141922207Y-69498341D01*
X141907466Y-69495742D01*
X141669371Y-69495742D01*
X141666113Y-69496927D01*
X141651181Y-69497981D01*
X141460705Y-69545600D01*
X141457760Y-69547588D01*
X141445354Y-69551279D01*
X141350116Y-69598898D01*
X141348990Y-69600087D01*
X141330624Y-69612947D01*
X141283005Y-69660566D01*
X141282314Y-69662047D01*
X141268956Y-69680058D01*
X141221337Y-69775296D01*
X141220824Y-69779749D01*
X141217942Y-69783185D01*
X141213419Y-69808837D01*
X141213419Y-69904075D01*
X141070562Y-69904075D01*
X141070562Y-69352885D01*
X142506276Y-69352885D01*
X142506276Y-72120793D01*
G37*
X155770342Y-82757180D02*
X155722723Y-82804800D01*
X155722723Y-82804800D02*
X155579866Y-82852419D01*
X155579866Y-82852419D02*
X155484628Y-82852419D01*
X155484628Y-82852419D02*
X155341771Y-82804800D01*
X155341771Y-82804800D02*
X155246533Y-82709561D01*
X155246533Y-82709561D02*
X155198914Y-82614323D01*
X155198914Y-82614323D02*
X155151295Y-82423847D01*
X155151295Y-82423847D02*
X155151295Y-82280990D01*
X155151295Y-82280990D02*
X155198914Y-82090514D01*
X155198914Y-82090514D02*
X155246533Y-81995276D01*
X155246533Y-81995276D02*
X155341771Y-81900038D01*
X155341771Y-81900038D02*
X155484628Y-81852419D01*
X155484628Y-81852419D02*
X155579866Y-81852419D01*
X155579866Y-81852419D02*
X155722723Y-81900038D01*
X155722723Y-81900038D02*
X155770342Y-81947657D01*
X156722723Y-82852419D02*
X156151295Y-82852419D01*
X156437009Y-82852419D02*
X156437009Y-81852419D01*
X156437009Y-81852419D02*
X156341771Y-81995276D01*
X156341771Y-81995276D02*
X156246533Y-82090514D01*
X156246533Y-82090514D02*
X156151295Y-82138133D01*
X157341771Y-81852419D02*
X157437009Y-81852419D01*
X157437009Y-81852419D02*
X157532247Y-81900038D01*
X157532247Y-81900038D02*
X157579866Y-81947657D01*
X157579866Y-81947657D02*
X157627485Y-82042895D01*
X157627485Y-82042895D02*
X157675104Y-82233371D01*
X157675104Y-82233371D02*
X157675104Y-82471466D01*
X157675104Y-82471466D02*
X157627485Y-82661942D01*
X157627485Y-82661942D02*
X157579866Y-82757180D01*
X157579866Y-82757180D02*
X157532247Y-82804800D01*
X157532247Y-82804800D02*
X157437009Y-82852419D01*
X157437009Y-82852419D02*
X157341771Y-82852419D01*
X157341771Y-82852419D02*
X157246533Y-82804800D01*
X157246533Y-82804800D02*
X157198914Y-82757180D01*
X157198914Y-82757180D02*
X157151295Y-82661942D01*
X157151295Y-82661942D02*
X157103676Y-82471466D01*
X157103676Y-82471466D02*
X157103676Y-82233371D01*
X157103676Y-82233371D02*
X157151295Y-82042895D01*
X157151295Y-82042895D02*
X157198914Y-81947657D01*
X157198914Y-81947657D02*
X157246533Y-81900038D01*
X157246533Y-81900038D02*
X157341771Y-81852419D01*
X164849980Y-48883866D02*
X164897600Y-48931485D01*
X164897600Y-48931485D02*
X164945219Y-49074342D01*
X164945219Y-49074342D02*
X164945219Y-49169580D01*
X164945219Y-49169580D02*
X164897600Y-49312437D01*
X164897600Y-49312437D02*
X164802361Y-49407675D01*
X164802361Y-49407675D02*
X164707123Y-49455294D01*
X164707123Y-49455294D02*
X164516647Y-49502913D01*
X164516647Y-49502913D02*
X164373790Y-49502913D01*
X164373790Y-49502913D02*
X164183314Y-49455294D01*
X164183314Y-49455294D02*
X164088076Y-49407675D01*
X164088076Y-49407675D02*
X163992838Y-49312437D01*
X163992838Y-49312437D02*
X163945219Y-49169580D01*
X163945219Y-49169580D02*
X163945219Y-49074342D01*
X163945219Y-49074342D02*
X163992838Y-48931485D01*
X163992838Y-48931485D02*
X164040457Y-48883866D01*
X164278552Y-48026723D02*
X164945219Y-48026723D01*
X163897600Y-48264818D02*
X164611885Y-48502913D01*
X164611885Y-48502913D02*
X164611885Y-47883866D01*
X151604742Y-65021619D02*
X151271409Y-64545428D01*
X151033314Y-65021619D02*
X151033314Y-64021619D01*
X151033314Y-64021619D02*
X151414266Y-64021619D01*
X151414266Y-64021619D02*
X151509504Y-64069238D01*
X151509504Y-64069238D02*
X151557123Y-64116857D01*
X151557123Y-64116857D02*
X151604742Y-64212095D01*
X151604742Y-64212095D02*
X151604742Y-64354952D01*
X151604742Y-64354952D02*
X151557123Y-64450190D01*
X151557123Y-64450190D02*
X151509504Y-64497809D01*
X151509504Y-64497809D02*
X151414266Y-64545428D01*
X151414266Y-64545428D02*
X151033314Y-64545428D01*
X152557123Y-65021619D02*
X151985695Y-65021619D01*
X152271409Y-65021619D02*
X152271409Y-64021619D01*
X152271409Y-64021619D02*
X152176171Y-64164476D01*
X152176171Y-64164476D02*
X152080933Y-64259714D01*
X152080933Y-64259714D02*
X151985695Y-64307333D01*
X153033314Y-65021619D02*
X153223790Y-65021619D01*
X153223790Y-65021619D02*
X153319028Y-64974000D01*
X153319028Y-64974000D02*
X153366647Y-64926380D01*
X153366647Y-64926380D02*
X153461885Y-64783523D01*
X153461885Y-64783523D02*
X153509504Y-64593047D01*
X153509504Y-64593047D02*
X153509504Y-64212095D01*
X153509504Y-64212095D02*
X153461885Y-64116857D01*
X153461885Y-64116857D02*
X153414266Y-64069238D01*
X153414266Y-64069238D02*
X153319028Y-64021619D01*
X153319028Y-64021619D02*
X153128552Y-64021619D01*
X153128552Y-64021619D02*
X153033314Y-64069238D01*
X153033314Y-64069238D02*
X152985695Y-64116857D01*
X152985695Y-64116857D02*
X152938076Y-64212095D01*
X152938076Y-64212095D02*
X152938076Y-64450190D01*
X152938076Y-64450190D02*
X152985695Y-64545428D01*
X152985695Y-64545428D02*
X153033314Y-64593047D01*
X153033314Y-64593047D02*
X153128552Y-64640666D01*
X153128552Y-64640666D02*
X153319028Y-64640666D01*
X153319028Y-64640666D02*
X153414266Y-64593047D01*
X153414266Y-64593047D02*
X153461885Y-64545428D01*
X153461885Y-64545428D02*
X153509504Y-64450190D01*
X166672419Y-79128857D02*
X166196228Y-79462190D01*
X166672419Y-79700285D02*
X165672419Y-79700285D01*
X165672419Y-79700285D02*
X165672419Y-79319333D01*
X165672419Y-79319333D02*
X165720038Y-79224095D01*
X165720038Y-79224095D02*
X165767657Y-79176476D01*
X165767657Y-79176476D02*
X165862895Y-79128857D01*
X165862895Y-79128857D02*
X166005752Y-79128857D01*
X166005752Y-79128857D02*
X166100990Y-79176476D01*
X166100990Y-79176476D02*
X166148609Y-79224095D01*
X166148609Y-79224095D02*
X166196228Y-79319333D01*
X166196228Y-79319333D02*
X166196228Y-79700285D01*
X166672419Y-78176476D02*
X166672419Y-78747904D01*
X166672419Y-78462190D02*
X165672419Y-78462190D01*
X165672419Y-78462190D02*
X165815276Y-78557428D01*
X165815276Y-78557428D02*
X165910514Y-78652666D01*
X165910514Y-78652666D02*
X165958133Y-78747904D01*
X166672419Y-77224095D02*
X166672419Y-77795523D01*
X166672419Y-77509809D02*
X165672419Y-77509809D01*
X165672419Y-77509809D02*
X165815276Y-77605047D01*
X165815276Y-77605047D02*
X165910514Y-77700285D01*
X165910514Y-77700285D02*
X165958133Y-77795523D01*
X147470019Y-57418266D02*
X146993828Y-57751599D01*
X147470019Y-57989694D02*
X146470019Y-57989694D01*
X146470019Y-57989694D02*
X146470019Y-57608742D01*
X146470019Y-57608742D02*
X146517638Y-57513504D01*
X146517638Y-57513504D02*
X146565257Y-57465885D01*
X146565257Y-57465885D02*
X146660495Y-57418266D01*
X146660495Y-57418266D02*
X146803352Y-57418266D01*
X146803352Y-57418266D02*
X146898590Y-57465885D01*
X146898590Y-57465885D02*
X146946209Y-57513504D01*
X146946209Y-57513504D02*
X146993828Y-57608742D01*
X146993828Y-57608742D02*
X146993828Y-57989694D01*
X146470019Y-57084932D02*
X146470019Y-56465885D01*
X146470019Y-56465885D02*
X146850971Y-56799218D01*
X146850971Y-56799218D02*
X146850971Y-56656361D01*
X146850971Y-56656361D02*
X146898590Y-56561123D01*
X146898590Y-56561123D02*
X146946209Y-56513504D01*
X146946209Y-56513504D02*
X147041447Y-56465885D01*
X147041447Y-56465885D02*
X147279542Y-56465885D01*
X147279542Y-56465885D02*
X147374780Y-56513504D01*
X147374780Y-56513504D02*
X147422400Y-56561123D01*
X147422400Y-56561123D02*
X147470019Y-56656361D01*
X147470019Y-56656361D02*
X147470019Y-56942075D01*
X147470019Y-56942075D02*
X147422400Y-57037313D01*
X147422400Y-57037313D02*
X147374780Y-57084932D01*
X166824819Y-109285066D02*
X166348628Y-109618399D01*
X166824819Y-109856494D02*
X165824819Y-109856494D01*
X165824819Y-109856494D02*
X165824819Y-109475542D01*
X165824819Y-109475542D02*
X165872438Y-109380304D01*
X165872438Y-109380304D02*
X165920057Y-109332685D01*
X165920057Y-109332685D02*
X166015295Y-109285066D01*
X166015295Y-109285066D02*
X166158152Y-109285066D01*
X166158152Y-109285066D02*
X166253390Y-109332685D01*
X166253390Y-109332685D02*
X166301009Y-109380304D01*
X166301009Y-109380304D02*
X166348628Y-109475542D01*
X166348628Y-109475542D02*
X166348628Y-109856494D01*
X166824819Y-108332685D02*
X166824819Y-108904113D01*
X166824819Y-108618399D02*
X165824819Y-108618399D01*
X165824819Y-108618399D02*
X165967676Y-108713637D01*
X165967676Y-108713637D02*
X166062914Y-108808875D01*
X166062914Y-108808875D02*
X166110533Y-108904113D01*
X158550780Y-49391866D02*
X158598400Y-49439485D01*
X158598400Y-49439485D02*
X158646019Y-49582342D01*
X158646019Y-49582342D02*
X158646019Y-49677580D01*
X158646019Y-49677580D02*
X158598400Y-49820437D01*
X158598400Y-49820437D02*
X158503161Y-49915675D01*
X158503161Y-49915675D02*
X158407923Y-49963294D01*
X158407923Y-49963294D02*
X158217447Y-50010913D01*
X158217447Y-50010913D02*
X158074590Y-50010913D01*
X158074590Y-50010913D02*
X157884114Y-49963294D01*
X157884114Y-49963294D02*
X157788876Y-49915675D01*
X157788876Y-49915675D02*
X157693638Y-49820437D01*
X157693638Y-49820437D02*
X157646019Y-49677580D01*
X157646019Y-49677580D02*
X157646019Y-49582342D01*
X157646019Y-49582342D02*
X157693638Y-49439485D01*
X157693638Y-49439485D02*
X157741257Y-49391866D01*
X157741257Y-49010913D02*
X157693638Y-48963294D01*
X157693638Y-48963294D02*
X157646019Y-48868056D01*
X157646019Y-48868056D02*
X157646019Y-48629961D01*
X157646019Y-48629961D02*
X157693638Y-48534723D01*
X157693638Y-48534723D02*
X157741257Y-48487104D01*
X157741257Y-48487104D02*
X157836495Y-48439485D01*
X157836495Y-48439485D02*
X157931733Y-48439485D01*
X157931733Y-48439485D02*
X158074590Y-48487104D01*
X158074590Y-48487104D02*
X158646019Y-49058532D01*
X158646019Y-49058532D02*
X158646019Y-48439485D01*
X150283942Y-69447580D02*
X150236323Y-69495200D01*
X150236323Y-69495200D02*
X150093466Y-69542819D01*
X150093466Y-69542819D02*
X149998228Y-69542819D01*
X149998228Y-69542819D02*
X149855371Y-69495200D01*
X149855371Y-69495200D02*
X149760133Y-69399961D01*
X149760133Y-69399961D02*
X149712514Y-69304723D01*
X149712514Y-69304723D02*
X149664895Y-69114247D01*
X149664895Y-69114247D02*
X149664895Y-68971390D01*
X149664895Y-68971390D02*
X149712514Y-68780914D01*
X149712514Y-68780914D02*
X149760133Y-68685676D01*
X149760133Y-68685676D02*
X149855371Y-68590438D01*
X149855371Y-68590438D02*
X149998228Y-68542819D01*
X149998228Y-68542819D02*
X150093466Y-68542819D01*
X150093466Y-68542819D02*
X150236323Y-68590438D01*
X150236323Y-68590438D02*
X150283942Y-68638057D01*
X151236323Y-69542819D02*
X150664895Y-69542819D01*
X150950609Y-69542819D02*
X150950609Y-68542819D01*
X150950609Y-68542819D02*
X150855371Y-68685676D01*
X150855371Y-68685676D02*
X150760133Y-68780914D01*
X150760133Y-68780914D02*
X150664895Y-68828533D01*
X151569657Y-68542819D02*
X152188704Y-68542819D01*
X152188704Y-68542819D02*
X151855371Y-68923771D01*
X151855371Y-68923771D02*
X151998228Y-68923771D01*
X151998228Y-68923771D02*
X152093466Y-68971390D01*
X152093466Y-68971390D02*
X152141085Y-69019009D01*
X152141085Y-69019009D02*
X152188704Y-69114247D01*
X152188704Y-69114247D02*
X152188704Y-69352342D01*
X152188704Y-69352342D02*
X152141085Y-69447580D01*
X152141085Y-69447580D02*
X152093466Y-69495200D01*
X152093466Y-69495200D02*
X151998228Y-69542819D01*
X151998228Y-69542819D02*
X151712514Y-69542819D01*
X151712514Y-69542819D02*
X151617276Y-69495200D01*
X151617276Y-69495200D02*
X151569657Y-69447580D01*
G36*
X148952661Y-105524907D02*
G01*
X146804938Y-105524907D01*
X146804938Y-105329740D01*
X146912081Y-105329740D01*
X146920990Y-105380264D01*
X146960290Y-105413241D01*
X146985942Y-105417764D01*
X147057371Y-105417764D01*
X147058909Y-105417203D01*
X147081088Y-105413915D01*
X147188231Y-105378201D01*
X147191743Y-105375413D01*
X147196211Y-105375023D01*
X147217547Y-105360083D01*
X147247890Y-105329740D01*
X147519225Y-105329740D01*
X147528134Y-105380264D01*
X147567434Y-105413241D01*
X147593086Y-105417764D01*
X148021657Y-105417764D01*
X148069866Y-105400217D01*
X148095518Y-105355788D01*
X148086609Y-105305264D01*
X148047309Y-105272287D01*
X148021657Y-105267764D01*
X147882371Y-105267764D01*
X147882371Y-105079740D01*
X148233511Y-105079740D01*
X148237063Y-105099886D01*
X148237622Y-105120331D01*
X148241424Y-105124619D01*
X148242420Y-105130264D01*
X148258087Y-105143410D01*
X148271659Y-105158716D01*
X148277329Y-105159556D01*
X148281720Y-105163241D01*
X148307372Y-105167764D01*
X148589515Y-105167764D01*
X148589515Y-105342764D01*
X148607062Y-105390973D01*
X148651491Y-105416625D01*
X148702015Y-105407716D01*
X148734992Y-105368416D01*
X148739515Y-105342764D01*
X148739515Y-105167764D01*
X148771657Y-105167764D01*
X148819866Y-105150217D01*
X148845518Y-105105788D01*
X148836609Y-105055264D01*
X148797309Y-105022287D01*
X148771657Y-105017764D01*
X148739515Y-105017764D01*
X148739515Y-104842764D01*
X148721968Y-104794555D01*
X148677539Y-104768903D01*
X148627015Y-104777812D01*
X148594038Y-104817112D01*
X148589515Y-104842764D01*
X148589515Y-105017764D01*
X148411429Y-105017764D01*
X148557094Y-104580767D01*
X148555693Y-104529483D01*
X148521656Y-104491098D01*
X148470907Y-104483573D01*
X148427194Y-104510428D01*
X148414792Y-104533333D01*
X148236221Y-105069047D01*
X148236377Y-105074775D01*
X148233511Y-105079740D01*
X147882371Y-105079740D01*
X147882371Y-104592764D01*
X147880895Y-104588710D01*
X147881916Y-104584521D01*
X147872269Y-104565010D01*
X147864824Y-104544555D01*
X147861089Y-104542398D01*
X147859178Y-104538533D01*
X147839251Y-104529790D01*
X147820395Y-104518903D01*
X147816145Y-104519652D01*
X147812197Y-104517920D01*
X147791309Y-104524031D01*
X147769871Y-104527812D01*
X147767098Y-104531115D01*
X147762959Y-104532327D01*
X147744967Y-104551162D01*
X147677659Y-104652124D01*
X147620086Y-104709696D01*
X147559544Y-104739968D01*
X147524272Y-104777223D01*
X147521198Y-104828433D01*
X147551762Y-104869639D01*
X147601661Y-104881558D01*
X147626628Y-104874132D01*
X147698055Y-104838417D01*
X147699178Y-104837230D01*
X147717547Y-104824368D01*
X147732371Y-104809544D01*
X147732371Y-105267764D01*
X147593086Y-105267764D01*
X147544877Y-105285311D01*
X147519225Y-105329740D01*
X147247890Y-105329740D01*
X147288975Y-105288654D01*
X147290869Y-105284591D01*
X147294690Y-105282244D01*
X147307093Y-105259338D01*
X147342808Y-105152195D01*
X147342763Y-105150560D01*
X147346657Y-105128478D01*
X147346657Y-104592764D01*
X147329110Y-104544555D01*
X147284681Y-104518903D01*
X147234157Y-104527812D01*
X147201180Y-104567112D01*
X147196657Y-104592764D01*
X147196657Y-105116306D01*
X147170389Y-105195107D01*
X147123999Y-105241498D01*
X147045201Y-105267764D01*
X146985942Y-105267764D01*
X146937733Y-105285311D01*
X146912081Y-105329740D01*
X146804938Y-105329740D01*
X146804938Y-104376430D01*
X148952661Y-104376430D01*
X148952661Y-105524907D01*
G37*
G36*
X167504203Y-82816276D02*
G01*
X165642196Y-82816276D01*
X165642196Y-82585395D01*
X165785053Y-82585395D01*
X165793962Y-82635919D01*
X165833262Y-82668896D01*
X165858914Y-82673419D01*
X165954152Y-82673419D01*
X165955690Y-82672858D01*
X165977869Y-82669570D01*
X166120726Y-82621951D01*
X166124238Y-82619163D01*
X166128705Y-82618773D01*
X166150042Y-82603833D01*
X166245281Y-82508593D01*
X166247175Y-82504529D01*
X166250995Y-82502183D01*
X166263398Y-82479278D01*
X166311017Y-82336422D01*
X166310972Y-82334786D01*
X166314866Y-82312704D01*
X166314866Y-81598419D01*
X166310126Y-81585395D01*
X166546958Y-81585395D01*
X166555867Y-81635919D01*
X166595167Y-81668896D01*
X166620819Y-81673419D01*
X167173744Y-81673419D01*
X166789978Y-82568875D01*
X166787116Y-82620098D01*
X166817848Y-82661178D01*
X166867796Y-82672891D01*
X166913588Y-82649759D01*
X166927850Y-82627963D01*
X167356421Y-81627963D01*
X167356915Y-81619117D01*
X167361346Y-81611443D01*
X167358306Y-81594208D01*
X167359283Y-81576740D01*
X167353975Y-81569646D01*
X167352437Y-81560919D01*
X167339031Y-81549670D01*
X167328551Y-81535661D01*
X167319925Y-81533638D01*
X167313137Y-81527942D01*
X167287485Y-81523419D01*
X166620819Y-81523419D01*
X166572610Y-81540966D01*
X166546958Y-81585395D01*
X166310126Y-81585395D01*
X166297319Y-81550210D01*
X166252890Y-81524558D01*
X166202366Y-81533467D01*
X166169389Y-81572767D01*
X166164866Y-81598419D01*
X166164866Y-82300534D01*
X166126694Y-82415047D01*
X166056495Y-82485247D01*
X165941982Y-82523419D01*
X165858914Y-82523419D01*
X165810705Y-82540966D01*
X165785053Y-82585395D01*
X165642196Y-82585395D01*
X165642196Y-81380562D01*
X167504203Y-81380562D01*
X167504203Y-82816276D01*
G37*
G36*
X166795401Y-92959829D02*
G01*
X166825808Y-92990236D01*
X166860066Y-93058752D01*
X166860066Y-93261437D01*
X166825807Y-93329953D01*
X166795400Y-93360361D01*
X166726885Y-93394619D01*
X166571819Y-93394619D01*
X166503303Y-93360361D01*
X166472896Y-93329953D01*
X166438638Y-93261437D01*
X166438638Y-93058752D01*
X166472896Y-92990236D01*
X166503303Y-92959829D01*
X166571819Y-92925571D01*
X166726885Y-92925571D01*
X166795401Y-92959829D01*
G37*
G36*
X167152923Y-93687476D02*
G01*
X165337396Y-93687476D01*
X165337396Y-93456595D01*
X165480253Y-93456595D01*
X165489162Y-93507119D01*
X165528462Y-93540096D01*
X165554114Y-93544619D01*
X165649352Y-93544619D01*
X165650890Y-93544058D01*
X165673069Y-93540770D01*
X165815926Y-93493151D01*
X165819438Y-93490363D01*
X165823905Y-93489973D01*
X165845242Y-93475033D01*
X165940481Y-93379793D01*
X165942375Y-93375729D01*
X165946195Y-93373383D01*
X165958598Y-93350478D01*
X165982377Y-93279142D01*
X166288638Y-93279142D01*
X166290171Y-93283355D01*
X166289130Y-93287716D01*
X166296556Y-93312683D01*
X166344175Y-93407921D01*
X166345363Y-93409046D01*
X166358223Y-93427412D01*
X166405842Y-93475032D01*
X166407323Y-93475722D01*
X166425335Y-93489082D01*
X166520573Y-93536701D01*
X166525026Y-93537213D01*
X166528462Y-93540096D01*
X166554114Y-93544619D01*
X166744590Y-93544619D01*
X166748803Y-93543085D01*
X166753164Y-93544127D01*
X166778131Y-93536701D01*
X166873369Y-93489082D01*
X166874493Y-93487894D01*
X166892862Y-93475032D01*
X166940480Y-93427413D01*
X166941170Y-93425931D01*
X166954529Y-93407921D01*
X167002148Y-93312683D01*
X167002660Y-93308229D01*
X167005543Y-93304794D01*
X167010066Y-93279142D01*
X167010066Y-93041047D01*
X167008532Y-93036833D01*
X167009574Y-93032472D01*
X167002148Y-93007506D01*
X166954529Y-92912268D01*
X166953339Y-92911142D01*
X166940480Y-92892776D01*
X166892861Y-92845157D01*
X166891379Y-92844466D01*
X166873369Y-92831108D01*
X166778131Y-92783489D01*
X166773677Y-92782976D01*
X166770242Y-92780094D01*
X166744590Y-92775571D01*
X166554114Y-92775571D01*
X166549900Y-92777104D01*
X166545539Y-92776063D01*
X166520573Y-92783489D01*
X166462343Y-92812604D01*
X166480867Y-92738507D01*
X166564779Y-92612638D01*
X166598541Y-92578877D01*
X166667057Y-92544619D01*
X166839828Y-92544619D01*
X166888037Y-92527072D01*
X166913689Y-92482643D01*
X166904780Y-92432119D01*
X166865480Y-92399142D01*
X166839828Y-92394619D01*
X166649352Y-92394619D01*
X166645138Y-92396152D01*
X166640777Y-92395111D01*
X166615811Y-92402537D01*
X166520573Y-92450156D01*
X166519447Y-92451345D01*
X166501081Y-92464205D01*
X166453462Y-92511824D01*
X166451985Y-92514989D01*
X166444091Y-92523254D01*
X166348853Y-92666111D01*
X166348750Y-92666532D01*
X166338496Y-92689524D01*
X166290877Y-92880000D01*
X166291237Y-92883448D01*
X166288638Y-92898190D01*
X166288638Y-93279142D01*
X165982377Y-93279142D01*
X166006217Y-93207622D01*
X166006172Y-93205986D01*
X166010066Y-93183904D01*
X166010066Y-92469619D01*
X165992519Y-92421410D01*
X165948090Y-92395758D01*
X165897566Y-92404667D01*
X165864589Y-92443967D01*
X165860066Y-92469619D01*
X165860066Y-93171734D01*
X165821894Y-93286247D01*
X165751695Y-93356447D01*
X165637182Y-93394619D01*
X165554114Y-93394619D01*
X165505905Y-93412166D01*
X165480253Y-93456595D01*
X165337396Y-93456595D01*
X165337396Y-92251762D01*
X167152923Y-92251762D01*
X167152923Y-93687476D01*
G37*
G36*
X166795401Y-70401448D02*
G01*
X166825808Y-70431855D01*
X166860066Y-70500371D01*
X166860066Y-70655437D01*
X166825807Y-70723953D01*
X166795400Y-70754361D01*
X166726885Y-70788619D01*
X166571819Y-70788619D01*
X166503303Y-70754361D01*
X166472896Y-70723953D01*
X166438638Y-70655437D01*
X166438638Y-70500371D01*
X166472896Y-70431855D01*
X166503303Y-70401448D01*
X166571819Y-70367190D01*
X166726885Y-70367190D01*
X166795401Y-70401448D01*
G37*
G36*
X166795401Y-69972877D02*
G01*
X166825808Y-70003284D01*
X166860066Y-70071800D01*
X166860066Y-70084009D01*
X166825808Y-70152525D01*
X166795401Y-70182932D01*
X166726885Y-70217190D01*
X166571819Y-70217190D01*
X166503303Y-70182932D01*
X166472896Y-70152525D01*
X166438638Y-70084009D01*
X166438638Y-70071800D01*
X166472896Y-70003284D01*
X166503303Y-69972877D01*
X166571819Y-69938619D01*
X166726885Y-69938619D01*
X166795401Y-69972877D01*
G37*
G36*
X167152923Y-71081476D02*
G01*
X165337396Y-71081476D01*
X165337396Y-70850595D01*
X165480253Y-70850595D01*
X165489162Y-70901119D01*
X165528462Y-70934096D01*
X165554114Y-70938619D01*
X165649352Y-70938619D01*
X165650890Y-70938058D01*
X165673069Y-70934770D01*
X165815926Y-70887151D01*
X165819438Y-70884363D01*
X165823905Y-70883973D01*
X165845242Y-70869033D01*
X165940481Y-70773793D01*
X165942375Y-70769729D01*
X165946195Y-70767383D01*
X165958598Y-70744478D01*
X165982377Y-70673142D01*
X166288638Y-70673142D01*
X166290171Y-70677355D01*
X166289130Y-70681716D01*
X166296556Y-70706683D01*
X166344175Y-70801921D01*
X166345363Y-70803046D01*
X166358223Y-70821412D01*
X166405842Y-70869032D01*
X166407323Y-70869722D01*
X166425335Y-70883082D01*
X166520573Y-70930701D01*
X166525026Y-70931213D01*
X166528462Y-70934096D01*
X166554114Y-70938619D01*
X166744590Y-70938619D01*
X166748803Y-70937085D01*
X166753164Y-70938127D01*
X166778131Y-70930701D01*
X166873369Y-70883082D01*
X166874493Y-70881894D01*
X166892862Y-70869032D01*
X166940480Y-70821413D01*
X166941170Y-70819931D01*
X166954529Y-70801921D01*
X167002148Y-70706683D01*
X167002660Y-70702229D01*
X167005543Y-70698794D01*
X167010066Y-70673142D01*
X167010066Y-70482666D01*
X167008532Y-70478452D01*
X167009574Y-70474091D01*
X167002148Y-70449125D01*
X166954529Y-70353887D01*
X166953339Y-70352761D01*
X166940480Y-70334395D01*
X166898275Y-70292190D01*
X166940480Y-70249985D01*
X166941171Y-70248503D01*
X166954529Y-70230493D01*
X167002148Y-70135255D01*
X167002660Y-70130801D01*
X167005543Y-70127366D01*
X167010066Y-70101714D01*
X167010066Y-70054095D01*
X167008532Y-70049881D01*
X167009574Y-70045520D01*
X167002148Y-70020554D01*
X166954529Y-69925316D01*
X166953339Y-69924190D01*
X166940480Y-69905824D01*
X166892861Y-69858205D01*
X166891379Y-69857514D01*
X166873369Y-69844156D01*
X166778131Y-69796537D01*
X166773677Y-69796024D01*
X166770242Y-69793142D01*
X166744590Y-69788619D01*
X166554114Y-69788619D01*
X166549900Y-69790152D01*
X166545539Y-69789111D01*
X166520573Y-69796537D01*
X166425335Y-69844156D01*
X166424209Y-69845345D01*
X166405843Y-69858205D01*
X166358224Y-69905824D01*
X166357533Y-69907305D01*
X166344175Y-69925316D01*
X166296556Y-70020554D01*
X166296043Y-70025007D01*
X166293161Y-70028443D01*
X166288638Y-70054095D01*
X166288638Y-70101714D01*
X166290171Y-70105927D01*
X166289130Y-70110288D01*
X166296556Y-70135255D01*
X166344175Y-70230493D01*
X166345364Y-70231618D01*
X166358224Y-70249985D01*
X166400429Y-70292190D01*
X166358224Y-70334395D01*
X166357533Y-70335876D01*
X166344175Y-70353887D01*
X166296556Y-70449125D01*
X166296043Y-70453578D01*
X166293161Y-70457014D01*
X166288638Y-70482666D01*
X166288638Y-70673142D01*
X165982377Y-70673142D01*
X166006217Y-70601622D01*
X166006172Y-70599986D01*
X166010066Y-70577904D01*
X166010066Y-69863619D01*
X165992519Y-69815410D01*
X165948090Y-69789758D01*
X165897566Y-69798667D01*
X165864589Y-69837967D01*
X165860066Y-69863619D01*
X165860066Y-70565734D01*
X165821894Y-70680247D01*
X165751695Y-70750447D01*
X165637182Y-70788619D01*
X165554114Y-70788619D01*
X165505905Y-70806166D01*
X165480253Y-70850595D01*
X165337396Y-70850595D01*
X165337396Y-69645762D01*
X167152923Y-69645762D01*
X167152923Y-71081476D01*
G37*
G36*
X167914923Y-106336676D02*
G01*
X166099396Y-106336676D01*
X166099396Y-106105795D01*
X166242253Y-106105795D01*
X166251162Y-106156319D01*
X166290462Y-106189296D01*
X166316114Y-106193819D01*
X166411352Y-106193819D01*
X166412890Y-106193258D01*
X166435069Y-106189970D01*
X166577926Y-106142351D01*
X166581438Y-106139563D01*
X166585905Y-106139173D01*
X166607242Y-106124233D01*
X166702481Y-106028993D01*
X166704375Y-106024929D01*
X166708195Y-106022583D01*
X166720598Y-105999678D01*
X166768217Y-105856822D01*
X166768172Y-105855186D01*
X166772066Y-105833104D01*
X166772066Y-105118819D01*
X166767326Y-105105795D01*
X167004158Y-105105795D01*
X167013067Y-105156319D01*
X167052367Y-105189296D01*
X167078019Y-105193819D01*
X167531784Y-105193819D01*
X167307290Y-105450383D01*
X167299983Y-105469234D01*
X167289872Y-105486747D01*
X167290911Y-105492640D01*
X167288749Y-105498219D01*
X167295269Y-105517358D01*
X167298781Y-105537271D01*
X167303364Y-105541116D01*
X167305294Y-105546781D01*
X167322592Y-105557251D01*
X167338081Y-105570248D01*
X167346524Y-105571736D01*
X167349183Y-105573346D01*
X167352624Y-105572812D01*
X167363733Y-105574771D01*
X167488885Y-105574771D01*
X167557401Y-105609029D01*
X167587808Y-105639436D01*
X167622066Y-105707952D01*
X167622066Y-105910637D01*
X167587807Y-105979153D01*
X167557400Y-106009561D01*
X167488885Y-106043819D01*
X167238581Y-106043819D01*
X167170065Y-106009561D01*
X167131053Y-105970548D01*
X167084556Y-105948866D01*
X167035001Y-105962143D01*
X167005575Y-106004168D01*
X167010045Y-106055275D01*
X167024985Y-106076612D01*
X167072604Y-106124232D01*
X167074085Y-106124922D01*
X167092097Y-106138282D01*
X167187335Y-106185901D01*
X167191788Y-106186413D01*
X167195224Y-106189296D01*
X167220876Y-106193819D01*
X167506590Y-106193819D01*
X167510803Y-106192285D01*
X167515164Y-106193327D01*
X167540131Y-106185901D01*
X167635369Y-106138282D01*
X167636493Y-106137094D01*
X167654862Y-106124232D01*
X167702480Y-106076613D01*
X167703170Y-106075131D01*
X167716529Y-106057121D01*
X167764148Y-105961883D01*
X167764660Y-105957429D01*
X167767543Y-105953994D01*
X167772066Y-105928342D01*
X167772066Y-105690247D01*
X167770532Y-105686033D01*
X167771574Y-105681672D01*
X167764148Y-105656706D01*
X167716529Y-105561468D01*
X167715339Y-105560342D01*
X167702480Y-105541976D01*
X167654861Y-105494357D01*
X167653379Y-105493666D01*
X167635369Y-105480308D01*
X167540131Y-105432689D01*
X167535677Y-105432176D01*
X167532242Y-105429294D01*
X167526018Y-105428196D01*
X167753509Y-105168207D01*
X167760815Y-105149355D01*
X167770927Y-105131843D01*
X167769887Y-105125949D01*
X167772050Y-105120371D01*
X167765529Y-105101231D01*
X167762018Y-105081319D01*
X167757434Y-105077473D01*
X167755505Y-105071809D01*
X167738206Y-105061338D01*
X167722718Y-105048342D01*
X167714274Y-105046853D01*
X167711616Y-105045244D01*
X167708174Y-105045777D01*
X167697066Y-105043819D01*
X167078019Y-105043819D01*
X167029810Y-105061366D01*
X167004158Y-105105795D01*
X166767326Y-105105795D01*
X166754519Y-105070610D01*
X166710090Y-105044958D01*
X166659566Y-105053867D01*
X166626589Y-105093167D01*
X166622066Y-105118819D01*
X166622066Y-105820934D01*
X166583894Y-105935447D01*
X166513695Y-106005647D01*
X166399182Y-106043819D01*
X166316114Y-106043819D01*
X166267905Y-106061366D01*
X166242253Y-106105795D01*
X166099396Y-106105795D01*
X166099396Y-104900962D01*
X167914923Y-104900962D01*
X167914923Y-106336676D01*
G37*
G36*
X138300886Y-105677307D02*
G01*
X136187738Y-105677307D01*
X136187738Y-105482140D01*
X136294881Y-105482140D01*
X136303790Y-105532664D01*
X136343090Y-105565641D01*
X136368742Y-105570164D01*
X136440171Y-105570164D01*
X136441709Y-105569603D01*
X136463888Y-105566315D01*
X136571031Y-105530601D01*
X136574543Y-105527813D01*
X136579011Y-105527423D01*
X136600347Y-105512483D01*
X136630690Y-105482140D01*
X136902025Y-105482140D01*
X136910934Y-105532664D01*
X136950234Y-105565641D01*
X136975886Y-105570164D01*
X137404457Y-105570164D01*
X137452666Y-105552617D01*
X137478318Y-105508188D01*
X137469409Y-105457664D01*
X137430109Y-105424687D01*
X137404457Y-105420164D01*
X137265171Y-105420164D01*
X137265171Y-104745164D01*
X137263695Y-104741110D01*
X137264716Y-104736921D01*
X137262352Y-104732140D01*
X137580596Y-104732140D01*
X137589505Y-104782664D01*
X137628805Y-104815641D01*
X137654457Y-104820164D01*
X137953460Y-104820164D01*
X137812300Y-104981490D01*
X137804993Y-105000341D01*
X137794882Y-105017854D01*
X137795921Y-105023747D01*
X137793759Y-105029326D01*
X137800279Y-105048465D01*
X137803791Y-105068378D01*
X137808374Y-105072223D01*
X137810304Y-105077888D01*
X137827602Y-105088358D01*
X137843091Y-105101355D01*
X137851534Y-105102843D01*
X137854193Y-105104453D01*
X137857634Y-105103919D01*
X137868743Y-105105878D01*
X137958181Y-105105878D01*
X138002886Y-105128230D01*
X138021389Y-105146733D01*
X138043743Y-105191440D01*
X138043743Y-105334602D01*
X138021389Y-105379308D01*
X138002886Y-105397811D01*
X137958181Y-105420164D01*
X137779305Y-105420164D01*
X137734599Y-105397811D01*
X137707490Y-105370702D01*
X137660993Y-105349021D01*
X137611439Y-105362298D01*
X137582012Y-105404324D01*
X137586484Y-105455431D01*
X137601424Y-105476768D01*
X137637139Y-105512483D01*
X137638620Y-105513174D01*
X137656631Y-105526532D01*
X137728059Y-105562246D01*
X137732512Y-105562758D01*
X137735948Y-105565641D01*
X137761600Y-105570164D01*
X137975886Y-105570164D01*
X137980098Y-105568630D01*
X137984460Y-105569673D01*
X138009427Y-105562246D01*
X138080856Y-105526532D01*
X138081980Y-105525344D01*
X138100349Y-105512482D01*
X138136063Y-105476767D01*
X138136754Y-105475284D01*
X138150111Y-105457276D01*
X138185825Y-105385848D01*
X138186337Y-105381394D01*
X138189220Y-105377959D01*
X138193743Y-105352307D01*
X138193743Y-105173735D01*
X138192209Y-105169521D01*
X138193251Y-105165161D01*
X138185825Y-105140194D01*
X138150111Y-105068766D01*
X138148922Y-105067640D01*
X138136063Y-105049275D01*
X138100349Y-105013560D01*
X138098867Y-105012869D01*
X138080856Y-104999510D01*
X138021719Y-104969942D01*
X138175186Y-104794552D01*
X138182492Y-104775700D01*
X138192604Y-104758188D01*
X138191564Y-104752294D01*
X138193727Y-104746716D01*
X138187206Y-104727576D01*
X138183695Y-104707664D01*
X138179111Y-104703818D01*
X138177182Y-104698154D01*
X138159883Y-104687683D01*
X138144395Y-104674687D01*
X138135951Y-104673198D01*
X138133293Y-104671589D01*
X138129851Y-104672122D01*
X138118743Y-104670164D01*
X137654457Y-104670164D01*
X137606248Y-104687711D01*
X137580596Y-104732140D01*
X137262352Y-104732140D01*
X137255069Y-104717410D01*
X137247624Y-104696955D01*
X137243889Y-104694798D01*
X137241978Y-104690933D01*
X137222051Y-104682190D01*
X137203195Y-104671303D01*
X137198945Y-104672052D01*
X137194997Y-104670320D01*
X137174109Y-104676431D01*
X137152671Y-104680212D01*
X137149898Y-104683515D01*
X137145759Y-104684727D01*
X137127767Y-104703562D01*
X137060459Y-104804524D01*
X137002886Y-104862096D01*
X136942344Y-104892368D01*
X136907072Y-104929623D01*
X136903998Y-104980833D01*
X136934562Y-105022039D01*
X136984461Y-105033958D01*
X137009428Y-105026532D01*
X137080855Y-104990817D01*
X137081978Y-104989630D01*
X137100347Y-104976768D01*
X137115171Y-104961944D01*
X137115171Y-105420164D01*
X136975886Y-105420164D01*
X136927677Y-105437711D01*
X136902025Y-105482140D01*
X136630690Y-105482140D01*
X136671775Y-105441054D01*
X136673669Y-105436991D01*
X136677490Y-105434644D01*
X136689893Y-105411738D01*
X136725608Y-105304595D01*
X136725563Y-105302960D01*
X136729457Y-105280878D01*
X136729457Y-104745164D01*
X136711910Y-104696955D01*
X136667481Y-104671303D01*
X136616957Y-104680212D01*
X136583980Y-104719512D01*
X136579457Y-104745164D01*
X136579457Y-105268706D01*
X136553189Y-105347507D01*
X136506799Y-105393898D01*
X136428001Y-105420164D01*
X136368742Y-105420164D01*
X136320533Y-105437711D01*
X136294881Y-105482140D01*
X136187738Y-105482140D01*
X136187738Y-104563021D01*
X138300886Y-104563021D01*
X138300886Y-105677307D01*
G37*
X166062819Y-66886057D02*
X165586628Y-67219390D01*
X166062819Y-67457485D02*
X165062819Y-67457485D01*
X165062819Y-67457485D02*
X165062819Y-67076533D01*
X165062819Y-67076533D02*
X165110438Y-66981295D01*
X165110438Y-66981295D02*
X165158057Y-66933676D01*
X165158057Y-66933676D02*
X165253295Y-66886057D01*
X165253295Y-66886057D02*
X165396152Y-66886057D01*
X165396152Y-66886057D02*
X165491390Y-66933676D01*
X165491390Y-66933676D02*
X165539009Y-66981295D01*
X165539009Y-66981295D02*
X165586628Y-67076533D01*
X165586628Y-67076533D02*
X165586628Y-67457485D01*
X166062819Y-65933676D02*
X166062819Y-66505104D01*
X166062819Y-66219390D02*
X165062819Y-66219390D01*
X165062819Y-66219390D02*
X165205676Y-66314628D01*
X165205676Y-66314628D02*
X165300914Y-66409866D01*
X165300914Y-66409866D02*
X165348533Y-66505104D01*
X165062819Y-65600342D02*
X165062819Y-64981295D01*
X165062819Y-64981295D02*
X165443771Y-65314628D01*
X165443771Y-65314628D02*
X165443771Y-65171771D01*
X165443771Y-65171771D02*
X165491390Y-65076533D01*
X165491390Y-65076533D02*
X165539009Y-65028914D01*
X165539009Y-65028914D02*
X165634247Y-64981295D01*
X165634247Y-64981295D02*
X165872342Y-64981295D01*
X165872342Y-64981295D02*
X165967580Y-65028914D01*
X165967580Y-65028914D02*
X166015200Y-65076533D01*
X166015200Y-65076533D02*
X166062819Y-65171771D01*
X166062819Y-65171771D02*
X166062819Y-65457485D01*
X166062819Y-65457485D02*
X166015200Y-65552723D01*
X166015200Y-65552723D02*
X165967580Y-65600342D01*
X166570819Y-90031866D02*
X166094628Y-90365199D01*
X166570819Y-90603294D02*
X165570819Y-90603294D01*
X165570819Y-90603294D02*
X165570819Y-90222342D01*
X165570819Y-90222342D02*
X165618438Y-90127104D01*
X165618438Y-90127104D02*
X165666057Y-90079485D01*
X165666057Y-90079485D02*
X165761295Y-90031866D01*
X165761295Y-90031866D02*
X165904152Y-90031866D01*
X165904152Y-90031866D02*
X165999390Y-90079485D01*
X165999390Y-90079485D02*
X166047009Y-90127104D01*
X166047009Y-90127104D02*
X166094628Y-90222342D01*
X166094628Y-90222342D02*
X166094628Y-90603294D01*
X166570819Y-89555675D02*
X166570819Y-89365199D01*
X166570819Y-89365199D02*
X166523200Y-89269961D01*
X166523200Y-89269961D02*
X166475580Y-89222342D01*
X166475580Y-89222342D02*
X166332723Y-89127104D01*
X166332723Y-89127104D02*
X166142247Y-89079485D01*
X166142247Y-89079485D02*
X165761295Y-89079485D01*
X165761295Y-89079485D02*
X165666057Y-89127104D01*
X165666057Y-89127104D02*
X165618438Y-89174723D01*
X165618438Y-89174723D02*
X165570819Y-89269961D01*
X165570819Y-89269961D02*
X165570819Y-89460437D01*
X165570819Y-89460437D02*
X165618438Y-89555675D01*
X165618438Y-89555675D02*
X165666057Y-89603294D01*
X165666057Y-89603294D02*
X165761295Y-89650913D01*
X165761295Y-89650913D02*
X165999390Y-89650913D01*
X165999390Y-89650913D02*
X166094628Y-89603294D01*
X166094628Y-89603294D02*
X166142247Y-89555675D01*
X166142247Y-89555675D02*
X166189866Y-89460437D01*
X166189866Y-89460437D02*
X166189866Y-89269961D01*
X166189866Y-89269961D02*
X166142247Y-89174723D01*
X166142247Y-89174723D02*
X166094628Y-89127104D01*
X166094628Y-89127104D02*
X165999390Y-89079485D01*
X158024533Y-55674419D02*
X157691200Y-55198228D01*
X157453105Y-55674419D02*
X157453105Y-54674419D01*
X157453105Y-54674419D02*
X157834057Y-54674419D01*
X157834057Y-54674419D02*
X157929295Y-54722038D01*
X157929295Y-54722038D02*
X157976914Y-54769657D01*
X157976914Y-54769657D02*
X158024533Y-54864895D01*
X158024533Y-54864895D02*
X158024533Y-55007752D01*
X158024533Y-55007752D02*
X157976914Y-55102990D01*
X157976914Y-55102990D02*
X157929295Y-55150609D01*
X157929295Y-55150609D02*
X157834057Y-55198228D01*
X157834057Y-55198228D02*
X157453105Y-55198228D01*
X158881676Y-54674419D02*
X158691200Y-54674419D01*
X158691200Y-54674419D02*
X158595962Y-54722038D01*
X158595962Y-54722038D02*
X158548343Y-54769657D01*
X158548343Y-54769657D02*
X158453105Y-54912514D01*
X158453105Y-54912514D02*
X158405486Y-55102990D01*
X158405486Y-55102990D02*
X158405486Y-55483942D01*
X158405486Y-55483942D02*
X158453105Y-55579180D01*
X158453105Y-55579180D02*
X158500724Y-55626800D01*
X158500724Y-55626800D02*
X158595962Y-55674419D01*
X158595962Y-55674419D02*
X158786438Y-55674419D01*
X158786438Y-55674419D02*
X158881676Y-55626800D01*
X158881676Y-55626800D02*
X158929295Y-55579180D01*
X158929295Y-55579180D02*
X158976914Y-55483942D01*
X158976914Y-55483942D02*
X158976914Y-55245847D01*
X158976914Y-55245847D02*
X158929295Y-55150609D01*
X158929295Y-55150609D02*
X158881676Y-55102990D01*
X158881676Y-55102990D02*
X158786438Y-55055371D01*
X158786438Y-55055371D02*
X158595962Y-55055371D01*
X158595962Y-55055371D02*
X158500724Y-55102990D01*
X158500724Y-55102990D02*
X158453105Y-55150609D01*
X158453105Y-55150609D02*
X158405486Y-55245847D01*
G36*
X143684547Y-105474107D02*
G01*
X141572538Y-105474107D01*
X141572538Y-105278940D01*
X141679681Y-105278940D01*
X141688590Y-105329464D01*
X141727890Y-105362441D01*
X141753542Y-105366964D01*
X141824971Y-105366964D01*
X141826509Y-105366403D01*
X141848688Y-105363115D01*
X141955831Y-105327401D01*
X141959343Y-105324613D01*
X141963811Y-105324223D01*
X141985147Y-105309283D01*
X142015490Y-105278940D01*
X142286825Y-105278940D01*
X142295734Y-105329464D01*
X142335034Y-105362441D01*
X142360686Y-105366964D01*
X142789257Y-105366964D01*
X142837466Y-105349417D01*
X142863118Y-105304988D01*
X142858525Y-105278940D01*
X143001111Y-105278940D01*
X143010020Y-105329464D01*
X143049320Y-105362441D01*
X143074972Y-105366964D01*
X143503543Y-105366964D01*
X143551752Y-105349417D01*
X143577404Y-105304988D01*
X143568495Y-105254464D01*
X143529195Y-105221487D01*
X143503543Y-105216964D01*
X143364257Y-105216964D01*
X143364257Y-104541964D01*
X143362781Y-104537910D01*
X143363802Y-104533721D01*
X143354155Y-104514210D01*
X143346710Y-104493755D01*
X143342975Y-104491598D01*
X143341064Y-104487733D01*
X143321137Y-104478990D01*
X143302281Y-104468103D01*
X143298031Y-104468852D01*
X143294083Y-104467120D01*
X143273195Y-104473231D01*
X143251757Y-104477012D01*
X143248984Y-104480315D01*
X143244845Y-104481527D01*
X143226853Y-104500362D01*
X143159545Y-104601324D01*
X143101972Y-104658896D01*
X143041430Y-104689168D01*
X143006158Y-104726423D01*
X143003084Y-104777633D01*
X143033648Y-104818839D01*
X143083547Y-104830758D01*
X143108514Y-104823332D01*
X143179941Y-104787617D01*
X143181064Y-104786430D01*
X143199433Y-104773568D01*
X143214257Y-104758744D01*
X143214257Y-105216964D01*
X143074972Y-105216964D01*
X143026763Y-105234511D01*
X143001111Y-105278940D01*
X142858525Y-105278940D01*
X142854209Y-105254464D01*
X142814909Y-105221487D01*
X142789257Y-105216964D01*
X142649971Y-105216964D01*
X142649971Y-104541964D01*
X142648495Y-104537910D01*
X142649516Y-104533721D01*
X142639869Y-104514210D01*
X142632424Y-104493755D01*
X142628689Y-104491598D01*
X142626778Y-104487733D01*
X142606851Y-104478990D01*
X142587995Y-104468103D01*
X142583745Y-104468852D01*
X142579797Y-104467120D01*
X142558909Y-104473231D01*
X142537471Y-104477012D01*
X142534698Y-104480315D01*
X142530559Y-104481527D01*
X142512567Y-104500362D01*
X142445259Y-104601324D01*
X142387686Y-104658896D01*
X142327144Y-104689168D01*
X142291872Y-104726423D01*
X142288798Y-104777633D01*
X142319362Y-104818839D01*
X142369261Y-104830758D01*
X142394228Y-104823332D01*
X142465655Y-104787617D01*
X142466778Y-104786430D01*
X142485147Y-104773568D01*
X142499971Y-104758744D01*
X142499971Y-105216964D01*
X142360686Y-105216964D01*
X142312477Y-105234511D01*
X142286825Y-105278940D01*
X142015490Y-105278940D01*
X142056575Y-105237854D01*
X142058469Y-105233791D01*
X142062290Y-105231444D01*
X142074693Y-105208538D01*
X142110408Y-105101395D01*
X142110363Y-105099760D01*
X142114257Y-105077678D01*
X142114257Y-104541964D01*
X142096710Y-104493755D01*
X142052281Y-104468103D01*
X142001757Y-104477012D01*
X141968780Y-104516312D01*
X141964257Y-104541964D01*
X141964257Y-105065506D01*
X141937989Y-105144307D01*
X141891599Y-105190698D01*
X141812801Y-105216964D01*
X141753542Y-105216964D01*
X141705333Y-105234511D01*
X141679681Y-105278940D01*
X141572538Y-105278940D01*
X141572538Y-104359977D01*
X143684547Y-104359977D01*
X143684547Y-105474107D01*
G37*
X144479180Y-81446666D02*
X144526800Y-81494285D01*
X144526800Y-81494285D02*
X144574419Y-81637142D01*
X144574419Y-81637142D02*
X144574419Y-81732380D01*
X144574419Y-81732380D02*
X144526800Y-81875237D01*
X144526800Y-81875237D02*
X144431561Y-81970475D01*
X144431561Y-81970475D02*
X144336323Y-82018094D01*
X144336323Y-82018094D02*
X144145847Y-82065713D01*
X144145847Y-82065713D02*
X144002990Y-82065713D01*
X144002990Y-82065713D02*
X143812514Y-82018094D01*
X143812514Y-82018094D02*
X143717276Y-81970475D01*
X143717276Y-81970475D02*
X143622038Y-81875237D01*
X143622038Y-81875237D02*
X143574419Y-81732380D01*
X143574419Y-81732380D02*
X143574419Y-81637142D01*
X143574419Y-81637142D02*
X143622038Y-81494285D01*
X143622038Y-81494285D02*
X143669657Y-81446666D01*
X143574419Y-81113332D02*
X143574419Y-80446666D01*
X143574419Y-80446666D02*
X144574419Y-80875237D01*
X134118361Y-68876057D02*
X134023123Y-68828438D01*
X134023123Y-68828438D02*
X133927885Y-68733200D01*
X133927885Y-68733200D02*
X133785028Y-68590342D01*
X133785028Y-68590342D02*
X133689790Y-68542723D01*
X133689790Y-68542723D02*
X133594552Y-68542723D01*
X133642171Y-68780819D02*
X133546933Y-68733200D01*
X133546933Y-68733200D02*
X133451695Y-68637961D01*
X133451695Y-68637961D02*
X133404076Y-68447485D01*
X133404076Y-68447485D02*
X133404076Y-68114152D01*
X133404076Y-68114152D02*
X133451695Y-67923676D01*
X133451695Y-67923676D02*
X133546933Y-67828438D01*
X133546933Y-67828438D02*
X133642171Y-67780819D01*
X133642171Y-67780819D02*
X133832647Y-67780819D01*
X133832647Y-67780819D02*
X133927885Y-67828438D01*
X133927885Y-67828438D02*
X134023123Y-67923676D01*
X134023123Y-67923676D02*
X134070742Y-68114152D01*
X134070742Y-68114152D02*
X134070742Y-68447485D01*
X134070742Y-68447485D02*
X134023123Y-68637961D01*
X134023123Y-68637961D02*
X133927885Y-68733200D01*
X133927885Y-68733200D02*
X133832647Y-68780819D01*
X133832647Y-68780819D02*
X133642171Y-68780819D01*
X135023123Y-68780819D02*
X134451695Y-68780819D01*
X134737409Y-68780819D02*
X134737409Y-67780819D01*
X134737409Y-67780819D02*
X134642171Y-67923676D01*
X134642171Y-67923676D02*
X134546933Y-68018914D01*
X134546933Y-68018914D02*
X134451695Y-68066533D01*
G36*
X134132108Y-93423409D02*
G01*
X134150611Y-93441912D01*
X134172964Y-93486618D01*
X134172964Y-93594065D01*
X134150611Y-93638771D01*
X134132108Y-93657273D01*
X134087402Y-93679627D01*
X133944240Y-93679627D01*
X133899533Y-93657273D01*
X133881030Y-93638770D01*
X133858678Y-93594065D01*
X133858678Y-93486618D01*
X133881031Y-93441912D01*
X133899534Y-93423409D01*
X133944240Y-93401056D01*
X134087402Y-93401056D01*
X134132108Y-93423409D01*
G37*
G36*
X134430107Y-95257061D02*
G01*
X133315821Y-95257061D01*
X133315821Y-94777318D01*
X133424103Y-94777318D01*
X133433012Y-94827842D01*
X133472312Y-94860819D01*
X133497964Y-94865342D01*
X134021508Y-94865342D01*
X134100307Y-94891608D01*
X134146698Y-94937999D01*
X134172964Y-95016797D01*
X134172964Y-95076057D01*
X134190511Y-95124266D01*
X134234940Y-95149918D01*
X134285464Y-95141009D01*
X134318441Y-95101709D01*
X134322964Y-95076057D01*
X134322964Y-95004628D01*
X134322403Y-95003089D01*
X134319115Y-94980912D01*
X134283401Y-94873768D01*
X134280613Y-94870256D01*
X134280223Y-94865788D01*
X134265283Y-94844452D01*
X134193854Y-94773024D01*
X134189791Y-94771129D01*
X134187444Y-94767309D01*
X134164539Y-94754906D01*
X134057395Y-94719191D01*
X134055760Y-94719235D01*
X134033678Y-94715342D01*
X133497964Y-94715342D01*
X133449755Y-94732889D01*
X133424103Y-94777318D01*
X133315821Y-94777318D01*
X133315821Y-94249801D01*
X133423119Y-94249801D01*
X133429232Y-94270692D01*
X133433012Y-94292128D01*
X133436315Y-94294900D01*
X133437527Y-94299039D01*
X133456362Y-94317032D01*
X133557326Y-94384341D01*
X133614895Y-94441911D01*
X133645168Y-94502454D01*
X133682423Y-94537726D01*
X133733633Y-94540800D01*
X133774839Y-94510236D01*
X133786758Y-94460337D01*
X133779331Y-94435371D01*
X133743617Y-94363943D01*
X133742428Y-94362817D01*
X133729568Y-94344452D01*
X133714744Y-94329628D01*
X134172964Y-94329628D01*
X134172964Y-94468913D01*
X134190511Y-94517122D01*
X134234940Y-94542774D01*
X134285464Y-94533865D01*
X134318441Y-94494565D01*
X134322964Y-94468913D01*
X134322964Y-94040342D01*
X134305417Y-93992133D01*
X134260988Y-93966481D01*
X134210464Y-93975390D01*
X134177487Y-94014690D01*
X134172964Y-94040342D01*
X134172964Y-94179628D01*
X133497964Y-94179628D01*
X133493910Y-94181103D01*
X133489721Y-94180083D01*
X133470208Y-94189730D01*
X133449755Y-94197175D01*
X133447599Y-94200909D01*
X133443732Y-94202821D01*
X133434985Y-94222755D01*
X133424103Y-94241604D01*
X133424851Y-94245851D01*
X133423119Y-94249801D01*
X133315821Y-94249801D01*
X133315821Y-93540342D01*
X133422964Y-93540342D01*
X133424497Y-93544555D01*
X133423456Y-93548916D01*
X133430882Y-93573883D01*
X133466596Y-93645311D01*
X133467784Y-93646436D01*
X133480644Y-93664802D01*
X133516358Y-93700517D01*
X133519525Y-93701994D01*
X133527790Y-93709889D01*
X133634932Y-93781317D01*
X133635353Y-93781419D01*
X133658345Y-93791674D01*
X133801202Y-93827388D01*
X133804650Y-93827027D01*
X133819392Y-93829627D01*
X134105107Y-93829627D01*
X134109320Y-93828093D01*
X134113681Y-93829135D01*
X134138648Y-93821709D01*
X134210076Y-93785995D01*
X134211201Y-93784806D01*
X134229567Y-93771947D01*
X134265282Y-93736233D01*
X134265972Y-93734751D01*
X134279332Y-93716740D01*
X134315046Y-93645310D01*
X134315558Y-93640857D01*
X134318441Y-93637422D01*
X134322964Y-93611770D01*
X134322964Y-93468913D01*
X134321430Y-93464699D01*
X134322472Y-93460339D01*
X134315046Y-93435372D01*
X134279332Y-93363944D01*
X134278145Y-93362820D01*
X134265283Y-93344452D01*
X134229568Y-93308737D01*
X134228086Y-93308046D01*
X134210076Y-93294688D01*
X134138648Y-93258974D01*
X134134194Y-93258461D01*
X134130759Y-93255579D01*
X134105107Y-93251056D01*
X133926535Y-93251056D01*
X133922321Y-93252589D01*
X133917961Y-93251548D01*
X133892994Y-93258974D01*
X133821566Y-93294688D01*
X133820442Y-93295874D01*
X133802074Y-93308737D01*
X133766359Y-93344452D01*
X133765668Y-93345933D01*
X133752310Y-93363944D01*
X133716596Y-93435372D01*
X133716083Y-93439825D01*
X133713201Y-93443261D01*
X133708678Y-93468913D01*
X133708678Y-93611770D01*
X133710211Y-93615982D01*
X133709169Y-93620344D01*
X133716596Y-93645311D01*
X133720200Y-93652520D01*
X133707327Y-93649302D01*
X133617174Y-93589201D01*
X133595317Y-93567343D01*
X133572964Y-93522637D01*
X133572964Y-93397485D01*
X133555417Y-93349276D01*
X133510988Y-93323624D01*
X133460464Y-93332533D01*
X133427487Y-93371833D01*
X133422964Y-93397485D01*
X133422964Y-93540342D01*
X133315821Y-93540342D01*
X133315821Y-93143913D01*
X134430107Y-93143913D01*
X134430107Y-95257061D01*
G37*
X166723219Y-74760057D02*
X166247028Y-75093390D01*
X166723219Y-75331485D02*
X165723219Y-75331485D01*
X165723219Y-75331485D02*
X165723219Y-74950533D01*
X165723219Y-74950533D02*
X165770838Y-74855295D01*
X165770838Y-74855295D02*
X165818457Y-74807676D01*
X165818457Y-74807676D02*
X165913695Y-74760057D01*
X165913695Y-74760057D02*
X166056552Y-74760057D01*
X166056552Y-74760057D02*
X166151790Y-74807676D01*
X166151790Y-74807676D02*
X166199409Y-74855295D01*
X166199409Y-74855295D02*
X166247028Y-74950533D01*
X166247028Y-74950533D02*
X166247028Y-75331485D01*
X166723219Y-73807676D02*
X166723219Y-74379104D01*
X166723219Y-74093390D02*
X165723219Y-74093390D01*
X165723219Y-74093390D02*
X165866076Y-74188628D01*
X165866076Y-74188628D02*
X165961314Y-74283866D01*
X165961314Y-74283866D02*
X166008933Y-74379104D01*
X166056552Y-72950533D02*
X166723219Y-72950533D01*
X165675600Y-73188628D02*
X166389885Y-73426723D01*
X166389885Y-73426723D02*
X166389885Y-72807676D01*
G36*
X151530773Y-95495317D02*
G01*
X151549276Y-95513819D01*
X151575864Y-95566996D01*
X151607343Y-95692911D01*
X151607343Y-95853016D01*
X151575864Y-95978931D01*
X151549276Y-96032108D01*
X151530773Y-96050611D01*
X151486067Y-96072964D01*
X151450048Y-96072964D01*
X151405342Y-96050611D01*
X151386839Y-96032108D01*
X151360250Y-95978931D01*
X151328772Y-95853016D01*
X151328772Y-95692911D01*
X151360250Y-95566996D01*
X151386838Y-95513820D01*
X151405341Y-95495317D01*
X151450048Y-95472964D01*
X151486067Y-95472964D01*
X151530773Y-95495317D01*
G37*
G36*
X151864486Y-96330107D02*
G01*
X149751338Y-96330107D01*
X149751338Y-96134940D01*
X149858481Y-96134940D01*
X149867390Y-96185464D01*
X149906690Y-96218441D01*
X149932342Y-96222964D01*
X150003771Y-96222964D01*
X150005309Y-96222403D01*
X150027488Y-96219115D01*
X150134631Y-96183401D01*
X150138143Y-96180613D01*
X150142611Y-96180223D01*
X150163947Y-96165283D01*
X150194290Y-96134940D01*
X150465625Y-96134940D01*
X150474534Y-96185464D01*
X150513834Y-96218441D01*
X150539486Y-96222964D01*
X150968057Y-96222964D01*
X151016266Y-96205417D01*
X151041918Y-96160988D01*
X151033009Y-96110464D01*
X150993709Y-96077487D01*
X150968057Y-96072964D01*
X150828771Y-96072964D01*
X150828771Y-95862250D01*
X151178772Y-95862250D01*
X151179957Y-95865507D01*
X151181011Y-95880440D01*
X151216725Y-96023297D01*
X151218713Y-96026241D01*
X151222404Y-96038648D01*
X151258118Y-96110076D01*
X151259307Y-96111201D01*
X151272167Y-96129568D01*
X151307882Y-96165283D01*
X151309363Y-96165974D01*
X151327374Y-96179332D01*
X151398802Y-96215046D01*
X151403255Y-96215558D01*
X151406691Y-96218441D01*
X151432343Y-96222964D01*
X151503772Y-96222964D01*
X151507985Y-96221430D01*
X151512346Y-96222472D01*
X151537313Y-96215046D01*
X151608741Y-96179332D01*
X151609866Y-96178142D01*
X151628233Y-96165283D01*
X151663948Y-96129568D01*
X151664639Y-96128086D01*
X151677997Y-96110076D01*
X151713711Y-96038648D01*
X151714117Y-96035119D01*
X151719390Y-96023297D01*
X151755104Y-95880440D01*
X151754743Y-95876991D01*
X151757343Y-95862250D01*
X151757343Y-95683678D01*
X151756157Y-95680420D01*
X151755104Y-95665488D01*
X151719390Y-95522631D01*
X151717401Y-95519687D01*
X151713711Y-95507281D01*
X151677997Y-95435851D01*
X151676809Y-95434726D01*
X151663947Y-95416358D01*
X151628232Y-95380644D01*
X151626749Y-95379952D01*
X151608741Y-95366596D01*
X151537313Y-95330882D01*
X151532859Y-95330369D01*
X151529424Y-95327487D01*
X151503772Y-95322964D01*
X151432343Y-95322964D01*
X151428129Y-95324497D01*
X151423769Y-95323456D01*
X151398802Y-95330882D01*
X151327374Y-95366596D01*
X151326248Y-95367784D01*
X151307883Y-95380644D01*
X151272168Y-95416358D01*
X151271477Y-95417839D01*
X151258118Y-95435851D01*
X151222404Y-95507280D01*
X151221998Y-95510807D01*
X151216725Y-95522631D01*
X151181011Y-95665488D01*
X151181371Y-95668936D01*
X151178772Y-95683678D01*
X151178772Y-95862250D01*
X150828771Y-95862250D01*
X150828771Y-95397964D01*
X150827295Y-95393910D01*
X150828316Y-95389721D01*
X150818669Y-95370210D01*
X150811224Y-95349755D01*
X150807489Y-95347598D01*
X150805578Y-95343733D01*
X150785651Y-95334990D01*
X150766795Y-95324103D01*
X150762545Y-95324852D01*
X150758597Y-95323120D01*
X150737709Y-95329231D01*
X150716271Y-95333012D01*
X150713498Y-95336315D01*
X150709359Y-95337527D01*
X150691367Y-95356362D01*
X150624059Y-95457324D01*
X150566486Y-95514896D01*
X150505944Y-95545168D01*
X150470672Y-95582423D01*
X150467598Y-95633633D01*
X150498162Y-95674839D01*
X150548061Y-95686758D01*
X150573028Y-95679332D01*
X150644455Y-95643617D01*
X150645578Y-95642430D01*
X150663947Y-95629568D01*
X150678771Y-95614744D01*
X150678771Y-96072964D01*
X150539486Y-96072964D01*
X150491277Y-96090511D01*
X150465625Y-96134940D01*
X150194290Y-96134940D01*
X150235375Y-96093854D01*
X150237269Y-96089791D01*
X150241090Y-96087444D01*
X150253493Y-96064538D01*
X150289208Y-95957395D01*
X150289163Y-95955760D01*
X150293057Y-95933678D01*
X150293057Y-95397964D01*
X150275510Y-95349755D01*
X150231081Y-95324103D01*
X150180557Y-95333012D01*
X150147580Y-95372312D01*
X150143057Y-95397964D01*
X150143057Y-95921506D01*
X150116789Y-96000307D01*
X150070399Y-96046698D01*
X149991601Y-96072964D01*
X149932342Y-96072964D01*
X149884133Y-96090511D01*
X149858481Y-96134940D01*
X149751338Y-96134940D01*
X149751338Y-95215821D01*
X151864486Y-95215821D01*
X151864486Y-96330107D01*
G37*
X144187942Y-85144780D02*
X144140323Y-85192400D01*
X144140323Y-85192400D02*
X143997466Y-85240019D01*
X143997466Y-85240019D02*
X143902228Y-85240019D01*
X143902228Y-85240019D02*
X143759371Y-85192400D01*
X143759371Y-85192400D02*
X143664133Y-85097161D01*
X143664133Y-85097161D02*
X143616514Y-85001923D01*
X143616514Y-85001923D02*
X143568895Y-84811447D01*
X143568895Y-84811447D02*
X143568895Y-84668590D01*
X143568895Y-84668590D02*
X143616514Y-84478114D01*
X143616514Y-84478114D02*
X143664133Y-84382876D01*
X143664133Y-84382876D02*
X143759371Y-84287638D01*
X143759371Y-84287638D02*
X143902228Y-84240019D01*
X143902228Y-84240019D02*
X143997466Y-84240019D01*
X143997466Y-84240019D02*
X144140323Y-84287638D01*
X144140323Y-84287638D02*
X144187942Y-84335257D01*
X145140323Y-85240019D02*
X144568895Y-85240019D01*
X144854609Y-85240019D02*
X144854609Y-84240019D01*
X144854609Y-84240019D02*
X144759371Y-84382876D01*
X144759371Y-84382876D02*
X144664133Y-84478114D01*
X144664133Y-84478114D02*
X144568895Y-84525733D01*
X145997466Y-84573352D02*
X145997466Y-85240019D01*
X145759371Y-84192400D02*
X145521276Y-84906685D01*
X145521276Y-84906685D02*
X146140323Y-84906685D01*
X154652742Y-85855980D02*
X154605123Y-85903600D01*
X154605123Y-85903600D02*
X154462266Y-85951219D01*
X154462266Y-85951219D02*
X154367028Y-85951219D01*
X154367028Y-85951219D02*
X154224171Y-85903600D01*
X154224171Y-85903600D02*
X154128933Y-85808361D01*
X154128933Y-85808361D02*
X154081314Y-85713123D01*
X154081314Y-85713123D02*
X154033695Y-85522647D01*
X154033695Y-85522647D02*
X154033695Y-85379790D01*
X154033695Y-85379790D02*
X154081314Y-85189314D01*
X154081314Y-85189314D02*
X154128933Y-85094076D01*
X154128933Y-85094076D02*
X154224171Y-84998838D01*
X154224171Y-84998838D02*
X154367028Y-84951219D01*
X154367028Y-84951219D02*
X154462266Y-84951219D01*
X154462266Y-84951219D02*
X154605123Y-84998838D01*
X154605123Y-84998838D02*
X154652742Y-85046457D01*
X155605123Y-85951219D02*
X155033695Y-85951219D01*
X155319409Y-85951219D02*
X155319409Y-84951219D01*
X155319409Y-84951219D02*
X155224171Y-85094076D01*
X155224171Y-85094076D02*
X155128933Y-85189314D01*
X155128933Y-85189314D02*
X155033695Y-85236933D01*
X156509885Y-84951219D02*
X156033695Y-84951219D01*
X156033695Y-84951219D02*
X155986076Y-85427409D01*
X155986076Y-85427409D02*
X156033695Y-85379790D01*
X156033695Y-85379790D02*
X156128933Y-85332171D01*
X156128933Y-85332171D02*
X156367028Y-85332171D01*
X156367028Y-85332171D02*
X156462266Y-85379790D01*
X156462266Y-85379790D02*
X156509885Y-85427409D01*
X156509885Y-85427409D02*
X156557504Y-85522647D01*
X156557504Y-85522647D02*
X156557504Y-85760742D01*
X156557504Y-85760742D02*
X156509885Y-85855980D01*
X156509885Y-85855980D02*
X156462266Y-85903600D01*
X156462266Y-85903600D02*
X156367028Y-85951219D01*
X156367028Y-85951219D02*
X156128933Y-85951219D01*
X156128933Y-85951219D02*
X156033695Y-85903600D01*
X156033695Y-85903600D02*
X155986076Y-85855980D01*
D14*
X155470000Y-51650000D02*
X155470000Y-50400000D01*
X155470000Y-47680000D02*
X155470000Y-46400000D01*
X146530000Y-51650000D02*
X146530000Y-50400000D01*
X146530000Y-46400000D02*
X146530000Y-47680000D01*
X154350000Y-55000000D02*
G75*
G03*
X154150000Y-55000000I-100000J0D01*
G01*
X154150000Y-55000000D02*
G75*
G03*
X154350000Y-55000000I100000J0D01*
G01*
D15*
X150948000Y-86434000D02*
X148988000Y-86434000D01*
X152968000Y-88054000D02*
X152968000Y-88414000D01*
X146968000Y-88054000D02*
X146968000Y-88414000D01*
X150948000Y-90034000D02*
X148988000Y-90034000D01*
D14*
X152268000Y-85584000D02*
G75*
G03*
X152068000Y-85584000I-100000J0D01*
G01*
X152068000Y-85584000D02*
G75*
G03*
X152268000Y-85584000I100000J0D01*
G01*
D16*
X166659601Y-54076600D02*
X166850060Y-54076600D01*
X169821942Y-54076600D02*
X170012401Y-54076600D01*
X170012401Y-54076600D02*
X170012401Y-50723800D01*
X166659601Y-50723800D02*
X166659601Y-54076600D01*
X166850060Y-50723800D02*
X166659601Y-50723800D01*
X170012401Y-50723800D02*
X169821942Y-50723800D01*
X167487601Y-55255200D02*
G75*
G03*
X167284401Y-55255200I-101600J0D01*
G01*
X167284401Y-55255200D02*
G75*
G03*
X167487601Y-55255200I101600J0D01*
G01*
D17*
X159764000Y-51923733D02*
X159764000Y-52216267D01*
X160784000Y-51923733D02*
X160784000Y-52216267D01*
X133589500Y-85292476D02*
X133589500Y-85801924D01*
X134634500Y-85292476D02*
X134634500Y-85801924D01*
X133589500Y-81685676D02*
X133589500Y-82195124D01*
X134634500Y-81685676D02*
X134634500Y-82195124D01*
X147655500Y-78020000D02*
X147325500Y-78260000D01*
X147325500Y-77780000D01*
X147655500Y-78020000D01*
G36*
X147655500Y-78020000D02*
G01*
X147325500Y-78260000D01*
X147325500Y-77780000D01*
X147655500Y-78020000D01*
G37*
X154875500Y-70800000D02*
X154400500Y-70800000D01*
X147655500Y-70800000D02*
X148130500Y-70800000D01*
X154875500Y-71275000D02*
X154875500Y-70800000D01*
X147655500Y-71275000D02*
X147655500Y-70800000D01*
X154875500Y-77545000D02*
X154875500Y-78020000D01*
X147655500Y-77545000D02*
X147655500Y-77720000D01*
X154875500Y-78020000D02*
X154400500Y-78020000D01*
X148130500Y-78020000D02*
X147895500Y-78020000D01*
X170586000Y-55528000D02*
X169386000Y-55528000D01*
X170586000Y-55528000D02*
X170586000Y-56928000D01*
X164186000Y-55528000D02*
X165386000Y-55528000D01*
X164186000Y-55528000D02*
X164186000Y-56928000D01*
X170586000Y-62328000D02*
X170586000Y-60928000D01*
X170586000Y-62328000D02*
X169386000Y-62328000D01*
X164186000Y-62328000D02*
X164186000Y-60928000D01*
X164186000Y-62328000D02*
X165386000Y-62328000D01*
X130038800Y-106107000D02*
X131368800Y-106107000D01*
X130038800Y-107437000D02*
X130038800Y-106107000D01*
X130038800Y-108707000D02*
X130038800Y-111307000D01*
X130038800Y-108707000D02*
X132698800Y-108707000D01*
X130038800Y-111307000D02*
X132698800Y-111307000D01*
X132698800Y-108707000D02*
X132698800Y-111307000D01*
X129988000Y-64109600D02*
X129988000Y-61509600D01*
X132648000Y-61509600D02*
X129988000Y-61509600D01*
X132648000Y-64109600D02*
X129988000Y-64109600D01*
X132648000Y-64109600D02*
X132648000Y-61509600D01*
X132648000Y-65379600D02*
X132648000Y-66709600D01*
X132648000Y-66709600D02*
X131318000Y-66709600D01*
X167422300Y-97282724D02*
X167422300Y-96773276D01*
X168467300Y-97282724D02*
X168467300Y-96773276D01*
X143704000Y-97120400D02*
X145034000Y-97120400D01*
X143704000Y-98450400D02*
X143704000Y-97120400D01*
X143704000Y-99720400D02*
X143704000Y-102320400D01*
X143704000Y-99720400D02*
X146364000Y-99720400D01*
X143704000Y-102320400D02*
X146364000Y-102320400D01*
X146364000Y-99720400D02*
X146364000Y-102320400D01*
X137653500Y-62584876D02*
X137653500Y-63094324D01*
X138698500Y-62584876D02*
X138698500Y-63094324D01*
X136609000Y-64613600D02*
X136129000Y-64613600D01*
X136369000Y-64283600D01*
X136609000Y-64613600D01*
G36*
X136609000Y-64613600D02*
G01*
X136129000Y-64613600D01*
X136369000Y-64283600D01*
X136609000Y-64613600D01*
G37*
X135206500Y-61213600D02*
X134556500Y-61213600D01*
X135206500Y-61213600D02*
X135856500Y-61213600D01*
X135206500Y-64333600D02*
X134556500Y-64333600D01*
X135206500Y-64333600D02*
X135856500Y-64333600D01*
X167422300Y-86055924D02*
X167422300Y-85546476D01*
X168467300Y-86055924D02*
X168467300Y-85546476D01*
X149859276Y-62215500D02*
X150368724Y-62215500D01*
X149859276Y-63260500D02*
X150368724Y-63260500D01*
X129175200Y-53501600D02*
X129175200Y-52171600D01*
X130505200Y-53501600D02*
X129175200Y-53501600D01*
X131775200Y-53501600D02*
X136915200Y-53501600D01*
X131775200Y-53501600D02*
X131775200Y-50901600D01*
X136915200Y-53501600D02*
X136915200Y-48301600D01*
X129175200Y-50901600D02*
X129175200Y-48301600D01*
X131775200Y-50901600D02*
X129175200Y-50901600D01*
X129175200Y-48301600D02*
X136915200Y-48301600D01*
X152871700Y-56996876D02*
X152871700Y-57506324D01*
X151826700Y-56996876D02*
X151826700Y-57506324D01*
X147044748Y-66417000D02*
X147567252Y-66417000D01*
X147044748Y-67887000D02*
X147567252Y-67887000D01*
X129937200Y-77613200D02*
X131267200Y-77613200D01*
X129937200Y-78943200D02*
X129937200Y-77613200D01*
X129937200Y-80213200D02*
X129937200Y-87893200D01*
X129937200Y-80213200D02*
X132597200Y-80213200D01*
X129937200Y-87893200D02*
X132597200Y-87893200D01*
X132597200Y-80213200D02*
X132597200Y-87893200D01*
X153315767Y-81378000D02*
X153023233Y-81378000D01*
X153315767Y-80358000D02*
X153023233Y-80358000D01*
X145547500Y-78474267D02*
X145547500Y-78181733D01*
X146567500Y-78474267D02*
X146567500Y-78181733D01*
X137160724Y-65111100D02*
X136651276Y-65111100D01*
X137160724Y-66156100D02*
X136651276Y-66156100D01*
X164245600Y-108508800D02*
X164245600Y-111108800D01*
X161585600Y-111108800D02*
X164245600Y-111108800D01*
X161585600Y-108508800D02*
X164245600Y-108508800D01*
X161585600Y-108508800D02*
X161585600Y-111108800D01*
X161585600Y-107238800D02*
X161585600Y-105908800D01*
X161585600Y-105908800D02*
X162915600Y-105908800D01*
X129937200Y-98796800D02*
X131267200Y-98796800D01*
X129937200Y-100126800D02*
X129937200Y-98796800D01*
X129937200Y-101396800D02*
X129937200Y-103996800D01*
X129937200Y-101396800D02*
X132597200Y-101396800D01*
X129937200Y-103996800D02*
X132597200Y-103996800D01*
X132597200Y-101396800D02*
X132597200Y-103996800D01*
X161441224Y-57672500D02*
X160931776Y-57672500D01*
X161441224Y-56627500D02*
X160931776Y-56627500D01*
X156981500Y-70561733D02*
X156981500Y-70854267D01*
X155961500Y-70561733D02*
X155961500Y-70854267D01*
X137653500Y-70707876D02*
X137653500Y-71217324D01*
X138698500Y-70707876D02*
X138698500Y-71217324D01*
X157064400Y-106056200D02*
X158394400Y-106056200D01*
X157064400Y-107386200D02*
X157064400Y-106056200D01*
X157064400Y-108656200D02*
X157064400Y-111256200D01*
X157064400Y-108656200D02*
X159724400Y-108656200D01*
X157064400Y-111256200D02*
X159724400Y-111256200D01*
X159724400Y-108656200D02*
X159724400Y-111256200D01*
X137414724Y-73234100D02*
X136905276Y-73234100D01*
X137414724Y-74279100D02*
X136905276Y-74279100D01*
X167473100Y-101802476D02*
X167473100Y-102311924D01*
X168518100Y-101802476D02*
X168518100Y-102311924D01*
X161551252Y-60933000D02*
X161028748Y-60933000D01*
X161551252Y-59463000D02*
X161028748Y-59463000D01*
X137760400Y-97267800D02*
X139090400Y-97267800D01*
X137760400Y-98597800D02*
X137760400Y-97267800D01*
X137760400Y-99867800D02*
X137760400Y-102467800D01*
X137760400Y-99867800D02*
X140420400Y-99867800D01*
X137760400Y-102467800D02*
X140420400Y-102467800D01*
X140420400Y-99867800D02*
X140420400Y-102467800D01*
X161551252Y-61495000D02*
X161028748Y-61495000D01*
X161551252Y-62965000D02*
X161028748Y-62965000D01*
X151933600Y-105903800D02*
X153263600Y-105903800D01*
X151933600Y-107233800D02*
X151933600Y-105903800D01*
X151933600Y-108503800D02*
X151933600Y-111103800D01*
X151933600Y-108503800D02*
X154593600Y-108503800D01*
X151933600Y-111103800D02*
X154593600Y-111103800D01*
X154593600Y-108503800D02*
X154593600Y-111103800D01*
X143698700Y-51613524D02*
X143698700Y-51104076D01*
X144743700Y-51613524D02*
X144743700Y-51104076D01*
X129988000Y-72237600D02*
X129988000Y-69637600D01*
X132648000Y-69637600D02*
X129988000Y-69637600D01*
X132648000Y-72237600D02*
X129988000Y-72237600D01*
X132648000Y-72237600D02*
X132648000Y-69637600D01*
X132648000Y-73507600D02*
X132648000Y-74837600D01*
X132648000Y-74837600D02*
X131318000Y-74837600D01*
X153315767Y-82902000D02*
X153023233Y-82902000D01*
X153315767Y-81882000D02*
X153023233Y-81882000D01*
X165327000Y-51808748D02*
X165327000Y-52331252D01*
X163857000Y-51808748D02*
X163857000Y-52331252D01*
X148589276Y-63993500D02*
X149098724Y-63993500D01*
X148589276Y-65038500D02*
X149098724Y-65038500D01*
X168467300Y-78434476D02*
X168467300Y-78943924D01*
X167422300Y-78434476D02*
X167422300Y-78943924D01*
X148219900Y-57047676D02*
X148219900Y-57557124D01*
X149264900Y-57047676D02*
X149264900Y-57557124D01*
X168518100Y-109408924D02*
X168518100Y-108899476D01*
X167473100Y-109408924D02*
X167473100Y-108899476D01*
X157732000Y-51923733D02*
X157732000Y-52216267D01*
X158752000Y-51923733D02*
X158752000Y-52216267D01*
X147435233Y-68674000D02*
X147727767Y-68674000D01*
X147435233Y-69694000D02*
X147727767Y-69694000D01*
X146548800Y-106061200D02*
X147878800Y-106061200D01*
X146548800Y-107391200D02*
X146548800Y-106061200D01*
X146548800Y-108661200D02*
X146548800Y-111261200D01*
X146548800Y-108661200D02*
X149208800Y-108661200D01*
X146548800Y-111261200D02*
X149208800Y-111261200D01*
X149208800Y-108661200D02*
X149208800Y-111261200D01*
X172068800Y-86115200D02*
X170738800Y-86115200D01*
X172068800Y-84785200D02*
X172068800Y-86115200D01*
X172068800Y-83515200D02*
X172068800Y-78375200D01*
X172068800Y-83515200D02*
X169408800Y-83515200D01*
X172068800Y-78375200D02*
X169408800Y-78375200D01*
X169408800Y-83515200D02*
X169408800Y-78375200D01*
X172068800Y-97342000D02*
X170738800Y-97342000D01*
X172068800Y-96012000D02*
X172068800Y-97342000D01*
X172068800Y-94742000D02*
X172068800Y-89602000D01*
X172068800Y-94742000D02*
X169408800Y-94742000D01*
X172068800Y-89602000D02*
X169408800Y-89602000D01*
X169408800Y-94742000D02*
X169408800Y-89602000D01*
X169408800Y-71831200D02*
X169408800Y-66691200D01*
X172068800Y-66691200D02*
X169408800Y-66691200D01*
X172068800Y-71831200D02*
X169408800Y-71831200D01*
X172068800Y-71831200D02*
X172068800Y-66691200D01*
X172068800Y-73101200D02*
X172068800Y-74431200D01*
X172068800Y-74431200D02*
X170738800Y-74431200D01*
X172119600Y-109468200D02*
X170789600Y-109468200D01*
X172119600Y-108138200D02*
X172119600Y-109468200D01*
X172119600Y-106868200D02*
X172119600Y-101728200D01*
X172119600Y-106868200D02*
X169459600Y-106868200D01*
X172119600Y-101728200D02*
X169459600Y-101728200D01*
X169459600Y-106868200D02*
X169459600Y-101728200D01*
X135931600Y-106213600D02*
X137261600Y-106213600D01*
X135931600Y-107543600D02*
X135931600Y-106213600D01*
X135931600Y-108813600D02*
X135931600Y-111413600D01*
X135931600Y-108813600D02*
X138591600Y-108813600D01*
X135931600Y-111413600D02*
X138591600Y-111413600D01*
X138591600Y-108813600D02*
X138591600Y-111413600D01*
X168467300Y-66511476D02*
X168467300Y-67020924D01*
X167422300Y-66511476D02*
X167422300Y-67020924D01*
X168467300Y-89661276D02*
X168467300Y-90170724D01*
X167422300Y-89661276D02*
X167422300Y-90170724D01*
X161441224Y-55640500D02*
X160931776Y-55640500D01*
X161441224Y-54595500D02*
X160931776Y-54595500D01*
X141316400Y-106056200D02*
X142646400Y-106056200D01*
X141316400Y-107386200D02*
X141316400Y-106056200D01*
X141316400Y-108656200D02*
X141316400Y-111256200D01*
X141316400Y-108656200D02*
X143976400Y-108656200D01*
X141316400Y-111256200D02*
X143976400Y-111256200D01*
X143976400Y-108656200D02*
X143976400Y-111256200D01*
X143290500Y-78589252D02*
X143290500Y-78066748D01*
X144760500Y-78589252D02*
X144760500Y-78066748D01*
X136706000Y-72802600D02*
X136226000Y-72802600D01*
X136466000Y-72472600D01*
X136706000Y-72802600D01*
G36*
X136706000Y-72802600D02*
G01*
X136226000Y-72802600D01*
X136466000Y-72472600D01*
X136706000Y-72802600D01*
G37*
X135303500Y-69402600D02*
X134653500Y-69402600D01*
X135303500Y-69402600D02*
X135953500Y-69402600D01*
X135303500Y-72522600D02*
X134653500Y-72522600D01*
X135303500Y-72522600D02*
X135953500Y-72522600D01*
X132597200Y-94335600D02*
X132597200Y-96935600D01*
X129937200Y-96935600D02*
X132597200Y-96935600D01*
X129937200Y-94335600D02*
X132597200Y-94335600D01*
X129937200Y-94335600D02*
X129937200Y-96935600D01*
X129937200Y-93065600D02*
X129937200Y-91735600D01*
X129937200Y-91735600D02*
X131267200Y-91735600D01*
X167422300Y-74386924D02*
X167422300Y-73877476D01*
X168467300Y-74386924D02*
X168467300Y-73877476D01*
X149495200Y-97115400D02*
X150825200Y-97115400D01*
X149495200Y-98445400D02*
X149495200Y-97115400D01*
X149495200Y-99715400D02*
X149495200Y-102315400D01*
X149495200Y-99715400D02*
X152155200Y-99715400D01*
X149495200Y-102315400D02*
X152155200Y-102315400D01*
X152155200Y-99715400D02*
X152155200Y-102315400D01*
X148043733Y-84168000D02*
X148336267Y-84168000D01*
X148043733Y-85188000D02*
X148336267Y-85188000D01*
X151599733Y-84168000D02*
X151892267Y-84168000D01*
X151599733Y-85188000D02*
X151892267Y-85188000D01*
%LPC*%
D18*
X155351000Y-48001000D02*
X155383000Y-48003000D01*
X155414000Y-48007000D01*
X155445000Y-48013000D01*
X155475000Y-48020000D01*
X155505000Y-48029000D01*
X155535000Y-48040000D01*
X155564000Y-48052000D01*
X155592000Y-48065000D01*
X155620000Y-48080000D01*
X155647000Y-48097000D01*
X155673000Y-48115000D01*
X155698000Y-48134000D01*
X155721000Y-48154000D01*
X155744000Y-48176000D01*
X155766000Y-48199000D01*
X155786000Y-48222000D01*
X155805000Y-48247000D01*
X155823000Y-48273000D01*
X155840000Y-48300000D01*
X155855000Y-48328000D01*
X155868000Y-48356000D01*
X155880000Y-48385000D01*
X155891000Y-48415000D01*
X155900000Y-48445000D01*
X155907000Y-48475000D01*
X155913000Y-48506000D01*
X155917000Y-48537000D01*
X155919000Y-48569000D01*
X155920000Y-48600000D01*
X155920000Y-49000000D01*
X155920000Y-49400000D01*
X155919000Y-49431000D01*
X155917000Y-49463000D01*
X155913000Y-49494000D01*
X155907000Y-49525000D01*
X155900000Y-49555000D01*
X155891000Y-49585000D01*
X155880000Y-49615000D01*
X155868000Y-49644000D01*
X155855000Y-49672000D01*
X155840000Y-49700000D01*
X155823000Y-49727000D01*
X155805000Y-49753000D01*
X155786000Y-49778000D01*
X155766000Y-49801000D01*
X155744000Y-49824000D01*
X155721000Y-49846000D01*
X155698000Y-49866000D01*
X155673000Y-49885000D01*
X155647000Y-49903000D01*
X155620000Y-49920000D01*
X155592000Y-49935000D01*
X155564000Y-49948000D01*
X155535000Y-49960000D01*
X155505000Y-49971000D01*
X155475000Y-49980000D01*
X155445000Y-49987000D01*
X155414000Y-49993000D01*
X155383000Y-49997000D01*
X155351000Y-49999000D01*
X155320000Y-50000000D01*
X155289000Y-49999000D01*
X155257000Y-49997000D01*
X155226000Y-49993000D01*
X155195000Y-49987000D01*
X155165000Y-49980000D01*
X155135000Y-49971000D01*
X155105000Y-49960000D01*
X155076000Y-49948000D01*
X155048000Y-49935000D01*
X155020000Y-49920000D01*
X154993000Y-49903000D01*
X154967000Y-49885000D01*
X154942000Y-49866000D01*
X154919000Y-49846000D01*
X154896000Y-49824000D01*
X154874000Y-49801000D01*
X154854000Y-49778000D01*
X154835000Y-49753000D01*
X154817000Y-49727000D01*
X154800000Y-49700000D01*
X154785000Y-49672000D01*
X154772000Y-49644000D01*
X154760000Y-49615000D01*
X154749000Y-49585000D01*
X154740000Y-49555000D01*
X154733000Y-49525000D01*
X154727000Y-49494000D01*
X154723000Y-49463000D01*
X154721000Y-49431000D01*
X154720000Y-49400000D01*
X154720000Y-49000000D01*
X154720000Y-48600000D01*
X154721000Y-48569000D01*
X154723000Y-48537000D01*
X154727000Y-48506000D01*
X154733000Y-48475000D01*
X154740000Y-48445000D01*
X154749000Y-48415000D01*
X154760000Y-48385000D01*
X154772000Y-48356000D01*
X154785000Y-48328000D01*
X154800000Y-48300000D01*
X154817000Y-48273000D01*
X154835000Y-48247000D01*
X154854000Y-48222000D01*
X154874000Y-48199000D01*
X154896000Y-48176000D01*
X154919000Y-48154000D01*
X154942000Y-48134000D01*
X154967000Y-48115000D01*
X154993000Y-48097000D01*
X155020000Y-48080000D01*
X155048000Y-48065000D01*
X155076000Y-48052000D01*
X155105000Y-48040000D01*
X155135000Y-48029000D01*
X155165000Y-48020000D01*
X155195000Y-48013000D01*
X155226000Y-48007000D01*
X155257000Y-48003000D01*
X155289000Y-48001000D01*
X155320000Y-48000000D01*
X155351000Y-48001000D01*
G36*
X155351000Y-48001000D02*
G01*
X155383000Y-48003000D01*
X155414000Y-48007000D01*
X155445000Y-48013000D01*
X155475000Y-48020000D01*
X155505000Y-48029000D01*
X155535000Y-48040000D01*
X155564000Y-48052000D01*
X155592000Y-48065000D01*
X155620000Y-48080000D01*
X155647000Y-48097000D01*
X155673000Y-48115000D01*
X155698000Y-48134000D01*
X155721000Y-48154000D01*
X155744000Y-48176000D01*
X155766000Y-48199000D01*
X155786000Y-48222000D01*
X155805000Y-48247000D01*
X155823000Y-48273000D01*
X155840000Y-48300000D01*
X155855000Y-48328000D01*
X155868000Y-48356000D01*
X155880000Y-48385000D01*
X155891000Y-48415000D01*
X155900000Y-48445000D01*
X155907000Y-48475000D01*
X155913000Y-48506000D01*
X155917000Y-48537000D01*
X155919000Y-48569000D01*
X155920000Y-48600000D01*
X155920000Y-49000000D01*
X155920000Y-49400000D01*
X155919000Y-49431000D01*
X155917000Y-49463000D01*
X155913000Y-49494000D01*
X155907000Y-49525000D01*
X155900000Y-49555000D01*
X155891000Y-49585000D01*
X155880000Y-49615000D01*
X155868000Y-49644000D01*
X155855000Y-49672000D01*
X155840000Y-49700000D01*
X155823000Y-49727000D01*
X155805000Y-49753000D01*
X155786000Y-49778000D01*
X155766000Y-49801000D01*
X155744000Y-49824000D01*
X155721000Y-49846000D01*
X155698000Y-49866000D01*
X155673000Y-49885000D01*
X155647000Y-49903000D01*
X155620000Y-49920000D01*
X155592000Y-49935000D01*
X155564000Y-49948000D01*
X155535000Y-49960000D01*
X155505000Y-49971000D01*
X155475000Y-49980000D01*
X155445000Y-49987000D01*
X155414000Y-49993000D01*
X155383000Y-49997000D01*
X155351000Y-49999000D01*
X155320000Y-50000000D01*
X155289000Y-49999000D01*
X155257000Y-49997000D01*
X155226000Y-49993000D01*
X155195000Y-49987000D01*
X155165000Y-49980000D01*
X155135000Y-49971000D01*
X155105000Y-49960000D01*
X155076000Y-49948000D01*
X155048000Y-49935000D01*
X155020000Y-49920000D01*
X154993000Y-49903000D01*
X154967000Y-49885000D01*
X154942000Y-49866000D01*
X154919000Y-49846000D01*
X154896000Y-49824000D01*
X154874000Y-49801000D01*
X154854000Y-49778000D01*
X154835000Y-49753000D01*
X154817000Y-49727000D01*
X154800000Y-49700000D01*
X154785000Y-49672000D01*
X154772000Y-49644000D01*
X154760000Y-49615000D01*
X154749000Y-49585000D01*
X154740000Y-49555000D01*
X154733000Y-49525000D01*
X154727000Y-49494000D01*
X154723000Y-49463000D01*
X154721000Y-49431000D01*
X154720000Y-49400000D01*
X154720000Y-49000000D01*
X154720000Y-48600000D01*
X154721000Y-48569000D01*
X154723000Y-48537000D01*
X154727000Y-48506000D01*
X154733000Y-48475000D01*
X154740000Y-48445000D01*
X154749000Y-48415000D01*
X154760000Y-48385000D01*
X154772000Y-48356000D01*
X154785000Y-48328000D01*
X154800000Y-48300000D01*
X154817000Y-48273000D01*
X154835000Y-48247000D01*
X154854000Y-48222000D01*
X154874000Y-48199000D01*
X154896000Y-48176000D01*
X154919000Y-48154000D01*
X154942000Y-48134000D01*
X154967000Y-48115000D01*
X154993000Y-48097000D01*
X155020000Y-48080000D01*
X155048000Y-48065000D01*
X155076000Y-48052000D01*
X155105000Y-48040000D01*
X155135000Y-48029000D01*
X155165000Y-48020000D01*
X155195000Y-48013000D01*
X155226000Y-48007000D01*
X155257000Y-48003000D01*
X155289000Y-48001000D01*
X155320000Y-48000000D01*
X155351000Y-48001000D01*
G37*
X146711000Y-48001000D02*
X146743000Y-48003000D01*
X146774000Y-48007000D01*
X146805000Y-48013000D01*
X146835000Y-48020000D01*
X146865000Y-48029000D01*
X146895000Y-48040000D01*
X146924000Y-48052000D01*
X146952000Y-48065000D01*
X146980000Y-48080000D01*
X147007000Y-48097000D01*
X147033000Y-48115000D01*
X147058000Y-48134000D01*
X147081000Y-48154000D01*
X147104000Y-48176000D01*
X147126000Y-48199000D01*
X147146000Y-48222000D01*
X147165000Y-48247000D01*
X147183000Y-48273000D01*
X147200000Y-48300000D01*
X147215000Y-48328000D01*
X147228000Y-48356000D01*
X147240000Y-48385000D01*
X147251000Y-48415000D01*
X147260000Y-48445000D01*
X147267000Y-48475000D01*
X147273000Y-48506000D01*
X147277000Y-48537000D01*
X147279000Y-48569000D01*
X147280000Y-48600000D01*
X147280000Y-49000000D01*
X147280000Y-49400000D01*
X147279000Y-49431000D01*
X147277000Y-49463000D01*
X147273000Y-49494000D01*
X147267000Y-49525000D01*
X147260000Y-49555000D01*
X147251000Y-49585000D01*
X147240000Y-49615000D01*
X147228000Y-49644000D01*
X147215000Y-49672000D01*
X147200000Y-49700000D01*
X147183000Y-49727000D01*
X147165000Y-49753000D01*
X147146000Y-49778000D01*
X147126000Y-49801000D01*
X147104000Y-49824000D01*
X147081000Y-49846000D01*
X147058000Y-49866000D01*
X147033000Y-49885000D01*
X147007000Y-49903000D01*
X146980000Y-49920000D01*
X146952000Y-49935000D01*
X146924000Y-49948000D01*
X146895000Y-49960000D01*
X146865000Y-49971000D01*
X146835000Y-49980000D01*
X146805000Y-49987000D01*
X146774000Y-49993000D01*
X146743000Y-49997000D01*
X146711000Y-49999000D01*
X146680000Y-50000000D01*
X146649000Y-49999000D01*
X146617000Y-49997000D01*
X146586000Y-49993000D01*
X146555000Y-49987000D01*
X146525000Y-49980000D01*
X146495000Y-49971000D01*
X146465000Y-49960000D01*
X146436000Y-49948000D01*
X146408000Y-49935000D01*
X146380000Y-49920000D01*
X146353000Y-49903000D01*
X146327000Y-49885000D01*
X146302000Y-49866000D01*
X146279000Y-49846000D01*
X146256000Y-49824000D01*
X146234000Y-49801000D01*
X146214000Y-49778000D01*
X146195000Y-49753000D01*
X146177000Y-49727000D01*
X146160000Y-49700000D01*
X146145000Y-49672000D01*
X146132000Y-49644000D01*
X146120000Y-49615000D01*
X146109000Y-49585000D01*
X146100000Y-49555000D01*
X146093000Y-49525000D01*
X146087000Y-49494000D01*
X146083000Y-49463000D01*
X146081000Y-49431000D01*
X146080000Y-49400000D01*
X146080000Y-49000000D01*
X146080000Y-48600000D01*
X146081000Y-48569000D01*
X146083000Y-48537000D01*
X146087000Y-48506000D01*
X146093000Y-48475000D01*
X146100000Y-48445000D01*
X146109000Y-48415000D01*
X146120000Y-48385000D01*
X146132000Y-48356000D01*
X146145000Y-48328000D01*
X146160000Y-48300000D01*
X146177000Y-48273000D01*
X146195000Y-48247000D01*
X146214000Y-48222000D01*
X146234000Y-48199000D01*
X146256000Y-48176000D01*
X146279000Y-48154000D01*
X146302000Y-48134000D01*
X146327000Y-48115000D01*
X146353000Y-48097000D01*
X146380000Y-48080000D01*
X146408000Y-48065000D01*
X146436000Y-48052000D01*
X146465000Y-48040000D01*
X146495000Y-48029000D01*
X146525000Y-48020000D01*
X146555000Y-48013000D01*
X146586000Y-48007000D01*
X146617000Y-48003000D01*
X146649000Y-48001000D01*
X146680000Y-48000000D01*
X146711000Y-48001000D01*
G36*
X146711000Y-48001000D02*
G01*
X146743000Y-48003000D01*
X146774000Y-48007000D01*
X146805000Y-48013000D01*
X146835000Y-48020000D01*
X146865000Y-48029000D01*
X146895000Y-48040000D01*
X146924000Y-48052000D01*
X146952000Y-48065000D01*
X146980000Y-48080000D01*
X147007000Y-48097000D01*
X147033000Y-48115000D01*
X147058000Y-48134000D01*
X147081000Y-48154000D01*
X147104000Y-48176000D01*
X147126000Y-48199000D01*
X147146000Y-48222000D01*
X147165000Y-48247000D01*
X147183000Y-48273000D01*
X147200000Y-48300000D01*
X147215000Y-48328000D01*
X147228000Y-48356000D01*
X147240000Y-48385000D01*
X147251000Y-48415000D01*
X147260000Y-48445000D01*
X147267000Y-48475000D01*
X147273000Y-48506000D01*
X147277000Y-48537000D01*
X147279000Y-48569000D01*
X147280000Y-48600000D01*
X147280000Y-49000000D01*
X147280000Y-49400000D01*
X147279000Y-49431000D01*
X147277000Y-49463000D01*
X147273000Y-49494000D01*
X147267000Y-49525000D01*
X147260000Y-49555000D01*
X147251000Y-49585000D01*
X147240000Y-49615000D01*
X147228000Y-49644000D01*
X147215000Y-49672000D01*
X147200000Y-49700000D01*
X147183000Y-49727000D01*
X147165000Y-49753000D01*
X147146000Y-49778000D01*
X147126000Y-49801000D01*
X147104000Y-49824000D01*
X147081000Y-49846000D01*
X147058000Y-49866000D01*
X147033000Y-49885000D01*
X147007000Y-49903000D01*
X146980000Y-49920000D01*
X146952000Y-49935000D01*
X146924000Y-49948000D01*
X146895000Y-49960000D01*
X146865000Y-49971000D01*
X146835000Y-49980000D01*
X146805000Y-49987000D01*
X146774000Y-49993000D01*
X146743000Y-49997000D01*
X146711000Y-49999000D01*
X146680000Y-50000000D01*
X146649000Y-49999000D01*
X146617000Y-49997000D01*
X146586000Y-49993000D01*
X146555000Y-49987000D01*
X146525000Y-49980000D01*
X146495000Y-49971000D01*
X146465000Y-49960000D01*
X146436000Y-49948000D01*
X146408000Y-49935000D01*
X146380000Y-49920000D01*
X146353000Y-49903000D01*
X146327000Y-49885000D01*
X146302000Y-49866000D01*
X146279000Y-49846000D01*
X146256000Y-49824000D01*
X146234000Y-49801000D01*
X146214000Y-49778000D01*
X146195000Y-49753000D01*
X146177000Y-49727000D01*
X146160000Y-49700000D01*
X146145000Y-49672000D01*
X146132000Y-49644000D01*
X146120000Y-49615000D01*
X146109000Y-49585000D01*
X146100000Y-49555000D01*
X146093000Y-49525000D01*
X146087000Y-49494000D01*
X146083000Y-49463000D01*
X146081000Y-49431000D01*
X146080000Y-49400000D01*
X146080000Y-49000000D01*
X146080000Y-48600000D01*
X146081000Y-48569000D01*
X146083000Y-48537000D01*
X146087000Y-48506000D01*
X146093000Y-48475000D01*
X146100000Y-48445000D01*
X146109000Y-48415000D01*
X146120000Y-48385000D01*
X146132000Y-48356000D01*
X146145000Y-48328000D01*
X146160000Y-48300000D01*
X146177000Y-48273000D01*
X146195000Y-48247000D01*
X146214000Y-48222000D01*
X146234000Y-48199000D01*
X146256000Y-48176000D01*
X146279000Y-48154000D01*
X146302000Y-48134000D01*
X146327000Y-48115000D01*
X146353000Y-48097000D01*
X146380000Y-48080000D01*
X146408000Y-48065000D01*
X146436000Y-48052000D01*
X146465000Y-48040000D01*
X146495000Y-48029000D01*
X146525000Y-48020000D01*
X146555000Y-48013000D01*
X146586000Y-48007000D01*
X146617000Y-48003000D01*
X146649000Y-48001000D01*
X146680000Y-48000000D01*
X146711000Y-48001000D01*
G37*
D19*
X154200000Y-53755000D03*
X153400000Y-53755000D03*
D20*
X152250000Y-53755000D03*
X151250000Y-53755000D03*
X150750000Y-53755000D03*
X149750000Y-53755000D03*
D19*
X147800000Y-53755000D03*
X148600000Y-53755000D03*
D20*
X149250000Y-53755000D03*
X150250000Y-53755000D03*
X151750000Y-53755000D03*
X152750000Y-53755000D03*
D21*
X155320000Y-53180000D03*
X146680000Y-53180000D03*
D22*
X152168000Y-87034000D03*
X147768000Y-87034000D03*
X147768000Y-89434000D03*
X152168000Y-89434000D03*
D23*
X167386000Y-53848000D03*
X168336001Y-53848000D03*
X169286002Y-53848000D03*
X169286002Y-50952400D03*
X168336001Y-50952400D03*
X167386000Y-50952400D03*
D24*
X168336001Y-52400200D03*
D25*
X160274000Y-52932500D03*
X160274000Y-51207500D03*
D26*
X134112000Y-86459700D03*
X134112000Y-84634700D03*
X134112000Y-82852900D03*
X134112000Y-81027900D03*
D27*
X151265500Y-74410000D03*
D28*
X147828000Y-77160000D03*
X147828000Y-76660000D03*
X147828000Y-76160000D03*
X147828000Y-75660000D03*
X147828000Y-75160000D03*
X147828000Y-74660000D03*
X147828000Y-74160000D03*
X147828000Y-73660000D03*
X147828000Y-73160000D03*
X147828000Y-72660000D03*
X147828000Y-72160000D03*
X147828000Y-71660000D03*
D29*
X148515500Y-70972500D03*
X149015500Y-70972500D03*
X149515500Y-70972500D03*
X150015500Y-70972500D03*
X150515500Y-70972500D03*
X151015500Y-70972500D03*
X151515500Y-70972500D03*
X152015500Y-70972500D03*
X152515500Y-70972500D03*
X153015500Y-70972500D03*
X153515500Y-70972500D03*
X154015500Y-70972500D03*
D28*
X154703000Y-71660000D03*
X154703000Y-72160000D03*
X154703000Y-72660000D03*
X154703000Y-73160000D03*
X154703000Y-73660000D03*
X154703000Y-74160000D03*
X154703000Y-74660000D03*
X154703000Y-75160000D03*
X154703000Y-75660000D03*
X154703000Y-76160000D03*
X154703000Y-76660000D03*
X154703000Y-77160000D03*
D29*
X154015500Y-77847500D03*
X153515500Y-77847500D03*
X153015500Y-77847500D03*
X152515500Y-77847500D03*
X152015500Y-77847500D03*
X151515500Y-77847500D03*
X151015500Y-77847500D03*
X150515500Y-77847500D03*
X150015500Y-77847500D03*
X149515500Y-77847500D03*
X149015500Y-77847500D03*
X148515500Y-77847500D03*
D30*
X167386000Y-56578000D03*
X167386000Y-61278000D03*
D31*
X131368800Y-107437000D03*
D32*
X131368800Y-109977000D03*
X131318000Y-62839600D03*
D31*
X131318000Y-65379600D03*
D33*
X167944800Y-97940500D03*
X167944800Y-96115500D03*
D31*
X145034000Y-98450400D03*
D32*
X145034000Y-100990400D03*
D26*
X138176000Y-63752100D03*
X138176000Y-61927100D03*
D34*
X134269000Y-62773600D03*
X136144000Y-61823600D03*
X136144000Y-63723600D03*
D33*
X167944800Y-86713700D03*
X167944800Y-84888700D03*
D35*
X149201500Y-62738000D03*
X151026500Y-62738000D03*
D31*
X130505200Y-52171600D03*
D32*
X130505200Y-49631600D03*
X133045200Y-52171600D03*
X133045200Y-49631600D03*
X135585200Y-52171600D03*
X135585200Y-49631600D03*
D26*
X152349200Y-56339100D03*
X152349200Y-58164100D03*
D36*
X146268500Y-67152000D03*
X148343500Y-67152000D03*
D31*
X131267200Y-78943200D03*
D32*
X131267200Y-81483200D03*
X131267200Y-84023200D03*
X131267200Y-86563200D03*
D37*
X154032000Y-80868000D03*
X152307000Y-80868000D03*
D38*
X146057500Y-79190500D03*
X146057500Y-77465500D03*
D39*
X135993500Y-65633600D03*
X137818500Y-65633600D03*
D32*
X162915600Y-109778800D03*
D31*
X162915600Y-107238800D03*
X131267200Y-100126800D03*
D32*
X131267200Y-102666800D03*
D39*
X162099000Y-57150000D03*
X160274000Y-57150000D03*
D25*
X156471500Y-69845500D03*
X156471500Y-71570500D03*
D26*
X138176000Y-71875100D03*
X138176000Y-70050100D03*
D31*
X158394400Y-107386200D03*
D32*
X158394400Y-109926200D03*
D39*
X136247500Y-73756600D03*
X138072500Y-73756600D03*
D26*
X167995600Y-102969700D03*
X167995600Y-101144700D03*
D40*
X162327500Y-60198000D03*
X160252500Y-60198000D03*
D31*
X139090400Y-98597800D03*
D32*
X139090400Y-101137800D03*
D40*
X160252500Y-62230000D03*
X162327500Y-62230000D03*
D31*
X153263600Y-107233800D03*
D32*
X153263600Y-109773800D03*
D33*
X144221200Y-52271300D03*
X144221200Y-50446300D03*
D32*
X131318000Y-70967600D03*
D31*
X131318000Y-73507600D03*
D37*
X154032000Y-82392000D03*
X152307000Y-82392000D03*
D41*
X164592000Y-51032500D03*
X164592000Y-53107500D03*
D35*
X147931500Y-64516000D03*
X149756500Y-64516000D03*
D26*
X167944800Y-77776700D03*
X167944800Y-79601700D03*
X148742400Y-58214900D03*
X148742400Y-56389900D03*
D33*
X167995600Y-108241700D03*
X167995600Y-110066700D03*
D25*
X158242000Y-52932500D03*
X158242000Y-51207500D03*
D42*
X146719000Y-69184000D03*
X148444000Y-69184000D03*
D31*
X147878800Y-107391200D03*
D32*
X147878800Y-109931200D03*
D31*
X170738800Y-84785200D03*
D32*
X170738800Y-82245200D03*
X170738800Y-79705200D03*
D31*
X170738800Y-96012000D03*
D32*
X170738800Y-93472000D03*
X170738800Y-90932000D03*
X170738800Y-68021200D03*
X170738800Y-70561200D03*
D31*
X170738800Y-73101200D03*
X170789600Y-108138200D03*
D32*
X170789600Y-105598200D03*
X170789600Y-103058200D03*
D31*
X137261600Y-107543600D03*
D32*
X137261600Y-110083600D03*
D26*
X167944800Y-65853700D03*
X167944800Y-67678700D03*
X167944800Y-89003500D03*
X167944800Y-90828500D03*
D39*
X162099000Y-55118000D03*
X160274000Y-55118000D03*
D31*
X142646400Y-107386200D03*
D32*
X142646400Y-109926200D03*
D43*
X144025500Y-79365500D03*
X144025500Y-77290500D03*
D34*
X134366000Y-70962600D03*
X136241000Y-70012600D03*
X136241000Y-71912600D03*
D32*
X131267200Y-95605600D03*
D31*
X131267200Y-93065600D03*
D33*
X167944800Y-75044700D03*
X167944800Y-73219700D03*
D31*
X150825200Y-98445400D03*
D32*
X150825200Y-100985400D03*
D42*
X147327500Y-84678000D03*
X149052500Y-84678000D03*
X150883500Y-84678000D03*
X152608500Y-84678000D03*
%LPD*%
M02*
