%TF.GenerationSoftware,KiCad,Pcbnew,7.0.11*%
%TF.CreationDate,2024-12-23T17:17:58+01:00*%
%TF.ProjectId,Aviator_Controller,41766961-746f-4725-9f43-6f6e74726f6c,rev?*%
%TF.SameCoordinates,Original*%
%TF.FileFunction,Drillmap*%
%TF.FilePolarity,Positive*%
%FSLAX45Y45*%
G04 Gerber Fmt 4.5, Leading zero omitted, Abs format (unit mm)*
G04 Created by KiCad (PCBNEW 7.0.11) date 2024-12-23 17:17:58*
%MOMM*%
%LPD*%
G01*
G04 APERTURE LIST*
%ADD10C,0.050000*%
%ADD11C,0.010000*%
%ADD12C,0.200000*%
%ADD13C,0.100000*%
G04 APERTURE END LIST*
D10*
X12301600Y-4693920D02*
X17899000Y-4693920D01*
X17899000Y-11231880D01*
X12301600Y-11231880D01*
X12301600Y-4693920D01*
D11*
X15562000Y-4860000D02*
X15562000Y-4940000D01*
X15502000Y-4940000D02*
X15502000Y-4860000D01*
X14698000Y-4860000D02*
X14698000Y-4940000D01*
X14638000Y-4940000D02*
X14638000Y-4860000D01*
X15532000Y-4970000D02*
G75*
G03*
X15562000Y-4940000I0J30000D01*
G01*
X15502000Y-4940000D02*
G75*
G03*
X15532000Y-4970000I30000J0D01*
G01*
X15562000Y-4860000D02*
G75*
G03*
X15532000Y-4830000I-30000J0D01*
G01*
X15532000Y-4830000D02*
G75*
G03*
X15502000Y-4860000I0J-30000D01*
G01*
X14668000Y-4970000D02*
G75*
G03*
X14698000Y-4940000I0J30000D01*
G01*
X14638000Y-4940000D02*
G75*
G03*
X14668000Y-4970000I30000J0D01*
G01*
X14698000Y-4860000D02*
G75*
G03*
X14668000Y-4830000I-30000J0D01*
G01*
X14668000Y-4830000D02*
G75*
G03*
X14638000Y-4860000I0J-30000D01*
G01*
D12*
D13*
X12913600Y-6792200D02*
X12943600Y-6822200D01*
X12943600Y-6792200D02*
X12913600Y-6822200D01*
X12964400Y-5877800D02*
X12994400Y-5907800D01*
X12994400Y-5877800D02*
X12964400Y-5907800D01*
X12989800Y-7655800D02*
X13019800Y-7685800D01*
X13019800Y-7655800D02*
X12989800Y-7685800D01*
X12989800Y-8976600D02*
X13019800Y-9006600D01*
X13019800Y-8976600D02*
X12989800Y-9006600D01*
X12989800Y-9789400D02*
X13019800Y-9819400D01*
X13019800Y-9789400D02*
X12989800Y-9819400D01*
X13142200Y-6030200D02*
X13172200Y-6060200D01*
X13172200Y-6030200D02*
X13142200Y-6060200D01*
X13218400Y-5750800D02*
X13248400Y-5780800D01*
X13248400Y-5750800D02*
X13218400Y-5780800D01*
X13218400Y-6792200D02*
X13248400Y-6822200D01*
X13248400Y-6792200D02*
X13218400Y-6822200D01*
X13269200Y-8875000D02*
X13299200Y-8905000D01*
X13299200Y-8875000D02*
X13269200Y-8905000D01*
X13294600Y-10373600D02*
X13324600Y-10403600D01*
X13324600Y-10373600D02*
X13294600Y-10403600D01*
X13320000Y-7605000D02*
X13350000Y-7635000D01*
X13350000Y-7605000D02*
X13320000Y-7635000D01*
X13320000Y-9052800D02*
X13350000Y-9082800D01*
X13350000Y-9052800D02*
X13320000Y-9082800D01*
X13421600Y-11034000D02*
X13451600Y-11064000D01*
X13451600Y-11034000D02*
X13421600Y-11064000D01*
X13447000Y-5801600D02*
X13477000Y-5831600D01*
X13477000Y-5801600D02*
X13447000Y-5831600D01*
X13518120Y-8250160D02*
X13548120Y-8280160D01*
X13548120Y-8250160D02*
X13518120Y-8280160D01*
X13548600Y-8849600D02*
X13578600Y-8879600D01*
X13578600Y-8849600D02*
X13548600Y-8879600D01*
X13568920Y-8356840D02*
X13598920Y-8386840D01*
X13598920Y-8356840D02*
X13568920Y-8386840D01*
X13599400Y-6030200D02*
X13629400Y-6060200D01*
X13629400Y-6030200D02*
X13599400Y-6060200D01*
X13624800Y-6843000D02*
X13654800Y-6873000D01*
X13654800Y-6843000D02*
X13624800Y-6873000D01*
X13624800Y-9967200D02*
X13654800Y-9997200D01*
X13654800Y-9967200D02*
X13624800Y-9997200D01*
X13650200Y-9687800D02*
X13680200Y-9717800D01*
X13680200Y-9687800D02*
X13650200Y-9717800D01*
X13660360Y-5674600D02*
X13690360Y-5704600D01*
X13690360Y-5674600D02*
X13660360Y-5704600D01*
X13670520Y-7986000D02*
X13700520Y-8016000D01*
X13700520Y-7986000D02*
X13670520Y-8016000D01*
X13777200Y-8621000D02*
X13807200Y-8651000D01*
X13807200Y-8621000D02*
X13777200Y-8651000D01*
X13777200Y-10322800D02*
X13807200Y-10352800D01*
X13807200Y-10322800D02*
X13777200Y-10352800D01*
X13817840Y-5512040D02*
X13847840Y-5542040D01*
X13847840Y-5512040D02*
X13817840Y-5542040D01*
X13828000Y-6792200D02*
X13858000Y-6822200D01*
X13858000Y-6792200D02*
X13828000Y-6822200D01*
X13878800Y-9357600D02*
X13908800Y-9387600D01*
X13908800Y-9357600D02*
X13878800Y-9387600D01*
X13904200Y-8341600D02*
X13934200Y-8371600D01*
X13934200Y-8341600D02*
X13904200Y-8371600D01*
X13955000Y-8011400D02*
X13985000Y-8041400D01*
X13985000Y-8011400D02*
X13955000Y-8041400D01*
X13955000Y-8544800D02*
X13985000Y-8574800D01*
X13985000Y-8544800D02*
X13955000Y-8574800D01*
X13955000Y-10830800D02*
X13985000Y-10860800D01*
X13985000Y-10830800D02*
X13955000Y-10860800D01*
X14056600Y-4887200D02*
X14086600Y-4917200D01*
X14086600Y-4887200D02*
X14056600Y-4917200D01*
X14056600Y-5065000D02*
X14086600Y-5095000D01*
X14086600Y-5065000D02*
X14056600Y-5095000D01*
X14056600Y-5598400D02*
X14086600Y-5628400D01*
X14086600Y-5598400D02*
X14056600Y-5628400D01*
X14107400Y-8214600D02*
X14137400Y-8244600D01*
X14137400Y-8214600D02*
X14107400Y-8244600D01*
X14132800Y-5242800D02*
X14162800Y-5272800D01*
X14162800Y-5242800D02*
X14132800Y-5272800D01*
X14132800Y-9154400D02*
X14162800Y-9184400D01*
X14162800Y-9154400D02*
X14132800Y-9184400D01*
X14142960Y-7315440D02*
X14172960Y-7345440D01*
X14172960Y-7315440D02*
X14142960Y-7345440D01*
X14158200Y-6639800D02*
X14188200Y-6669800D01*
X14188200Y-6639800D02*
X14158200Y-6669800D01*
X14158200Y-6741400D02*
X14188200Y-6771400D01*
X14188200Y-6741400D02*
X14158200Y-6771400D01*
X14209000Y-10145000D02*
X14239000Y-10175000D01*
X14239000Y-10145000D02*
X14209000Y-10175000D01*
X14214080Y-7930120D02*
X14244080Y-7960120D01*
X14244080Y-7930120D02*
X14214080Y-7960120D01*
X14239480Y-7386560D02*
X14269480Y-7416560D01*
X14269480Y-7386560D02*
X14239480Y-7416560D01*
X14310600Y-5395200D02*
X14340600Y-5425200D01*
X14340600Y-5395200D02*
X14310600Y-5425200D01*
X14310600Y-9205200D02*
X14340600Y-9235200D01*
X14340600Y-9205200D02*
X14310600Y-9235200D01*
X14386800Y-5954000D02*
X14416800Y-5984000D01*
X14416800Y-5954000D02*
X14386800Y-5984000D01*
X14412200Y-5496800D02*
X14442200Y-5526800D01*
X14442200Y-5496800D02*
X14412200Y-5526800D01*
X14412200Y-8951200D02*
X14442200Y-8981200D01*
X14442200Y-8951200D02*
X14412200Y-8981200D01*
X14447760Y-6929360D02*
X14477760Y-6959360D01*
X14477760Y-6929360D02*
X14447760Y-6959360D01*
X14539200Y-7046200D02*
X14569200Y-7076200D01*
X14569200Y-7046200D02*
X14539200Y-7076200D01*
X14539200Y-8570200D02*
X14569200Y-8600200D01*
X14569200Y-8570200D02*
X14539200Y-8600200D01*
X14539200Y-8697200D02*
X14569200Y-8727200D01*
X14569200Y-8697200D02*
X14539200Y-8727200D01*
X14539200Y-10830800D02*
X14569200Y-10860800D01*
X14569200Y-10830800D02*
X14539200Y-10860800D01*
X14615400Y-6157200D02*
X14645400Y-6187200D01*
X14645400Y-6157200D02*
X14615400Y-6187200D01*
X14615400Y-7224000D02*
X14645400Y-7254000D01*
X14645400Y-7224000D02*
X14615400Y-7254000D01*
X14630640Y-6324840D02*
X14660640Y-6354840D01*
X14660640Y-6324840D02*
X14630640Y-6354840D01*
X14661215Y-6553535D02*
X14691215Y-6583535D01*
X14691215Y-6553535D02*
X14661215Y-6583535D01*
X14666200Y-5496800D02*
X14696200Y-5526800D01*
X14696200Y-5496800D02*
X14666200Y-5526800D01*
X14666200Y-9129000D02*
X14696200Y-9159000D01*
X14696200Y-9129000D02*
X14666200Y-9159000D01*
X14691600Y-5903200D02*
X14721600Y-5933200D01*
X14721600Y-5903200D02*
X14691600Y-5933200D01*
X14717000Y-10068800D02*
X14747000Y-10098800D01*
X14747000Y-10068800D02*
X14717000Y-10098800D01*
X14818600Y-6817600D02*
X14848600Y-6847600D01*
X14848600Y-6817600D02*
X14818600Y-6847600D01*
X14844000Y-5471400D02*
X14874000Y-5501400D01*
X14874000Y-5471400D02*
X14844000Y-5501400D01*
X14844000Y-5979400D02*
X14874000Y-6009400D01*
X14874000Y-5979400D02*
X14844000Y-6009400D01*
X14844000Y-8290800D02*
X14874000Y-8320800D01*
X14874000Y-8290800D02*
X14844000Y-8320800D01*
X14859240Y-6553440D02*
X14889240Y-6583440D01*
X14889240Y-6553440D02*
X14859240Y-6583440D01*
X14889720Y-7208760D02*
X14919720Y-7238760D01*
X14919720Y-7208760D02*
X14889720Y-7238760D01*
X14894800Y-4912600D02*
X14924800Y-4942600D01*
X14924800Y-4912600D02*
X14894800Y-4942600D01*
X14899880Y-7640560D02*
X14929880Y-7670560D01*
X14929880Y-7640560D02*
X14899880Y-7670560D01*
X14945600Y-5166600D02*
X14975600Y-5196600D01*
X14975600Y-5166600D02*
X14945600Y-5196600D01*
X14945600Y-8189200D02*
X14975600Y-8219200D01*
X14975600Y-8189200D02*
X14945600Y-8219200D01*
X14971000Y-8925800D02*
X15001000Y-8955800D01*
X15001000Y-8925800D02*
X14971000Y-8955800D01*
X15006560Y-7422120D02*
X15036560Y-7452120D01*
X15036560Y-7422120D02*
X15006560Y-7452120D01*
X15047200Y-9078200D02*
X15077200Y-9108200D01*
X15077200Y-9078200D02*
X15047200Y-9108200D01*
X15047200Y-10830800D02*
X15077200Y-10860800D01*
X15077200Y-10830800D02*
X15047200Y-10860800D01*
X15098000Y-4887200D02*
X15128000Y-4917200D01*
X15128000Y-4887200D02*
X15098000Y-4917200D01*
X15108160Y-7569440D02*
X15138160Y-7599440D01*
X15138160Y-7569440D02*
X15108160Y-7599440D01*
X15123400Y-7269720D02*
X15153400Y-7299720D01*
X15153400Y-7269720D02*
X15123400Y-7299720D01*
X15146550Y-7960600D02*
X15176550Y-7990600D01*
X15176550Y-7960600D02*
X15146550Y-7990600D01*
X15148800Y-8316200D02*
X15178800Y-8346200D01*
X15178800Y-8316200D02*
X15148800Y-8346200D01*
X15225000Y-5217400D02*
X15255000Y-5247400D01*
X15255000Y-5217400D02*
X15225000Y-5247400D01*
X15230080Y-7422120D02*
X15260080Y-7452120D01*
X15260080Y-7422120D02*
X15230080Y-7452120D01*
X15275800Y-4912600D02*
X15305800Y-4942600D01*
X15305800Y-4912600D02*
X15275800Y-4942600D01*
X15275800Y-6055600D02*
X15305800Y-6085600D01*
X15305800Y-6055600D02*
X15275800Y-6085600D01*
X15275800Y-9205200D02*
X15305800Y-9235200D01*
X15305800Y-9205200D02*
X15275800Y-9235200D01*
X15301200Y-9433800D02*
X15331200Y-9463800D01*
X15331200Y-9433800D02*
X15301200Y-9463800D01*
X15301200Y-9814800D02*
X15331200Y-9844800D01*
X15331200Y-9814800D02*
X15301200Y-9844800D01*
X15326600Y-8316200D02*
X15356600Y-8346200D01*
X15356600Y-8316200D02*
X15326600Y-8346200D01*
X15336760Y-7208760D02*
X15366760Y-7238760D01*
X15366760Y-7208760D02*
X15336760Y-7238760D01*
X15336760Y-7650720D02*
X15366760Y-7680720D01*
X15366760Y-7650720D02*
X15336760Y-7680720D01*
X15352000Y-5928600D02*
X15382000Y-5958600D01*
X15382000Y-5928600D02*
X15352000Y-5958600D01*
X15369040Y-5512040D02*
X15399040Y-5542040D01*
X15399040Y-5512040D02*
X15369040Y-5542040D01*
X15402800Y-8621000D02*
X15432800Y-8651000D01*
X15432800Y-8621000D02*
X15402800Y-8651000D01*
X15402800Y-8748000D02*
X15432800Y-8778000D01*
X15432800Y-8748000D02*
X15402800Y-8778000D01*
X15448520Y-8402560D02*
X15478520Y-8432560D01*
X15478520Y-8402560D02*
X15448520Y-8432560D01*
X15479000Y-6385800D02*
X15509000Y-6415800D01*
X15509000Y-6385800D02*
X15479000Y-6415800D01*
X15504400Y-5496800D02*
X15534400Y-5526800D01*
X15534400Y-5496800D02*
X15504400Y-5526800D01*
X15504400Y-5750800D02*
X15534400Y-5780800D01*
X15534400Y-5750800D02*
X15504400Y-5780800D01*
X15504400Y-5979400D02*
X15534400Y-6009400D01*
X15534400Y-5979400D02*
X15504400Y-6009400D01*
X15504400Y-9306800D02*
X15534400Y-9336800D01*
X15534400Y-9306800D02*
X15504400Y-9336800D01*
X15555200Y-9764000D02*
X15585200Y-9794000D01*
X15585200Y-9764000D02*
X15555200Y-9794000D01*
X15580600Y-6284200D02*
X15610600Y-6314200D01*
X15610600Y-6284200D02*
X15580600Y-6314200D01*
X15580600Y-8367000D02*
X15610600Y-8397000D01*
X15610600Y-8367000D02*
X15580600Y-8397000D01*
X15580600Y-9560800D02*
X15610600Y-9590800D01*
X15610600Y-9560800D02*
X15580600Y-9590800D01*
X15580600Y-10830800D02*
X15610600Y-10860800D01*
X15610600Y-10830800D02*
X15580600Y-10860800D01*
X15595840Y-6766800D02*
X15625840Y-6796800D01*
X15625840Y-6766800D02*
X15595840Y-6796800D01*
X15656800Y-8798800D02*
X15686800Y-8828800D01*
X15686800Y-8798800D02*
X15656800Y-8828800D01*
X15727920Y-6665200D02*
X15757920Y-6695200D01*
X15757920Y-6665200D02*
X15727920Y-6695200D01*
X15748240Y-7904720D02*
X15778240Y-7934720D01*
X15778240Y-7904720D02*
X15748240Y-7934720D01*
X15758400Y-8976600D02*
X15788400Y-9006600D01*
X15788400Y-8976600D02*
X15758400Y-9006600D01*
X15758400Y-9383000D02*
X15788400Y-9413000D01*
X15788400Y-9383000D02*
X15758400Y-9413000D01*
X15783800Y-6131800D02*
X15813800Y-6161800D01*
X15813800Y-6131800D02*
X15783800Y-6161800D01*
X15793960Y-6604240D02*
X15823960Y-6634240D01*
X15823960Y-6604240D02*
X15793960Y-6634240D01*
X15809200Y-5420600D02*
X15839200Y-5450600D01*
X15839200Y-5420600D02*
X15809200Y-5450600D01*
X15821900Y-6896340D02*
X15851900Y-6926340D01*
X15851900Y-6896340D02*
X15821900Y-6926340D01*
X15834600Y-5877800D02*
X15864600Y-5907800D01*
X15864600Y-5877800D02*
X15834600Y-5907800D01*
X15834600Y-6360400D02*
X15864600Y-6390400D01*
X15864600Y-6360400D02*
X15834600Y-6390400D01*
X15839680Y-7899640D02*
X15869680Y-7929640D01*
X15869680Y-7899640D02*
X15839680Y-7929640D01*
X15865080Y-6543280D02*
X15895080Y-6573280D01*
X15895080Y-6543280D02*
X15865080Y-6573280D01*
X15885400Y-5623800D02*
X15915400Y-5653800D01*
X15915400Y-5623800D02*
X15885400Y-5653800D01*
X15910800Y-7122400D02*
X15940800Y-7152400D01*
X15940800Y-7122400D02*
X15910800Y-7152400D01*
X15931120Y-7904720D02*
X15961120Y-7934720D01*
X15961120Y-7904720D02*
X15931120Y-7934720D01*
X15936200Y-6995400D02*
X15966200Y-7025400D01*
X15966200Y-6995400D02*
X15936200Y-7025400D01*
X15951440Y-6482320D02*
X15981440Y-6512320D01*
X15981440Y-6482320D02*
X15951440Y-6512320D01*
X15987000Y-7605000D02*
X16017000Y-7635000D01*
X16017000Y-7605000D02*
X15987000Y-7635000D01*
X15987000Y-10348200D02*
X16017000Y-10378200D01*
X16017000Y-10348200D02*
X15987000Y-10378200D01*
X16012400Y-8138400D02*
X16042400Y-8168400D01*
X16042400Y-8138400D02*
X16012400Y-8168400D01*
X16012400Y-8722600D02*
X16042400Y-8752600D01*
X16042400Y-8722600D02*
X16012400Y-8752600D01*
X16012400Y-8951200D02*
X16042400Y-8981200D01*
X16042400Y-8951200D02*
X16012400Y-8981200D01*
X16063200Y-6919200D02*
X16093200Y-6949200D01*
X16093200Y-6919200D02*
X16063200Y-6949200D01*
X16063200Y-10805400D02*
X16093200Y-10835400D01*
X16093200Y-10805400D02*
X16063200Y-10835400D01*
X16103840Y-7498320D02*
X16133840Y-7528320D01*
X16133840Y-7498320D02*
X16103840Y-7528320D01*
X16139400Y-7097000D02*
X16169400Y-7127000D01*
X16169400Y-7097000D02*
X16139400Y-7127000D01*
X16139400Y-10094200D02*
X16169400Y-10124200D01*
X16169400Y-10094200D02*
X16139400Y-10124200D01*
X16154640Y-6665200D02*
X16184640Y-6695200D01*
X16184640Y-6665200D02*
X16154640Y-6695200D01*
X16190200Y-5293600D02*
X16220200Y-5323600D01*
X16220200Y-5293600D02*
X16190200Y-5323600D01*
X16190200Y-7493240D02*
X16220200Y-7523240D01*
X16220200Y-7493240D02*
X16190200Y-7523240D01*
X16215600Y-4861800D02*
X16245600Y-4891800D01*
X16245600Y-4861800D02*
X16215600Y-4891800D01*
X16263860Y-6667740D02*
X16293860Y-6697740D01*
X16293860Y-6667740D02*
X16263860Y-6697740D01*
X16281640Y-7488160D02*
X16311640Y-7518160D01*
X16311640Y-7488160D02*
X16281640Y-7518160D01*
X16317200Y-9916400D02*
X16347200Y-9946400D01*
X16347200Y-9916400D02*
X16317200Y-9946400D01*
X16368000Y-7488160D02*
X16398000Y-7518160D01*
X16398000Y-7488160D02*
X16368000Y-7518160D01*
X16393400Y-7224000D02*
X16423400Y-7254000D01*
X16423400Y-7224000D02*
X16393400Y-7254000D01*
X16428960Y-6685520D02*
X16458960Y-6715520D01*
X16458960Y-6685520D02*
X16428960Y-6715520D01*
X16454360Y-7483080D02*
X16484360Y-7513080D01*
X16484360Y-7483080D02*
X16454360Y-7513080D01*
X16571200Y-5192000D02*
X16601200Y-5222000D01*
X16601200Y-5192000D02*
X16571200Y-5222000D01*
X16596600Y-5293600D02*
X16626600Y-5323600D01*
X16626600Y-5293600D02*
X16596600Y-5323600D01*
X16637240Y-6752870D02*
X16667240Y-6782870D01*
X16667240Y-6752870D02*
X16637240Y-6782870D01*
X16647400Y-4836400D02*
X16677400Y-4866400D01*
X16677400Y-4836400D02*
X16647400Y-4866400D01*
X16749000Y-5496800D02*
X16779000Y-5526800D01*
X16779000Y-5496800D02*
X16749000Y-5526800D01*
X17053800Y-5115800D02*
X17083800Y-5145800D01*
X17083800Y-5115800D02*
X17053800Y-5145800D01*
X17053800Y-5293600D02*
X17083800Y-5323600D01*
X17083800Y-5293600D02*
X17053800Y-5323600D01*
X17130000Y-4887200D02*
X17160000Y-4917200D01*
X17160000Y-4887200D02*
X17130000Y-4917200D01*
X17180800Y-5471400D02*
X17210800Y-5501400D01*
X17210800Y-5471400D02*
X17180800Y-5501400D01*
X17180800Y-6030200D02*
X17210800Y-6060200D01*
X17210800Y-6030200D02*
X17180800Y-6060200D01*
X17206200Y-5750800D02*
X17236200Y-5780800D01*
X17236200Y-5750800D02*
X17206200Y-5780800D01*
X17231600Y-6309600D02*
X17261600Y-6339600D01*
X17261600Y-6309600D02*
X17231600Y-6339600D01*
X14698000Y-4900000D02*
G75*
G03*
X14638000Y-4900000I-30000J0D01*
G01*
X14638000Y-4900000D02*
G75*
G03*
X14698000Y-4900000I30000J0D01*
G01*
X14698000Y-5318000D02*
G75*
G03*
X14638000Y-5318000I-30000J0D01*
G01*
X14638000Y-5318000D02*
G75*
G03*
X14698000Y-5318000I30000J0D01*
G01*
X14698000Y-5373000D02*
X14698000Y-5263000D01*
X14698000Y-5263000D02*
G75*
G03*
X14638000Y-5263000I-30000J0D01*
G01*
X14638000Y-5263000D02*
X14638000Y-5373000D01*
X14638000Y-5373000D02*
G75*
G03*
X14698000Y-5373000I30000J0D01*
G01*
X15562000Y-4900000D02*
G75*
G03*
X15502000Y-4900000I-30000J0D01*
G01*
X15502000Y-4900000D02*
G75*
G03*
X15562000Y-4900000I30000J0D01*
G01*
X15562000Y-5318000D02*
G75*
G03*
X15502000Y-5318000I-30000J0D01*
G01*
X15502000Y-5318000D02*
G75*
G03*
X15562000Y-5318000I30000J0D01*
G01*
X15562000Y-5373000D02*
X15562000Y-5263000D01*
X15562000Y-5263000D02*
G75*
G03*
X15502000Y-5263000I-30000J0D01*
G01*
X15502000Y-5263000D02*
X15502000Y-5373000D01*
X15502000Y-5373000D02*
G75*
G03*
X15562000Y-5373000I30000J0D01*
G01*
X13050520Y-4913160D02*
X13050520Y-5013160D01*
X13000520Y-4963160D02*
X13100520Y-4963160D01*
X13050520Y-5167160D02*
X13050520Y-5267160D01*
X13000520Y-5217160D02*
X13100520Y-5217160D01*
X13126720Y-7844320D02*
X13126720Y-7944320D01*
X13076720Y-7894320D02*
X13176720Y-7894320D01*
X13126720Y-8098320D02*
X13126720Y-8198320D01*
X13076720Y-8148320D02*
X13176720Y-8148320D01*
X13126720Y-8352320D02*
X13126720Y-8452320D01*
X13076720Y-8402320D02*
X13176720Y-8402320D01*
X13126720Y-8606320D02*
X13126720Y-8706320D01*
X13076720Y-8656320D02*
X13176720Y-8656320D01*
X13126720Y-9256560D02*
X13126720Y-9356560D01*
X13076720Y-9306560D02*
X13176720Y-9306560D01*
X13126720Y-9510560D02*
X13126720Y-9610560D01*
X13076720Y-9560560D02*
X13176720Y-9560560D01*
X13126720Y-9962680D02*
X13126720Y-10062680D01*
X13076720Y-10012680D02*
X13176720Y-10012680D01*
X13126720Y-10216680D02*
X13126720Y-10316680D01*
X13076720Y-10266680D02*
X13176720Y-10266680D01*
X13131800Y-6233960D02*
X13131800Y-6333960D01*
X13081800Y-6283960D02*
X13181800Y-6283960D01*
X13131800Y-6487960D02*
X13131800Y-6587960D01*
X13081800Y-6537960D02*
X13181800Y-6537960D01*
X13131800Y-7046760D02*
X13131800Y-7146760D01*
X13081800Y-7096760D02*
X13181800Y-7096760D01*
X13131800Y-7300760D02*
X13131800Y-7400760D01*
X13081800Y-7350760D02*
X13181800Y-7350760D01*
X13136880Y-10693700D02*
X13136880Y-10793700D01*
X13086880Y-10743700D02*
X13186880Y-10743700D01*
X13136880Y-10947700D02*
X13136880Y-11047700D01*
X13086880Y-10997700D02*
X13186880Y-10997700D01*
X13304520Y-4913160D02*
X13304520Y-5013160D01*
X13254520Y-4963160D02*
X13354520Y-4963160D01*
X13304520Y-5167160D02*
X13304520Y-5267160D01*
X13254520Y-5217160D02*
X13354520Y-5217160D01*
X13558520Y-4913160D02*
X13558520Y-5013160D01*
X13508520Y-4963160D02*
X13608520Y-4963160D01*
X13558520Y-5167160D02*
X13558520Y-5267160D01*
X13508520Y-5217160D02*
X13608520Y-5217160D01*
X13726160Y-10704360D02*
X13726160Y-10804360D01*
X13676160Y-10754360D02*
X13776160Y-10754360D01*
X13726160Y-10958360D02*
X13726160Y-11058360D01*
X13676160Y-11008360D02*
X13776160Y-11008360D01*
X13909040Y-9809780D02*
X13909040Y-9909780D01*
X13859040Y-9859780D02*
X13959040Y-9859780D01*
X13909040Y-10063780D02*
X13909040Y-10163780D01*
X13859040Y-10113780D02*
X13959040Y-10113780D01*
X14264640Y-10688620D02*
X14264640Y-10788620D01*
X14214640Y-10738620D02*
X14314640Y-10738620D01*
X14264640Y-10942620D02*
X14264640Y-11042620D01*
X14214640Y-10992620D02*
X14314640Y-10992620D01*
X14503400Y-9795040D02*
X14503400Y-9895040D01*
X14453400Y-9845040D02*
X14553400Y-9845040D01*
X14503400Y-10049040D02*
X14503400Y-10149040D01*
X14453400Y-10099040D02*
X14553400Y-10099040D01*
X14787880Y-10689120D02*
X14787880Y-10789120D01*
X14737880Y-10739120D02*
X14837880Y-10739120D01*
X14787880Y-10943120D02*
X14787880Y-11043120D01*
X14737880Y-10993120D02*
X14837880Y-10993120D01*
X15082520Y-9794540D02*
X15082520Y-9894540D01*
X15032520Y-9844540D02*
X15132520Y-9844540D01*
X15082520Y-10048540D02*
X15082520Y-10148540D01*
X15032520Y-10098540D02*
X15132520Y-10098540D01*
X15326360Y-10673380D02*
X15326360Y-10773380D01*
X15276360Y-10723380D02*
X15376360Y-10723380D01*
X15326360Y-10927380D02*
X15326360Y-11027380D01*
X15276360Y-10977380D02*
X15376360Y-10977380D01*
X15839440Y-10688620D02*
X15839440Y-10788620D01*
X15789440Y-10738620D02*
X15889440Y-10738620D01*
X15839440Y-10942620D02*
X15839440Y-11042620D01*
X15789440Y-10992620D02*
X15889440Y-10992620D01*
X16291560Y-10673880D02*
X16291560Y-10773880D01*
X16241560Y-10723880D02*
X16341560Y-10723880D01*
X16291560Y-10927880D02*
X16291560Y-11027880D01*
X16241560Y-10977880D02*
X16341560Y-10977880D01*
X17073880Y-6752120D02*
X17073880Y-6852120D01*
X17023880Y-6802120D02*
X17123880Y-6802120D01*
X17073880Y-7006120D02*
X17073880Y-7106120D01*
X17023880Y-7056120D02*
X17123880Y-7056120D01*
X17073880Y-7260120D02*
X17073880Y-7360120D01*
X17023880Y-7310120D02*
X17123880Y-7310120D01*
X17073880Y-7920520D02*
X17073880Y-8020520D01*
X17023880Y-7970520D02*
X17123880Y-7970520D01*
X17073880Y-8174520D02*
X17073880Y-8274520D01*
X17023880Y-8224520D02*
X17123880Y-8224520D01*
X17073880Y-8428520D02*
X17073880Y-8528520D01*
X17023880Y-8478520D02*
X17123880Y-8478520D01*
X17073880Y-9043200D02*
X17073880Y-9143200D01*
X17023880Y-9093200D02*
X17123880Y-9093200D01*
X17073880Y-9297200D02*
X17073880Y-9397200D01*
X17023880Y-9347200D02*
X17123880Y-9347200D01*
X17073880Y-9551200D02*
X17073880Y-9651200D01*
X17023880Y-9601200D02*
X17123880Y-9601200D01*
X17078960Y-10255820D02*
X17078960Y-10355820D01*
X17028960Y-10305820D02*
X17128960Y-10305820D01*
X17078960Y-10509820D02*
X17078960Y-10609820D01*
X17028960Y-10559820D02*
X17128960Y-10559820D01*
X17078960Y-10763820D02*
X17078960Y-10863820D01*
X17028960Y-10813820D02*
X17128960Y-10813820D01*
D12*
X12559877Y-11545864D02*
X12559877Y-11345864D01*
X12559877Y-11345864D02*
X12607496Y-11345864D01*
X12607496Y-11345864D02*
X12636067Y-11355388D01*
X12636067Y-11355388D02*
X12655115Y-11374435D01*
X12655115Y-11374435D02*
X12664639Y-11393483D01*
X12664639Y-11393483D02*
X12674162Y-11431578D01*
X12674162Y-11431578D02*
X12674162Y-11460149D01*
X12674162Y-11460149D02*
X12664639Y-11498245D01*
X12664639Y-11498245D02*
X12655115Y-11517292D01*
X12655115Y-11517292D02*
X12636067Y-11536340D01*
X12636067Y-11536340D02*
X12607496Y-11545864D01*
X12607496Y-11545864D02*
X12559877Y-11545864D01*
X12759877Y-11545864D02*
X12759877Y-11412530D01*
X12759877Y-11450626D02*
X12769401Y-11431578D01*
X12769401Y-11431578D02*
X12778924Y-11422054D01*
X12778924Y-11422054D02*
X12797972Y-11412530D01*
X12797972Y-11412530D02*
X12817020Y-11412530D01*
X12883686Y-11545864D02*
X12883686Y-11412530D01*
X12883686Y-11345864D02*
X12874162Y-11355388D01*
X12874162Y-11355388D02*
X12883686Y-11364911D01*
X12883686Y-11364911D02*
X12893210Y-11355388D01*
X12893210Y-11355388D02*
X12883686Y-11345864D01*
X12883686Y-11345864D02*
X12883686Y-11364911D01*
X13007496Y-11545864D02*
X12988448Y-11536340D01*
X12988448Y-11536340D02*
X12978924Y-11517292D01*
X12978924Y-11517292D02*
X12978924Y-11345864D01*
X13112258Y-11545864D02*
X13093210Y-11536340D01*
X13093210Y-11536340D02*
X13083686Y-11517292D01*
X13083686Y-11517292D02*
X13083686Y-11345864D01*
X13340829Y-11545864D02*
X13340829Y-11345864D01*
X13340829Y-11345864D02*
X13407496Y-11488721D01*
X13407496Y-11488721D02*
X13474162Y-11345864D01*
X13474162Y-11345864D02*
X13474162Y-11545864D01*
X13655115Y-11545864D02*
X13655115Y-11441102D01*
X13655115Y-11441102D02*
X13645591Y-11422054D01*
X13645591Y-11422054D02*
X13626543Y-11412530D01*
X13626543Y-11412530D02*
X13588448Y-11412530D01*
X13588448Y-11412530D02*
X13569401Y-11422054D01*
X13655115Y-11536340D02*
X13636067Y-11545864D01*
X13636067Y-11545864D02*
X13588448Y-11545864D01*
X13588448Y-11545864D02*
X13569401Y-11536340D01*
X13569401Y-11536340D02*
X13559877Y-11517292D01*
X13559877Y-11517292D02*
X13559877Y-11498245D01*
X13559877Y-11498245D02*
X13569401Y-11479197D01*
X13569401Y-11479197D02*
X13588448Y-11469673D01*
X13588448Y-11469673D02*
X13636067Y-11469673D01*
X13636067Y-11469673D02*
X13655115Y-11460149D01*
X13750353Y-11412530D02*
X13750353Y-11612530D01*
X13750353Y-11422054D02*
X13769401Y-11412530D01*
X13769401Y-11412530D02*
X13807496Y-11412530D01*
X13807496Y-11412530D02*
X13826543Y-11422054D01*
X13826543Y-11422054D02*
X13836067Y-11431578D01*
X13836067Y-11431578D02*
X13845591Y-11450626D01*
X13845591Y-11450626D02*
X13845591Y-11507768D01*
X13845591Y-11507768D02*
X13836067Y-11526816D01*
X13836067Y-11526816D02*
X13826543Y-11536340D01*
X13826543Y-11536340D02*
X13807496Y-11545864D01*
X13807496Y-11545864D02*
X13769401Y-11545864D01*
X13769401Y-11545864D02*
X13750353Y-11536340D01*
X13931305Y-11526816D02*
X13940829Y-11536340D01*
X13940829Y-11536340D02*
X13931305Y-11545864D01*
X13931305Y-11545864D02*
X13921782Y-11536340D01*
X13921782Y-11536340D02*
X13931305Y-11526816D01*
X13931305Y-11526816D02*
X13931305Y-11545864D01*
X13931305Y-11422054D02*
X13940829Y-11431578D01*
X13940829Y-11431578D02*
X13931305Y-11441102D01*
X13931305Y-11441102D02*
X13921782Y-11431578D01*
X13921782Y-11431578D02*
X13931305Y-11422054D01*
X13931305Y-11422054D02*
X13931305Y-11441102D01*
D13*
X12269100Y-11859380D02*
X12299100Y-11889380D01*
X12299100Y-11859380D02*
X12269100Y-11889380D01*
D12*
X12597972Y-11765864D02*
X12617020Y-11765864D01*
X12617020Y-11765864D02*
X12636067Y-11775388D01*
X12636067Y-11775388D02*
X12645591Y-11784911D01*
X12645591Y-11784911D02*
X12655115Y-11803959D01*
X12655115Y-11803959D02*
X12664639Y-11842054D01*
X12664639Y-11842054D02*
X12664639Y-11889673D01*
X12664639Y-11889673D02*
X12655115Y-11927768D01*
X12655115Y-11927768D02*
X12645591Y-11946816D01*
X12645591Y-11946816D02*
X12636067Y-11956340D01*
X12636067Y-11956340D02*
X12617020Y-11965864D01*
X12617020Y-11965864D02*
X12597972Y-11965864D01*
X12597972Y-11965864D02*
X12578924Y-11956340D01*
X12578924Y-11956340D02*
X12569401Y-11946816D01*
X12569401Y-11946816D02*
X12559877Y-11927768D01*
X12559877Y-11927768D02*
X12550353Y-11889673D01*
X12550353Y-11889673D02*
X12550353Y-11842054D01*
X12550353Y-11842054D02*
X12559877Y-11803959D01*
X12559877Y-11803959D02*
X12569401Y-11784911D01*
X12569401Y-11784911D02*
X12578924Y-11775388D01*
X12578924Y-11775388D02*
X12597972Y-11765864D01*
X12750353Y-11946816D02*
X12759877Y-11956340D01*
X12759877Y-11956340D02*
X12750353Y-11965864D01*
X12750353Y-11965864D02*
X12740829Y-11956340D01*
X12740829Y-11956340D02*
X12750353Y-11946816D01*
X12750353Y-11946816D02*
X12750353Y-11965864D01*
X12826543Y-11765864D02*
X12950353Y-11765864D01*
X12950353Y-11765864D02*
X12883686Y-11842054D01*
X12883686Y-11842054D02*
X12912258Y-11842054D01*
X12912258Y-11842054D02*
X12931305Y-11851578D01*
X12931305Y-11851578D02*
X12940829Y-11861102D01*
X12940829Y-11861102D02*
X12950353Y-11880149D01*
X12950353Y-11880149D02*
X12950353Y-11927768D01*
X12950353Y-11927768D02*
X12940829Y-11946816D01*
X12940829Y-11946816D02*
X12931305Y-11956340D01*
X12931305Y-11956340D02*
X12912258Y-11965864D01*
X12912258Y-11965864D02*
X12855115Y-11965864D01*
X12855115Y-11965864D02*
X12836067Y-11956340D01*
X12836067Y-11956340D02*
X12826543Y-11946816D01*
X13074162Y-11765864D02*
X13093210Y-11765864D01*
X13093210Y-11765864D02*
X13112258Y-11775388D01*
X13112258Y-11775388D02*
X13121782Y-11784911D01*
X13121782Y-11784911D02*
X13131305Y-11803959D01*
X13131305Y-11803959D02*
X13140829Y-11842054D01*
X13140829Y-11842054D02*
X13140829Y-11889673D01*
X13140829Y-11889673D02*
X13131305Y-11927768D01*
X13131305Y-11927768D02*
X13121782Y-11946816D01*
X13121782Y-11946816D02*
X13112258Y-11956340D01*
X13112258Y-11956340D02*
X13093210Y-11965864D01*
X13093210Y-11965864D02*
X13074162Y-11965864D01*
X13074162Y-11965864D02*
X13055115Y-11956340D01*
X13055115Y-11956340D02*
X13045591Y-11946816D01*
X13045591Y-11946816D02*
X13036067Y-11927768D01*
X13036067Y-11927768D02*
X13026543Y-11889673D01*
X13026543Y-11889673D02*
X13026543Y-11842054D01*
X13026543Y-11842054D02*
X13036067Y-11803959D01*
X13036067Y-11803959D02*
X13045591Y-11784911D01*
X13045591Y-11784911D02*
X13055115Y-11775388D01*
X13055115Y-11775388D02*
X13074162Y-11765864D01*
X13264639Y-11765864D02*
X13283686Y-11765864D01*
X13283686Y-11765864D02*
X13302734Y-11775388D01*
X13302734Y-11775388D02*
X13312258Y-11784911D01*
X13312258Y-11784911D02*
X13321782Y-11803959D01*
X13321782Y-11803959D02*
X13331305Y-11842054D01*
X13331305Y-11842054D02*
X13331305Y-11889673D01*
X13331305Y-11889673D02*
X13321782Y-11927768D01*
X13321782Y-11927768D02*
X13312258Y-11946816D01*
X13312258Y-11946816D02*
X13302734Y-11956340D01*
X13302734Y-11956340D02*
X13283686Y-11965864D01*
X13283686Y-11965864D02*
X13264639Y-11965864D01*
X13264639Y-11965864D02*
X13245591Y-11956340D01*
X13245591Y-11956340D02*
X13236067Y-11946816D01*
X13236067Y-11946816D02*
X13226543Y-11927768D01*
X13226543Y-11927768D02*
X13217020Y-11889673D01*
X13217020Y-11889673D02*
X13217020Y-11842054D01*
X13217020Y-11842054D02*
X13226543Y-11803959D01*
X13226543Y-11803959D02*
X13236067Y-11784911D01*
X13236067Y-11784911D02*
X13245591Y-11775388D01*
X13245591Y-11775388D02*
X13264639Y-11765864D01*
X13417020Y-11965864D02*
X13417020Y-11832530D01*
X13417020Y-11851578D02*
X13426543Y-11842054D01*
X13426543Y-11842054D02*
X13445591Y-11832530D01*
X13445591Y-11832530D02*
X13474163Y-11832530D01*
X13474163Y-11832530D02*
X13493210Y-11842054D01*
X13493210Y-11842054D02*
X13502734Y-11861102D01*
X13502734Y-11861102D02*
X13502734Y-11965864D01*
X13502734Y-11861102D02*
X13512258Y-11842054D01*
X13512258Y-11842054D02*
X13531305Y-11832530D01*
X13531305Y-11832530D02*
X13559877Y-11832530D01*
X13559877Y-11832530D02*
X13578924Y-11842054D01*
X13578924Y-11842054D02*
X13588448Y-11861102D01*
X13588448Y-11861102D02*
X13588448Y-11965864D01*
X13683686Y-11965864D02*
X13683686Y-11832530D01*
X13683686Y-11851578D02*
X13693210Y-11842054D01*
X13693210Y-11842054D02*
X13712258Y-11832530D01*
X13712258Y-11832530D02*
X13740829Y-11832530D01*
X13740829Y-11832530D02*
X13759877Y-11842054D01*
X13759877Y-11842054D02*
X13769401Y-11861102D01*
X13769401Y-11861102D02*
X13769401Y-11965864D01*
X13769401Y-11861102D02*
X13778924Y-11842054D01*
X13778924Y-11842054D02*
X13797972Y-11832530D01*
X13797972Y-11832530D02*
X13826543Y-11832530D01*
X13826543Y-11832530D02*
X13845591Y-11842054D01*
X13845591Y-11842054D02*
X13855115Y-11861102D01*
X13855115Y-11861102D02*
X13855115Y-11965864D01*
X14245591Y-11756340D02*
X14074163Y-12013483D01*
X14502734Y-11765864D02*
X14521782Y-11765864D01*
X14521782Y-11765864D02*
X14540829Y-11775388D01*
X14540829Y-11775388D02*
X14550353Y-11784911D01*
X14550353Y-11784911D02*
X14559877Y-11803959D01*
X14559877Y-11803959D02*
X14569401Y-11842054D01*
X14569401Y-11842054D02*
X14569401Y-11889673D01*
X14569401Y-11889673D02*
X14559877Y-11927768D01*
X14559877Y-11927768D02*
X14550353Y-11946816D01*
X14550353Y-11946816D02*
X14540829Y-11956340D01*
X14540829Y-11956340D02*
X14521782Y-11965864D01*
X14521782Y-11965864D02*
X14502734Y-11965864D01*
X14502734Y-11965864D02*
X14483686Y-11956340D01*
X14483686Y-11956340D02*
X14474163Y-11946816D01*
X14474163Y-11946816D02*
X14464639Y-11927768D01*
X14464639Y-11927768D02*
X14455115Y-11889673D01*
X14455115Y-11889673D02*
X14455115Y-11842054D01*
X14455115Y-11842054D02*
X14464639Y-11803959D01*
X14464639Y-11803959D02*
X14474163Y-11784911D01*
X14474163Y-11784911D02*
X14483686Y-11775388D01*
X14483686Y-11775388D02*
X14502734Y-11765864D01*
X14655115Y-11946816D02*
X14664639Y-11956340D01*
X14664639Y-11956340D02*
X14655115Y-11965864D01*
X14655115Y-11965864D02*
X14645591Y-11956340D01*
X14645591Y-11956340D02*
X14655115Y-11946816D01*
X14655115Y-11946816D02*
X14655115Y-11965864D01*
X14788448Y-11765864D02*
X14807496Y-11765864D01*
X14807496Y-11765864D02*
X14826544Y-11775388D01*
X14826544Y-11775388D02*
X14836067Y-11784911D01*
X14836067Y-11784911D02*
X14845591Y-11803959D01*
X14845591Y-11803959D02*
X14855115Y-11842054D01*
X14855115Y-11842054D02*
X14855115Y-11889673D01*
X14855115Y-11889673D02*
X14845591Y-11927768D01*
X14845591Y-11927768D02*
X14836067Y-11946816D01*
X14836067Y-11946816D02*
X14826544Y-11956340D01*
X14826544Y-11956340D02*
X14807496Y-11965864D01*
X14807496Y-11965864D02*
X14788448Y-11965864D01*
X14788448Y-11965864D02*
X14769401Y-11956340D01*
X14769401Y-11956340D02*
X14759877Y-11946816D01*
X14759877Y-11946816D02*
X14750353Y-11927768D01*
X14750353Y-11927768D02*
X14740829Y-11889673D01*
X14740829Y-11889673D02*
X14740829Y-11842054D01*
X14740829Y-11842054D02*
X14750353Y-11803959D01*
X14750353Y-11803959D02*
X14759877Y-11784911D01*
X14759877Y-11784911D02*
X14769401Y-11775388D01*
X14769401Y-11775388D02*
X14788448Y-11765864D01*
X15045591Y-11965864D02*
X14931306Y-11965864D01*
X14988448Y-11965864D02*
X14988448Y-11765864D01*
X14988448Y-11765864D02*
X14969401Y-11794435D01*
X14969401Y-11794435D02*
X14950353Y-11813483D01*
X14950353Y-11813483D02*
X14931306Y-11823007D01*
X15236067Y-11965864D02*
X15121782Y-11965864D01*
X15178925Y-11965864D02*
X15178925Y-11765864D01*
X15178925Y-11765864D02*
X15159877Y-11794435D01*
X15159877Y-11794435D02*
X15140829Y-11813483D01*
X15140829Y-11813483D02*
X15121782Y-11823007D01*
X15350353Y-11851578D02*
X15331306Y-11842054D01*
X15331306Y-11842054D02*
X15321782Y-11832530D01*
X15321782Y-11832530D02*
X15312258Y-11813483D01*
X15312258Y-11813483D02*
X15312258Y-11803959D01*
X15312258Y-11803959D02*
X15321782Y-11784911D01*
X15321782Y-11784911D02*
X15331306Y-11775388D01*
X15331306Y-11775388D02*
X15350353Y-11765864D01*
X15350353Y-11765864D02*
X15388448Y-11765864D01*
X15388448Y-11765864D02*
X15407496Y-11775388D01*
X15407496Y-11775388D02*
X15417020Y-11784911D01*
X15417020Y-11784911D02*
X15426544Y-11803959D01*
X15426544Y-11803959D02*
X15426544Y-11813483D01*
X15426544Y-11813483D02*
X15417020Y-11832530D01*
X15417020Y-11832530D02*
X15407496Y-11842054D01*
X15407496Y-11842054D02*
X15388448Y-11851578D01*
X15388448Y-11851578D02*
X15350353Y-11851578D01*
X15350353Y-11851578D02*
X15331306Y-11861102D01*
X15331306Y-11861102D02*
X15321782Y-11870626D01*
X15321782Y-11870626D02*
X15312258Y-11889673D01*
X15312258Y-11889673D02*
X15312258Y-11927768D01*
X15312258Y-11927768D02*
X15321782Y-11946816D01*
X15321782Y-11946816D02*
X15331306Y-11956340D01*
X15331306Y-11956340D02*
X15350353Y-11965864D01*
X15350353Y-11965864D02*
X15388448Y-11965864D01*
X15388448Y-11965864D02*
X15407496Y-11956340D01*
X15407496Y-11956340D02*
X15417020Y-11946816D01*
X15417020Y-11946816D02*
X15426544Y-11927768D01*
X15426544Y-11927768D02*
X15426544Y-11889673D01*
X15426544Y-11889673D02*
X15417020Y-11870626D01*
X15417020Y-11870626D02*
X15407496Y-11861102D01*
X15407496Y-11861102D02*
X15388448Y-11851578D01*
X15502734Y-11765864D02*
X15502734Y-11803959D01*
X15578925Y-11765864D02*
X15578925Y-11803959D01*
X15874163Y-12042054D02*
X15864639Y-12032530D01*
X15864639Y-12032530D02*
X15845591Y-12003959D01*
X15845591Y-12003959D02*
X15836068Y-11984911D01*
X15836068Y-11984911D02*
X15826544Y-11956340D01*
X15826544Y-11956340D02*
X15817020Y-11908721D01*
X15817020Y-11908721D02*
X15817020Y-11870626D01*
X15817020Y-11870626D02*
X15826544Y-11823007D01*
X15826544Y-11823007D02*
X15836068Y-11794435D01*
X15836068Y-11794435D02*
X15845591Y-11775388D01*
X15845591Y-11775388D02*
X15864639Y-11746816D01*
X15864639Y-11746816D02*
X15874163Y-11737292D01*
X16055115Y-11965864D02*
X15940829Y-11965864D01*
X15997972Y-11965864D02*
X15997972Y-11765864D01*
X15997972Y-11765864D02*
X15978925Y-11794435D01*
X15978925Y-11794435D02*
X15959877Y-11813483D01*
X15959877Y-11813483D02*
X15940829Y-11823007D01*
X16236068Y-11765864D02*
X16140829Y-11765864D01*
X16140829Y-11765864D02*
X16131306Y-11861102D01*
X16131306Y-11861102D02*
X16140829Y-11851578D01*
X16140829Y-11851578D02*
X16159877Y-11842054D01*
X16159877Y-11842054D02*
X16207496Y-11842054D01*
X16207496Y-11842054D02*
X16226544Y-11851578D01*
X16226544Y-11851578D02*
X16236068Y-11861102D01*
X16236068Y-11861102D02*
X16245591Y-11880149D01*
X16245591Y-11880149D02*
X16245591Y-11927768D01*
X16245591Y-11927768D02*
X16236068Y-11946816D01*
X16236068Y-11946816D02*
X16226544Y-11956340D01*
X16226544Y-11956340D02*
X16207496Y-11965864D01*
X16207496Y-11965864D02*
X16159877Y-11965864D01*
X16159877Y-11965864D02*
X16140829Y-11956340D01*
X16140829Y-11956340D02*
X16131306Y-11946816D01*
X16359877Y-11851578D02*
X16340829Y-11842054D01*
X16340829Y-11842054D02*
X16331306Y-11832530D01*
X16331306Y-11832530D02*
X16321782Y-11813483D01*
X16321782Y-11813483D02*
X16321782Y-11803959D01*
X16321782Y-11803959D02*
X16331306Y-11784911D01*
X16331306Y-11784911D02*
X16340829Y-11775388D01*
X16340829Y-11775388D02*
X16359877Y-11765864D01*
X16359877Y-11765864D02*
X16397972Y-11765864D01*
X16397972Y-11765864D02*
X16417020Y-11775388D01*
X16417020Y-11775388D02*
X16426544Y-11784911D01*
X16426544Y-11784911D02*
X16436068Y-11803959D01*
X16436068Y-11803959D02*
X16436068Y-11813483D01*
X16436068Y-11813483D02*
X16426544Y-11832530D01*
X16426544Y-11832530D02*
X16417020Y-11842054D01*
X16417020Y-11842054D02*
X16397972Y-11851578D01*
X16397972Y-11851578D02*
X16359877Y-11851578D01*
X16359877Y-11851578D02*
X16340829Y-11861102D01*
X16340829Y-11861102D02*
X16331306Y-11870626D01*
X16331306Y-11870626D02*
X16321782Y-11889673D01*
X16321782Y-11889673D02*
X16321782Y-11927768D01*
X16321782Y-11927768D02*
X16331306Y-11946816D01*
X16331306Y-11946816D02*
X16340829Y-11956340D01*
X16340829Y-11956340D02*
X16359877Y-11965864D01*
X16359877Y-11965864D02*
X16397972Y-11965864D01*
X16397972Y-11965864D02*
X16417020Y-11956340D01*
X16417020Y-11956340D02*
X16426544Y-11946816D01*
X16426544Y-11946816D02*
X16436068Y-11927768D01*
X16436068Y-11927768D02*
X16436068Y-11889673D01*
X16436068Y-11889673D02*
X16426544Y-11870626D01*
X16426544Y-11870626D02*
X16417020Y-11861102D01*
X16417020Y-11861102D02*
X16397972Y-11851578D01*
X16674163Y-11965864D02*
X16674163Y-11765864D01*
X16759877Y-11965864D02*
X16759877Y-11861102D01*
X16759877Y-11861102D02*
X16750353Y-11842054D01*
X16750353Y-11842054D02*
X16731306Y-11832530D01*
X16731306Y-11832530D02*
X16702734Y-11832530D01*
X16702734Y-11832530D02*
X16683687Y-11842054D01*
X16683687Y-11842054D02*
X16674163Y-11851578D01*
X16883687Y-11965864D02*
X16864639Y-11956340D01*
X16864639Y-11956340D02*
X16855115Y-11946816D01*
X16855115Y-11946816D02*
X16845592Y-11927768D01*
X16845592Y-11927768D02*
X16845592Y-11870626D01*
X16845592Y-11870626D02*
X16855115Y-11851578D01*
X16855115Y-11851578D02*
X16864639Y-11842054D01*
X16864639Y-11842054D02*
X16883687Y-11832530D01*
X16883687Y-11832530D02*
X16912258Y-11832530D01*
X16912258Y-11832530D02*
X16931306Y-11842054D01*
X16931306Y-11842054D02*
X16940830Y-11851578D01*
X16940830Y-11851578D02*
X16950353Y-11870626D01*
X16950353Y-11870626D02*
X16950353Y-11927768D01*
X16950353Y-11927768D02*
X16940830Y-11946816D01*
X16940830Y-11946816D02*
X16931306Y-11956340D01*
X16931306Y-11956340D02*
X16912258Y-11965864D01*
X16912258Y-11965864D02*
X16883687Y-11965864D01*
X17064639Y-11965864D02*
X17045592Y-11956340D01*
X17045592Y-11956340D02*
X17036068Y-11937292D01*
X17036068Y-11937292D02*
X17036068Y-11765864D01*
X17217020Y-11956340D02*
X17197973Y-11965864D01*
X17197973Y-11965864D02*
X17159877Y-11965864D01*
X17159877Y-11965864D02*
X17140830Y-11956340D01*
X17140830Y-11956340D02*
X17131306Y-11937292D01*
X17131306Y-11937292D02*
X17131306Y-11861102D01*
X17131306Y-11861102D02*
X17140830Y-11842054D01*
X17140830Y-11842054D02*
X17159877Y-11832530D01*
X17159877Y-11832530D02*
X17197973Y-11832530D01*
X17197973Y-11832530D02*
X17217020Y-11842054D01*
X17217020Y-11842054D02*
X17226544Y-11861102D01*
X17226544Y-11861102D02*
X17226544Y-11880149D01*
X17226544Y-11880149D02*
X17131306Y-11899197D01*
X17302734Y-11956340D02*
X17321782Y-11965864D01*
X17321782Y-11965864D02*
X17359877Y-11965864D01*
X17359877Y-11965864D02*
X17378925Y-11956340D01*
X17378925Y-11956340D02*
X17388449Y-11937292D01*
X17388449Y-11937292D02*
X17388449Y-11927768D01*
X17388449Y-11927768D02*
X17378925Y-11908721D01*
X17378925Y-11908721D02*
X17359877Y-11899197D01*
X17359877Y-11899197D02*
X17331306Y-11899197D01*
X17331306Y-11899197D02*
X17312258Y-11889673D01*
X17312258Y-11889673D02*
X17302734Y-11870626D01*
X17302734Y-11870626D02*
X17302734Y-11861102D01*
X17302734Y-11861102D02*
X17312258Y-11842054D01*
X17312258Y-11842054D02*
X17331306Y-11832530D01*
X17331306Y-11832530D02*
X17359877Y-11832530D01*
X17359877Y-11832530D02*
X17378925Y-11842054D01*
X17455115Y-12042054D02*
X17464639Y-12032530D01*
X17464639Y-12032530D02*
X17483687Y-12003959D01*
X17483687Y-12003959D02*
X17493211Y-11984911D01*
X17493211Y-11984911D02*
X17502734Y-11956340D01*
X17502734Y-11956340D02*
X17512258Y-11908721D01*
X17512258Y-11908721D02*
X17512258Y-11870626D01*
X17512258Y-11870626D02*
X17502734Y-11823007D01*
X17502734Y-11823007D02*
X17493211Y-11794435D01*
X17493211Y-11794435D02*
X17483687Y-11775388D01*
X17483687Y-11775388D02*
X17464639Y-11746816D01*
X17464639Y-11746816D02*
X17455115Y-11737292D01*
D13*
X12299100Y-12138380D02*
G75*
G03*
X12239100Y-12138380I-30000J0D01*
G01*
X12239100Y-12138380D02*
G75*
G03*
X12299100Y-12138380I30000J0D01*
G01*
D12*
X12597972Y-12029864D02*
X12617020Y-12029864D01*
X12617020Y-12029864D02*
X12636067Y-12039388D01*
X12636067Y-12039388D02*
X12645591Y-12048911D01*
X12645591Y-12048911D02*
X12655115Y-12067959D01*
X12655115Y-12067959D02*
X12664639Y-12106054D01*
X12664639Y-12106054D02*
X12664639Y-12153673D01*
X12664639Y-12153673D02*
X12655115Y-12191768D01*
X12655115Y-12191768D02*
X12645591Y-12210816D01*
X12645591Y-12210816D02*
X12636067Y-12220340D01*
X12636067Y-12220340D02*
X12617020Y-12229864D01*
X12617020Y-12229864D02*
X12597972Y-12229864D01*
X12597972Y-12229864D02*
X12578924Y-12220340D01*
X12578924Y-12220340D02*
X12569401Y-12210816D01*
X12569401Y-12210816D02*
X12559877Y-12191768D01*
X12559877Y-12191768D02*
X12550353Y-12153673D01*
X12550353Y-12153673D02*
X12550353Y-12106054D01*
X12550353Y-12106054D02*
X12559877Y-12067959D01*
X12559877Y-12067959D02*
X12569401Y-12048911D01*
X12569401Y-12048911D02*
X12578924Y-12039388D01*
X12578924Y-12039388D02*
X12597972Y-12029864D01*
X12750353Y-12210816D02*
X12759877Y-12220340D01*
X12759877Y-12220340D02*
X12750353Y-12229864D01*
X12750353Y-12229864D02*
X12740829Y-12220340D01*
X12740829Y-12220340D02*
X12750353Y-12210816D01*
X12750353Y-12210816D02*
X12750353Y-12229864D01*
X12931305Y-12029864D02*
X12893210Y-12029864D01*
X12893210Y-12029864D02*
X12874162Y-12039388D01*
X12874162Y-12039388D02*
X12864639Y-12048911D01*
X12864639Y-12048911D02*
X12845591Y-12077483D01*
X12845591Y-12077483D02*
X12836067Y-12115578D01*
X12836067Y-12115578D02*
X12836067Y-12191768D01*
X12836067Y-12191768D02*
X12845591Y-12210816D01*
X12845591Y-12210816D02*
X12855115Y-12220340D01*
X12855115Y-12220340D02*
X12874162Y-12229864D01*
X12874162Y-12229864D02*
X12912258Y-12229864D01*
X12912258Y-12229864D02*
X12931305Y-12220340D01*
X12931305Y-12220340D02*
X12940829Y-12210816D01*
X12940829Y-12210816D02*
X12950353Y-12191768D01*
X12950353Y-12191768D02*
X12950353Y-12144149D01*
X12950353Y-12144149D02*
X12940829Y-12125102D01*
X12940829Y-12125102D02*
X12931305Y-12115578D01*
X12931305Y-12115578D02*
X12912258Y-12106054D01*
X12912258Y-12106054D02*
X12874162Y-12106054D01*
X12874162Y-12106054D02*
X12855115Y-12115578D01*
X12855115Y-12115578D02*
X12845591Y-12125102D01*
X12845591Y-12125102D02*
X12836067Y-12144149D01*
X13074162Y-12029864D02*
X13093210Y-12029864D01*
X13093210Y-12029864D02*
X13112258Y-12039388D01*
X13112258Y-12039388D02*
X13121782Y-12048911D01*
X13121782Y-12048911D02*
X13131305Y-12067959D01*
X13131305Y-12067959D02*
X13140829Y-12106054D01*
X13140829Y-12106054D02*
X13140829Y-12153673D01*
X13140829Y-12153673D02*
X13131305Y-12191768D01*
X13131305Y-12191768D02*
X13121782Y-12210816D01*
X13121782Y-12210816D02*
X13112258Y-12220340D01*
X13112258Y-12220340D02*
X13093210Y-12229864D01*
X13093210Y-12229864D02*
X13074162Y-12229864D01*
X13074162Y-12229864D02*
X13055115Y-12220340D01*
X13055115Y-12220340D02*
X13045591Y-12210816D01*
X13045591Y-12210816D02*
X13036067Y-12191768D01*
X13036067Y-12191768D02*
X13026543Y-12153673D01*
X13026543Y-12153673D02*
X13026543Y-12106054D01*
X13026543Y-12106054D02*
X13036067Y-12067959D01*
X13036067Y-12067959D02*
X13045591Y-12048911D01*
X13045591Y-12048911D02*
X13055115Y-12039388D01*
X13055115Y-12039388D02*
X13074162Y-12029864D01*
X13264639Y-12029864D02*
X13283686Y-12029864D01*
X13283686Y-12029864D02*
X13302734Y-12039388D01*
X13302734Y-12039388D02*
X13312258Y-12048911D01*
X13312258Y-12048911D02*
X13321782Y-12067959D01*
X13321782Y-12067959D02*
X13331305Y-12106054D01*
X13331305Y-12106054D02*
X13331305Y-12153673D01*
X13331305Y-12153673D02*
X13321782Y-12191768D01*
X13321782Y-12191768D02*
X13312258Y-12210816D01*
X13312258Y-12210816D02*
X13302734Y-12220340D01*
X13302734Y-12220340D02*
X13283686Y-12229864D01*
X13283686Y-12229864D02*
X13264639Y-12229864D01*
X13264639Y-12229864D02*
X13245591Y-12220340D01*
X13245591Y-12220340D02*
X13236067Y-12210816D01*
X13236067Y-12210816D02*
X13226543Y-12191768D01*
X13226543Y-12191768D02*
X13217020Y-12153673D01*
X13217020Y-12153673D02*
X13217020Y-12106054D01*
X13217020Y-12106054D02*
X13226543Y-12067959D01*
X13226543Y-12067959D02*
X13236067Y-12048911D01*
X13236067Y-12048911D02*
X13245591Y-12039388D01*
X13245591Y-12039388D02*
X13264639Y-12029864D01*
X13417020Y-12229864D02*
X13417020Y-12096530D01*
X13417020Y-12115578D02*
X13426543Y-12106054D01*
X13426543Y-12106054D02*
X13445591Y-12096530D01*
X13445591Y-12096530D02*
X13474163Y-12096530D01*
X13474163Y-12096530D02*
X13493210Y-12106054D01*
X13493210Y-12106054D02*
X13502734Y-12125102D01*
X13502734Y-12125102D02*
X13502734Y-12229864D01*
X13502734Y-12125102D02*
X13512258Y-12106054D01*
X13512258Y-12106054D02*
X13531305Y-12096530D01*
X13531305Y-12096530D02*
X13559877Y-12096530D01*
X13559877Y-12096530D02*
X13578924Y-12106054D01*
X13578924Y-12106054D02*
X13588448Y-12125102D01*
X13588448Y-12125102D02*
X13588448Y-12229864D01*
X13683686Y-12229864D02*
X13683686Y-12096530D01*
X13683686Y-12115578D02*
X13693210Y-12106054D01*
X13693210Y-12106054D02*
X13712258Y-12096530D01*
X13712258Y-12096530D02*
X13740829Y-12096530D01*
X13740829Y-12096530D02*
X13759877Y-12106054D01*
X13759877Y-12106054D02*
X13769401Y-12125102D01*
X13769401Y-12125102D02*
X13769401Y-12229864D01*
X13769401Y-12125102D02*
X13778924Y-12106054D01*
X13778924Y-12106054D02*
X13797972Y-12096530D01*
X13797972Y-12096530D02*
X13826543Y-12096530D01*
X13826543Y-12096530D02*
X13845591Y-12106054D01*
X13845591Y-12106054D02*
X13855115Y-12125102D01*
X13855115Y-12125102D02*
X13855115Y-12229864D01*
X14245591Y-12020340D02*
X14074163Y-12277483D01*
X14502734Y-12029864D02*
X14521782Y-12029864D01*
X14521782Y-12029864D02*
X14540829Y-12039388D01*
X14540829Y-12039388D02*
X14550353Y-12048911D01*
X14550353Y-12048911D02*
X14559877Y-12067959D01*
X14559877Y-12067959D02*
X14569401Y-12106054D01*
X14569401Y-12106054D02*
X14569401Y-12153673D01*
X14569401Y-12153673D02*
X14559877Y-12191768D01*
X14559877Y-12191768D02*
X14550353Y-12210816D01*
X14550353Y-12210816D02*
X14540829Y-12220340D01*
X14540829Y-12220340D02*
X14521782Y-12229864D01*
X14521782Y-12229864D02*
X14502734Y-12229864D01*
X14502734Y-12229864D02*
X14483686Y-12220340D01*
X14483686Y-12220340D02*
X14474163Y-12210816D01*
X14474163Y-12210816D02*
X14464639Y-12191768D01*
X14464639Y-12191768D02*
X14455115Y-12153673D01*
X14455115Y-12153673D02*
X14455115Y-12106054D01*
X14455115Y-12106054D02*
X14464639Y-12067959D01*
X14464639Y-12067959D02*
X14474163Y-12048911D01*
X14474163Y-12048911D02*
X14483686Y-12039388D01*
X14483686Y-12039388D02*
X14502734Y-12029864D01*
X14655115Y-12210816D02*
X14664639Y-12220340D01*
X14664639Y-12220340D02*
X14655115Y-12229864D01*
X14655115Y-12229864D02*
X14645591Y-12220340D01*
X14645591Y-12220340D02*
X14655115Y-12210816D01*
X14655115Y-12210816D02*
X14655115Y-12229864D01*
X14788448Y-12029864D02*
X14807496Y-12029864D01*
X14807496Y-12029864D02*
X14826544Y-12039388D01*
X14826544Y-12039388D02*
X14836067Y-12048911D01*
X14836067Y-12048911D02*
X14845591Y-12067959D01*
X14845591Y-12067959D02*
X14855115Y-12106054D01*
X14855115Y-12106054D02*
X14855115Y-12153673D01*
X14855115Y-12153673D02*
X14845591Y-12191768D01*
X14845591Y-12191768D02*
X14836067Y-12210816D01*
X14836067Y-12210816D02*
X14826544Y-12220340D01*
X14826544Y-12220340D02*
X14807496Y-12229864D01*
X14807496Y-12229864D02*
X14788448Y-12229864D01*
X14788448Y-12229864D02*
X14769401Y-12220340D01*
X14769401Y-12220340D02*
X14759877Y-12210816D01*
X14759877Y-12210816D02*
X14750353Y-12191768D01*
X14750353Y-12191768D02*
X14740829Y-12153673D01*
X14740829Y-12153673D02*
X14740829Y-12106054D01*
X14740829Y-12106054D02*
X14750353Y-12067959D01*
X14750353Y-12067959D02*
X14759877Y-12048911D01*
X14759877Y-12048911D02*
X14769401Y-12039388D01*
X14769401Y-12039388D02*
X14788448Y-12029864D01*
X14931306Y-12048911D02*
X14940829Y-12039388D01*
X14940829Y-12039388D02*
X14959877Y-12029864D01*
X14959877Y-12029864D02*
X15007496Y-12029864D01*
X15007496Y-12029864D02*
X15026544Y-12039388D01*
X15026544Y-12039388D02*
X15036067Y-12048911D01*
X15036067Y-12048911D02*
X15045591Y-12067959D01*
X15045591Y-12067959D02*
X15045591Y-12087007D01*
X15045591Y-12087007D02*
X15036067Y-12115578D01*
X15036067Y-12115578D02*
X14921782Y-12229864D01*
X14921782Y-12229864D02*
X15045591Y-12229864D01*
X15112258Y-12029864D02*
X15236067Y-12029864D01*
X15236067Y-12029864D02*
X15169401Y-12106054D01*
X15169401Y-12106054D02*
X15197972Y-12106054D01*
X15197972Y-12106054D02*
X15217020Y-12115578D01*
X15217020Y-12115578D02*
X15226544Y-12125102D01*
X15226544Y-12125102D02*
X15236067Y-12144149D01*
X15236067Y-12144149D02*
X15236067Y-12191768D01*
X15236067Y-12191768D02*
X15226544Y-12210816D01*
X15226544Y-12210816D02*
X15217020Y-12220340D01*
X15217020Y-12220340D02*
X15197972Y-12229864D01*
X15197972Y-12229864D02*
X15140829Y-12229864D01*
X15140829Y-12229864D02*
X15121782Y-12220340D01*
X15121782Y-12220340D02*
X15112258Y-12210816D01*
X15407496Y-12029864D02*
X15369401Y-12029864D01*
X15369401Y-12029864D02*
X15350353Y-12039388D01*
X15350353Y-12039388D02*
X15340829Y-12048911D01*
X15340829Y-12048911D02*
X15321782Y-12077483D01*
X15321782Y-12077483D02*
X15312258Y-12115578D01*
X15312258Y-12115578D02*
X15312258Y-12191768D01*
X15312258Y-12191768D02*
X15321782Y-12210816D01*
X15321782Y-12210816D02*
X15331306Y-12220340D01*
X15331306Y-12220340D02*
X15350353Y-12229864D01*
X15350353Y-12229864D02*
X15388448Y-12229864D01*
X15388448Y-12229864D02*
X15407496Y-12220340D01*
X15407496Y-12220340D02*
X15417020Y-12210816D01*
X15417020Y-12210816D02*
X15426544Y-12191768D01*
X15426544Y-12191768D02*
X15426544Y-12144149D01*
X15426544Y-12144149D02*
X15417020Y-12125102D01*
X15417020Y-12125102D02*
X15407496Y-12115578D01*
X15407496Y-12115578D02*
X15388448Y-12106054D01*
X15388448Y-12106054D02*
X15350353Y-12106054D01*
X15350353Y-12106054D02*
X15331306Y-12115578D01*
X15331306Y-12115578D02*
X15321782Y-12125102D01*
X15321782Y-12125102D02*
X15312258Y-12144149D01*
X15502734Y-12029864D02*
X15502734Y-12067959D01*
X15578925Y-12029864D02*
X15578925Y-12067959D01*
X15874163Y-12306054D02*
X15864639Y-12296530D01*
X15864639Y-12296530D02*
X15845591Y-12267959D01*
X15845591Y-12267959D02*
X15836068Y-12248911D01*
X15836068Y-12248911D02*
X15826544Y-12220340D01*
X15826544Y-12220340D02*
X15817020Y-12172721D01*
X15817020Y-12172721D02*
X15817020Y-12134626D01*
X15817020Y-12134626D02*
X15826544Y-12087007D01*
X15826544Y-12087007D02*
X15836068Y-12058435D01*
X15836068Y-12058435D02*
X15845591Y-12039388D01*
X15845591Y-12039388D02*
X15864639Y-12010816D01*
X15864639Y-12010816D02*
X15874163Y-12001292D01*
X15940829Y-12048911D02*
X15950353Y-12039388D01*
X15950353Y-12039388D02*
X15969401Y-12029864D01*
X15969401Y-12029864D02*
X16017020Y-12029864D01*
X16017020Y-12029864D02*
X16036068Y-12039388D01*
X16036068Y-12039388D02*
X16045591Y-12048911D01*
X16045591Y-12048911D02*
X16055115Y-12067959D01*
X16055115Y-12067959D02*
X16055115Y-12087007D01*
X16055115Y-12087007D02*
X16045591Y-12115578D01*
X16045591Y-12115578D02*
X15931306Y-12229864D01*
X15931306Y-12229864D02*
X16055115Y-12229864D01*
X16293210Y-12229864D02*
X16293210Y-12029864D01*
X16378925Y-12229864D02*
X16378925Y-12125102D01*
X16378925Y-12125102D02*
X16369401Y-12106054D01*
X16369401Y-12106054D02*
X16350353Y-12096530D01*
X16350353Y-12096530D02*
X16321782Y-12096530D01*
X16321782Y-12096530D02*
X16302734Y-12106054D01*
X16302734Y-12106054D02*
X16293210Y-12115578D01*
X16502734Y-12229864D02*
X16483687Y-12220340D01*
X16483687Y-12220340D02*
X16474163Y-12210816D01*
X16474163Y-12210816D02*
X16464639Y-12191768D01*
X16464639Y-12191768D02*
X16464639Y-12134626D01*
X16464639Y-12134626D02*
X16474163Y-12115578D01*
X16474163Y-12115578D02*
X16483687Y-12106054D01*
X16483687Y-12106054D02*
X16502734Y-12096530D01*
X16502734Y-12096530D02*
X16531306Y-12096530D01*
X16531306Y-12096530D02*
X16550353Y-12106054D01*
X16550353Y-12106054D02*
X16559877Y-12115578D01*
X16559877Y-12115578D02*
X16569401Y-12134626D01*
X16569401Y-12134626D02*
X16569401Y-12191768D01*
X16569401Y-12191768D02*
X16559877Y-12210816D01*
X16559877Y-12210816D02*
X16550353Y-12220340D01*
X16550353Y-12220340D02*
X16531306Y-12229864D01*
X16531306Y-12229864D02*
X16502734Y-12229864D01*
X16683687Y-12229864D02*
X16664639Y-12220340D01*
X16664639Y-12220340D02*
X16655115Y-12201292D01*
X16655115Y-12201292D02*
X16655115Y-12029864D01*
X16836068Y-12220340D02*
X16817020Y-12229864D01*
X16817020Y-12229864D02*
X16778925Y-12229864D01*
X16778925Y-12229864D02*
X16759877Y-12220340D01*
X16759877Y-12220340D02*
X16750353Y-12201292D01*
X16750353Y-12201292D02*
X16750353Y-12125102D01*
X16750353Y-12125102D02*
X16759877Y-12106054D01*
X16759877Y-12106054D02*
X16778925Y-12096530D01*
X16778925Y-12096530D02*
X16817020Y-12096530D01*
X16817020Y-12096530D02*
X16836068Y-12106054D01*
X16836068Y-12106054D02*
X16845592Y-12125102D01*
X16845592Y-12125102D02*
X16845592Y-12144149D01*
X16845592Y-12144149D02*
X16750353Y-12163197D01*
X16921782Y-12220340D02*
X16940830Y-12229864D01*
X16940830Y-12229864D02*
X16978925Y-12229864D01*
X16978925Y-12229864D02*
X16997973Y-12220340D01*
X16997973Y-12220340D02*
X17007496Y-12201292D01*
X17007496Y-12201292D02*
X17007496Y-12191768D01*
X17007496Y-12191768D02*
X16997973Y-12172721D01*
X16997973Y-12172721D02*
X16978925Y-12163197D01*
X16978925Y-12163197D02*
X16950353Y-12163197D01*
X16950353Y-12163197D02*
X16931306Y-12153673D01*
X16931306Y-12153673D02*
X16921782Y-12134626D01*
X16921782Y-12134626D02*
X16921782Y-12125102D01*
X16921782Y-12125102D02*
X16931306Y-12106054D01*
X16931306Y-12106054D02*
X16950353Y-12096530D01*
X16950353Y-12096530D02*
X16978925Y-12096530D01*
X16978925Y-12096530D02*
X16997973Y-12106054D01*
X17245592Y-12153673D02*
X17397973Y-12153673D01*
X17321782Y-12229864D02*
X17321782Y-12077483D01*
X17636068Y-12048911D02*
X17645592Y-12039388D01*
X17645592Y-12039388D02*
X17664639Y-12029864D01*
X17664639Y-12029864D02*
X17712258Y-12029864D01*
X17712258Y-12029864D02*
X17731306Y-12039388D01*
X17731306Y-12039388D02*
X17740830Y-12048911D01*
X17740830Y-12048911D02*
X17750354Y-12067959D01*
X17750354Y-12067959D02*
X17750354Y-12087007D01*
X17750354Y-12087007D02*
X17740830Y-12115578D01*
X17740830Y-12115578D02*
X17626544Y-12229864D01*
X17626544Y-12229864D02*
X17750354Y-12229864D01*
X17978925Y-12220340D02*
X17997973Y-12229864D01*
X17997973Y-12229864D02*
X18036068Y-12229864D01*
X18036068Y-12229864D02*
X18055116Y-12220340D01*
X18055116Y-12220340D02*
X18064639Y-12201292D01*
X18064639Y-12201292D02*
X18064639Y-12191768D01*
X18064639Y-12191768D02*
X18055116Y-12172721D01*
X18055116Y-12172721D02*
X18036068Y-12163197D01*
X18036068Y-12163197D02*
X18007496Y-12163197D01*
X18007496Y-12163197D02*
X17988449Y-12153673D01*
X17988449Y-12153673D02*
X17978925Y-12134626D01*
X17978925Y-12134626D02*
X17978925Y-12125102D01*
X17978925Y-12125102D02*
X17988449Y-12106054D01*
X17988449Y-12106054D02*
X18007496Y-12096530D01*
X18007496Y-12096530D02*
X18036068Y-12096530D01*
X18036068Y-12096530D02*
X18055116Y-12106054D01*
X18178925Y-12229864D02*
X18159877Y-12220340D01*
X18159877Y-12220340D02*
X18150354Y-12201292D01*
X18150354Y-12201292D02*
X18150354Y-12029864D01*
X18283687Y-12229864D02*
X18264639Y-12220340D01*
X18264639Y-12220340D02*
X18255116Y-12210816D01*
X18255116Y-12210816D02*
X18245592Y-12191768D01*
X18245592Y-12191768D02*
X18245592Y-12134626D01*
X18245592Y-12134626D02*
X18255116Y-12115578D01*
X18255116Y-12115578D02*
X18264639Y-12106054D01*
X18264639Y-12106054D02*
X18283687Y-12096530D01*
X18283687Y-12096530D02*
X18312258Y-12096530D01*
X18312258Y-12096530D02*
X18331306Y-12106054D01*
X18331306Y-12106054D02*
X18340830Y-12115578D01*
X18340830Y-12115578D02*
X18350354Y-12134626D01*
X18350354Y-12134626D02*
X18350354Y-12191768D01*
X18350354Y-12191768D02*
X18340830Y-12210816D01*
X18340830Y-12210816D02*
X18331306Y-12220340D01*
X18331306Y-12220340D02*
X18312258Y-12229864D01*
X18312258Y-12229864D02*
X18283687Y-12229864D01*
X18407497Y-12096530D02*
X18483687Y-12096530D01*
X18436068Y-12029864D02*
X18436068Y-12201292D01*
X18436068Y-12201292D02*
X18445592Y-12220340D01*
X18445592Y-12220340D02*
X18464639Y-12229864D01*
X18464639Y-12229864D02*
X18483687Y-12229864D01*
X18540830Y-12220340D02*
X18559877Y-12229864D01*
X18559877Y-12229864D02*
X18597973Y-12229864D01*
X18597973Y-12229864D02*
X18617020Y-12220340D01*
X18617020Y-12220340D02*
X18626544Y-12201292D01*
X18626544Y-12201292D02*
X18626544Y-12191768D01*
X18626544Y-12191768D02*
X18617020Y-12172721D01*
X18617020Y-12172721D02*
X18597973Y-12163197D01*
X18597973Y-12163197D02*
X18569401Y-12163197D01*
X18569401Y-12163197D02*
X18550354Y-12153673D01*
X18550354Y-12153673D02*
X18540830Y-12134626D01*
X18540830Y-12134626D02*
X18540830Y-12125102D01*
X18540830Y-12125102D02*
X18550354Y-12106054D01*
X18550354Y-12106054D02*
X18569401Y-12096530D01*
X18569401Y-12096530D02*
X18597973Y-12096530D01*
X18597973Y-12096530D02*
X18617020Y-12106054D01*
X18693211Y-12306054D02*
X18702735Y-12296530D01*
X18702735Y-12296530D02*
X18721782Y-12267959D01*
X18721782Y-12267959D02*
X18731306Y-12248911D01*
X18731306Y-12248911D02*
X18740830Y-12220340D01*
X18740830Y-12220340D02*
X18750354Y-12172721D01*
X18750354Y-12172721D02*
X18750354Y-12134626D01*
X18750354Y-12134626D02*
X18740830Y-12087007D01*
X18740830Y-12087007D02*
X18731306Y-12058435D01*
X18731306Y-12058435D02*
X18721782Y-12039388D01*
X18721782Y-12039388D02*
X18702735Y-12010816D01*
X18702735Y-12010816D02*
X18693211Y-12001292D01*
D13*
X12249100Y-12352380D02*
X12249100Y-12452380D01*
X12199100Y-12402380D02*
X12299100Y-12402380D01*
D12*
X12664639Y-12493864D02*
X12550353Y-12493864D01*
X12607496Y-12493864D02*
X12607496Y-12293864D01*
X12607496Y-12293864D02*
X12588448Y-12322435D01*
X12588448Y-12322435D02*
X12569401Y-12341483D01*
X12569401Y-12341483D02*
X12550353Y-12351007D01*
X12750353Y-12474816D02*
X12759877Y-12484340D01*
X12759877Y-12484340D02*
X12750353Y-12493864D01*
X12750353Y-12493864D02*
X12740829Y-12484340D01*
X12740829Y-12484340D02*
X12750353Y-12474816D01*
X12750353Y-12474816D02*
X12750353Y-12493864D01*
X12883686Y-12293864D02*
X12902734Y-12293864D01*
X12902734Y-12293864D02*
X12921782Y-12303388D01*
X12921782Y-12303388D02*
X12931305Y-12312911D01*
X12931305Y-12312911D02*
X12940829Y-12331959D01*
X12940829Y-12331959D02*
X12950353Y-12370054D01*
X12950353Y-12370054D02*
X12950353Y-12417673D01*
X12950353Y-12417673D02*
X12940829Y-12455768D01*
X12940829Y-12455768D02*
X12931305Y-12474816D01*
X12931305Y-12474816D02*
X12921782Y-12484340D01*
X12921782Y-12484340D02*
X12902734Y-12493864D01*
X12902734Y-12493864D02*
X12883686Y-12493864D01*
X12883686Y-12493864D02*
X12864639Y-12484340D01*
X12864639Y-12484340D02*
X12855115Y-12474816D01*
X12855115Y-12474816D02*
X12845591Y-12455768D01*
X12845591Y-12455768D02*
X12836067Y-12417673D01*
X12836067Y-12417673D02*
X12836067Y-12370054D01*
X12836067Y-12370054D02*
X12845591Y-12331959D01*
X12845591Y-12331959D02*
X12855115Y-12312911D01*
X12855115Y-12312911D02*
X12864639Y-12303388D01*
X12864639Y-12303388D02*
X12883686Y-12293864D01*
X13074162Y-12293864D02*
X13093210Y-12293864D01*
X13093210Y-12293864D02*
X13112258Y-12303388D01*
X13112258Y-12303388D02*
X13121782Y-12312911D01*
X13121782Y-12312911D02*
X13131305Y-12331959D01*
X13131305Y-12331959D02*
X13140829Y-12370054D01*
X13140829Y-12370054D02*
X13140829Y-12417673D01*
X13140829Y-12417673D02*
X13131305Y-12455768D01*
X13131305Y-12455768D02*
X13121782Y-12474816D01*
X13121782Y-12474816D02*
X13112258Y-12484340D01*
X13112258Y-12484340D02*
X13093210Y-12493864D01*
X13093210Y-12493864D02*
X13074162Y-12493864D01*
X13074162Y-12493864D02*
X13055115Y-12484340D01*
X13055115Y-12484340D02*
X13045591Y-12474816D01*
X13045591Y-12474816D02*
X13036067Y-12455768D01*
X13036067Y-12455768D02*
X13026543Y-12417673D01*
X13026543Y-12417673D02*
X13026543Y-12370054D01*
X13026543Y-12370054D02*
X13036067Y-12331959D01*
X13036067Y-12331959D02*
X13045591Y-12312911D01*
X13045591Y-12312911D02*
X13055115Y-12303388D01*
X13055115Y-12303388D02*
X13074162Y-12293864D01*
X13264639Y-12293864D02*
X13283686Y-12293864D01*
X13283686Y-12293864D02*
X13302734Y-12303388D01*
X13302734Y-12303388D02*
X13312258Y-12312911D01*
X13312258Y-12312911D02*
X13321782Y-12331959D01*
X13321782Y-12331959D02*
X13331305Y-12370054D01*
X13331305Y-12370054D02*
X13331305Y-12417673D01*
X13331305Y-12417673D02*
X13321782Y-12455768D01*
X13321782Y-12455768D02*
X13312258Y-12474816D01*
X13312258Y-12474816D02*
X13302734Y-12484340D01*
X13302734Y-12484340D02*
X13283686Y-12493864D01*
X13283686Y-12493864D02*
X13264639Y-12493864D01*
X13264639Y-12493864D02*
X13245591Y-12484340D01*
X13245591Y-12484340D02*
X13236067Y-12474816D01*
X13236067Y-12474816D02*
X13226543Y-12455768D01*
X13226543Y-12455768D02*
X13217020Y-12417673D01*
X13217020Y-12417673D02*
X13217020Y-12370054D01*
X13217020Y-12370054D02*
X13226543Y-12331959D01*
X13226543Y-12331959D02*
X13236067Y-12312911D01*
X13236067Y-12312911D02*
X13245591Y-12303388D01*
X13245591Y-12303388D02*
X13264639Y-12293864D01*
X13417020Y-12493864D02*
X13417020Y-12360530D01*
X13417020Y-12379578D02*
X13426543Y-12370054D01*
X13426543Y-12370054D02*
X13445591Y-12360530D01*
X13445591Y-12360530D02*
X13474163Y-12360530D01*
X13474163Y-12360530D02*
X13493210Y-12370054D01*
X13493210Y-12370054D02*
X13502734Y-12389102D01*
X13502734Y-12389102D02*
X13502734Y-12493864D01*
X13502734Y-12389102D02*
X13512258Y-12370054D01*
X13512258Y-12370054D02*
X13531305Y-12360530D01*
X13531305Y-12360530D02*
X13559877Y-12360530D01*
X13559877Y-12360530D02*
X13578924Y-12370054D01*
X13578924Y-12370054D02*
X13588448Y-12389102D01*
X13588448Y-12389102D02*
X13588448Y-12493864D01*
X13683686Y-12493864D02*
X13683686Y-12360530D01*
X13683686Y-12379578D02*
X13693210Y-12370054D01*
X13693210Y-12370054D02*
X13712258Y-12360530D01*
X13712258Y-12360530D02*
X13740829Y-12360530D01*
X13740829Y-12360530D02*
X13759877Y-12370054D01*
X13759877Y-12370054D02*
X13769401Y-12389102D01*
X13769401Y-12389102D02*
X13769401Y-12493864D01*
X13769401Y-12389102D02*
X13778924Y-12370054D01*
X13778924Y-12370054D02*
X13797972Y-12360530D01*
X13797972Y-12360530D02*
X13826543Y-12360530D01*
X13826543Y-12360530D02*
X13845591Y-12370054D01*
X13845591Y-12370054D02*
X13855115Y-12389102D01*
X13855115Y-12389102D02*
X13855115Y-12493864D01*
X14245591Y-12284340D02*
X14074163Y-12541483D01*
X14502734Y-12293864D02*
X14521782Y-12293864D01*
X14521782Y-12293864D02*
X14540829Y-12303388D01*
X14540829Y-12303388D02*
X14550353Y-12312911D01*
X14550353Y-12312911D02*
X14559877Y-12331959D01*
X14559877Y-12331959D02*
X14569401Y-12370054D01*
X14569401Y-12370054D02*
X14569401Y-12417673D01*
X14569401Y-12417673D02*
X14559877Y-12455768D01*
X14559877Y-12455768D02*
X14550353Y-12474816D01*
X14550353Y-12474816D02*
X14540829Y-12484340D01*
X14540829Y-12484340D02*
X14521782Y-12493864D01*
X14521782Y-12493864D02*
X14502734Y-12493864D01*
X14502734Y-12493864D02*
X14483686Y-12484340D01*
X14483686Y-12484340D02*
X14474163Y-12474816D01*
X14474163Y-12474816D02*
X14464639Y-12455768D01*
X14464639Y-12455768D02*
X14455115Y-12417673D01*
X14455115Y-12417673D02*
X14455115Y-12370054D01*
X14455115Y-12370054D02*
X14464639Y-12331959D01*
X14464639Y-12331959D02*
X14474163Y-12312911D01*
X14474163Y-12312911D02*
X14483686Y-12303388D01*
X14483686Y-12303388D02*
X14502734Y-12293864D01*
X14655115Y-12474816D02*
X14664639Y-12484340D01*
X14664639Y-12484340D02*
X14655115Y-12493864D01*
X14655115Y-12493864D02*
X14645591Y-12484340D01*
X14645591Y-12484340D02*
X14655115Y-12474816D01*
X14655115Y-12474816D02*
X14655115Y-12493864D01*
X14788448Y-12293864D02*
X14807496Y-12293864D01*
X14807496Y-12293864D02*
X14826544Y-12303388D01*
X14826544Y-12303388D02*
X14836067Y-12312911D01*
X14836067Y-12312911D02*
X14845591Y-12331959D01*
X14845591Y-12331959D02*
X14855115Y-12370054D01*
X14855115Y-12370054D02*
X14855115Y-12417673D01*
X14855115Y-12417673D02*
X14845591Y-12455768D01*
X14845591Y-12455768D02*
X14836067Y-12474816D01*
X14836067Y-12474816D02*
X14826544Y-12484340D01*
X14826544Y-12484340D02*
X14807496Y-12493864D01*
X14807496Y-12493864D02*
X14788448Y-12493864D01*
X14788448Y-12493864D02*
X14769401Y-12484340D01*
X14769401Y-12484340D02*
X14759877Y-12474816D01*
X14759877Y-12474816D02*
X14750353Y-12455768D01*
X14750353Y-12455768D02*
X14740829Y-12417673D01*
X14740829Y-12417673D02*
X14740829Y-12370054D01*
X14740829Y-12370054D02*
X14750353Y-12331959D01*
X14750353Y-12331959D02*
X14759877Y-12312911D01*
X14759877Y-12312911D02*
X14769401Y-12303388D01*
X14769401Y-12303388D02*
X14788448Y-12293864D01*
X14921782Y-12293864D02*
X15045591Y-12293864D01*
X15045591Y-12293864D02*
X14978925Y-12370054D01*
X14978925Y-12370054D02*
X15007496Y-12370054D01*
X15007496Y-12370054D02*
X15026544Y-12379578D01*
X15026544Y-12379578D02*
X15036067Y-12389102D01*
X15036067Y-12389102D02*
X15045591Y-12408149D01*
X15045591Y-12408149D02*
X15045591Y-12455768D01*
X15045591Y-12455768D02*
X15036067Y-12474816D01*
X15036067Y-12474816D02*
X15026544Y-12484340D01*
X15026544Y-12484340D02*
X15007496Y-12493864D01*
X15007496Y-12493864D02*
X14950353Y-12493864D01*
X14950353Y-12493864D02*
X14931306Y-12484340D01*
X14931306Y-12484340D02*
X14921782Y-12474816D01*
X15140829Y-12493864D02*
X15178925Y-12493864D01*
X15178925Y-12493864D02*
X15197972Y-12484340D01*
X15197972Y-12484340D02*
X15207496Y-12474816D01*
X15207496Y-12474816D02*
X15226544Y-12446245D01*
X15226544Y-12446245D02*
X15236067Y-12408149D01*
X15236067Y-12408149D02*
X15236067Y-12331959D01*
X15236067Y-12331959D02*
X15226544Y-12312911D01*
X15226544Y-12312911D02*
X15217020Y-12303388D01*
X15217020Y-12303388D02*
X15197972Y-12293864D01*
X15197972Y-12293864D02*
X15159877Y-12293864D01*
X15159877Y-12293864D02*
X15140829Y-12303388D01*
X15140829Y-12303388D02*
X15131306Y-12312911D01*
X15131306Y-12312911D02*
X15121782Y-12331959D01*
X15121782Y-12331959D02*
X15121782Y-12379578D01*
X15121782Y-12379578D02*
X15131306Y-12398626D01*
X15131306Y-12398626D02*
X15140829Y-12408149D01*
X15140829Y-12408149D02*
X15159877Y-12417673D01*
X15159877Y-12417673D02*
X15197972Y-12417673D01*
X15197972Y-12417673D02*
X15217020Y-12408149D01*
X15217020Y-12408149D02*
X15226544Y-12398626D01*
X15226544Y-12398626D02*
X15236067Y-12379578D01*
X15407496Y-12360530D02*
X15407496Y-12493864D01*
X15359877Y-12284340D02*
X15312258Y-12427197D01*
X15312258Y-12427197D02*
X15436067Y-12427197D01*
X15502734Y-12293864D02*
X15502734Y-12331959D01*
X15578925Y-12293864D02*
X15578925Y-12331959D01*
X15874163Y-12570054D02*
X15864639Y-12560530D01*
X15864639Y-12560530D02*
X15845591Y-12531959D01*
X15845591Y-12531959D02*
X15836068Y-12512911D01*
X15836068Y-12512911D02*
X15826544Y-12484340D01*
X15826544Y-12484340D02*
X15817020Y-12436721D01*
X15817020Y-12436721D02*
X15817020Y-12398626D01*
X15817020Y-12398626D02*
X15826544Y-12351007D01*
X15826544Y-12351007D02*
X15836068Y-12322435D01*
X15836068Y-12322435D02*
X15845591Y-12303388D01*
X15845591Y-12303388D02*
X15864639Y-12274816D01*
X15864639Y-12274816D02*
X15874163Y-12265292D01*
X16045591Y-12293864D02*
X15950353Y-12293864D01*
X15950353Y-12293864D02*
X15940829Y-12389102D01*
X15940829Y-12389102D02*
X15950353Y-12379578D01*
X15950353Y-12379578D02*
X15969401Y-12370054D01*
X15969401Y-12370054D02*
X16017020Y-12370054D01*
X16017020Y-12370054D02*
X16036068Y-12379578D01*
X16036068Y-12379578D02*
X16045591Y-12389102D01*
X16045591Y-12389102D02*
X16055115Y-12408149D01*
X16055115Y-12408149D02*
X16055115Y-12455768D01*
X16055115Y-12455768D02*
X16045591Y-12474816D01*
X16045591Y-12474816D02*
X16036068Y-12484340D01*
X16036068Y-12484340D02*
X16017020Y-12493864D01*
X16017020Y-12493864D02*
X15969401Y-12493864D01*
X15969401Y-12493864D02*
X15950353Y-12484340D01*
X15950353Y-12484340D02*
X15940829Y-12474816D01*
X16178925Y-12293864D02*
X16197972Y-12293864D01*
X16197972Y-12293864D02*
X16217020Y-12303388D01*
X16217020Y-12303388D02*
X16226544Y-12312911D01*
X16226544Y-12312911D02*
X16236068Y-12331959D01*
X16236068Y-12331959D02*
X16245591Y-12370054D01*
X16245591Y-12370054D02*
X16245591Y-12417673D01*
X16245591Y-12417673D02*
X16236068Y-12455768D01*
X16236068Y-12455768D02*
X16226544Y-12474816D01*
X16226544Y-12474816D02*
X16217020Y-12484340D01*
X16217020Y-12484340D02*
X16197972Y-12493864D01*
X16197972Y-12493864D02*
X16178925Y-12493864D01*
X16178925Y-12493864D02*
X16159877Y-12484340D01*
X16159877Y-12484340D02*
X16150353Y-12474816D01*
X16150353Y-12474816D02*
X16140829Y-12455768D01*
X16140829Y-12455768D02*
X16131306Y-12417673D01*
X16131306Y-12417673D02*
X16131306Y-12370054D01*
X16131306Y-12370054D02*
X16140829Y-12331959D01*
X16140829Y-12331959D02*
X16150353Y-12312911D01*
X16150353Y-12312911D02*
X16159877Y-12303388D01*
X16159877Y-12303388D02*
X16178925Y-12293864D01*
X16483687Y-12493864D02*
X16483687Y-12293864D01*
X16569401Y-12493864D02*
X16569401Y-12389102D01*
X16569401Y-12389102D02*
X16559877Y-12370054D01*
X16559877Y-12370054D02*
X16540830Y-12360530D01*
X16540830Y-12360530D02*
X16512258Y-12360530D01*
X16512258Y-12360530D02*
X16493210Y-12370054D01*
X16493210Y-12370054D02*
X16483687Y-12379578D01*
X16693210Y-12493864D02*
X16674163Y-12484340D01*
X16674163Y-12484340D02*
X16664639Y-12474816D01*
X16664639Y-12474816D02*
X16655115Y-12455768D01*
X16655115Y-12455768D02*
X16655115Y-12398626D01*
X16655115Y-12398626D02*
X16664639Y-12379578D01*
X16664639Y-12379578D02*
X16674163Y-12370054D01*
X16674163Y-12370054D02*
X16693210Y-12360530D01*
X16693210Y-12360530D02*
X16721782Y-12360530D01*
X16721782Y-12360530D02*
X16740830Y-12370054D01*
X16740830Y-12370054D02*
X16750353Y-12379578D01*
X16750353Y-12379578D02*
X16759877Y-12398626D01*
X16759877Y-12398626D02*
X16759877Y-12455768D01*
X16759877Y-12455768D02*
X16750353Y-12474816D01*
X16750353Y-12474816D02*
X16740830Y-12484340D01*
X16740830Y-12484340D02*
X16721782Y-12493864D01*
X16721782Y-12493864D02*
X16693210Y-12493864D01*
X16874163Y-12493864D02*
X16855115Y-12484340D01*
X16855115Y-12484340D02*
X16845592Y-12465292D01*
X16845592Y-12465292D02*
X16845592Y-12293864D01*
X17026544Y-12484340D02*
X17007496Y-12493864D01*
X17007496Y-12493864D02*
X16969401Y-12493864D01*
X16969401Y-12493864D02*
X16950353Y-12484340D01*
X16950353Y-12484340D02*
X16940830Y-12465292D01*
X16940830Y-12465292D02*
X16940830Y-12389102D01*
X16940830Y-12389102D02*
X16950353Y-12370054D01*
X16950353Y-12370054D02*
X16969401Y-12360530D01*
X16969401Y-12360530D02*
X17007496Y-12360530D01*
X17007496Y-12360530D02*
X17026544Y-12370054D01*
X17026544Y-12370054D02*
X17036068Y-12389102D01*
X17036068Y-12389102D02*
X17036068Y-12408149D01*
X17036068Y-12408149D02*
X16940830Y-12427197D01*
X17112258Y-12484340D02*
X17131306Y-12493864D01*
X17131306Y-12493864D02*
X17169401Y-12493864D01*
X17169401Y-12493864D02*
X17188449Y-12484340D01*
X17188449Y-12484340D02*
X17197973Y-12465292D01*
X17197973Y-12465292D02*
X17197973Y-12455768D01*
X17197973Y-12455768D02*
X17188449Y-12436721D01*
X17188449Y-12436721D02*
X17169401Y-12427197D01*
X17169401Y-12427197D02*
X17140830Y-12427197D01*
X17140830Y-12427197D02*
X17121782Y-12417673D01*
X17121782Y-12417673D02*
X17112258Y-12398626D01*
X17112258Y-12398626D02*
X17112258Y-12389102D01*
X17112258Y-12389102D02*
X17121782Y-12370054D01*
X17121782Y-12370054D02*
X17140830Y-12360530D01*
X17140830Y-12360530D02*
X17169401Y-12360530D01*
X17169401Y-12360530D02*
X17188449Y-12370054D01*
X17264639Y-12570054D02*
X17274163Y-12560530D01*
X17274163Y-12560530D02*
X17293211Y-12531959D01*
X17293211Y-12531959D02*
X17302734Y-12512911D01*
X17302734Y-12512911D02*
X17312258Y-12484340D01*
X17312258Y-12484340D02*
X17321782Y-12436721D01*
X17321782Y-12436721D02*
X17321782Y-12398626D01*
X17321782Y-12398626D02*
X17312258Y-12351007D01*
X17312258Y-12351007D02*
X17302734Y-12322435D01*
X17302734Y-12322435D02*
X17293211Y-12303388D01*
X17293211Y-12303388D02*
X17274163Y-12274816D01*
X17274163Y-12274816D02*
X17264639Y-12265292D01*
M02*
