G04 #@! TF.GenerationSoftware,KiCad,Pcbnew,7.0.11*
G04 #@! TF.CreationDate,2024-12-23T17:17:55+01:00*
G04 #@! TF.ProjectId,Aviator_Controller,41766961-746f-4725-9f43-6f6e74726f6c,rev?*
G04 #@! TF.SameCoordinates,Original*
G04 #@! TF.FileFunction,Copper,L2,Bot*
G04 #@! TF.FilePolarity,Positive*
%FSLAX46Y46*%
G04 Gerber Fmt 4.6, Leading zero omitted, Abs format (unit mm)*
G04 Created by KiCad (PCBNEW 7.0.11) date 2024-12-23 17:17:55*
%MOMM*%
%LPD*%
G01*
G04 APERTURE LIST*
G04 #@! TA.AperFunction,EtchedComponent*
%ADD10C,0.010000*%
G04 #@! TD*
G04 #@! TA.AperFunction,ComponentPad*
%ADD11O,1.000000X2.100000*%
G04 #@! TD*
G04 #@! TA.AperFunction,ComponentPad*
%ADD12C,1.000000*%
G04 #@! TD*
G04 #@! TA.AperFunction,ComponentPad*
%ADD13R,1.700000X1.700000*%
G04 #@! TD*
G04 #@! TA.AperFunction,ComponentPad*
%ADD14O,1.700000X1.700000*%
G04 #@! TD*
G04 #@! TA.AperFunction,ViaPad*
%ADD15C,0.600000*%
G04 #@! TD*
G04 #@! TA.AperFunction,Conductor*
%ADD16C,0.200000*%
G04 #@! TD*
G04 #@! TA.AperFunction,Conductor*
%ADD17C,0.500000*%
G04 #@! TD*
G04 APERTURE END LIST*
D10*
X155346000Y-48101000D02*
X155372000Y-48103000D01*
X155398000Y-48106000D01*
X155424000Y-48111000D01*
X155449000Y-48117000D01*
X155475000Y-48124000D01*
X155499000Y-48133000D01*
X155523000Y-48143000D01*
X155547000Y-48154000D01*
X155570000Y-48167000D01*
X155592000Y-48181000D01*
X155614000Y-48195000D01*
X155635000Y-48211000D01*
X155655000Y-48228000D01*
X155674000Y-48246000D01*
X155692000Y-48265000D01*
X155709000Y-48285000D01*
X155725000Y-48306000D01*
X155739000Y-48328000D01*
X155753000Y-48350000D01*
X155766000Y-48373000D01*
X155777000Y-48397000D01*
X155787000Y-48421000D01*
X155796000Y-48445000D01*
X155803000Y-48471000D01*
X155809000Y-48496000D01*
X155814000Y-48522000D01*
X155817000Y-48548000D01*
X155819000Y-48574000D01*
X155820000Y-48600000D01*
X155820000Y-49000000D01*
X155820000Y-49400000D01*
X155819000Y-49426000D01*
X155817000Y-49452000D01*
X155814000Y-49478000D01*
X155809000Y-49504000D01*
X155803000Y-49529000D01*
X155796000Y-49555000D01*
X155787000Y-49579000D01*
X155777000Y-49603000D01*
X155766000Y-49627000D01*
X155753000Y-49650000D01*
X155739000Y-49672000D01*
X155725000Y-49694000D01*
X155709000Y-49715000D01*
X155692000Y-49735000D01*
X155674000Y-49754000D01*
X155655000Y-49772000D01*
X155635000Y-49789000D01*
X155614000Y-49805000D01*
X155592000Y-49819000D01*
X155570000Y-49833000D01*
X155547000Y-49846000D01*
X155523000Y-49857000D01*
X155499000Y-49867000D01*
X155475000Y-49876000D01*
X155449000Y-49883000D01*
X155424000Y-49889000D01*
X155398000Y-49894000D01*
X155372000Y-49897000D01*
X155346000Y-49899000D01*
X155320000Y-49900000D01*
X155294000Y-49899000D01*
X155268000Y-49897000D01*
X155242000Y-49894000D01*
X155216000Y-49889000D01*
X155191000Y-49883000D01*
X155165000Y-49876000D01*
X155141000Y-49867000D01*
X155117000Y-49857000D01*
X155093000Y-49846000D01*
X155070000Y-49833000D01*
X155048000Y-49819000D01*
X155026000Y-49805000D01*
X155005000Y-49789000D01*
X154985000Y-49772000D01*
X154966000Y-49754000D01*
X154948000Y-49735000D01*
X154931000Y-49715000D01*
X154915000Y-49694000D01*
X154901000Y-49672000D01*
X154887000Y-49650000D01*
X154874000Y-49627000D01*
X154863000Y-49603000D01*
X154853000Y-49579000D01*
X154844000Y-49555000D01*
X154837000Y-49529000D01*
X154831000Y-49504000D01*
X154826000Y-49478000D01*
X154823000Y-49452000D01*
X154821000Y-49426000D01*
X154820000Y-49400000D01*
X154820000Y-49000000D01*
X154820000Y-48600000D01*
X154821000Y-48574000D01*
X154823000Y-48548000D01*
X154826000Y-48522000D01*
X154831000Y-48496000D01*
X154837000Y-48471000D01*
X154844000Y-48445000D01*
X154853000Y-48421000D01*
X154863000Y-48397000D01*
X154874000Y-48373000D01*
X154887000Y-48350000D01*
X154901000Y-48328000D01*
X154915000Y-48306000D01*
X154931000Y-48285000D01*
X154948000Y-48265000D01*
X154966000Y-48246000D01*
X154985000Y-48228000D01*
X155005000Y-48211000D01*
X155026000Y-48195000D01*
X155048000Y-48181000D01*
X155070000Y-48167000D01*
X155093000Y-48154000D01*
X155117000Y-48143000D01*
X155141000Y-48133000D01*
X155165000Y-48124000D01*
X155191000Y-48117000D01*
X155216000Y-48111000D01*
X155242000Y-48106000D01*
X155268000Y-48103000D01*
X155294000Y-48101000D01*
X155320000Y-48100000D01*
X155346000Y-48101000D01*
G04 #@! TA.AperFunction,EtchedComponent*
G36*
X155346000Y-48101000D02*
G01*
X155372000Y-48103000D01*
X155398000Y-48106000D01*
X155424000Y-48111000D01*
X155449000Y-48117000D01*
X155475000Y-48124000D01*
X155499000Y-48133000D01*
X155523000Y-48143000D01*
X155547000Y-48154000D01*
X155570000Y-48167000D01*
X155592000Y-48181000D01*
X155614000Y-48195000D01*
X155635000Y-48211000D01*
X155655000Y-48228000D01*
X155674000Y-48246000D01*
X155692000Y-48265000D01*
X155709000Y-48285000D01*
X155725000Y-48306000D01*
X155739000Y-48328000D01*
X155753000Y-48350000D01*
X155766000Y-48373000D01*
X155777000Y-48397000D01*
X155787000Y-48421000D01*
X155796000Y-48445000D01*
X155803000Y-48471000D01*
X155809000Y-48496000D01*
X155814000Y-48522000D01*
X155817000Y-48548000D01*
X155819000Y-48574000D01*
X155820000Y-48600000D01*
X155820000Y-49000000D01*
X155820000Y-49400000D01*
X155819000Y-49426000D01*
X155817000Y-49452000D01*
X155814000Y-49478000D01*
X155809000Y-49504000D01*
X155803000Y-49529000D01*
X155796000Y-49555000D01*
X155787000Y-49579000D01*
X155777000Y-49603000D01*
X155766000Y-49627000D01*
X155753000Y-49650000D01*
X155739000Y-49672000D01*
X155725000Y-49694000D01*
X155709000Y-49715000D01*
X155692000Y-49735000D01*
X155674000Y-49754000D01*
X155655000Y-49772000D01*
X155635000Y-49789000D01*
X155614000Y-49805000D01*
X155592000Y-49819000D01*
X155570000Y-49833000D01*
X155547000Y-49846000D01*
X155523000Y-49857000D01*
X155499000Y-49867000D01*
X155475000Y-49876000D01*
X155449000Y-49883000D01*
X155424000Y-49889000D01*
X155398000Y-49894000D01*
X155372000Y-49897000D01*
X155346000Y-49899000D01*
X155320000Y-49900000D01*
X155294000Y-49899000D01*
X155268000Y-49897000D01*
X155242000Y-49894000D01*
X155216000Y-49889000D01*
X155191000Y-49883000D01*
X155165000Y-49876000D01*
X155141000Y-49867000D01*
X155117000Y-49857000D01*
X155093000Y-49846000D01*
X155070000Y-49833000D01*
X155048000Y-49819000D01*
X155026000Y-49805000D01*
X155005000Y-49789000D01*
X154985000Y-49772000D01*
X154966000Y-49754000D01*
X154948000Y-49735000D01*
X154931000Y-49715000D01*
X154915000Y-49694000D01*
X154901000Y-49672000D01*
X154887000Y-49650000D01*
X154874000Y-49627000D01*
X154863000Y-49603000D01*
X154853000Y-49579000D01*
X154844000Y-49555000D01*
X154837000Y-49529000D01*
X154831000Y-49504000D01*
X154826000Y-49478000D01*
X154823000Y-49452000D01*
X154821000Y-49426000D01*
X154820000Y-49400000D01*
X154820000Y-49000000D01*
X154820000Y-48600000D01*
X154821000Y-48574000D01*
X154823000Y-48548000D01*
X154826000Y-48522000D01*
X154831000Y-48496000D01*
X154837000Y-48471000D01*
X154844000Y-48445000D01*
X154853000Y-48421000D01*
X154863000Y-48397000D01*
X154874000Y-48373000D01*
X154887000Y-48350000D01*
X154901000Y-48328000D01*
X154915000Y-48306000D01*
X154931000Y-48285000D01*
X154948000Y-48265000D01*
X154966000Y-48246000D01*
X154985000Y-48228000D01*
X155005000Y-48211000D01*
X155026000Y-48195000D01*
X155048000Y-48181000D01*
X155070000Y-48167000D01*
X155093000Y-48154000D01*
X155117000Y-48143000D01*
X155141000Y-48133000D01*
X155165000Y-48124000D01*
X155191000Y-48117000D01*
X155216000Y-48111000D01*
X155242000Y-48106000D01*
X155268000Y-48103000D01*
X155294000Y-48101000D01*
X155320000Y-48100000D01*
X155346000Y-48101000D01*
G37*
G04 #@! TD.AperFunction*
X146706000Y-48101000D02*
X146732000Y-48103000D01*
X146758000Y-48106000D01*
X146784000Y-48111000D01*
X146809000Y-48117000D01*
X146835000Y-48124000D01*
X146859000Y-48133000D01*
X146883000Y-48143000D01*
X146907000Y-48154000D01*
X146930000Y-48167000D01*
X146952000Y-48181000D01*
X146974000Y-48195000D01*
X146995000Y-48211000D01*
X147015000Y-48228000D01*
X147034000Y-48246000D01*
X147052000Y-48265000D01*
X147069000Y-48285000D01*
X147085000Y-48306000D01*
X147099000Y-48328000D01*
X147113000Y-48350000D01*
X147126000Y-48373000D01*
X147137000Y-48397000D01*
X147147000Y-48421000D01*
X147156000Y-48445000D01*
X147163000Y-48471000D01*
X147169000Y-48496000D01*
X147174000Y-48522000D01*
X147177000Y-48548000D01*
X147179000Y-48574000D01*
X147180000Y-48600000D01*
X147180000Y-49000000D01*
X147180000Y-49400000D01*
X147179000Y-49426000D01*
X147177000Y-49452000D01*
X147174000Y-49478000D01*
X147169000Y-49504000D01*
X147163000Y-49529000D01*
X147156000Y-49555000D01*
X147147000Y-49579000D01*
X147137000Y-49603000D01*
X147126000Y-49627000D01*
X147113000Y-49650000D01*
X147099000Y-49672000D01*
X147085000Y-49694000D01*
X147069000Y-49715000D01*
X147052000Y-49735000D01*
X147034000Y-49754000D01*
X147015000Y-49772000D01*
X146995000Y-49789000D01*
X146974000Y-49805000D01*
X146952000Y-49819000D01*
X146930000Y-49833000D01*
X146907000Y-49846000D01*
X146883000Y-49857000D01*
X146859000Y-49867000D01*
X146835000Y-49876000D01*
X146809000Y-49883000D01*
X146784000Y-49889000D01*
X146758000Y-49894000D01*
X146732000Y-49897000D01*
X146706000Y-49899000D01*
X146680000Y-49900000D01*
X146654000Y-49899000D01*
X146628000Y-49897000D01*
X146602000Y-49894000D01*
X146576000Y-49889000D01*
X146551000Y-49883000D01*
X146525000Y-49876000D01*
X146501000Y-49867000D01*
X146477000Y-49857000D01*
X146453000Y-49846000D01*
X146430000Y-49833000D01*
X146408000Y-49819000D01*
X146386000Y-49805000D01*
X146365000Y-49789000D01*
X146345000Y-49772000D01*
X146326000Y-49754000D01*
X146308000Y-49735000D01*
X146291000Y-49715000D01*
X146275000Y-49694000D01*
X146261000Y-49672000D01*
X146247000Y-49650000D01*
X146234000Y-49627000D01*
X146223000Y-49603000D01*
X146213000Y-49579000D01*
X146204000Y-49555000D01*
X146197000Y-49529000D01*
X146191000Y-49504000D01*
X146186000Y-49478000D01*
X146183000Y-49452000D01*
X146181000Y-49426000D01*
X146180000Y-49400000D01*
X146180000Y-49000000D01*
X146180000Y-48600000D01*
X146181000Y-48574000D01*
X146183000Y-48548000D01*
X146186000Y-48522000D01*
X146191000Y-48496000D01*
X146197000Y-48471000D01*
X146204000Y-48445000D01*
X146213000Y-48421000D01*
X146223000Y-48397000D01*
X146234000Y-48373000D01*
X146247000Y-48350000D01*
X146261000Y-48328000D01*
X146275000Y-48306000D01*
X146291000Y-48285000D01*
X146308000Y-48265000D01*
X146326000Y-48246000D01*
X146345000Y-48228000D01*
X146365000Y-48211000D01*
X146386000Y-48195000D01*
X146408000Y-48181000D01*
X146430000Y-48167000D01*
X146453000Y-48154000D01*
X146477000Y-48143000D01*
X146501000Y-48133000D01*
X146525000Y-48124000D01*
X146551000Y-48117000D01*
X146576000Y-48111000D01*
X146602000Y-48106000D01*
X146628000Y-48103000D01*
X146654000Y-48101000D01*
X146680000Y-48100000D01*
X146706000Y-48101000D01*
G04 #@! TA.AperFunction,EtchedComponent*
G36*
X146706000Y-48101000D02*
G01*
X146732000Y-48103000D01*
X146758000Y-48106000D01*
X146784000Y-48111000D01*
X146809000Y-48117000D01*
X146835000Y-48124000D01*
X146859000Y-48133000D01*
X146883000Y-48143000D01*
X146907000Y-48154000D01*
X146930000Y-48167000D01*
X146952000Y-48181000D01*
X146974000Y-48195000D01*
X146995000Y-48211000D01*
X147015000Y-48228000D01*
X147034000Y-48246000D01*
X147052000Y-48265000D01*
X147069000Y-48285000D01*
X147085000Y-48306000D01*
X147099000Y-48328000D01*
X147113000Y-48350000D01*
X147126000Y-48373000D01*
X147137000Y-48397000D01*
X147147000Y-48421000D01*
X147156000Y-48445000D01*
X147163000Y-48471000D01*
X147169000Y-48496000D01*
X147174000Y-48522000D01*
X147177000Y-48548000D01*
X147179000Y-48574000D01*
X147180000Y-48600000D01*
X147180000Y-49000000D01*
X147180000Y-49400000D01*
X147179000Y-49426000D01*
X147177000Y-49452000D01*
X147174000Y-49478000D01*
X147169000Y-49504000D01*
X147163000Y-49529000D01*
X147156000Y-49555000D01*
X147147000Y-49579000D01*
X147137000Y-49603000D01*
X147126000Y-49627000D01*
X147113000Y-49650000D01*
X147099000Y-49672000D01*
X147085000Y-49694000D01*
X147069000Y-49715000D01*
X147052000Y-49735000D01*
X147034000Y-49754000D01*
X147015000Y-49772000D01*
X146995000Y-49789000D01*
X146974000Y-49805000D01*
X146952000Y-49819000D01*
X146930000Y-49833000D01*
X146907000Y-49846000D01*
X146883000Y-49857000D01*
X146859000Y-49867000D01*
X146835000Y-49876000D01*
X146809000Y-49883000D01*
X146784000Y-49889000D01*
X146758000Y-49894000D01*
X146732000Y-49897000D01*
X146706000Y-49899000D01*
X146680000Y-49900000D01*
X146654000Y-49899000D01*
X146628000Y-49897000D01*
X146602000Y-49894000D01*
X146576000Y-49889000D01*
X146551000Y-49883000D01*
X146525000Y-49876000D01*
X146501000Y-49867000D01*
X146477000Y-49857000D01*
X146453000Y-49846000D01*
X146430000Y-49833000D01*
X146408000Y-49819000D01*
X146386000Y-49805000D01*
X146365000Y-49789000D01*
X146345000Y-49772000D01*
X146326000Y-49754000D01*
X146308000Y-49735000D01*
X146291000Y-49715000D01*
X146275000Y-49694000D01*
X146261000Y-49672000D01*
X146247000Y-49650000D01*
X146234000Y-49627000D01*
X146223000Y-49603000D01*
X146213000Y-49579000D01*
X146204000Y-49555000D01*
X146197000Y-49529000D01*
X146191000Y-49504000D01*
X146186000Y-49478000D01*
X146183000Y-49452000D01*
X146181000Y-49426000D01*
X146180000Y-49400000D01*
X146180000Y-49000000D01*
X146180000Y-48600000D01*
X146181000Y-48574000D01*
X146183000Y-48548000D01*
X146186000Y-48522000D01*
X146191000Y-48496000D01*
X146197000Y-48471000D01*
X146204000Y-48445000D01*
X146213000Y-48421000D01*
X146223000Y-48397000D01*
X146234000Y-48373000D01*
X146247000Y-48350000D01*
X146261000Y-48328000D01*
X146275000Y-48306000D01*
X146291000Y-48285000D01*
X146308000Y-48265000D01*
X146326000Y-48246000D01*
X146345000Y-48228000D01*
X146365000Y-48211000D01*
X146386000Y-48195000D01*
X146408000Y-48181000D01*
X146430000Y-48167000D01*
X146453000Y-48154000D01*
X146477000Y-48143000D01*
X146501000Y-48133000D01*
X146525000Y-48124000D01*
X146551000Y-48117000D01*
X146576000Y-48111000D01*
X146602000Y-48106000D01*
X146628000Y-48103000D01*
X146654000Y-48101000D01*
X146680000Y-48100000D01*
X146706000Y-48101000D01*
G37*
G04 #@! TD.AperFunction*
D11*
X155320000Y-53180000D03*
X146680000Y-53180000D03*
D12*
X155320000Y-49000000D03*
X146680000Y-49000000D03*
D13*
X131368800Y-107437000D03*
D14*
X131368800Y-109977000D03*
X131318000Y-62839600D03*
D13*
X131318000Y-65379600D03*
X145034000Y-98450400D03*
D14*
X145034000Y-100990400D03*
D13*
X130505200Y-52171600D03*
D14*
X130505200Y-49631600D03*
X133045200Y-52171600D03*
X133045200Y-49631600D03*
X135585200Y-52171600D03*
X135585200Y-49631600D03*
D13*
X131267200Y-78943200D03*
D14*
X131267200Y-81483200D03*
X131267200Y-84023200D03*
X131267200Y-86563200D03*
X162915600Y-109778800D03*
D13*
X162915600Y-107238800D03*
X131267200Y-100126800D03*
D14*
X131267200Y-102666800D03*
D13*
X158394400Y-107386200D03*
D14*
X158394400Y-109926200D03*
D13*
X139090400Y-98597800D03*
D14*
X139090400Y-101137800D03*
D13*
X153263600Y-107233800D03*
D14*
X153263600Y-109773800D03*
X131318000Y-70967600D03*
D13*
X131318000Y-73507600D03*
X147878800Y-107391200D03*
D14*
X147878800Y-109931200D03*
D13*
X170738800Y-84785200D03*
D14*
X170738800Y-82245200D03*
X170738800Y-79705200D03*
D13*
X170738800Y-96012000D03*
D14*
X170738800Y-93472000D03*
X170738800Y-90932000D03*
X170738800Y-68021200D03*
X170738800Y-70561200D03*
D13*
X170738800Y-73101200D03*
X170789600Y-108138200D03*
D14*
X170789600Y-105598200D03*
X170789600Y-103058200D03*
D13*
X137261600Y-107543600D03*
D14*
X137261600Y-110083600D03*
D13*
X142646400Y-107386200D03*
D14*
X142646400Y-109926200D03*
X131267200Y-95605600D03*
D13*
X131267200Y-93065600D03*
X150825200Y-98445400D03*
D14*
X150825200Y-100985400D03*
D15*
X145542000Y-70612000D03*
X146304000Y-72390000D03*
X171958000Y-60452000D03*
X172466000Y-63246000D03*
X172212000Y-57658000D03*
X171958000Y-54864000D03*
X171450000Y-49022000D03*
X166624000Y-48514000D03*
X162306000Y-48768000D03*
X149606000Y-51816000D03*
X152400000Y-52324000D03*
X152908000Y-49276000D03*
X147066000Y-59182000D03*
X148590000Y-59944000D03*
X140716000Y-56134000D03*
X146304000Y-61722000D03*
X144018000Y-59690000D03*
X132334000Y-57658000D03*
X134620000Y-58166000D03*
X141732000Y-66548000D03*
X141732000Y-67564000D03*
X130048000Y-98044000D03*
X133096000Y-103886000D03*
X136398000Y-99822000D03*
X136652000Y-97028000D03*
X147320000Y-100838000D03*
X142240000Y-101600000D03*
X137922000Y-103378000D03*
X134366000Y-110490000D03*
X139700000Y-108458000D03*
X145542000Y-108458000D03*
X150622000Y-108458000D03*
X160782000Y-108204000D03*
X155956000Y-108458000D03*
X160020000Y-103632000D03*
X161544000Y-101092000D03*
X163322000Y-99314000D03*
X160020000Y-76200000D03*
X160274000Y-81534000D03*
X160274000Y-87376000D03*
X153162000Y-94488000D03*
X153162000Y-98298000D03*
X155702000Y-97790000D03*
X155956000Y-95758000D03*
X157734000Y-93980000D03*
X160274000Y-89662000D03*
X157734000Y-89916000D03*
X155194000Y-93218000D03*
X152908000Y-92202000D03*
X156718000Y-88138000D03*
X143256000Y-92202000D03*
X138938000Y-93726000D03*
X141478000Y-91694000D03*
X146812000Y-91440000D03*
X144272000Y-89662000D03*
X130048000Y-89916000D03*
X133350000Y-90678000D03*
X132842000Y-88900000D03*
X135636000Y-88646000D03*
X137922000Y-86360000D03*
X139700000Y-85598000D03*
X139192000Y-83566000D03*
X141224000Y-82296000D03*
X139700000Y-80264000D03*
X130048000Y-76708000D03*
X133350000Y-76200000D03*
X129286000Y-68072000D03*
X132334000Y-68072000D03*
X129794000Y-58928000D03*
X131572000Y-60452000D03*
X140716000Y-50800000D03*
X151130000Y-49022000D03*
X149098000Y-49276000D03*
X140716000Y-49022000D03*
X141478000Y-52578000D03*
X143256000Y-54102000D03*
X144272000Y-55118000D03*
X154940000Y-64008000D03*
X155956000Y-62992000D03*
X155194000Y-59944000D03*
X153670000Y-59436000D03*
X155194000Y-57658000D03*
X152908000Y-60706000D03*
X138430000Y-68072000D03*
X164084000Y-72390000D03*
X161544000Y-71120000D03*
X160782000Y-69342000D03*
X159512000Y-70104000D03*
X159258000Y-71374000D03*
X153416000Y-83312000D03*
X151638000Y-83312000D03*
X155956000Y-83820000D03*
X154178000Y-86360000D03*
X149606000Y-82042000D03*
X148590000Y-83058000D03*
X145542000Y-85852000D03*
X154178000Y-87630000D03*
X150622000Y-90932000D03*
X149860000Y-89408000D03*
X145542000Y-87122000D03*
X136398000Y-68580000D03*
X136144000Y-60452000D03*
X148336000Y-68326000D03*
X157988000Y-61468000D03*
X158496000Y-63754000D03*
X158496000Y-58928000D03*
X167640000Y-55118000D03*
X165862000Y-52070000D03*
X170688000Y-53086000D03*
X170688000Y-51308000D03*
X166116000Y-53086000D03*
X162052000Y-53086000D03*
X159004000Y-56388000D03*
X158242000Y-54356000D03*
X155194000Y-55118000D03*
X146812000Y-55118000D03*
X152450800Y-74371200D03*
X151384000Y-72847200D03*
X150215600Y-74371200D03*
X151231600Y-75844400D03*
X149148800Y-76555600D03*
X153517600Y-72237600D03*
X153517600Y-76657200D03*
X149047200Y-72237600D03*
X153840400Y-55270400D03*
X148590000Y-54864000D03*
X138328400Y-55270400D03*
X146456400Y-63398400D03*
X157632400Y-79197200D03*
X158546800Y-79146400D03*
X159461200Y-79197200D03*
X161188400Y-75133200D03*
X162052000Y-75082400D03*
X162966400Y-75031600D03*
X163830000Y-75031600D03*
X164693600Y-74980800D03*
X156108400Y-67818000D03*
X157429200Y-66802000D03*
X161696400Y-66802000D03*
X162788600Y-66827400D03*
X158089600Y-66192400D03*
X164439600Y-67005200D03*
X158800800Y-65582800D03*
X166522400Y-67678700D03*
X159664400Y-64973200D03*
X135839200Y-83718400D03*
X136855200Y-80010000D03*
X141579600Y-73304400D03*
X135331200Y-82651600D03*
X142544800Y-74015600D03*
X148742400Y-65684400D03*
X136753600Y-56896000D03*
X144627600Y-69443600D03*
X151615500Y-79756000D03*
X154635200Y-84175600D03*
X142290800Y-79451200D03*
X146762150Y-65685350D03*
X158369000Y-69113400D03*
D16*
X149656800Y-105613200D02*
X147878800Y-107391200D01*
X153212800Y-105613200D02*
X149656800Y-105613200D01*
X162966400Y-75031600D02*
X162966400Y-95859600D01*
X162966400Y-95859600D02*
X153212800Y-105613200D01*
X154940000Y-51104800D02*
X146964400Y-51104800D01*
X144627600Y-74676000D02*
X144627600Y-69443600D01*
X149707600Y-79756000D02*
X144627600Y-74676000D01*
X151615500Y-79756000D02*
X149707600Y-79756000D01*
X157632400Y-85394800D02*
X149199600Y-93827600D01*
X157632400Y-79197200D02*
X157632400Y-85394800D01*
X149199600Y-93827600D02*
X143860600Y-93827600D01*
X143860600Y-93827600D02*
X139090400Y-98597800D01*
X150982600Y-98445400D02*
X150825200Y-98445400D01*
X159461200Y-89966800D02*
X150982600Y-98445400D01*
X159461200Y-79197200D02*
X159461200Y-89966800D01*
D17*
X146050000Y-57404000D02*
X148590000Y-54864000D01*
X142341600Y-57404000D02*
X146050000Y-57404000D01*
X134569200Y-65379600D02*
X131318000Y-65379600D01*
X134569200Y-66243200D02*
X134569200Y-65379600D01*
X134569200Y-65176400D02*
X142341600Y-57404000D01*
X134569200Y-66243200D02*
X134569200Y-65176400D01*
X134569200Y-71526400D02*
X134569200Y-66243200D01*
X132588000Y-73507600D02*
X134569200Y-71526400D01*
X131318000Y-73507600D02*
X132588000Y-73507600D01*
X146099850Y-65685350D02*
X146762150Y-65685350D01*
X142290800Y-78232000D02*
X142290800Y-79451200D01*
X143611600Y-76911200D02*
X142290800Y-78232000D01*
D16*
X146098900Y-65684400D02*
X146099850Y-65685350D01*
D17*
X143611600Y-66903600D02*
X143611600Y-76911200D01*
X144830800Y-65684400D02*
X143611600Y-66903600D01*
X144830800Y-65684400D02*
X146098900Y-65684400D01*
X148996400Y-55270400D02*
X153840400Y-55270400D01*
X148590000Y-54864000D02*
X148996400Y-55270400D01*
D16*
X137160000Y-49631600D02*
X135585200Y-49631600D01*
X138328400Y-50800000D02*
X137160000Y-49631600D01*
X138328400Y-55270400D02*
X138328400Y-50800000D01*
X146456400Y-63398400D02*
X148742400Y-65684400D01*
X139090400Y-98755200D02*
X139090400Y-98907600D01*
X150266400Y-95961200D02*
X147523200Y-95961200D01*
X158546800Y-87680800D02*
X150266400Y-95961200D01*
X147523200Y-95961200D02*
X145034000Y-98450400D01*
X158546800Y-79146400D02*
X158546800Y-87680800D01*
X161188400Y-94234000D02*
X161188400Y-75133200D01*
X151028400Y-104394000D02*
X161188400Y-94234000D01*
X140411200Y-104394000D02*
X151028400Y-104394000D01*
X137261600Y-107543600D02*
X140411200Y-104394000D01*
X144978200Y-105054400D02*
X142646400Y-107386200D01*
X162052000Y-95148400D02*
X152146000Y-105054400D01*
X152146000Y-105054400D02*
X144978200Y-105054400D01*
X162052000Y-75082400D02*
X162052000Y-95148400D01*
X163830000Y-96667400D02*
X153263600Y-107233800D01*
X163830000Y-75031600D02*
X163830000Y-96667400D01*
X164693600Y-101087000D02*
X158394400Y-107386200D01*
X164693600Y-74980800D02*
X164693600Y-101087000D01*
X162915600Y-107137200D02*
X162915600Y-107238800D01*
X165658800Y-72390000D02*
X165658800Y-104394000D01*
X165658800Y-104394000D02*
X162915600Y-107137200D01*
X161086800Y-67818000D02*
X165658800Y-72390000D01*
X156108400Y-67818000D02*
X161086800Y-67818000D01*
X135331200Y-82600800D02*
X135331200Y-82651600D01*
X138277600Y-79654400D02*
X135331200Y-82600800D01*
X142544800Y-74015600D02*
X138277600Y-78282800D01*
X138277600Y-78282800D02*
X138277600Y-79654400D01*
X136804400Y-79959200D02*
X136855200Y-80010000D01*
X136804400Y-78079600D02*
X136804400Y-79959200D01*
X141579600Y-73304400D02*
X136804400Y-78079600D01*
X161696400Y-66802000D02*
X157429200Y-66802000D01*
X162788600Y-66827400D02*
X162153600Y-66192400D01*
X162153600Y-66192400D02*
X158089600Y-66192400D01*
X163017200Y-65582800D02*
X158800800Y-65582800D01*
X164439600Y-67005200D02*
X163017200Y-65582800D01*
X163830000Y-64973200D02*
X159664400Y-64973200D01*
X166522400Y-67665600D02*
X163830000Y-64973200D01*
X166522400Y-67678700D02*
X166522400Y-67665600D01*
D17*
X135839200Y-83718400D02*
X133502400Y-83718400D01*
X133502400Y-83718400D02*
X131267200Y-81483200D01*
D16*
X135585200Y-55626000D02*
X135585200Y-52171600D01*
X136753600Y-56794400D02*
X135585200Y-55626000D01*
X136753600Y-56896000D02*
X136753600Y-56794400D01*
D17*
X147015200Y-84175600D02*
X154635200Y-84175600D01*
X142290800Y-79451200D02*
X147015200Y-84175600D01*
X158369000Y-69113400D02*
X150190200Y-69113400D01*
X150190200Y-69113400D02*
X146762150Y-65685350D01*
D16*
X146680000Y-51389200D02*
X146680000Y-53180000D01*
X146964400Y-51104800D02*
X146680000Y-51389200D01*
X155320000Y-51484800D02*
X154940000Y-51104800D01*
X155320000Y-53180000D02*
X155320000Y-51484800D01*
G04 #@! TA.AperFunction,Conductor*
G36*
X173933039Y-47459385D02*
G01*
X173978794Y-47512189D01*
X173990000Y-47563700D01*
X173990000Y-111694300D01*
X173970315Y-111761339D01*
X173917511Y-111807094D01*
X173866000Y-111818300D01*
X128140000Y-111818300D01*
X128072961Y-111798615D01*
X128027206Y-111745811D01*
X128016000Y-111694300D01*
X128016000Y-110227000D01*
X130038164Y-110227000D01*
X130095367Y-110440486D01*
X130095370Y-110440492D01*
X130195199Y-110654578D01*
X130330694Y-110848082D01*
X130497717Y-111015105D01*
X130691221Y-111150600D01*
X130905307Y-111250429D01*
X130905316Y-111250433D01*
X131118800Y-111307634D01*
X131118800Y-110412501D01*
X131226485Y-110461680D01*
X131333037Y-110477000D01*
X131404563Y-110477000D01*
X131511115Y-110461680D01*
X131618800Y-110412501D01*
X131618800Y-111307633D01*
X131832283Y-111250433D01*
X131832292Y-111250429D01*
X132046378Y-111150600D01*
X132239882Y-111015105D01*
X132406905Y-110848082D01*
X132542400Y-110654578D01*
X132642229Y-110440492D01*
X132642232Y-110440486D01*
X132670872Y-110333600D01*
X135930964Y-110333600D01*
X135988167Y-110547086D01*
X135988170Y-110547092D01*
X136087999Y-110761178D01*
X136223494Y-110954682D01*
X136390517Y-111121705D01*
X136584021Y-111257200D01*
X136798107Y-111357029D01*
X136798116Y-111357033D01*
X137011600Y-111414234D01*
X137011600Y-110519101D01*
X137119285Y-110568280D01*
X137225837Y-110583600D01*
X137297363Y-110583600D01*
X137403915Y-110568280D01*
X137511600Y-110519101D01*
X137511600Y-111414233D01*
X137725083Y-111357033D01*
X137725092Y-111357029D01*
X137939178Y-111257200D01*
X138132682Y-111121705D01*
X138299705Y-110954682D01*
X138435200Y-110761178D01*
X138535029Y-110547092D01*
X138535032Y-110547086D01*
X138592236Y-110333600D01*
X137695286Y-110333600D01*
X137721093Y-110293444D01*
X137761600Y-110155489D01*
X137761600Y-110011711D01*
X137721093Y-109873756D01*
X137695286Y-109833600D01*
X138592236Y-109833600D01*
X138592235Y-109833599D01*
X138535032Y-109620113D01*
X138535029Y-109620107D01*
X138435200Y-109406022D01*
X138435199Y-109406020D01*
X138299713Y-109212526D01*
X138299708Y-109212520D01*
X138132682Y-109045494D01*
X137939178Y-108909999D01*
X137875877Y-108880482D01*
X137823438Y-108834310D01*
X137804286Y-108767116D01*
X137824502Y-108700235D01*
X137877667Y-108654900D01*
X137928282Y-108644100D01*
X138136276Y-108644100D01*
X138136277Y-108644099D01*
X138209340Y-108629566D01*
X138292201Y-108574201D01*
X138347566Y-108491340D01*
X138362100Y-108418274D01*
X138362100Y-106990144D01*
X138381785Y-106923105D01*
X138398419Y-106902463D01*
X140520063Y-104780819D01*
X140581386Y-104747334D01*
X140607744Y-104744500D01*
X144493055Y-104744500D01*
X144560094Y-104764185D01*
X144605849Y-104816989D01*
X144615793Y-104886147D01*
X144586768Y-104949703D01*
X144580736Y-104956181D01*
X143287537Y-106249381D01*
X143226214Y-106282866D01*
X143199856Y-106285700D01*
X141771723Y-106285700D01*
X141698664Y-106300232D01*
X141698660Y-106300233D01*
X141615799Y-106355599D01*
X141560433Y-106438460D01*
X141560432Y-106438464D01*
X141545900Y-106511521D01*
X141545900Y-108260878D01*
X141560432Y-108333935D01*
X141560433Y-108333939D01*
X141573827Y-108353985D01*
X141615799Y-108416801D01*
X141691828Y-108467601D01*
X141698660Y-108472166D01*
X141698664Y-108472167D01*
X141771721Y-108486699D01*
X141771724Y-108486700D01*
X141979718Y-108486700D01*
X142046757Y-108506385D01*
X142092512Y-108559189D01*
X142102456Y-108628347D01*
X142073431Y-108691903D01*
X142032123Y-108723082D01*
X141968822Y-108752599D01*
X141968820Y-108752600D01*
X141775326Y-108888086D01*
X141775320Y-108888091D01*
X141608291Y-109055120D01*
X141608286Y-109055126D01*
X141472800Y-109248620D01*
X141472799Y-109248622D01*
X141372970Y-109462707D01*
X141372967Y-109462713D01*
X141315764Y-109676199D01*
X141315764Y-109676200D01*
X142212714Y-109676200D01*
X142186907Y-109716356D01*
X142146400Y-109854311D01*
X142146400Y-109998089D01*
X142186907Y-110136044D01*
X142212714Y-110176200D01*
X141315764Y-110176200D01*
X141372967Y-110389686D01*
X141372970Y-110389692D01*
X141472799Y-110603778D01*
X141608294Y-110797282D01*
X141775317Y-110964305D01*
X141968821Y-111099800D01*
X142182907Y-111199629D01*
X142182916Y-111199633D01*
X142396400Y-111256834D01*
X142396400Y-110361701D01*
X142504085Y-110410880D01*
X142610637Y-110426200D01*
X142682163Y-110426200D01*
X142788715Y-110410880D01*
X142896400Y-110361701D01*
X142896400Y-111256833D01*
X143109883Y-111199633D01*
X143109892Y-111199629D01*
X143323978Y-111099800D01*
X143517482Y-110964305D01*
X143684505Y-110797282D01*
X143820000Y-110603778D01*
X143919829Y-110389692D01*
X143919832Y-110389686D01*
X143977036Y-110176200D01*
X143080086Y-110176200D01*
X143105893Y-110136044D01*
X143146400Y-109998089D01*
X143146400Y-109854311D01*
X143105893Y-109716356D01*
X143080086Y-109676200D01*
X143977036Y-109676200D01*
X143977035Y-109676199D01*
X143919832Y-109462713D01*
X143919829Y-109462707D01*
X143820000Y-109248622D01*
X143819999Y-109248620D01*
X143684513Y-109055126D01*
X143684508Y-109055120D01*
X143517482Y-108888094D01*
X143323978Y-108752599D01*
X143260677Y-108723082D01*
X143208238Y-108676910D01*
X143189086Y-108609716D01*
X143209302Y-108542835D01*
X143262467Y-108497500D01*
X143313082Y-108486700D01*
X143521076Y-108486700D01*
X143521077Y-108486699D01*
X143594140Y-108472166D01*
X143677001Y-108416801D01*
X143732366Y-108333940D01*
X143746900Y-108260874D01*
X143746900Y-106832743D01*
X143766585Y-106765705D01*
X143783219Y-106745063D01*
X145087063Y-105441219D01*
X145148386Y-105407734D01*
X145174744Y-105404900D01*
X149070057Y-105404900D01*
X149137096Y-105424585D01*
X149182851Y-105477389D01*
X149192795Y-105546547D01*
X149163770Y-105610103D01*
X149157741Y-105616577D01*
X148825026Y-105949292D01*
X148519937Y-106254381D01*
X148458614Y-106287866D01*
X148432256Y-106290700D01*
X147004123Y-106290700D01*
X146931064Y-106305232D01*
X146931060Y-106305233D01*
X146848199Y-106360599D01*
X146792833Y-106443460D01*
X146792832Y-106443464D01*
X146778300Y-106516521D01*
X146778300Y-108265878D01*
X146792832Y-108338935D01*
X146792833Y-108338939D01*
X146806227Y-108358985D01*
X146848199Y-108421801D01*
X146901352Y-108457316D01*
X146931060Y-108477166D01*
X146931064Y-108477167D01*
X147004121Y-108491699D01*
X147004124Y-108491700D01*
X147212118Y-108491700D01*
X147279157Y-108511385D01*
X147324912Y-108564189D01*
X147334856Y-108633347D01*
X147305831Y-108696903D01*
X147264523Y-108728082D01*
X147201222Y-108757599D01*
X147201220Y-108757600D01*
X147007726Y-108893086D01*
X147007720Y-108893091D01*
X146840691Y-109060120D01*
X146840686Y-109060126D01*
X146705200Y-109253620D01*
X146705199Y-109253622D01*
X146605370Y-109467707D01*
X146605367Y-109467713D01*
X146548164Y-109681199D01*
X146548164Y-109681200D01*
X147445114Y-109681200D01*
X147419307Y-109721356D01*
X147378800Y-109859311D01*
X147378800Y-110003089D01*
X147419307Y-110141044D01*
X147445114Y-110181200D01*
X146548164Y-110181200D01*
X146605367Y-110394686D01*
X146605370Y-110394692D01*
X146705199Y-110608778D01*
X146840694Y-110802282D01*
X147007717Y-110969305D01*
X147201221Y-111104800D01*
X147415307Y-111204629D01*
X147415316Y-111204633D01*
X147628800Y-111261834D01*
X147628800Y-110366701D01*
X147736485Y-110415880D01*
X147843037Y-110431200D01*
X147914563Y-110431200D01*
X148021115Y-110415880D01*
X148128800Y-110366701D01*
X148128800Y-111261833D01*
X148342283Y-111204633D01*
X148342292Y-111204629D01*
X148556378Y-111104800D01*
X148749882Y-110969305D01*
X148916905Y-110802282D01*
X149052400Y-110608778D01*
X149152229Y-110394692D01*
X149152232Y-110394686D01*
X149209436Y-110181200D01*
X148312486Y-110181200D01*
X148338293Y-110141044D01*
X148378800Y-110003089D01*
X148378800Y-109859311D01*
X148338293Y-109721356D01*
X148312486Y-109681200D01*
X149209436Y-109681200D01*
X149209435Y-109681199D01*
X149152232Y-109467713D01*
X149152229Y-109467707D01*
X149052400Y-109253622D01*
X149052399Y-109253620D01*
X148916913Y-109060126D01*
X148916908Y-109060120D01*
X148749882Y-108893094D01*
X148556378Y-108757599D01*
X148493077Y-108728082D01*
X148440638Y-108681910D01*
X148421486Y-108614716D01*
X148441702Y-108547835D01*
X148494867Y-108502500D01*
X148545482Y-108491700D01*
X148753476Y-108491700D01*
X148753477Y-108491699D01*
X148826540Y-108477166D01*
X148909401Y-108421801D01*
X148964766Y-108338940D01*
X148979300Y-108265874D01*
X148979300Y-106837744D01*
X148998985Y-106770705D01*
X149015619Y-106750063D01*
X149765663Y-106000019D01*
X149826986Y-105966534D01*
X149853344Y-105963700D01*
X152182662Y-105963700D01*
X152249701Y-105983385D01*
X152295456Y-106036189D01*
X152305400Y-106105347D01*
X152276375Y-106168903D01*
X152251553Y-106190802D01*
X152232999Y-106203198D01*
X152177633Y-106286060D01*
X152177632Y-106286064D01*
X152163100Y-106359121D01*
X152163100Y-108108478D01*
X152177632Y-108181535D01*
X152177633Y-108181539D01*
X152177634Y-108181540D01*
X152232999Y-108264401D01*
X152303749Y-108311674D01*
X152315860Y-108319766D01*
X152315864Y-108319767D01*
X152388921Y-108334299D01*
X152388924Y-108334300D01*
X152596918Y-108334300D01*
X152663957Y-108353985D01*
X152709712Y-108406789D01*
X152719656Y-108475947D01*
X152690631Y-108539503D01*
X152649323Y-108570682D01*
X152586022Y-108600199D01*
X152586020Y-108600200D01*
X152392526Y-108735686D01*
X152392520Y-108735691D01*
X152225491Y-108902720D01*
X152225486Y-108902726D01*
X152090000Y-109096220D01*
X152089999Y-109096222D01*
X151990170Y-109310307D01*
X151990167Y-109310313D01*
X151932964Y-109523799D01*
X151932964Y-109523800D01*
X152829914Y-109523800D01*
X152804107Y-109563956D01*
X152763600Y-109701911D01*
X152763600Y-109845689D01*
X152804107Y-109983644D01*
X152829914Y-110023800D01*
X151932964Y-110023800D01*
X151990167Y-110237286D01*
X151990170Y-110237292D01*
X152089999Y-110451378D01*
X152225494Y-110644882D01*
X152392517Y-110811905D01*
X152586021Y-110947400D01*
X152800107Y-111047229D01*
X152800116Y-111047233D01*
X153013600Y-111104434D01*
X153013600Y-110209301D01*
X153121285Y-110258480D01*
X153227837Y-110273800D01*
X153299363Y-110273800D01*
X153405915Y-110258480D01*
X153513600Y-110209301D01*
X153513600Y-111104433D01*
X153727083Y-111047233D01*
X153727092Y-111047229D01*
X153941178Y-110947400D01*
X154134682Y-110811905D01*
X154301705Y-110644882D01*
X154437200Y-110451378D01*
X154537029Y-110237292D01*
X154537032Y-110237286D01*
X154594236Y-110023800D01*
X153697286Y-110023800D01*
X153723093Y-109983644D01*
X153763600Y-109845689D01*
X153763600Y-109701911D01*
X153723093Y-109563956D01*
X153697286Y-109523800D01*
X154594236Y-109523800D01*
X154594235Y-109523799D01*
X154537032Y-109310313D01*
X154537029Y-109310307D01*
X154437200Y-109096222D01*
X154437199Y-109096220D01*
X154301713Y-108902726D01*
X154301708Y-108902720D01*
X154134682Y-108735694D01*
X153941178Y-108600199D01*
X153877877Y-108570682D01*
X153825438Y-108524510D01*
X153806286Y-108457316D01*
X153826502Y-108390435D01*
X153879667Y-108345100D01*
X153930282Y-108334300D01*
X154138276Y-108334300D01*
X154138277Y-108334299D01*
X154211340Y-108319766D01*
X154294201Y-108264401D01*
X154349566Y-108181540D01*
X154364100Y-108108474D01*
X154364100Y-106680343D01*
X154383785Y-106613304D01*
X154400414Y-106592667D01*
X164043046Y-96950034D01*
X164062902Y-96933911D01*
X164070669Y-96928837D01*
X164088496Y-96905931D01*
X164097551Y-96895679D01*
X164098365Y-96894716D01*
X164098375Y-96894707D01*
X164109576Y-96879016D01*
X164112596Y-96874967D01*
X164121253Y-96863844D01*
X164177966Y-96823036D01*
X164247740Y-96819368D01*
X164308420Y-96854004D01*
X164340742Y-96915948D01*
X164343100Y-96940015D01*
X164343100Y-100890456D01*
X164323415Y-100957495D01*
X164306781Y-100978137D01*
X159035537Y-106249381D01*
X158974214Y-106282866D01*
X158947856Y-106285700D01*
X157519723Y-106285700D01*
X157446664Y-106300232D01*
X157446660Y-106300233D01*
X157363799Y-106355599D01*
X157308433Y-106438460D01*
X157308432Y-106438464D01*
X157293900Y-106511521D01*
X157293900Y-108260878D01*
X157308432Y-108333935D01*
X157308433Y-108333939D01*
X157321827Y-108353985D01*
X157363799Y-108416801D01*
X157439828Y-108467601D01*
X157446660Y-108472166D01*
X157446664Y-108472167D01*
X157519721Y-108486699D01*
X157519724Y-108486700D01*
X157727718Y-108486700D01*
X157794757Y-108506385D01*
X157840512Y-108559189D01*
X157850456Y-108628347D01*
X157821431Y-108691903D01*
X157780123Y-108723082D01*
X157716822Y-108752599D01*
X157716820Y-108752600D01*
X157523326Y-108888086D01*
X157523320Y-108888091D01*
X157356291Y-109055120D01*
X157356286Y-109055126D01*
X157220800Y-109248620D01*
X157220799Y-109248622D01*
X157120970Y-109462707D01*
X157120967Y-109462713D01*
X157063764Y-109676199D01*
X157063764Y-109676200D01*
X157960714Y-109676200D01*
X157934907Y-109716356D01*
X157894400Y-109854311D01*
X157894400Y-109998089D01*
X157934907Y-110136044D01*
X157960714Y-110176200D01*
X157063764Y-110176200D01*
X157120967Y-110389686D01*
X157120970Y-110389692D01*
X157220799Y-110603778D01*
X157356294Y-110797282D01*
X157523317Y-110964305D01*
X157716821Y-111099800D01*
X157930907Y-111199629D01*
X157930916Y-111199633D01*
X158144400Y-111256834D01*
X158144400Y-110361701D01*
X158252085Y-110410880D01*
X158358637Y-110426200D01*
X158430163Y-110426200D01*
X158536715Y-110410880D01*
X158644400Y-110361701D01*
X158644400Y-111256833D01*
X158857883Y-111199633D01*
X158857892Y-111199629D01*
X159071978Y-111099800D01*
X159265482Y-110964305D01*
X159432505Y-110797282D01*
X159568000Y-110603778D01*
X159667829Y-110389692D01*
X159667832Y-110389686D01*
X159725036Y-110176200D01*
X158828086Y-110176200D01*
X158853893Y-110136044D01*
X158894400Y-109998089D01*
X158894400Y-109854311D01*
X158853893Y-109716356D01*
X158828086Y-109676200D01*
X159725036Y-109676200D01*
X159725035Y-109676199D01*
X159667832Y-109462713D01*
X159667829Y-109462707D01*
X159568000Y-109248622D01*
X159567999Y-109248620D01*
X159432513Y-109055126D01*
X159432508Y-109055120D01*
X159265482Y-108888094D01*
X159071978Y-108752599D01*
X159008677Y-108723082D01*
X158956238Y-108676910D01*
X158937086Y-108609716D01*
X158957302Y-108542835D01*
X159010467Y-108497500D01*
X159061082Y-108486700D01*
X159269076Y-108486700D01*
X159269077Y-108486699D01*
X159342140Y-108472166D01*
X159425001Y-108416801D01*
X159480366Y-108333940D01*
X159494900Y-108260874D01*
X159494900Y-106832743D01*
X159514585Y-106765704D01*
X159531214Y-106745067D01*
X164906646Y-101369634D01*
X164926502Y-101353511D01*
X164934269Y-101348437D01*
X164952096Y-101325531D01*
X164961140Y-101315291D01*
X164961960Y-101314321D01*
X164961975Y-101314307D01*
X164973184Y-101298605D01*
X164976204Y-101294556D01*
X165006117Y-101256126D01*
X165006118Y-101256120D01*
X165009613Y-101249663D01*
X165012836Y-101243070D01*
X165012840Y-101243066D01*
X165026738Y-101196382D01*
X165028274Y-101191583D01*
X165044100Y-101145488D01*
X165044100Y-101145481D01*
X165045306Y-101138252D01*
X165046217Y-101130952D01*
X165044206Y-101082332D01*
X165044100Y-101077207D01*
X165044100Y-75466892D01*
X165063785Y-75399853D01*
X165081714Y-75380409D01*
X165080474Y-75379169D01*
X165091968Y-75367675D01*
X165092742Y-75368449D01*
X165092843Y-75368341D01*
X165092898Y-75368299D01*
X165093103Y-75368567D01*
X165142346Y-75332607D01*
X165212091Y-75328448D01*
X165273014Y-75362657D01*
X165305770Y-75424373D01*
X165308300Y-75449294D01*
X165308300Y-104197456D01*
X165288615Y-104264495D01*
X165271981Y-104285137D01*
X163455137Y-106101981D01*
X163393814Y-106135466D01*
X163367456Y-106138300D01*
X162040923Y-106138300D01*
X161967864Y-106152832D01*
X161967860Y-106152833D01*
X161884999Y-106208199D01*
X161829633Y-106291060D01*
X161829632Y-106291064D01*
X161815100Y-106364121D01*
X161815100Y-108113478D01*
X161829632Y-108186535D01*
X161829633Y-108186539D01*
X161829634Y-108186540D01*
X161884999Y-108269401D01*
X161948266Y-108311674D01*
X161967860Y-108324766D01*
X161967864Y-108324767D01*
X162040921Y-108339299D01*
X162040924Y-108339300D01*
X162248918Y-108339300D01*
X162315957Y-108358985D01*
X162361712Y-108411789D01*
X162371656Y-108480947D01*
X162342631Y-108544503D01*
X162301323Y-108575682D01*
X162238022Y-108605199D01*
X162238020Y-108605200D01*
X162044526Y-108740686D01*
X162044520Y-108740691D01*
X161877491Y-108907720D01*
X161877486Y-108907726D01*
X161742000Y-109101220D01*
X161741999Y-109101222D01*
X161642170Y-109315307D01*
X161642167Y-109315313D01*
X161584964Y-109528799D01*
X161584964Y-109528800D01*
X162481914Y-109528800D01*
X162456107Y-109568956D01*
X162415600Y-109706911D01*
X162415600Y-109850689D01*
X162456107Y-109988644D01*
X162481914Y-110028800D01*
X161584964Y-110028800D01*
X161642167Y-110242286D01*
X161642170Y-110242292D01*
X161741999Y-110456378D01*
X161877494Y-110649882D01*
X162044517Y-110816905D01*
X162238021Y-110952400D01*
X162452107Y-111052229D01*
X162452116Y-111052233D01*
X162665600Y-111109434D01*
X162665600Y-110214301D01*
X162773285Y-110263480D01*
X162879837Y-110278800D01*
X162951363Y-110278800D01*
X163057915Y-110263480D01*
X163165600Y-110214301D01*
X163165600Y-111109433D01*
X163379083Y-111052233D01*
X163379092Y-111052229D01*
X163593178Y-110952400D01*
X163786682Y-110816905D01*
X163953705Y-110649882D01*
X164089200Y-110456378D01*
X164189029Y-110242292D01*
X164189032Y-110242286D01*
X164246236Y-110028800D01*
X163349286Y-110028800D01*
X163375093Y-109988644D01*
X163415600Y-109850689D01*
X163415600Y-109706911D01*
X163375093Y-109568956D01*
X163349286Y-109528800D01*
X164246236Y-109528800D01*
X164246235Y-109528799D01*
X164189032Y-109315313D01*
X164189029Y-109315307D01*
X164089200Y-109101222D01*
X164089199Y-109101220D01*
X163953713Y-108907726D01*
X163953708Y-108907720D01*
X163786682Y-108740694D01*
X163593178Y-108605199D01*
X163529877Y-108575682D01*
X163477438Y-108529510D01*
X163458286Y-108462316D01*
X163478502Y-108395435D01*
X163531667Y-108350100D01*
X163582282Y-108339300D01*
X163790276Y-108339300D01*
X163790277Y-108339299D01*
X163863340Y-108324766D01*
X163946201Y-108269401D01*
X164001566Y-108186540D01*
X164016100Y-108113474D01*
X164016100Y-106583743D01*
X164035785Y-106516704D01*
X164052414Y-106496067D01*
X164700281Y-105848200D01*
X169458964Y-105848200D01*
X169516167Y-106061686D01*
X169516170Y-106061692D01*
X169615999Y-106275778D01*
X169751494Y-106469282D01*
X169918517Y-106636305D01*
X170112021Y-106771800D01*
X170175323Y-106801318D01*
X170227762Y-106847490D01*
X170246914Y-106914684D01*
X170226698Y-106981565D01*
X170173533Y-107026900D01*
X170122918Y-107037700D01*
X169914923Y-107037700D01*
X169841864Y-107052232D01*
X169841860Y-107052233D01*
X169758999Y-107107599D01*
X169703633Y-107190460D01*
X169703632Y-107190464D01*
X169689100Y-107263521D01*
X169689100Y-109012878D01*
X169703632Y-109085935D01*
X169703633Y-109085939D01*
X169713845Y-109101222D01*
X169758999Y-109168801D01*
X169841860Y-109224166D01*
X169841864Y-109224167D01*
X169914921Y-109238699D01*
X169914924Y-109238700D01*
X169914926Y-109238700D01*
X171664276Y-109238700D01*
X171664277Y-109238699D01*
X171737340Y-109224166D01*
X171820201Y-109168801D01*
X171875566Y-109085940D01*
X171890100Y-109012874D01*
X171890100Y-107263526D01*
X171890100Y-107263523D01*
X171890099Y-107263521D01*
X171875567Y-107190464D01*
X171875566Y-107190460D01*
X171820201Y-107107599D01*
X171737340Y-107052234D01*
X171737339Y-107052233D01*
X171737335Y-107052232D01*
X171664277Y-107037700D01*
X171664274Y-107037700D01*
X171456282Y-107037700D01*
X171389243Y-107018015D01*
X171343488Y-106965211D01*
X171333544Y-106896053D01*
X171362569Y-106832497D01*
X171403877Y-106801318D01*
X171467178Y-106771800D01*
X171660682Y-106636305D01*
X171827705Y-106469282D01*
X171963200Y-106275778D01*
X172063029Y-106061692D01*
X172063032Y-106061686D01*
X172120236Y-105848200D01*
X171223286Y-105848200D01*
X171249093Y-105808044D01*
X171289600Y-105670089D01*
X171289600Y-105526311D01*
X171249093Y-105388356D01*
X171223286Y-105348200D01*
X172120236Y-105348200D01*
X172120235Y-105348199D01*
X172063032Y-105134713D01*
X172063029Y-105134707D01*
X171963200Y-104920622D01*
X171963199Y-104920620D01*
X171827713Y-104727126D01*
X171827708Y-104727120D01*
X171660682Y-104560094D01*
X171467178Y-104424599D01*
X171253092Y-104324770D01*
X171253077Y-104324764D01*
X171214014Y-104314297D01*
X171154354Y-104277932D01*
X171123826Y-104215085D01*
X171132121Y-104145709D01*
X171176607Y-104091832D01*
X171201310Y-104078898D01*
X171282237Y-104047548D01*
X171455641Y-103940181D01*
X171606364Y-103802779D01*
X171729273Y-103640021D01*
X171820182Y-103457450D01*
X171875997Y-103261283D01*
X171894815Y-103058200D01*
X171875997Y-102855117D01*
X171820182Y-102658950D01*
X171729273Y-102476379D01*
X171670304Y-102398291D01*
X171606362Y-102313618D01*
X171455641Y-102176219D01*
X171455639Y-102176217D01*
X171282242Y-102068855D01*
X171282235Y-102068851D01*
X171165182Y-102023505D01*
X171092056Y-101995176D01*
X170891576Y-101957700D01*
X170687624Y-101957700D01*
X170487144Y-101995176D01*
X170487141Y-101995176D01*
X170487141Y-101995177D01*
X170296964Y-102068851D01*
X170296957Y-102068855D01*
X170123560Y-102176217D01*
X170123558Y-102176219D01*
X169972837Y-102313618D01*
X169849927Y-102476378D01*
X169759022Y-102658939D01*
X169759017Y-102658952D01*
X169703202Y-102855117D01*
X169684385Y-103058199D01*
X169684385Y-103058200D01*
X169703202Y-103261282D01*
X169759017Y-103457447D01*
X169759022Y-103457460D01*
X169849927Y-103640021D01*
X169972837Y-103802781D01*
X170123558Y-103940180D01*
X170123560Y-103940182D01*
X170216024Y-103997433D01*
X170296963Y-104047548D01*
X170377883Y-104078896D01*
X170433285Y-104121469D01*
X170456876Y-104187235D01*
X170441165Y-104255316D01*
X170391142Y-104304095D01*
X170365186Y-104314297D01*
X170326119Y-104324765D01*
X170326107Y-104324770D01*
X170112022Y-104424599D01*
X170112020Y-104424600D01*
X169918526Y-104560086D01*
X169918520Y-104560091D01*
X169751491Y-104727120D01*
X169751486Y-104727126D01*
X169616000Y-104920620D01*
X169615999Y-104920622D01*
X169516170Y-105134707D01*
X169516167Y-105134713D01*
X169458964Y-105348199D01*
X169458964Y-105348200D01*
X170355914Y-105348200D01*
X170330107Y-105388356D01*
X170289600Y-105526311D01*
X170289600Y-105670089D01*
X170330107Y-105808044D01*
X170355914Y-105848200D01*
X169458964Y-105848200D01*
X164700281Y-105848200D01*
X165871846Y-104676634D01*
X165891702Y-104660511D01*
X165899469Y-104655437D01*
X165917296Y-104632531D01*
X165926345Y-104622285D01*
X165927162Y-104621319D01*
X165927176Y-104621306D01*
X165938370Y-104605626D01*
X165941415Y-104601543D01*
X165971314Y-104563130D01*
X165971314Y-104563129D01*
X165971317Y-104563126D01*
X165971318Y-104563121D01*
X165974817Y-104556655D01*
X165978036Y-104550070D01*
X165978040Y-104550066D01*
X165991938Y-104503382D01*
X165993474Y-104498583D01*
X166009300Y-104452488D01*
X166009300Y-104452481D01*
X166010506Y-104445254D01*
X166011417Y-104437951D01*
X166009406Y-104389321D01*
X166009300Y-104384197D01*
X166009300Y-93722000D01*
X169408164Y-93722000D01*
X169465367Y-93935486D01*
X169465370Y-93935492D01*
X169565199Y-94149578D01*
X169700694Y-94343082D01*
X169867717Y-94510105D01*
X170061221Y-94645600D01*
X170124523Y-94675118D01*
X170176962Y-94721290D01*
X170196114Y-94788484D01*
X170175898Y-94855365D01*
X170122733Y-94900700D01*
X170072118Y-94911500D01*
X169864123Y-94911500D01*
X169791064Y-94926032D01*
X169791060Y-94926033D01*
X169708199Y-94981399D01*
X169652833Y-95064260D01*
X169652832Y-95064264D01*
X169638300Y-95137321D01*
X169638300Y-96886678D01*
X169652832Y-96959735D01*
X169652833Y-96959739D01*
X169652834Y-96959740D01*
X169708199Y-97042601D01*
X169791060Y-97097966D01*
X169791064Y-97097967D01*
X169864121Y-97112499D01*
X169864124Y-97112500D01*
X169864126Y-97112500D01*
X171613476Y-97112500D01*
X171613477Y-97112499D01*
X171686540Y-97097966D01*
X171769401Y-97042601D01*
X171824766Y-96959740D01*
X171839300Y-96886674D01*
X171839300Y-95137326D01*
X171839300Y-95137323D01*
X171839299Y-95137321D01*
X171824767Y-95064264D01*
X171824766Y-95064260D01*
X171808247Y-95039537D01*
X171769401Y-94981399D01*
X171714035Y-94944405D01*
X171686539Y-94926033D01*
X171686535Y-94926032D01*
X171613477Y-94911500D01*
X171613474Y-94911500D01*
X171405482Y-94911500D01*
X171338443Y-94891815D01*
X171292688Y-94839011D01*
X171282744Y-94769853D01*
X171311769Y-94706297D01*
X171353077Y-94675118D01*
X171416378Y-94645600D01*
X171609882Y-94510105D01*
X171776905Y-94343082D01*
X171912400Y-94149578D01*
X172012229Y-93935492D01*
X172012232Y-93935486D01*
X172069436Y-93722000D01*
X171172486Y-93722000D01*
X171198293Y-93681844D01*
X171238800Y-93543889D01*
X171238800Y-93400111D01*
X171198293Y-93262156D01*
X171172486Y-93222000D01*
X172069436Y-93222000D01*
X172069435Y-93221999D01*
X172012232Y-93008513D01*
X172012229Y-93008507D01*
X171912400Y-92794422D01*
X171912399Y-92794420D01*
X171776913Y-92600926D01*
X171776908Y-92600920D01*
X171609882Y-92433894D01*
X171416378Y-92298399D01*
X171202292Y-92198570D01*
X171202277Y-92198564D01*
X171163214Y-92188097D01*
X171103554Y-92151732D01*
X171073026Y-92088885D01*
X171081321Y-92019509D01*
X171125807Y-91965632D01*
X171150510Y-91952698D01*
X171231437Y-91921348D01*
X171404841Y-91813981D01*
X171555564Y-91676579D01*
X171678473Y-91513821D01*
X171769382Y-91331250D01*
X171825197Y-91135083D01*
X171844015Y-90932000D01*
X171825197Y-90728917D01*
X171769382Y-90532750D01*
X171678473Y-90350179D01*
X171595529Y-90240343D01*
X171555562Y-90187418D01*
X171404841Y-90050019D01*
X171404839Y-90050017D01*
X171231442Y-89942655D01*
X171231435Y-89942651D01*
X171136346Y-89905814D01*
X171041256Y-89868976D01*
X170840776Y-89831500D01*
X170636824Y-89831500D01*
X170436344Y-89868976D01*
X170436341Y-89868976D01*
X170436341Y-89868977D01*
X170246164Y-89942651D01*
X170246157Y-89942655D01*
X170072760Y-90050017D01*
X170072758Y-90050019D01*
X169922037Y-90187418D01*
X169799127Y-90350178D01*
X169708222Y-90532739D01*
X169708217Y-90532752D01*
X169652402Y-90728917D01*
X169633585Y-90931999D01*
X169633585Y-90932000D01*
X169652402Y-91135082D01*
X169708217Y-91331247D01*
X169708222Y-91331260D01*
X169799127Y-91513821D01*
X169922037Y-91676581D01*
X170072758Y-91813980D01*
X170072760Y-91813982D01*
X170171941Y-91875392D01*
X170246163Y-91921348D01*
X170327083Y-91952696D01*
X170382485Y-91995269D01*
X170406076Y-92061035D01*
X170390365Y-92129116D01*
X170340342Y-92177895D01*
X170314386Y-92188097D01*
X170275319Y-92198565D01*
X170275307Y-92198570D01*
X170061222Y-92298399D01*
X170061220Y-92298400D01*
X169867726Y-92433886D01*
X169867720Y-92433891D01*
X169700691Y-92600920D01*
X169700686Y-92600926D01*
X169565200Y-92794420D01*
X169565199Y-92794422D01*
X169465370Y-93008507D01*
X169465367Y-93008513D01*
X169408164Y-93221999D01*
X169408164Y-93222000D01*
X170305114Y-93222000D01*
X170279307Y-93262156D01*
X170238800Y-93400111D01*
X170238800Y-93543889D01*
X170279307Y-93681844D01*
X170305114Y-93722000D01*
X169408164Y-93722000D01*
X166009300Y-93722000D01*
X166009300Y-82495200D01*
X169408164Y-82495200D01*
X169465367Y-82708686D01*
X169465370Y-82708692D01*
X169565198Y-82922775D01*
X169700694Y-83116282D01*
X169867717Y-83283305D01*
X170061221Y-83418800D01*
X170124523Y-83448318D01*
X170176962Y-83494490D01*
X170196114Y-83561684D01*
X170175898Y-83628565D01*
X170122733Y-83673900D01*
X170072118Y-83684700D01*
X169864123Y-83684700D01*
X169791064Y-83699232D01*
X169791060Y-83699233D01*
X169708199Y-83754599D01*
X169652833Y-83837460D01*
X169652832Y-83837464D01*
X169638300Y-83910521D01*
X169638300Y-85659878D01*
X169652832Y-85732935D01*
X169652833Y-85732939D01*
X169652834Y-85732940D01*
X169708199Y-85815801D01*
X169791060Y-85871166D01*
X169791064Y-85871167D01*
X169864121Y-85885699D01*
X169864124Y-85885700D01*
X169864126Y-85885700D01*
X171613476Y-85885700D01*
X171613477Y-85885699D01*
X171686540Y-85871166D01*
X171769401Y-85815801D01*
X171824766Y-85732940D01*
X171839300Y-85659874D01*
X171839300Y-83910526D01*
X171839300Y-83910523D01*
X171839299Y-83910521D01*
X171824767Y-83837464D01*
X171824766Y-83837460D01*
X171813178Y-83820117D01*
X171769401Y-83754599D01*
X171686540Y-83699234D01*
X171686539Y-83699233D01*
X171686535Y-83699232D01*
X171613477Y-83684700D01*
X171613474Y-83684700D01*
X171405482Y-83684700D01*
X171338443Y-83665015D01*
X171292688Y-83612211D01*
X171282744Y-83543053D01*
X171311769Y-83479497D01*
X171353077Y-83448318D01*
X171416378Y-83418800D01*
X171609882Y-83283305D01*
X171776905Y-83116282D01*
X171912402Y-82922775D01*
X172012229Y-82708692D01*
X172012232Y-82708686D01*
X172069436Y-82495200D01*
X171172486Y-82495200D01*
X171198293Y-82455044D01*
X171238800Y-82317089D01*
X171238800Y-82173311D01*
X171198293Y-82035356D01*
X171172486Y-81995200D01*
X172069436Y-81995200D01*
X172069435Y-81995199D01*
X172012232Y-81781713D01*
X172012229Y-81781707D01*
X171912400Y-81567622D01*
X171912399Y-81567620D01*
X171776913Y-81374126D01*
X171776908Y-81374120D01*
X171609882Y-81207094D01*
X171416378Y-81071599D01*
X171202292Y-80971770D01*
X171202277Y-80971764D01*
X171163214Y-80961297D01*
X171103554Y-80924932D01*
X171073026Y-80862085D01*
X171081321Y-80792709D01*
X171125807Y-80738832D01*
X171150510Y-80725898D01*
X171231437Y-80694548D01*
X171404841Y-80587181D01*
X171555564Y-80449779D01*
X171678473Y-80287021D01*
X171769382Y-80104450D01*
X171825197Y-79908283D01*
X171844015Y-79705200D01*
X171825197Y-79502117D01*
X171769382Y-79305950D01*
X171678473Y-79123379D01*
X171555564Y-78960621D01*
X171555562Y-78960618D01*
X171404841Y-78823219D01*
X171404839Y-78823217D01*
X171231442Y-78715855D01*
X171231435Y-78715851D01*
X171101558Y-78665537D01*
X171041256Y-78642176D01*
X170840776Y-78604700D01*
X170636824Y-78604700D01*
X170436344Y-78642176D01*
X170436341Y-78642176D01*
X170436341Y-78642177D01*
X170246164Y-78715851D01*
X170246157Y-78715855D01*
X170072760Y-78823217D01*
X170072758Y-78823219D01*
X169922037Y-78960618D01*
X169799127Y-79123378D01*
X169708222Y-79305939D01*
X169708217Y-79305952D01*
X169652402Y-79502117D01*
X169633585Y-79705199D01*
X169633585Y-79705200D01*
X169652402Y-79908282D01*
X169708217Y-80104447D01*
X169708222Y-80104460D01*
X169799127Y-80287021D01*
X169922037Y-80449781D01*
X170072758Y-80587180D01*
X170072760Y-80587182D01*
X170095431Y-80601219D01*
X170246163Y-80694548D01*
X170327083Y-80725896D01*
X170382485Y-80768469D01*
X170406076Y-80834235D01*
X170390365Y-80902316D01*
X170340342Y-80951095D01*
X170314386Y-80961297D01*
X170275319Y-80971765D01*
X170275307Y-80971770D01*
X170061222Y-81071599D01*
X170061220Y-81071600D01*
X169867726Y-81207086D01*
X169867720Y-81207091D01*
X169700691Y-81374120D01*
X169700686Y-81374126D01*
X169565200Y-81567620D01*
X169565199Y-81567622D01*
X169465370Y-81781707D01*
X169465367Y-81781713D01*
X169408164Y-81995199D01*
X169408164Y-81995200D01*
X170305114Y-81995200D01*
X170279307Y-82035356D01*
X170238800Y-82173311D01*
X170238800Y-82317089D01*
X170279307Y-82455044D01*
X170305114Y-82495200D01*
X169408164Y-82495200D01*
X166009300Y-82495200D01*
X166009300Y-72439206D01*
X166011939Y-72413760D01*
X166013842Y-72404685D01*
X166010251Y-72375883D01*
X166009403Y-72362208D01*
X166009300Y-72360970D01*
X166009300Y-72360960D01*
X166006128Y-72341959D01*
X166005394Y-72336915D01*
X165999373Y-72288607D01*
X165999372Y-72288604D01*
X165997277Y-72281566D01*
X165994892Y-72274618D01*
X165971728Y-72231817D01*
X165969379Y-72227254D01*
X165947999Y-72183518D01*
X165943726Y-72177534D01*
X165939220Y-72171745D01*
X165939219Y-72171744D01*
X165939218Y-72171742D01*
X165903387Y-72138757D01*
X165899714Y-72135232D01*
X164575682Y-70811200D01*
X169408164Y-70811200D01*
X169465367Y-71024686D01*
X169465370Y-71024692D01*
X169565199Y-71238778D01*
X169700694Y-71432282D01*
X169867717Y-71599305D01*
X170061221Y-71734800D01*
X170124523Y-71764318D01*
X170176962Y-71810490D01*
X170196114Y-71877684D01*
X170175898Y-71944565D01*
X170122733Y-71989900D01*
X170072118Y-72000700D01*
X169864123Y-72000700D01*
X169791064Y-72015232D01*
X169791060Y-72015233D01*
X169708199Y-72070599D01*
X169652833Y-72153460D01*
X169652832Y-72153464D01*
X169638300Y-72226521D01*
X169638300Y-73975878D01*
X169652832Y-74048935D01*
X169652833Y-74048939D01*
X169652834Y-74048940D01*
X169708199Y-74131801D01*
X169791060Y-74187166D01*
X169791064Y-74187167D01*
X169864121Y-74201699D01*
X169864124Y-74201700D01*
X169864126Y-74201700D01*
X171613476Y-74201700D01*
X171613477Y-74201699D01*
X171686540Y-74187166D01*
X171769401Y-74131801D01*
X171824766Y-74048940D01*
X171839300Y-73975874D01*
X171839300Y-72226526D01*
X171839300Y-72226523D01*
X171839299Y-72226521D01*
X171824767Y-72153464D01*
X171824766Y-72153460D01*
X171813796Y-72137042D01*
X171769401Y-72070599D01*
X171686540Y-72015234D01*
X171686539Y-72015233D01*
X171686535Y-72015232D01*
X171613477Y-72000700D01*
X171613474Y-72000700D01*
X171405482Y-72000700D01*
X171338443Y-71981015D01*
X171292688Y-71928211D01*
X171282744Y-71859053D01*
X171311769Y-71795497D01*
X171353077Y-71764318D01*
X171416378Y-71734800D01*
X171609882Y-71599305D01*
X171776905Y-71432282D01*
X171912400Y-71238778D01*
X172012229Y-71024692D01*
X172012232Y-71024686D01*
X172069436Y-70811200D01*
X171172486Y-70811200D01*
X171198293Y-70771044D01*
X171238800Y-70633089D01*
X171238800Y-70489311D01*
X171198293Y-70351356D01*
X171172486Y-70311200D01*
X172069436Y-70311200D01*
X172069435Y-70311199D01*
X172012232Y-70097713D01*
X172012229Y-70097707D01*
X171912400Y-69883622D01*
X171912399Y-69883620D01*
X171776913Y-69690126D01*
X171776908Y-69690120D01*
X171609882Y-69523094D01*
X171416378Y-69387599D01*
X171202292Y-69287770D01*
X171202277Y-69287764D01*
X171163214Y-69277297D01*
X171103554Y-69240932D01*
X171073026Y-69178085D01*
X171081321Y-69108709D01*
X171125807Y-69054832D01*
X171150510Y-69041898D01*
X171231437Y-69010548D01*
X171404841Y-68903181D01*
X171555564Y-68765779D01*
X171678473Y-68603021D01*
X171769382Y-68420450D01*
X171825197Y-68224283D01*
X171844015Y-68021200D01*
X171838502Y-67961709D01*
X171825197Y-67818117D01*
X171785529Y-67678700D01*
X171769382Y-67621950D01*
X171765665Y-67614486D01*
X171711388Y-67505482D01*
X171678473Y-67439379D01*
X171579458Y-67308262D01*
X171555562Y-67276618D01*
X171404841Y-67139219D01*
X171404839Y-67139217D01*
X171231442Y-67031855D01*
X171231435Y-67031851D01*
X171074640Y-66971109D01*
X171041256Y-66958176D01*
X170840776Y-66920700D01*
X170636824Y-66920700D01*
X170436344Y-66958176D01*
X170436341Y-66958176D01*
X170436341Y-66958177D01*
X170246164Y-67031851D01*
X170246157Y-67031855D01*
X170072760Y-67139217D01*
X170072758Y-67139219D01*
X169922037Y-67276618D01*
X169799127Y-67439378D01*
X169708222Y-67621939D01*
X169708217Y-67621952D01*
X169652402Y-67818117D01*
X169633585Y-68021199D01*
X169633585Y-68021200D01*
X169652402Y-68224282D01*
X169708217Y-68420447D01*
X169708222Y-68420460D01*
X169799127Y-68603021D01*
X169922037Y-68765781D01*
X170072758Y-68903180D01*
X170072760Y-68903182D01*
X170168945Y-68962737D01*
X170246163Y-69010548D01*
X170327083Y-69041896D01*
X170382485Y-69084469D01*
X170406076Y-69150235D01*
X170390365Y-69218316D01*
X170340342Y-69267095D01*
X170314386Y-69277297D01*
X170275319Y-69287765D01*
X170275307Y-69287770D01*
X170061222Y-69387599D01*
X170061220Y-69387600D01*
X169867726Y-69523086D01*
X169867720Y-69523091D01*
X169700691Y-69690120D01*
X169700686Y-69690126D01*
X169565200Y-69883620D01*
X169565199Y-69883622D01*
X169465370Y-70097707D01*
X169465367Y-70097713D01*
X169408164Y-70311199D01*
X169408164Y-70311200D01*
X170305114Y-70311200D01*
X170279307Y-70351356D01*
X170238800Y-70489311D01*
X170238800Y-70633089D01*
X170279307Y-70771044D01*
X170305114Y-70811200D01*
X169408164Y-70811200D01*
X164575682Y-70811200D01*
X161369437Y-67604955D01*
X161353311Y-67585098D01*
X161348237Y-67577331D01*
X161325324Y-67559497D01*
X161315048Y-67550422D01*
X161314109Y-67549627D01*
X161314107Y-67549625D01*
X161298451Y-67538447D01*
X161294344Y-67535385D01*
X161288638Y-67530943D01*
X161255926Y-67505483D01*
X161255924Y-67505482D01*
X161249440Y-67501973D01*
X161242867Y-67498759D01*
X161196209Y-67484868D01*
X161191332Y-67483306D01*
X161145284Y-67467498D01*
X161138087Y-67466297D01*
X161130751Y-67465382D01*
X161082132Y-67467394D01*
X161077007Y-67467500D01*
X157831490Y-67467500D01*
X157764451Y-67447815D01*
X157718696Y-67395011D01*
X157708752Y-67325853D01*
X157737777Y-67262297D01*
X157755996Y-67245130D01*
X157821821Y-67194621D01*
X157821825Y-67194615D01*
X157821827Y-67194614D01*
X157827572Y-67188871D01*
X157830088Y-67191387D01*
X157873383Y-67159797D01*
X157915292Y-67152500D01*
X161210308Y-67152500D01*
X161277347Y-67172185D01*
X161296812Y-67190086D01*
X161298028Y-67188871D01*
X161303772Y-67194615D01*
X161303777Y-67194619D01*
X161303779Y-67194621D01*
X161418775Y-67282861D01*
X161552691Y-67338330D01*
X161679680Y-67355048D01*
X161696399Y-67357250D01*
X161696400Y-67357250D01*
X161696401Y-67357250D01*
X161711377Y-67355278D01*
X161840109Y-67338330D01*
X161974025Y-67282861D01*
X162089021Y-67194621D01*
X162134382Y-67135504D01*
X162190805Y-67094306D01*
X162260551Y-67090151D01*
X162321472Y-67124363D01*
X162331129Y-67135508D01*
X162344168Y-67152500D01*
X162395979Y-67220021D01*
X162510975Y-67308261D01*
X162644891Y-67363730D01*
X162771880Y-67380448D01*
X162788599Y-67382650D01*
X162788600Y-67382650D01*
X162788601Y-67382650D01*
X162803577Y-67380678D01*
X162932309Y-67363730D01*
X163066225Y-67308261D01*
X163181221Y-67220021D01*
X163269461Y-67105025D01*
X163324930Y-66971109D01*
X163343850Y-66827400D01*
X163327508Y-66703274D01*
X163338273Y-66634242D01*
X163384653Y-66581986D01*
X163451922Y-66563100D01*
X163518722Y-66583580D01*
X163538128Y-66599410D01*
X163848040Y-66909322D01*
X163881525Y-66970645D01*
X163882667Y-66997073D01*
X163884350Y-66997073D01*
X163884350Y-67005200D01*
X163900038Y-67124363D01*
X163903270Y-67148908D01*
X163903271Y-67148912D01*
X163958737Y-67282822D01*
X163958738Y-67282824D01*
X163958739Y-67282825D01*
X164046979Y-67397821D01*
X164161975Y-67486061D01*
X164161976Y-67486061D01*
X164161977Y-67486062D01*
X164203046Y-67503073D01*
X164295891Y-67541530D01*
X164422880Y-67558248D01*
X164439599Y-67560450D01*
X164439600Y-67560450D01*
X164439601Y-67560450D01*
X164454577Y-67558478D01*
X164583309Y-67541530D01*
X164717225Y-67486061D01*
X164832221Y-67397821D01*
X164920461Y-67282825D01*
X164975930Y-67148909D01*
X164994850Y-67005200D01*
X164986210Y-66939577D01*
X164996975Y-66870544D01*
X165043354Y-66818288D01*
X165110623Y-66799402D01*
X165177424Y-66819882D01*
X165196830Y-66835712D01*
X165932364Y-67571246D01*
X165965849Y-67632569D01*
X165967622Y-67675110D01*
X165967150Y-67678695D01*
X165967150Y-67678699D01*
X165967150Y-67678700D01*
X165985489Y-67817999D01*
X165986070Y-67822408D01*
X165986071Y-67822412D01*
X166041537Y-67956322D01*
X166041538Y-67956324D01*
X166041539Y-67956325D01*
X166129779Y-68071321D01*
X166244775Y-68159561D01*
X166378691Y-68215030D01*
X166505680Y-68231748D01*
X166522399Y-68233950D01*
X166522400Y-68233950D01*
X166522401Y-68233950D01*
X166537377Y-68231978D01*
X166666109Y-68215030D01*
X166800025Y-68159561D01*
X166915021Y-68071321D01*
X167003261Y-67956325D01*
X167058730Y-67822409D01*
X167077650Y-67678700D01*
X167058730Y-67534991D01*
X167003261Y-67401075D01*
X166915021Y-67286079D01*
X166800025Y-67197839D01*
X166800024Y-67197838D01*
X166800022Y-67197837D01*
X166666112Y-67142371D01*
X166666110Y-67142370D01*
X166666109Y-67142370D01*
X166563462Y-67128856D01*
X166514342Y-67122389D01*
X166514689Y-67119749D01*
X166460254Y-67103765D01*
X166439612Y-67087131D01*
X165289542Y-65937061D01*
X164112637Y-64760155D01*
X164096511Y-64740298D01*
X164091437Y-64732531D01*
X164068524Y-64714697D01*
X164058248Y-64705622D01*
X164057309Y-64704827D01*
X164057307Y-64704825D01*
X164041651Y-64693647D01*
X164037544Y-64690585D01*
X164031838Y-64686143D01*
X163999126Y-64660683D01*
X163999124Y-64660682D01*
X163992640Y-64657173D01*
X163986067Y-64653959D01*
X163939409Y-64640068D01*
X163934532Y-64638506D01*
X163888484Y-64622698D01*
X163881287Y-64621497D01*
X163873951Y-64620582D01*
X163825332Y-64622594D01*
X163820207Y-64622700D01*
X160150492Y-64622700D01*
X160083453Y-64603015D01*
X160063987Y-64585113D01*
X160062772Y-64586329D01*
X160057027Y-64580584D01*
X160057021Y-64580579D01*
X159942025Y-64492339D01*
X159942024Y-64492338D01*
X159942022Y-64492337D01*
X159808112Y-64436871D01*
X159808110Y-64436870D01*
X159808109Y-64436870D01*
X159736254Y-64427410D01*
X159664401Y-64417950D01*
X159664399Y-64417950D01*
X159520691Y-64436870D01*
X159520687Y-64436871D01*
X159386777Y-64492337D01*
X159271779Y-64580579D01*
X159183537Y-64695577D01*
X159128071Y-64829487D01*
X159128070Y-64829490D01*
X159128070Y-64829491D01*
X159125669Y-64847727D01*
X159112581Y-64947134D01*
X159084314Y-65011031D01*
X159025989Y-65049501D01*
X158956124Y-65050332D01*
X158946530Y-65047012D01*
X158944510Y-65046470D01*
X158944509Y-65046470D01*
X158872654Y-65037010D01*
X158800801Y-65027550D01*
X158800799Y-65027550D01*
X158657091Y-65046470D01*
X158657087Y-65046471D01*
X158523177Y-65101937D01*
X158408179Y-65190179D01*
X158319937Y-65305177D01*
X158264471Y-65439087D01*
X158264470Y-65439091D01*
X158252044Y-65533468D01*
X158223776Y-65597364D01*
X158165452Y-65635834D01*
X158112919Y-65640220D01*
X158089601Y-65637150D01*
X158089599Y-65637150D01*
X157945891Y-65656070D01*
X157945887Y-65656071D01*
X157811977Y-65711537D01*
X157696979Y-65799779D01*
X157608737Y-65914777D01*
X157553271Y-66048687D01*
X157553270Y-66048691D01*
X157541342Y-66139288D01*
X157513075Y-66203184D01*
X157454750Y-66241654D01*
X157434589Y-66246040D01*
X157327973Y-66260077D01*
X157285491Y-66265670D01*
X157285490Y-66265670D01*
X157285487Y-66265671D01*
X157151577Y-66321137D01*
X157036579Y-66409379D01*
X156948337Y-66524377D01*
X156892871Y-66658287D01*
X156892870Y-66658291D01*
X156874725Y-66796117D01*
X156873950Y-66802000D01*
X156889577Y-66920700D01*
X156892870Y-66945708D01*
X156892871Y-66945712D01*
X156948337Y-67079622D01*
X156948338Y-67079624D01*
X156948339Y-67079625D01*
X157036579Y-67194621D01*
X157102398Y-67245126D01*
X157143599Y-67301552D01*
X157147754Y-67371298D01*
X157113542Y-67432218D01*
X157051824Y-67464971D01*
X157026910Y-67467500D01*
X156594492Y-67467500D01*
X156527453Y-67447815D01*
X156507987Y-67429913D01*
X156506772Y-67431129D01*
X156501027Y-67425384D01*
X156501021Y-67425379D01*
X156386025Y-67337139D01*
X156386024Y-67337138D01*
X156386022Y-67337137D01*
X156252112Y-67281671D01*
X156252110Y-67281670D01*
X156252109Y-67281670D01*
X156180254Y-67272210D01*
X156108401Y-67262750D01*
X156108399Y-67262750D01*
X155964691Y-67281670D01*
X155964687Y-67281671D01*
X155830777Y-67337137D01*
X155715779Y-67425379D01*
X155627537Y-67540377D01*
X155572071Y-67674287D01*
X155572070Y-67674291D01*
X155553150Y-67817999D01*
X155553150Y-67818000D01*
X155572070Y-67961708D01*
X155572071Y-67961712D01*
X155627537Y-68095622D01*
X155627538Y-68095624D01*
X155627539Y-68095625D01*
X155715779Y-68210621D01*
X155830775Y-68298861D01*
X155964691Y-68354330D01*
X156053036Y-68365961D01*
X156111165Y-68391676D01*
X156145015Y-68369923D01*
X156163764Y-68365961D01*
X156252109Y-68354330D01*
X156386025Y-68298861D01*
X156501021Y-68210621D01*
X156501023Y-68210617D01*
X156501027Y-68210615D01*
X156506772Y-68204871D01*
X156509288Y-68207387D01*
X156552583Y-68175797D01*
X156594492Y-68168500D01*
X160890256Y-68168500D01*
X160957295Y-68188185D01*
X160977937Y-68204819D01*
X165271981Y-72498863D01*
X165305466Y-72560186D01*
X165308300Y-72586544D01*
X165308300Y-74512306D01*
X165288615Y-74579345D01*
X165235811Y-74625100D01*
X165166653Y-74635044D01*
X165103097Y-74606019D01*
X165087377Y-74589335D01*
X165086225Y-74588183D01*
X165086222Y-74588181D01*
X165086221Y-74588179D01*
X164971225Y-74499939D01*
X164971224Y-74499938D01*
X164971222Y-74499937D01*
X164837312Y-74444471D01*
X164837310Y-74444470D01*
X164837309Y-74444470D01*
X164712392Y-74428024D01*
X164693601Y-74425550D01*
X164693599Y-74425550D01*
X164549891Y-74444470D01*
X164549887Y-74444471D01*
X164415976Y-74499938D01*
X164415974Y-74499939D01*
X164304184Y-74585719D01*
X164239015Y-74610913D01*
X164170570Y-74596875D01*
X164153212Y-74585719D01*
X164107625Y-74550739D01*
X164107623Y-74550738D01*
X163973712Y-74495271D01*
X163973710Y-74495270D01*
X163973709Y-74495270D01*
X163901854Y-74485810D01*
X163830001Y-74476350D01*
X163829999Y-74476350D01*
X163686291Y-74495270D01*
X163686287Y-74495271D01*
X163552376Y-74550738D01*
X163552374Y-74550739D01*
X163473686Y-74611119D01*
X163408517Y-74636313D01*
X163340072Y-74622275D01*
X163322714Y-74611119D01*
X163244025Y-74550739D01*
X163244023Y-74550738D01*
X163110112Y-74495271D01*
X163110110Y-74495270D01*
X163110109Y-74495270D01*
X163038254Y-74485810D01*
X162966401Y-74476350D01*
X162966399Y-74476350D01*
X162822691Y-74495270D01*
X162822687Y-74495271D01*
X162688777Y-74550737D01*
X162573772Y-74638984D01*
X162568028Y-74644729D01*
X162566112Y-74642813D01*
X162520408Y-74676168D01*
X162450661Y-74680305D01*
X162403004Y-74657844D01*
X162329625Y-74601539D01*
X162329623Y-74601538D01*
X162195712Y-74546071D01*
X162195710Y-74546070D01*
X162195709Y-74546070D01*
X162079861Y-74530818D01*
X162052001Y-74527150D01*
X162051999Y-74527150D01*
X161908291Y-74546070D01*
X161908287Y-74546071D01*
X161774376Y-74601538D01*
X161774374Y-74601539D01*
X161662584Y-74687319D01*
X161597415Y-74712513D01*
X161528970Y-74698475D01*
X161511612Y-74687319D01*
X161466025Y-74652339D01*
X161466023Y-74652338D01*
X161332112Y-74596871D01*
X161332110Y-74596870D01*
X161332109Y-74596870D01*
X161247410Y-74585719D01*
X161188401Y-74577950D01*
X161188399Y-74577950D01*
X161044691Y-74596870D01*
X161044687Y-74596871D01*
X160910777Y-74652337D01*
X160795779Y-74740579D01*
X160707537Y-74855577D01*
X160652071Y-74989487D01*
X160652070Y-74989491D01*
X160633150Y-75133200D01*
X160649636Y-75258425D01*
X160652070Y-75276908D01*
X160652071Y-75276912D01*
X160707538Y-75410823D01*
X160707539Y-75410825D01*
X160795780Y-75525823D01*
X160801526Y-75531569D01*
X160798974Y-75534120D01*
X160830491Y-75577073D01*
X160837900Y-75619292D01*
X160837900Y-94037456D01*
X160818215Y-94104495D01*
X160801581Y-94125137D01*
X150919537Y-104007181D01*
X150858214Y-104040666D01*
X150831856Y-104043500D01*
X140460411Y-104043500D01*
X140434965Y-104040861D01*
X140434035Y-104040666D01*
X140425885Y-104038957D01*
X140425884Y-104038957D01*
X140425883Y-104038957D01*
X140397077Y-104042548D01*
X140383411Y-104043396D01*
X140382165Y-104043499D01*
X140363160Y-104046669D01*
X140358103Y-104047405D01*
X140309807Y-104053426D01*
X140302766Y-104055522D01*
X140295818Y-104057908D01*
X140253012Y-104081072D01*
X140248461Y-104083415D01*
X140204713Y-104104803D01*
X140198766Y-104109047D01*
X140192938Y-104113584D01*
X140159980Y-104149386D01*
X140156433Y-104153083D01*
X137902737Y-106406781D01*
X137841414Y-106440266D01*
X137815056Y-106443100D01*
X136386923Y-106443100D01*
X136313864Y-106457632D01*
X136313860Y-106457633D01*
X136230999Y-106512999D01*
X136175633Y-106595860D01*
X136175632Y-106595864D01*
X136161100Y-106668921D01*
X136161100Y-108418278D01*
X136175632Y-108491335D01*
X136175633Y-108491339D01*
X136189027Y-108511385D01*
X136230999Y-108574201D01*
X136291635Y-108614716D01*
X136313860Y-108629566D01*
X136313864Y-108629567D01*
X136386921Y-108644099D01*
X136386924Y-108644100D01*
X136594918Y-108644100D01*
X136661957Y-108663785D01*
X136707712Y-108716589D01*
X136717656Y-108785747D01*
X136688631Y-108849303D01*
X136647323Y-108880482D01*
X136584022Y-108909999D01*
X136584020Y-108910000D01*
X136390526Y-109045486D01*
X136390520Y-109045491D01*
X136223491Y-109212520D01*
X136223486Y-109212526D01*
X136088000Y-109406020D01*
X136087999Y-109406022D01*
X135988170Y-109620107D01*
X135988167Y-109620113D01*
X135930964Y-109833599D01*
X135930964Y-109833600D01*
X136827914Y-109833600D01*
X136802107Y-109873756D01*
X136761600Y-110011711D01*
X136761600Y-110155489D01*
X136802107Y-110293444D01*
X136827914Y-110333600D01*
X135930964Y-110333600D01*
X132670872Y-110333600D01*
X132699436Y-110227000D01*
X131802486Y-110227000D01*
X131828293Y-110186844D01*
X131868800Y-110048889D01*
X131868800Y-109905111D01*
X131828293Y-109767156D01*
X131802486Y-109727000D01*
X132699436Y-109727000D01*
X132699435Y-109726999D01*
X132642232Y-109513513D01*
X132642229Y-109513507D01*
X132542400Y-109299422D01*
X132542399Y-109299420D01*
X132406913Y-109105926D01*
X132406908Y-109105920D01*
X132239882Y-108938894D01*
X132046378Y-108803399D01*
X131983077Y-108773882D01*
X131930638Y-108727710D01*
X131911486Y-108660516D01*
X131931702Y-108593635D01*
X131984867Y-108548300D01*
X132035482Y-108537500D01*
X132243476Y-108537500D01*
X132243477Y-108537499D01*
X132316540Y-108522966D01*
X132399401Y-108467601D01*
X132454766Y-108384740D01*
X132469300Y-108311674D01*
X132469300Y-106562326D01*
X132469300Y-106562323D01*
X132469299Y-106562321D01*
X132454767Y-106489264D01*
X132454766Y-106489260D01*
X132441417Y-106469282D01*
X132399401Y-106406399D01*
X132336134Y-106364126D01*
X132316539Y-106351033D01*
X132316535Y-106351032D01*
X132243477Y-106336500D01*
X132243474Y-106336500D01*
X130494126Y-106336500D01*
X130494123Y-106336500D01*
X130421064Y-106351032D01*
X130421060Y-106351033D01*
X130338199Y-106406399D01*
X130282833Y-106489260D01*
X130282832Y-106489264D01*
X130268300Y-106562321D01*
X130268300Y-108311678D01*
X130282832Y-108384735D01*
X130282833Y-108384739D01*
X130282834Y-108384740D01*
X130338199Y-108467601D01*
X130403728Y-108511385D01*
X130421060Y-108522966D01*
X130421064Y-108522967D01*
X130494121Y-108537499D01*
X130494124Y-108537500D01*
X130702118Y-108537500D01*
X130769157Y-108557185D01*
X130814912Y-108609989D01*
X130824856Y-108679147D01*
X130795831Y-108742703D01*
X130754523Y-108773882D01*
X130691222Y-108803399D01*
X130691220Y-108803400D01*
X130497726Y-108938886D01*
X130497720Y-108938891D01*
X130330691Y-109105920D01*
X130330686Y-109105926D01*
X130195200Y-109299420D01*
X130195199Y-109299422D01*
X130095370Y-109513507D01*
X130095367Y-109513513D01*
X130038164Y-109726999D01*
X130038164Y-109727000D01*
X130935114Y-109727000D01*
X130909307Y-109767156D01*
X130868800Y-109905111D01*
X130868800Y-110048889D01*
X130909307Y-110186844D01*
X130935114Y-110227000D01*
X130038164Y-110227000D01*
X128016000Y-110227000D01*
X128016000Y-102916800D01*
X129936564Y-102916800D01*
X129993767Y-103130286D01*
X129993770Y-103130292D01*
X130093599Y-103344378D01*
X130229094Y-103537882D01*
X130396117Y-103704905D01*
X130589621Y-103840400D01*
X130803707Y-103940229D01*
X130803716Y-103940233D01*
X131017200Y-103997434D01*
X131017200Y-103102301D01*
X131124885Y-103151480D01*
X131231437Y-103166800D01*
X131302963Y-103166800D01*
X131409515Y-103151480D01*
X131517200Y-103102301D01*
X131517200Y-103997433D01*
X131730683Y-103940233D01*
X131730692Y-103940229D01*
X131944778Y-103840400D01*
X132138282Y-103704905D01*
X132305305Y-103537882D01*
X132440800Y-103344378D01*
X132540629Y-103130292D01*
X132540632Y-103130286D01*
X132597836Y-102916800D01*
X131700886Y-102916800D01*
X131726693Y-102876644D01*
X131767200Y-102738689D01*
X131767200Y-102594911D01*
X131726693Y-102456956D01*
X131700886Y-102416800D01*
X132597836Y-102416800D01*
X132597835Y-102416799D01*
X132540632Y-102203313D01*
X132540629Y-102203307D01*
X132440800Y-101989222D01*
X132440799Y-101989220D01*
X132305313Y-101795726D01*
X132305308Y-101795720D01*
X132138282Y-101628694D01*
X131944778Y-101493199D01*
X131881477Y-101463682D01*
X131829038Y-101417510D01*
X131820570Y-101387800D01*
X137759764Y-101387800D01*
X137816967Y-101601286D01*
X137816970Y-101601292D01*
X137916799Y-101815378D01*
X138052294Y-102008882D01*
X138219317Y-102175905D01*
X138412821Y-102311400D01*
X138626907Y-102411229D01*
X138626916Y-102411233D01*
X138840400Y-102468434D01*
X138840400Y-101573301D01*
X138948085Y-101622480D01*
X139054637Y-101637800D01*
X139126163Y-101637800D01*
X139232715Y-101622480D01*
X139340400Y-101573301D01*
X139340400Y-102468433D01*
X139553883Y-102411233D01*
X139553892Y-102411229D01*
X139767978Y-102311400D01*
X139961482Y-102175905D01*
X140128505Y-102008882D01*
X140264000Y-101815378D01*
X140363829Y-101601292D01*
X140363832Y-101601286D01*
X140421036Y-101387800D01*
X139524086Y-101387800D01*
X139549893Y-101347644D01*
X139590400Y-101209689D01*
X139590400Y-101065911D01*
X139549893Y-100927956D01*
X139524086Y-100887800D01*
X140421036Y-100887800D01*
X140421035Y-100887799D01*
X140363832Y-100674313D01*
X140363829Y-100674307D01*
X140264000Y-100460222D01*
X140263999Y-100460220D01*
X140128513Y-100266726D01*
X140128508Y-100266720D01*
X139961482Y-100099694D01*
X139767978Y-99964199D01*
X139704677Y-99934682D01*
X139652238Y-99888510D01*
X139633086Y-99821316D01*
X139653302Y-99754435D01*
X139706467Y-99709100D01*
X139757082Y-99698300D01*
X139965076Y-99698300D01*
X139965077Y-99698299D01*
X140038140Y-99683766D01*
X140121001Y-99628401D01*
X140176366Y-99545540D01*
X140190900Y-99472474D01*
X140190900Y-98044344D01*
X140210585Y-97977305D01*
X140227219Y-97956663D01*
X143969463Y-94214419D01*
X144030786Y-94180934D01*
X144057144Y-94178100D01*
X149150389Y-94178100D01*
X149175834Y-94180738D01*
X149184915Y-94182643D01*
X149210273Y-94179481D01*
X149213723Y-94179052D01*
X149227364Y-94178205D01*
X149228626Y-94178100D01*
X149228640Y-94178100D01*
X149236671Y-94176759D01*
X149247614Y-94174934D01*
X149252663Y-94174197D01*
X149300993Y-94168173D01*
X149300999Y-94168169D01*
X149308056Y-94166068D01*
X149314977Y-94163692D01*
X149314981Y-94163692D01*
X149357816Y-94140509D01*
X149362329Y-94138186D01*
X149406084Y-94116798D01*
X149406086Y-94116795D01*
X149412061Y-94112529D01*
X149417856Y-94108019D01*
X149417855Y-94108019D01*
X149417858Y-94108018D01*
X149450854Y-94072172D01*
X149454356Y-94068524D01*
X157845446Y-85677434D01*
X157865302Y-85661311D01*
X157873069Y-85656237D01*
X157890896Y-85633331D01*
X157899940Y-85623091D01*
X157900760Y-85622121D01*
X157900775Y-85622107D01*
X157911984Y-85606405D01*
X157915004Y-85602356D01*
X157944917Y-85563926D01*
X157944918Y-85563920D01*
X157948413Y-85557463D01*
X157951641Y-85550863D01*
X157953454Y-85544773D01*
X157991448Y-85486136D01*
X158055112Y-85457349D01*
X158124233Y-85467551D01*
X158176865Y-85513503D01*
X158196300Y-85580152D01*
X158196300Y-87484256D01*
X158176615Y-87551295D01*
X158159981Y-87571937D01*
X150157537Y-95574381D01*
X150096214Y-95607866D01*
X150069856Y-95610700D01*
X147572406Y-95610700D01*
X147546961Y-95608061D01*
X147546031Y-95607866D01*
X147537885Y-95606158D01*
X147537884Y-95606158D01*
X147509084Y-95609748D01*
X147495381Y-95610598D01*
X147494162Y-95610699D01*
X147475190Y-95613865D01*
X147470123Y-95614603D01*
X147421805Y-95620626D01*
X147414784Y-95622716D01*
X147407817Y-95625108D01*
X147365012Y-95648272D01*
X147360461Y-95650615D01*
X147316713Y-95672003D01*
X147310766Y-95676247D01*
X147304938Y-95680784D01*
X147271980Y-95716586D01*
X147268433Y-95720283D01*
X145675137Y-97313581D01*
X145613814Y-97347066D01*
X145587456Y-97349900D01*
X144159323Y-97349900D01*
X144086264Y-97364432D01*
X144086260Y-97364433D01*
X144003399Y-97419799D01*
X143948033Y-97502660D01*
X143948032Y-97502664D01*
X143933500Y-97575721D01*
X143933500Y-99325078D01*
X143948032Y-99398135D01*
X143948033Y-99398139D01*
X143948034Y-99398140D01*
X144003399Y-99481001D01*
X144078777Y-99531366D01*
X144086260Y-99536366D01*
X144086264Y-99536367D01*
X144159321Y-99550899D01*
X144159324Y-99550900D01*
X144367318Y-99550900D01*
X144434357Y-99570585D01*
X144480112Y-99623389D01*
X144490056Y-99692547D01*
X144461031Y-99756103D01*
X144419723Y-99787282D01*
X144356422Y-99816799D01*
X144356420Y-99816800D01*
X144162926Y-99952286D01*
X144162920Y-99952291D01*
X143995891Y-100119320D01*
X143995886Y-100119326D01*
X143860400Y-100312820D01*
X143860399Y-100312822D01*
X143760570Y-100526907D01*
X143760567Y-100526913D01*
X143703364Y-100740399D01*
X143703364Y-100740400D01*
X144600314Y-100740400D01*
X144574507Y-100780556D01*
X144534000Y-100918511D01*
X144534000Y-101062289D01*
X144574507Y-101200244D01*
X144600314Y-101240400D01*
X143703364Y-101240400D01*
X143760567Y-101453886D01*
X143760570Y-101453892D01*
X143860399Y-101667978D01*
X143995894Y-101861482D01*
X144162917Y-102028505D01*
X144356421Y-102164000D01*
X144570507Y-102263829D01*
X144570516Y-102263833D01*
X144784000Y-102321034D01*
X144784000Y-101425901D01*
X144891685Y-101475080D01*
X144998237Y-101490400D01*
X145069763Y-101490400D01*
X145176315Y-101475080D01*
X145284000Y-101425901D01*
X145284000Y-102321033D01*
X145497483Y-102263833D01*
X145497492Y-102263829D01*
X145711578Y-102164000D01*
X145905082Y-102028505D01*
X146072105Y-101861482D01*
X146207600Y-101667978D01*
X146307429Y-101453892D01*
X146307432Y-101453886D01*
X146364636Y-101240400D01*
X145467686Y-101240400D01*
X145493493Y-101200244D01*
X145534000Y-101062289D01*
X145534000Y-100918511D01*
X145493493Y-100780556D01*
X145467686Y-100740400D01*
X146364636Y-100740400D01*
X146364635Y-100740399D01*
X146307432Y-100526913D01*
X146307429Y-100526907D01*
X146207600Y-100312822D01*
X146207599Y-100312820D01*
X146072113Y-100119326D01*
X146072108Y-100119320D01*
X145905082Y-99952294D01*
X145711578Y-99816799D01*
X145648277Y-99787282D01*
X145595838Y-99741110D01*
X145576686Y-99673916D01*
X145596902Y-99607035D01*
X145650067Y-99561700D01*
X145700682Y-99550900D01*
X145908676Y-99550900D01*
X145908677Y-99550899D01*
X145981740Y-99536366D01*
X146064601Y-99481001D01*
X146119966Y-99398140D01*
X146134500Y-99325074D01*
X146134500Y-97896944D01*
X146154185Y-97829905D01*
X146170819Y-97809263D01*
X147632063Y-96348019D01*
X147693386Y-96314534D01*
X147719744Y-96311700D01*
X150217189Y-96311700D01*
X150242634Y-96314338D01*
X150251715Y-96316243D01*
X150277073Y-96313081D01*
X150280523Y-96312652D01*
X150294164Y-96311805D01*
X150295426Y-96311700D01*
X150295440Y-96311700D01*
X150303471Y-96310359D01*
X150314414Y-96308534D01*
X150319463Y-96307797D01*
X150367793Y-96301773D01*
X150367799Y-96301769D01*
X150374856Y-96299668D01*
X150381777Y-96297292D01*
X150381781Y-96297292D01*
X150424616Y-96274109D01*
X150429129Y-96271786D01*
X150472884Y-96250398D01*
X150472886Y-96250395D01*
X150478861Y-96246129D01*
X150484656Y-96241619D01*
X150484655Y-96241619D01*
X150484658Y-96241618D01*
X150517654Y-96205772D01*
X150521156Y-96202124D01*
X158759846Y-87963434D01*
X158779702Y-87947311D01*
X158787469Y-87942237D01*
X158805296Y-87919331D01*
X158814340Y-87909091D01*
X158815160Y-87908121D01*
X158815175Y-87908107D01*
X158826384Y-87892405D01*
X158829404Y-87888356D01*
X158859317Y-87849926D01*
X158859318Y-87849920D01*
X158862813Y-87843463D01*
X158866041Y-87836863D01*
X158867854Y-87830773D01*
X158905848Y-87772136D01*
X158969512Y-87743349D01*
X159038633Y-87753551D01*
X159091265Y-87799503D01*
X159110700Y-87866152D01*
X159110700Y-89770256D01*
X159091015Y-89837295D01*
X159074381Y-89857937D01*
X151623737Y-97308581D01*
X151562414Y-97342066D01*
X151536056Y-97344900D01*
X149950523Y-97344900D01*
X149877464Y-97359432D01*
X149877460Y-97359433D01*
X149794599Y-97414799D01*
X149739233Y-97497660D01*
X149739232Y-97497664D01*
X149724700Y-97570721D01*
X149724700Y-99320078D01*
X149739232Y-99393135D01*
X149739233Y-99393139D01*
X149739234Y-99393140D01*
X149794599Y-99476001D01*
X149877460Y-99531366D01*
X149877464Y-99531367D01*
X149950521Y-99545899D01*
X149950524Y-99545900D01*
X150158518Y-99545900D01*
X150225557Y-99565585D01*
X150271312Y-99618389D01*
X150281256Y-99687547D01*
X150252231Y-99751103D01*
X150210923Y-99782282D01*
X150147622Y-99811799D01*
X150147620Y-99811800D01*
X149954126Y-99947286D01*
X149954120Y-99947291D01*
X149787091Y-100114320D01*
X149787086Y-100114326D01*
X149651600Y-100307820D01*
X149651599Y-100307822D01*
X149551770Y-100521907D01*
X149551767Y-100521913D01*
X149494564Y-100735399D01*
X149494564Y-100735400D01*
X150391514Y-100735400D01*
X150365707Y-100775556D01*
X150325200Y-100913511D01*
X150325200Y-101057289D01*
X150365707Y-101195244D01*
X150391514Y-101235400D01*
X149494564Y-101235400D01*
X149551767Y-101448886D01*
X149551770Y-101448892D01*
X149651599Y-101662978D01*
X149787094Y-101856482D01*
X149954117Y-102023505D01*
X150147621Y-102159000D01*
X150361707Y-102258829D01*
X150361716Y-102258833D01*
X150575200Y-102316034D01*
X150575200Y-101420901D01*
X150682885Y-101470080D01*
X150789437Y-101485400D01*
X150860963Y-101485400D01*
X150967515Y-101470080D01*
X151075200Y-101420901D01*
X151075200Y-102316033D01*
X151288683Y-102258833D01*
X151288692Y-102258829D01*
X151502778Y-102159000D01*
X151696282Y-102023505D01*
X151863305Y-101856482D01*
X151998800Y-101662978D01*
X152098629Y-101448892D01*
X152098632Y-101448886D01*
X152155836Y-101235400D01*
X151258886Y-101235400D01*
X151284693Y-101195244D01*
X151325200Y-101057289D01*
X151325200Y-100913511D01*
X151284693Y-100775556D01*
X151258886Y-100735400D01*
X152155836Y-100735400D01*
X152155835Y-100735399D01*
X152098632Y-100521913D01*
X152098629Y-100521907D01*
X151998800Y-100307822D01*
X151998799Y-100307820D01*
X151863313Y-100114326D01*
X151863308Y-100114320D01*
X151696282Y-99947294D01*
X151502778Y-99811799D01*
X151439477Y-99782282D01*
X151387038Y-99736110D01*
X151367886Y-99668916D01*
X151388102Y-99602035D01*
X151441267Y-99556700D01*
X151491882Y-99545900D01*
X151699876Y-99545900D01*
X151699877Y-99545899D01*
X151772940Y-99531366D01*
X151855801Y-99476001D01*
X151911166Y-99393140D01*
X151925700Y-99320074D01*
X151925700Y-98049343D01*
X151945385Y-97982304D01*
X151962014Y-97961667D01*
X159674246Y-90249434D01*
X159694102Y-90233311D01*
X159701869Y-90228237D01*
X159719696Y-90205331D01*
X159728740Y-90195091D01*
X159729560Y-90194121D01*
X159729575Y-90194107D01*
X159740784Y-90178405D01*
X159743804Y-90174356D01*
X159773717Y-90135926D01*
X159773718Y-90135920D01*
X159777213Y-90129463D01*
X159780436Y-90122870D01*
X159780440Y-90122866D01*
X159794338Y-90076182D01*
X159795874Y-90071383D01*
X159811700Y-90025288D01*
X159811700Y-90025281D01*
X159812906Y-90018052D01*
X159813817Y-90010752D01*
X159811806Y-89962132D01*
X159811700Y-89957007D01*
X159811700Y-79683292D01*
X159831385Y-79616253D01*
X159849314Y-79596809D01*
X159848074Y-79595569D01*
X159853819Y-79589823D01*
X159853821Y-79589821D01*
X159942061Y-79474825D01*
X159997530Y-79340909D01*
X160016450Y-79197200D01*
X159997530Y-79053491D01*
X159942061Y-78919575D01*
X159853821Y-78804579D01*
X159738825Y-78716339D01*
X159738824Y-78716338D01*
X159738822Y-78716337D01*
X159604912Y-78660871D01*
X159604910Y-78660870D01*
X159604909Y-78660870D01*
X159533054Y-78651410D01*
X159461201Y-78641950D01*
X159461199Y-78641950D01*
X159317491Y-78660870D01*
X159317487Y-78660871D01*
X159183576Y-78716338D01*
X159183574Y-78716339D01*
X159110195Y-78772645D01*
X159045026Y-78797839D01*
X158976581Y-78783800D01*
X158946419Y-78758281D01*
X158945172Y-78759529D01*
X158939427Y-78753784D01*
X158939421Y-78753779D01*
X158824425Y-78665539D01*
X158824424Y-78665538D01*
X158824422Y-78665537D01*
X158690512Y-78610071D01*
X158690510Y-78610070D01*
X158690509Y-78610070D01*
X158618654Y-78600610D01*
X158546801Y-78591150D01*
X158546799Y-78591150D01*
X158403091Y-78610070D01*
X158403087Y-78610071D01*
X158269177Y-78665537D01*
X158154172Y-78753784D01*
X158148428Y-78759529D01*
X158146512Y-78757613D01*
X158100808Y-78790968D01*
X158031061Y-78795105D01*
X157983404Y-78772644D01*
X157910025Y-78716339D01*
X157910023Y-78716338D01*
X157776112Y-78660871D01*
X157776110Y-78660870D01*
X157776109Y-78660870D01*
X157704254Y-78651410D01*
X157632401Y-78641950D01*
X157632399Y-78641950D01*
X157488691Y-78660870D01*
X157488687Y-78660871D01*
X157354777Y-78716337D01*
X157239779Y-78804579D01*
X157151537Y-78919577D01*
X157096071Y-79053487D01*
X157096070Y-79053491D01*
X157077677Y-79193200D01*
X157077150Y-79197200D01*
X157091467Y-79305950D01*
X157096070Y-79340908D01*
X157096071Y-79340912D01*
X157151538Y-79474823D01*
X157151539Y-79474825D01*
X157239780Y-79589823D01*
X157245526Y-79595569D01*
X157242974Y-79598120D01*
X157274491Y-79641073D01*
X157281900Y-79683292D01*
X157281900Y-85198256D01*
X157262215Y-85265295D01*
X157245581Y-85285937D01*
X149090737Y-93440781D01*
X149029414Y-93474266D01*
X149003056Y-93477100D01*
X143909812Y-93477100D01*
X143884366Y-93474461D01*
X143883436Y-93474266D01*
X143875286Y-93472557D01*
X143875285Y-93472557D01*
X143875284Y-93472557D01*
X143846478Y-93476148D01*
X143832799Y-93476997D01*
X143831562Y-93477099D01*
X143812596Y-93480264D01*
X143807529Y-93481002D01*
X143759211Y-93487025D01*
X143752168Y-93489122D01*
X143745216Y-93491509D01*
X143702404Y-93514676D01*
X143697854Y-93517018D01*
X143654117Y-93538400D01*
X143648156Y-93542655D01*
X143642338Y-93547184D01*
X143609380Y-93582986D01*
X143605833Y-93586683D01*
X139731537Y-97460981D01*
X139670214Y-97494466D01*
X139643856Y-97497300D01*
X138215723Y-97497300D01*
X138142664Y-97511832D01*
X138142660Y-97511833D01*
X138059799Y-97567199D01*
X138004433Y-97650060D01*
X138004432Y-97650064D01*
X137989900Y-97723121D01*
X137989900Y-99472478D01*
X138004432Y-99545535D01*
X138004433Y-99545539D01*
X138017827Y-99565585D01*
X138059799Y-99628401D01*
X138120435Y-99668916D01*
X138142660Y-99683766D01*
X138142664Y-99683767D01*
X138215721Y-99698299D01*
X138215724Y-99698300D01*
X138423718Y-99698300D01*
X138490757Y-99717985D01*
X138536512Y-99770789D01*
X138546456Y-99839947D01*
X138517431Y-99903503D01*
X138476123Y-99934682D01*
X138412822Y-99964199D01*
X138412820Y-99964200D01*
X138219326Y-100099686D01*
X138219320Y-100099691D01*
X138052291Y-100266720D01*
X138052286Y-100266726D01*
X137916800Y-100460220D01*
X137916799Y-100460222D01*
X137816970Y-100674307D01*
X137816967Y-100674313D01*
X137759764Y-100887799D01*
X137759764Y-100887800D01*
X138656714Y-100887800D01*
X138630907Y-100927956D01*
X138590400Y-101065911D01*
X138590400Y-101209689D01*
X138630907Y-101347644D01*
X138656714Y-101387800D01*
X137759764Y-101387800D01*
X131820570Y-101387800D01*
X131809886Y-101350316D01*
X131830102Y-101283435D01*
X131883267Y-101238100D01*
X131933882Y-101227300D01*
X132141876Y-101227300D01*
X132141877Y-101227299D01*
X132214940Y-101212766D01*
X132297801Y-101157401D01*
X132353166Y-101074540D01*
X132367700Y-101001474D01*
X132367700Y-99252126D01*
X132367700Y-99252123D01*
X132367699Y-99252121D01*
X132353167Y-99179064D01*
X132353166Y-99179060D01*
X132297801Y-99096199D01*
X132214940Y-99040834D01*
X132214939Y-99040833D01*
X132214935Y-99040832D01*
X132141877Y-99026300D01*
X132141874Y-99026300D01*
X130392526Y-99026300D01*
X130392523Y-99026300D01*
X130319464Y-99040832D01*
X130319460Y-99040833D01*
X130236599Y-99096199D01*
X130181233Y-99179060D01*
X130181232Y-99179064D01*
X130166700Y-99252121D01*
X130166700Y-101001478D01*
X130181232Y-101074535D01*
X130181233Y-101074539D01*
X130181234Y-101074540D01*
X130236599Y-101157401D01*
X130314855Y-101209689D01*
X130319460Y-101212766D01*
X130319464Y-101212767D01*
X130392521Y-101227299D01*
X130392524Y-101227300D01*
X130600518Y-101227300D01*
X130667557Y-101246985D01*
X130713312Y-101299789D01*
X130723256Y-101368947D01*
X130694231Y-101432503D01*
X130652923Y-101463682D01*
X130589622Y-101493199D01*
X130589620Y-101493200D01*
X130396126Y-101628686D01*
X130396120Y-101628691D01*
X130229091Y-101795720D01*
X130229086Y-101795726D01*
X130093600Y-101989220D01*
X130093599Y-101989222D01*
X129993770Y-102203307D01*
X129993767Y-102203313D01*
X129936564Y-102416799D01*
X129936564Y-102416800D01*
X130833514Y-102416800D01*
X130807707Y-102456956D01*
X130767200Y-102594911D01*
X130767200Y-102738689D01*
X130807707Y-102876644D01*
X130833514Y-102916800D01*
X129936564Y-102916800D01*
X128016000Y-102916800D01*
X128016000Y-95855600D01*
X129936564Y-95855600D01*
X129993767Y-96069086D01*
X129993770Y-96069092D01*
X130093599Y-96283178D01*
X130229094Y-96476682D01*
X130396117Y-96643705D01*
X130589621Y-96779200D01*
X130803707Y-96879029D01*
X130803716Y-96879033D01*
X131017200Y-96936234D01*
X131017200Y-96041101D01*
X131124885Y-96090280D01*
X131231437Y-96105600D01*
X131302963Y-96105600D01*
X131409515Y-96090280D01*
X131517200Y-96041101D01*
X131517200Y-96936233D01*
X131730683Y-96879033D01*
X131730692Y-96879029D01*
X131944778Y-96779200D01*
X132138282Y-96643705D01*
X132305305Y-96476682D01*
X132440800Y-96283178D01*
X132540629Y-96069092D01*
X132540632Y-96069086D01*
X132597836Y-95855600D01*
X131700886Y-95855600D01*
X131726693Y-95815444D01*
X131767200Y-95677489D01*
X131767200Y-95533711D01*
X131726693Y-95395756D01*
X131700886Y-95355600D01*
X132597836Y-95355600D01*
X132597835Y-95355599D01*
X132540632Y-95142113D01*
X132540629Y-95142107D01*
X132440800Y-94928022D01*
X132440799Y-94928020D01*
X132305313Y-94734526D01*
X132305308Y-94734520D01*
X132138282Y-94567494D01*
X131944778Y-94431999D01*
X131881477Y-94402482D01*
X131829038Y-94356310D01*
X131809886Y-94289116D01*
X131830102Y-94222235D01*
X131883267Y-94176900D01*
X131933882Y-94166100D01*
X132141876Y-94166100D01*
X132141877Y-94166099D01*
X132214940Y-94151566D01*
X132297801Y-94096201D01*
X132353166Y-94013340D01*
X132367700Y-93940274D01*
X132367700Y-92190926D01*
X132367700Y-92190923D01*
X132367699Y-92190921D01*
X132353167Y-92117864D01*
X132353166Y-92117860D01*
X132315197Y-92061035D01*
X132297801Y-92034999D01*
X132214940Y-91979634D01*
X132214939Y-91979633D01*
X132214935Y-91979632D01*
X132141877Y-91965100D01*
X132141874Y-91965100D01*
X130392526Y-91965100D01*
X130392523Y-91965100D01*
X130319464Y-91979632D01*
X130319460Y-91979633D01*
X130236599Y-92034999D01*
X130181233Y-92117860D01*
X130181232Y-92117864D01*
X130166700Y-92190921D01*
X130166700Y-93940278D01*
X130181232Y-94013335D01*
X130181233Y-94013339D01*
X130199605Y-94040835D01*
X130236599Y-94096201D01*
X130316485Y-94149578D01*
X130319460Y-94151566D01*
X130319464Y-94151567D01*
X130392521Y-94166099D01*
X130392524Y-94166100D01*
X130600518Y-94166100D01*
X130667557Y-94185785D01*
X130713312Y-94238589D01*
X130723256Y-94307747D01*
X130694231Y-94371303D01*
X130652923Y-94402482D01*
X130589622Y-94431999D01*
X130589620Y-94432000D01*
X130396126Y-94567486D01*
X130396120Y-94567491D01*
X130229091Y-94734520D01*
X130229086Y-94734526D01*
X130093600Y-94928020D01*
X130093599Y-94928022D01*
X129993770Y-95142107D01*
X129993767Y-95142113D01*
X129936564Y-95355599D01*
X129936564Y-95355600D01*
X130833514Y-95355600D01*
X130807707Y-95395756D01*
X130767200Y-95533711D01*
X130767200Y-95677489D01*
X130807707Y-95815444D01*
X130833514Y-95855600D01*
X129936564Y-95855600D01*
X128016000Y-95855600D01*
X128016000Y-86563200D01*
X130161985Y-86563200D01*
X130180802Y-86766282D01*
X130236617Y-86962447D01*
X130236622Y-86962460D01*
X130327527Y-87145021D01*
X130450437Y-87307781D01*
X130601158Y-87445180D01*
X130601160Y-87445182D01*
X130664267Y-87484256D01*
X130774563Y-87552548D01*
X130964744Y-87626224D01*
X131165224Y-87663700D01*
X131165226Y-87663700D01*
X131369174Y-87663700D01*
X131369176Y-87663700D01*
X131569656Y-87626224D01*
X131759837Y-87552548D01*
X131933241Y-87445181D01*
X132083964Y-87307779D01*
X132206873Y-87145021D01*
X132297782Y-86962450D01*
X132353597Y-86766283D01*
X132372415Y-86563200D01*
X132353597Y-86360117D01*
X132297782Y-86163950D01*
X132206873Y-85981379D01*
X132083964Y-85818621D01*
X132083962Y-85818618D01*
X131933241Y-85681219D01*
X131933239Y-85681217D01*
X131759842Y-85573855D01*
X131759835Y-85573851D01*
X131573729Y-85501754D01*
X131569656Y-85500176D01*
X131369176Y-85462700D01*
X131165224Y-85462700D01*
X130964744Y-85500176D01*
X130964741Y-85500176D01*
X130964741Y-85500177D01*
X130774564Y-85573851D01*
X130774557Y-85573855D01*
X130601160Y-85681217D01*
X130601158Y-85681219D01*
X130450437Y-85818618D01*
X130327527Y-85981378D01*
X130236622Y-86163939D01*
X130236617Y-86163952D01*
X130180802Y-86360117D01*
X130161985Y-86563199D01*
X130161985Y-86563200D01*
X128016000Y-86563200D01*
X128016000Y-79841044D01*
X129917200Y-79841044D01*
X129923601Y-79900572D01*
X129923603Y-79900579D01*
X129973845Y-80035286D01*
X129973849Y-80035293D01*
X130060009Y-80150387D01*
X130060012Y-80150390D01*
X130175106Y-80236550D01*
X130175113Y-80236554D01*
X130309820Y-80286796D01*
X130309827Y-80286798D01*
X130369355Y-80293199D01*
X130369372Y-80293200D01*
X130662812Y-80293200D01*
X130729851Y-80312885D01*
X130775606Y-80365689D01*
X130785550Y-80434847D01*
X130756525Y-80498403D01*
X130728089Y-80522627D01*
X130601160Y-80601217D01*
X130601158Y-80601219D01*
X130450437Y-80738618D01*
X130327527Y-80901378D01*
X130236622Y-81083939D01*
X130236617Y-81083952D01*
X130180802Y-81280117D01*
X130161985Y-81483199D01*
X130161985Y-81483200D01*
X130180802Y-81686282D01*
X130236617Y-81882447D01*
X130236622Y-81882460D01*
X130327527Y-82065021D01*
X130450437Y-82227781D01*
X130601158Y-82365180D01*
X130601160Y-82365182D01*
X130615365Y-82373977D01*
X130774563Y-82472548D01*
X130964744Y-82546224D01*
X131165224Y-82583700D01*
X131165226Y-82583700D01*
X131369174Y-82583700D01*
X131369176Y-82583700D01*
X131549855Y-82549925D01*
X131619368Y-82556956D01*
X131660319Y-82584133D01*
X131923652Y-82847466D01*
X131957137Y-82908789D01*
X131952153Y-82978481D01*
X131910281Y-83034414D01*
X131844817Y-83058831D01*
X131776544Y-83043979D01*
X131770711Y-83040585D01*
X131759837Y-83033852D01*
X131759834Y-83033851D01*
X131759835Y-83033851D01*
X131616907Y-82978481D01*
X131569656Y-82960176D01*
X131369176Y-82922700D01*
X131165224Y-82922700D01*
X130964744Y-82960176D01*
X130964741Y-82960176D01*
X130964741Y-82960177D01*
X130774564Y-83033851D01*
X130774557Y-83033855D01*
X130601160Y-83141217D01*
X130601158Y-83141219D01*
X130450437Y-83278618D01*
X130327527Y-83441378D01*
X130236622Y-83623939D01*
X130236617Y-83623952D01*
X130180802Y-83820117D01*
X130161985Y-84023199D01*
X130161985Y-84023200D01*
X130180802Y-84226282D01*
X130236617Y-84422447D01*
X130236622Y-84422460D01*
X130327527Y-84605021D01*
X130450437Y-84767781D01*
X130601158Y-84905180D01*
X130601160Y-84905182D01*
X130700341Y-84966592D01*
X130774563Y-85012548D01*
X130964744Y-85086224D01*
X131165224Y-85123700D01*
X131165226Y-85123700D01*
X131369174Y-85123700D01*
X131369176Y-85123700D01*
X131569656Y-85086224D01*
X131759837Y-85012548D01*
X131933241Y-84905181D01*
X132083964Y-84767779D01*
X132206873Y-84605021D01*
X132297782Y-84422450D01*
X132353597Y-84226283D01*
X132372415Y-84023200D01*
X132353597Y-83820117D01*
X132297782Y-83623950D01*
X132295989Y-83620350D01*
X132237561Y-83503009D01*
X132225300Y-83434223D01*
X132252173Y-83369728D01*
X132309649Y-83330001D01*
X132379479Y-83327653D01*
X132436242Y-83360056D01*
X133101014Y-84024828D01*
X133117646Y-84045466D01*
X133120254Y-84049525D01*
X133120257Y-84049528D01*
X133157800Y-84082058D01*
X133164263Y-84088077D01*
X133173807Y-84097621D01*
X133173813Y-84097626D01*
X133173816Y-84097628D01*
X133184607Y-84105706D01*
X133191500Y-84111260D01*
X133229027Y-84143777D01*
X133233410Y-84145779D01*
X133256207Y-84159305D01*
X133260069Y-84162196D01*
X133306612Y-84179555D01*
X133314760Y-84182930D01*
X133342073Y-84195404D01*
X133359940Y-84203564D01*
X133359941Y-84203564D01*
X133359943Y-84203565D01*
X133364712Y-84204250D01*
X133390402Y-84210807D01*
X133394917Y-84212491D01*
X133444449Y-84216033D01*
X133453243Y-84216979D01*
X133466601Y-84218900D01*
X133480092Y-84218900D01*
X133488938Y-84219215D01*
X133538473Y-84222759D01*
X133543185Y-84221734D01*
X133569543Y-84218900D01*
X135584324Y-84218900D01*
X135631772Y-84228337D01*
X135695491Y-84254730D01*
X135791297Y-84267343D01*
X135839199Y-84273650D01*
X135839200Y-84273650D01*
X135839201Y-84273650D01*
X135854177Y-84271678D01*
X135982909Y-84254730D01*
X136116825Y-84199261D01*
X136231821Y-84111021D01*
X136320061Y-83996025D01*
X136375530Y-83862109D01*
X136394450Y-83718400D01*
X136375530Y-83574691D01*
X136336100Y-83479497D01*
X136320062Y-83440777D01*
X136320061Y-83440776D01*
X136320061Y-83440775D01*
X136231821Y-83325779D01*
X136116825Y-83237539D01*
X136116824Y-83237538D01*
X136116822Y-83237537D01*
X135982912Y-83182071D01*
X135982910Y-83182070D01*
X135982909Y-83182070D01*
X135931254Y-83175269D01*
X135864458Y-83166475D01*
X135800562Y-83138208D01*
X135762091Y-83079883D01*
X135761260Y-83010019D01*
X135782266Y-82968053D01*
X135812061Y-82929225D01*
X135867530Y-82795309D01*
X135886450Y-82651600D01*
X135881591Y-82614696D01*
X135892356Y-82545663D01*
X135916846Y-82510833D01*
X138490643Y-79937036D01*
X138510494Y-79920916D01*
X138518269Y-79915837D01*
X138536100Y-79892925D01*
X138545128Y-79882704D01*
X138545966Y-79881714D01*
X138545975Y-79881706D01*
X138557170Y-79866024D01*
X138560181Y-79861986D01*
X138590117Y-79823526D01*
X138590118Y-79823522D01*
X138593613Y-79817063D01*
X138596836Y-79810470D01*
X138596840Y-79810466D01*
X138610738Y-79763782D01*
X138612274Y-79758983D01*
X138628100Y-79712888D01*
X138628100Y-79712881D01*
X138629306Y-79705654D01*
X138630217Y-79698351D01*
X138628206Y-79649721D01*
X138628100Y-79644597D01*
X138628100Y-78479343D01*
X138647785Y-78412304D01*
X138664414Y-78391667D01*
X142448923Y-74607157D01*
X142510244Y-74573674D01*
X142536671Y-74572744D01*
X142536671Y-74570850D01*
X142544800Y-74570850D01*
X142688509Y-74551930D01*
X142822425Y-74496461D01*
X142911613Y-74428023D01*
X142976782Y-74402829D01*
X143045227Y-74416867D01*
X143095217Y-74465681D01*
X143111100Y-74526399D01*
X143111100Y-76652523D01*
X143091415Y-76719562D01*
X143074781Y-76740204D01*
X141984368Y-77830616D01*
X141963738Y-77847243D01*
X141959676Y-77849854D01*
X141959667Y-77849861D01*
X141927153Y-77887384D01*
X141921129Y-77893854D01*
X141911580Y-77903403D01*
X141903478Y-77914226D01*
X141897932Y-77921108D01*
X141865424Y-77958625D01*
X141865417Y-77958636D01*
X141863415Y-77963020D01*
X141849900Y-77985799D01*
X141847006Y-77989664D01*
X141847000Y-77989675D01*
X141829651Y-78036191D01*
X141826266Y-78044365D01*
X141805635Y-78089543D01*
X141805633Y-78089550D01*
X141804946Y-78094327D01*
X141798398Y-78119986D01*
X141796710Y-78124513D01*
X141796709Y-78124516D01*
X141793165Y-78174054D01*
X141792220Y-78182845D01*
X141790300Y-78196200D01*
X141790300Y-78209690D01*
X141789984Y-78218537D01*
X141786441Y-78268069D01*
X141786441Y-78268073D01*
X141787466Y-78272785D01*
X141790300Y-78299143D01*
X141790300Y-79196324D01*
X141780862Y-79243772D01*
X141765772Y-79280205D01*
X141754469Y-79307493D01*
X141738620Y-79427880D01*
X141735550Y-79451200D01*
X141753800Y-79589823D01*
X141754470Y-79594908D01*
X141754471Y-79594912D01*
X141809937Y-79728822D01*
X141809938Y-79728824D01*
X141809939Y-79728825D01*
X141898179Y-79843821D01*
X142013175Y-79932061D01*
X142076889Y-79958451D01*
X142117117Y-79985331D01*
X146613814Y-84482028D01*
X146630446Y-84502666D01*
X146633054Y-84506725D01*
X146633057Y-84506728D01*
X146670600Y-84539258D01*
X146677063Y-84545277D01*
X146686607Y-84554821D01*
X146686613Y-84554826D01*
X146686616Y-84554828D01*
X146697407Y-84562906D01*
X146704300Y-84568460D01*
X146741827Y-84600977D01*
X146746210Y-84602979D01*
X146769007Y-84616505D01*
X146772869Y-84619396D01*
X146819412Y-84636755D01*
X146827560Y-84640130D01*
X146854873Y-84652604D01*
X146872740Y-84660764D01*
X146872741Y-84660764D01*
X146872743Y-84660765D01*
X146877512Y-84661450D01*
X146903202Y-84668007D01*
X146907717Y-84669691D01*
X146957249Y-84673233D01*
X146966043Y-84674179D01*
X146979401Y-84676100D01*
X146992892Y-84676100D01*
X147001738Y-84676415D01*
X147051273Y-84679959D01*
X147055985Y-84678934D01*
X147082343Y-84676100D01*
X154380324Y-84676100D01*
X154427772Y-84685537D01*
X154491491Y-84711930D01*
X154587297Y-84724543D01*
X154635199Y-84730850D01*
X154635200Y-84730850D01*
X154635201Y-84730850D01*
X154650177Y-84728878D01*
X154778909Y-84711930D01*
X154912825Y-84656461D01*
X155027821Y-84568221D01*
X155116061Y-84453225D01*
X155171530Y-84319309D01*
X155190450Y-84175600D01*
X155171530Y-84031891D01*
X155121260Y-83910526D01*
X155116062Y-83897977D01*
X155116061Y-83897976D01*
X155116061Y-83897975D01*
X155027821Y-83782979D01*
X154912825Y-83694739D01*
X154912824Y-83694738D01*
X154912822Y-83694737D01*
X154778912Y-83639271D01*
X154778910Y-83639270D01*
X154778909Y-83639270D01*
X154697598Y-83628565D01*
X154635201Y-83620350D01*
X154635199Y-83620350D01*
X154491493Y-83639269D01*
X154475112Y-83646053D01*
X154427772Y-83665662D01*
X154380324Y-83675100D01*
X147273876Y-83675100D01*
X147206837Y-83655415D01*
X147186195Y-83638781D01*
X142827619Y-79280205D01*
X142794134Y-79218882D01*
X142791300Y-79192524D01*
X142791300Y-78490674D01*
X142810985Y-78423635D01*
X142827614Y-78402997D01*
X143918028Y-77312583D01*
X143938669Y-77295950D01*
X143942728Y-77293343D01*
X143975260Y-77255796D01*
X143981284Y-77249328D01*
X143990813Y-77239800D01*
X143990813Y-77239799D01*
X143990820Y-77239793D01*
X143998919Y-77228972D01*
X144004450Y-77222109D01*
X144036977Y-77184573D01*
X144038975Y-77180195D01*
X144052507Y-77157389D01*
X144055396Y-77153531D01*
X144072749Y-77107001D01*
X144076134Y-77098830D01*
X144096765Y-77053657D01*
X144097450Y-77048885D01*
X144104009Y-77023192D01*
X144105691Y-77018683D01*
X144109233Y-76969151D01*
X144110180Y-76960348D01*
X144112100Y-76946999D01*
X144112100Y-76933508D01*
X144112416Y-76924661D01*
X144115959Y-76875127D01*
X144114932Y-76870406D01*
X144112100Y-76844058D01*
X144112100Y-74952597D01*
X144131785Y-74885558D01*
X144184589Y-74839803D01*
X144253747Y-74829859D01*
X144317303Y-74858884D01*
X144337023Y-74880551D01*
X144338400Y-74882480D01*
X144338402Y-74882484D01*
X144338404Y-74882486D01*
X144342673Y-74888466D01*
X144347183Y-74894259D01*
X144382998Y-74927230D01*
X144386696Y-74930778D01*
X149424960Y-79969041D01*
X149441084Y-79988896D01*
X149446163Y-79996669D01*
X149469078Y-80014504D01*
X149479328Y-80023558D01*
X149480290Y-80024372D01*
X149495947Y-80035551D01*
X149500059Y-80038617D01*
X149538474Y-80068517D01*
X149544946Y-80072019D01*
X149551534Y-80075240D01*
X149598193Y-80089131D01*
X149603037Y-80090682D01*
X149649112Y-80106500D01*
X149649115Y-80106501D01*
X149656330Y-80107704D01*
X149663644Y-80108616D01*
X149663646Y-80108617D01*
X149663647Y-80108616D01*
X149663648Y-80108617D01*
X149712268Y-80106606D01*
X149717393Y-80106500D01*
X151129408Y-80106500D01*
X151196447Y-80126185D01*
X151215912Y-80144086D01*
X151217128Y-80142871D01*
X151222872Y-80148615D01*
X151222877Y-80148619D01*
X151222879Y-80148621D01*
X151337875Y-80236861D01*
X151471791Y-80292330D01*
X151598780Y-80309048D01*
X151615499Y-80311250D01*
X151615500Y-80311250D01*
X151615501Y-80311250D01*
X151630477Y-80309278D01*
X151759209Y-80292330D01*
X151893125Y-80236861D01*
X152008121Y-80148621D01*
X152096361Y-80033625D01*
X152151830Y-79899709D01*
X152170750Y-79756000D01*
X152151830Y-79612291D01*
X152096361Y-79478375D01*
X152008121Y-79363379D01*
X151893125Y-79275139D01*
X151893124Y-79275138D01*
X151893122Y-79275137D01*
X151759212Y-79219671D01*
X151759210Y-79219670D01*
X151759209Y-79219670D01*
X151687354Y-79210210D01*
X151615501Y-79200750D01*
X151615499Y-79200750D01*
X151471791Y-79219670D01*
X151471787Y-79219671D01*
X151337877Y-79275137D01*
X151222872Y-79363384D01*
X151217128Y-79369129D01*
X151214611Y-79366612D01*
X151171317Y-79398203D01*
X151129408Y-79405500D01*
X149904144Y-79405500D01*
X149837105Y-79385815D01*
X149816463Y-79369181D01*
X145014419Y-74567137D01*
X144980934Y-74505814D01*
X144978100Y-74479456D01*
X144978100Y-69929692D01*
X144997785Y-69862653D01*
X145015714Y-69843209D01*
X145014474Y-69841969D01*
X145020219Y-69836223D01*
X145020221Y-69836221D01*
X145108461Y-69721225D01*
X145163930Y-69587309D01*
X145182850Y-69443600D01*
X145182437Y-69440466D01*
X145175477Y-69387599D01*
X145163930Y-69299891D01*
X145108461Y-69165975D01*
X145020221Y-69050979D01*
X144905225Y-68962739D01*
X144905224Y-68962738D01*
X144905222Y-68962737D01*
X144771312Y-68907271D01*
X144771310Y-68907270D01*
X144771309Y-68907270D01*
X144669148Y-68893820D01*
X144627601Y-68888350D01*
X144627599Y-68888350D01*
X144483891Y-68907270D01*
X144483887Y-68907271D01*
X144349977Y-68962737D01*
X144340920Y-68969687D01*
X144311585Y-68992196D01*
X144246417Y-69017390D01*
X144177973Y-69003352D01*
X144127983Y-68954538D01*
X144112100Y-68893820D01*
X144112100Y-67162276D01*
X144131785Y-67095237D01*
X144148419Y-67074595D01*
X145001795Y-66221219D01*
X145063118Y-66187734D01*
X145089476Y-66184900D01*
X146048575Y-66184900D01*
X146059623Y-66185690D01*
X146059635Y-66185534D01*
X146064050Y-66185849D01*
X146064051Y-66185850D01*
X146503474Y-66185850D01*
X146570513Y-66205535D01*
X146591155Y-66222169D01*
X149788814Y-69419828D01*
X149805446Y-69440466D01*
X149808054Y-69444525D01*
X149808057Y-69444528D01*
X149845600Y-69477058D01*
X149852063Y-69483077D01*
X149861607Y-69492621D01*
X149861613Y-69492626D01*
X149861616Y-69492628D01*
X149872407Y-69500706D01*
X149879300Y-69506260D01*
X149916827Y-69538777D01*
X149921210Y-69540779D01*
X149944007Y-69554305D01*
X149947869Y-69557196D01*
X149994412Y-69574555D01*
X150002560Y-69577930D01*
X150023103Y-69587312D01*
X150047740Y-69598564D01*
X150047741Y-69598564D01*
X150047743Y-69598565D01*
X150052512Y-69599250D01*
X150078202Y-69605807D01*
X150082717Y-69607491D01*
X150132249Y-69611033D01*
X150141043Y-69611979D01*
X150154401Y-69613900D01*
X150167892Y-69613900D01*
X150176738Y-69614215D01*
X150226273Y-69617759D01*
X150230985Y-69616734D01*
X150257343Y-69613900D01*
X158114124Y-69613900D01*
X158161572Y-69623337D01*
X158225291Y-69649730D01*
X158321097Y-69662343D01*
X158368999Y-69668650D01*
X158369000Y-69668650D01*
X158369001Y-69668650D01*
X158383977Y-69666678D01*
X158512709Y-69649730D01*
X158646625Y-69594261D01*
X158761621Y-69506021D01*
X158849861Y-69391025D01*
X158905330Y-69257109D01*
X158924250Y-69113400D01*
X158923632Y-69108709D01*
X158914836Y-69041896D01*
X158905330Y-68969691D01*
X158849861Y-68835775D01*
X158761621Y-68720779D01*
X158646625Y-68632539D01*
X158646624Y-68632538D01*
X158646622Y-68632537D01*
X158512712Y-68577071D01*
X158512710Y-68577070D01*
X158512709Y-68577070D01*
X158440854Y-68567610D01*
X158369001Y-68558150D01*
X158368999Y-68558150D01*
X158225293Y-68577069D01*
X158208912Y-68583853D01*
X158161572Y-68603462D01*
X158114124Y-68612900D01*
X156179950Y-68612900D01*
X156112911Y-68593215D01*
X156107600Y-68587086D01*
X156055956Y-68611419D01*
X156036850Y-68612900D01*
X150448876Y-68612900D01*
X150381837Y-68593215D01*
X150361195Y-68576581D01*
X147296281Y-65511667D01*
X147269401Y-65471439D01*
X147243011Y-65407725D01*
X147154771Y-65292729D01*
X147039775Y-65204489D01*
X147039774Y-65204488D01*
X147039772Y-65204487D01*
X146905862Y-65149021D01*
X146905860Y-65149020D01*
X146905859Y-65149020D01*
X146807572Y-65136080D01*
X146762151Y-65130100D01*
X146762149Y-65130100D01*
X146618443Y-65149019D01*
X146602062Y-65155803D01*
X146554722Y-65175412D01*
X146507274Y-65184850D01*
X146150175Y-65184850D01*
X146139126Y-65184059D01*
X146139115Y-65184216D01*
X146134700Y-65183900D01*
X146134699Y-65183900D01*
X146134697Y-65183900D01*
X144897943Y-65183900D01*
X144871585Y-65181066D01*
X144866874Y-65180041D01*
X144866870Y-65180041D01*
X144817339Y-65183584D01*
X144808492Y-65183900D01*
X144795000Y-65183900D01*
X144788863Y-65184782D01*
X144781640Y-65185820D01*
X144772854Y-65186765D01*
X144723316Y-65190309D01*
X144723313Y-65190310D01*
X144718786Y-65191998D01*
X144693127Y-65198546D01*
X144688350Y-65199233D01*
X144688343Y-65199235D01*
X144643165Y-65219866D01*
X144634991Y-65223251D01*
X144588475Y-65240600D01*
X144588464Y-65240606D01*
X144584599Y-65243500D01*
X144561820Y-65257015D01*
X144557436Y-65259017D01*
X144557425Y-65259024D01*
X144519908Y-65291532D01*
X144513026Y-65297078D01*
X144502203Y-65305180D01*
X144492654Y-65314729D01*
X144486184Y-65320753D01*
X144448661Y-65353267D01*
X144448654Y-65353276D01*
X144446043Y-65357338D01*
X144429416Y-65377968D01*
X143305168Y-66502216D01*
X143284538Y-66518843D01*
X143280476Y-66521454D01*
X143280467Y-66521461D01*
X143247953Y-66558984D01*
X143241929Y-66565454D01*
X143232380Y-66575003D01*
X143224278Y-66585826D01*
X143218732Y-66592708D01*
X143186224Y-66630225D01*
X143186217Y-66630236D01*
X143184215Y-66634620D01*
X143170700Y-66657399D01*
X143167806Y-66661264D01*
X143167800Y-66661275D01*
X143150451Y-66707791D01*
X143147066Y-66715965D01*
X143126435Y-66761143D01*
X143126433Y-66761150D01*
X143125746Y-66765927D01*
X143119198Y-66791586D01*
X143117510Y-66796113D01*
X143117509Y-66796116D01*
X143113965Y-66845654D01*
X143113020Y-66854445D01*
X143111100Y-66867800D01*
X143111100Y-66881290D01*
X143110784Y-66890137D01*
X143107241Y-66939669D01*
X143107241Y-66939673D01*
X143108266Y-66944385D01*
X143111100Y-66970743D01*
X143111100Y-73504800D01*
X143091415Y-73571839D01*
X143038611Y-73617594D01*
X142969453Y-73627538D01*
X142911614Y-73603176D01*
X142822425Y-73534739D01*
X142822423Y-73534738D01*
X142688512Y-73479271D01*
X142688510Y-73479270D01*
X142688509Y-73479270D01*
X142616654Y-73469810D01*
X142544801Y-73460350D01*
X142544799Y-73460350D01*
X142401093Y-73479269D01*
X142293568Y-73523807D01*
X142224098Y-73531275D01*
X142161619Y-73499999D01*
X142125967Y-73439910D01*
X142123177Y-73393062D01*
X142134850Y-73304400D01*
X142115930Y-73160691D01*
X142060461Y-73026775D01*
X141972221Y-72911779D01*
X141857225Y-72823539D01*
X141857224Y-72823538D01*
X141857222Y-72823537D01*
X141723312Y-72768071D01*
X141723310Y-72768070D01*
X141723309Y-72768070D01*
X141643821Y-72757605D01*
X141579601Y-72749150D01*
X141579599Y-72749150D01*
X141435891Y-72768070D01*
X141435887Y-72768071D01*
X141301977Y-72823537D01*
X141186979Y-72911779D01*
X141098737Y-73026777D01*
X141043271Y-73160687D01*
X141043270Y-73160691D01*
X141024350Y-73304399D01*
X141024350Y-73312527D01*
X141020807Y-73312527D01*
X141012469Y-73365580D01*
X140988040Y-73400277D01*
X136591355Y-77796961D01*
X136571506Y-77813082D01*
X136563731Y-77818162D01*
X136545899Y-77841072D01*
X136536794Y-77851384D01*
X136536024Y-77852294D01*
X136524839Y-77867959D01*
X136521778Y-77872063D01*
X136491882Y-77910473D01*
X136488380Y-77916944D01*
X136485160Y-77923532D01*
X136471271Y-77970182D01*
X136469709Y-77975057D01*
X136453899Y-78021113D01*
X136452696Y-78028317D01*
X136451782Y-78035648D01*
X136453794Y-78084267D01*
X136453900Y-78089392D01*
X136453900Y-79586596D01*
X136434215Y-79653635D01*
X136428276Y-79662082D01*
X136374338Y-79732374D01*
X136318871Y-79866287D01*
X136318870Y-79866291D01*
X136299950Y-80010000D01*
X136312933Y-80108617D01*
X136318870Y-80153708D01*
X136318871Y-80153712D01*
X136374337Y-80287622D01*
X136374338Y-80287624D01*
X136374339Y-80287625D01*
X136462579Y-80402621D01*
X136577575Y-80490861D01*
X136577576Y-80490861D01*
X136577577Y-80490862D01*
X136666253Y-80527592D01*
X136720657Y-80571432D01*
X136742722Y-80637726D01*
X136725443Y-80705426D01*
X136706482Y-80729834D01*
X135371060Y-82065256D01*
X135309737Y-82098741D01*
X135299566Y-82100514D01*
X135187491Y-82115270D01*
X135187487Y-82115271D01*
X135053577Y-82170737D01*
X134938579Y-82258979D01*
X134850337Y-82373977D01*
X134794871Y-82507887D01*
X134794870Y-82507891D01*
X134775950Y-82651599D01*
X134775950Y-82651600D01*
X134794870Y-82795308D01*
X134794871Y-82795312D01*
X134850338Y-82929223D01*
X134850339Y-82929226D01*
X134918776Y-83018413D01*
X134943971Y-83083582D01*
X134929933Y-83152027D01*
X134881119Y-83202017D01*
X134820401Y-83217900D01*
X133761076Y-83217900D01*
X133694037Y-83198215D01*
X133673395Y-83181581D01*
X132366250Y-81874436D01*
X132332765Y-81813113D01*
X132334665Y-81752820D01*
X132336833Y-81745200D01*
X132353597Y-81686283D01*
X132372415Y-81483200D01*
X132362307Y-81374120D01*
X132353597Y-81280117D01*
X132332819Y-81207091D01*
X132297782Y-81083950D01*
X132291632Y-81071600D01*
X132218601Y-80924932D01*
X132206873Y-80901379D01*
X132106319Y-80768224D01*
X132083962Y-80738618D01*
X131933241Y-80601219D01*
X131933239Y-80601217D01*
X131806311Y-80522627D01*
X131759675Y-80470599D01*
X131748571Y-80401617D01*
X131776524Y-80337583D01*
X131834659Y-80298827D01*
X131871588Y-80293200D01*
X132165028Y-80293200D01*
X132165044Y-80293199D01*
X132224572Y-80286798D01*
X132224579Y-80286796D01*
X132359286Y-80236554D01*
X132359293Y-80236550D01*
X132474387Y-80150390D01*
X132474390Y-80150387D01*
X132560550Y-80035293D01*
X132560554Y-80035286D01*
X132610796Y-79900579D01*
X132610798Y-79900572D01*
X132617199Y-79841044D01*
X132617200Y-79841027D01*
X132617200Y-79193200D01*
X131700886Y-79193200D01*
X131726693Y-79153044D01*
X131767200Y-79015089D01*
X131767200Y-78871311D01*
X131726693Y-78733356D01*
X131700886Y-78693200D01*
X132617200Y-78693200D01*
X132617200Y-78045372D01*
X132617199Y-78045355D01*
X132610798Y-77985827D01*
X132610796Y-77985820D01*
X132560554Y-77851113D01*
X132560550Y-77851106D01*
X132474390Y-77736012D01*
X132474387Y-77736009D01*
X132359293Y-77649849D01*
X132359286Y-77649845D01*
X132224579Y-77599603D01*
X132224572Y-77599601D01*
X132165044Y-77593200D01*
X131517200Y-77593200D01*
X131517200Y-78507698D01*
X131409515Y-78458520D01*
X131302963Y-78443200D01*
X131231437Y-78443200D01*
X131124885Y-78458520D01*
X131017200Y-78507698D01*
X131017200Y-77593200D01*
X130369355Y-77593200D01*
X130309827Y-77599601D01*
X130309820Y-77599603D01*
X130175113Y-77649845D01*
X130175106Y-77649849D01*
X130060012Y-77736009D01*
X130060009Y-77736012D01*
X129973849Y-77851106D01*
X129973845Y-77851113D01*
X129923603Y-77985820D01*
X129923601Y-77985827D01*
X129917200Y-78045355D01*
X129917200Y-78693200D01*
X130833514Y-78693200D01*
X130807707Y-78733356D01*
X130767200Y-78871311D01*
X130767200Y-79015089D01*
X130807707Y-79153044D01*
X130833514Y-79193200D01*
X129917200Y-79193200D01*
X129917200Y-79841044D01*
X128016000Y-79841044D01*
X128016000Y-74382278D01*
X130217500Y-74382278D01*
X130232032Y-74455335D01*
X130232033Y-74455339D01*
X130250405Y-74482835D01*
X130287399Y-74538201D01*
X130358516Y-74585719D01*
X130370260Y-74593566D01*
X130370264Y-74593567D01*
X130443321Y-74608099D01*
X130443324Y-74608100D01*
X130443326Y-74608100D01*
X132192676Y-74608100D01*
X132192677Y-74608099D01*
X132265740Y-74593566D01*
X132348601Y-74538201D01*
X132403966Y-74455340D01*
X132418500Y-74382274D01*
X132418500Y-74135601D01*
X132438185Y-74068562D01*
X132490989Y-74022807D01*
X132543137Y-74013400D01*
X132543080Y-74012592D01*
X132550602Y-74012053D01*
X132551356Y-74011918D01*
X132551926Y-74011958D01*
X132551927Y-74011959D01*
X132551928Y-74011958D01*
X132551929Y-74011959D01*
X132601461Y-74008416D01*
X132610308Y-74008100D01*
X132623799Y-74008100D01*
X132637156Y-74006179D01*
X132645951Y-74005233D01*
X132695483Y-74001691D01*
X132699992Y-74000008D01*
X132725685Y-73993450D01*
X132730457Y-73992765D01*
X132775637Y-73972130D01*
X132783801Y-73968749D01*
X132830331Y-73951396D01*
X132834189Y-73948507D01*
X132856995Y-73934975D01*
X132861373Y-73932977D01*
X132898899Y-73900459D01*
X132905778Y-73894916D01*
X132916593Y-73886821D01*
X132926155Y-73877258D01*
X132932605Y-73871253D01*
X132970143Y-73838728D01*
X132972751Y-73834668D01*
X132989381Y-73814031D01*
X134875631Y-71927781D01*
X134896268Y-71911151D01*
X134900328Y-71908543D01*
X134932853Y-71871005D01*
X134938858Y-71864555D01*
X134948421Y-71854993D01*
X134956516Y-71844178D01*
X134962059Y-71837299D01*
X134994577Y-71799773D01*
X134996575Y-71795395D01*
X135010107Y-71772589D01*
X135012996Y-71768731D01*
X135030349Y-71722201D01*
X135033734Y-71714030D01*
X135054365Y-71668857D01*
X135055050Y-71664085D01*
X135061609Y-71638392D01*
X135063291Y-71633883D01*
X135066833Y-71584351D01*
X135067780Y-71575548D01*
X135069700Y-71562199D01*
X135069700Y-71548708D01*
X135070016Y-71539861D01*
X135073559Y-71490327D01*
X135072532Y-71485606D01*
X135069700Y-71459258D01*
X135069700Y-65435076D01*
X135089385Y-65368037D01*
X135106019Y-65347395D01*
X137055014Y-63398400D01*
X145901150Y-63398400D01*
X145920070Y-63542108D01*
X145920071Y-63542112D01*
X145975537Y-63676022D01*
X145975538Y-63676024D01*
X145975539Y-63676025D01*
X146063779Y-63791021D01*
X146178775Y-63879261D01*
X146312691Y-63934730D01*
X146456400Y-63953650D01*
X146464529Y-63953650D01*
X146464529Y-63957228D01*
X146517370Y-63965431D01*
X146552278Y-63989960D01*
X148150840Y-65588522D01*
X148184325Y-65649845D01*
X148185467Y-65676273D01*
X148187150Y-65676273D01*
X148187150Y-65684400D01*
X148206070Y-65828108D01*
X148206071Y-65828112D01*
X148261537Y-65962022D01*
X148261538Y-65962024D01*
X148261539Y-65962025D01*
X148349779Y-66077021D01*
X148464775Y-66165261D01*
X148598691Y-66220730D01*
X148713461Y-66235840D01*
X148742399Y-66239650D01*
X148742400Y-66239650D01*
X148742401Y-66239650D01*
X148757377Y-66237678D01*
X148886109Y-66220730D01*
X149020025Y-66165261D01*
X149135021Y-66077021D01*
X149223261Y-65962025D01*
X149278730Y-65828109D01*
X149297650Y-65684400D01*
X149278730Y-65540691D01*
X149236645Y-65439087D01*
X149223262Y-65406777D01*
X149223261Y-65406776D01*
X149223261Y-65406775D01*
X149135021Y-65291779D01*
X149020025Y-65203539D01*
X149020024Y-65203538D01*
X149020022Y-65203537D01*
X148886112Y-65148071D01*
X148886110Y-65148070D01*
X148886109Y-65148070D01*
X148795038Y-65136080D01*
X148742401Y-65129150D01*
X148734273Y-65129150D01*
X148734273Y-65125643D01*
X148681013Y-65117172D01*
X148646522Y-65092840D01*
X147047960Y-63494278D01*
X147014475Y-63432955D01*
X147013383Y-63406529D01*
X147011650Y-63406529D01*
X147011650Y-63398400D01*
X147011650Y-63398399D01*
X146992730Y-63254691D01*
X146937261Y-63120775D01*
X146849021Y-63005779D01*
X146734025Y-62917539D01*
X146734024Y-62917538D01*
X146734022Y-62917537D01*
X146600112Y-62862071D01*
X146600110Y-62862070D01*
X146600109Y-62862070D01*
X146528254Y-62852610D01*
X146456401Y-62843150D01*
X146456399Y-62843150D01*
X146312691Y-62862070D01*
X146312687Y-62862071D01*
X146178777Y-62917537D01*
X146063779Y-63005779D01*
X145975537Y-63120777D01*
X145920071Y-63254687D01*
X145920070Y-63254691D01*
X145901150Y-63398399D01*
X145901150Y-63398400D01*
X137055014Y-63398400D01*
X142512595Y-57940819D01*
X142573918Y-57907334D01*
X142600276Y-57904500D01*
X145982857Y-57904500D01*
X146009215Y-57907334D01*
X146013927Y-57908359D01*
X146063461Y-57904815D01*
X146072308Y-57904500D01*
X146085799Y-57904500D01*
X146099156Y-57902579D01*
X146107951Y-57901633D01*
X146157483Y-57898091D01*
X146161992Y-57896408D01*
X146187685Y-57889850D01*
X146192457Y-57889165D01*
X146237637Y-57868530D01*
X146245801Y-57865149D01*
X146292331Y-57847796D01*
X146296189Y-57844907D01*
X146318995Y-57831375D01*
X146323373Y-57829377D01*
X146360899Y-57796859D01*
X146367778Y-57791316D01*
X146378593Y-57783221D01*
X146388155Y-57773658D01*
X146394605Y-57767653D01*
X146432143Y-57735128D01*
X146434751Y-57731068D01*
X146451381Y-57710431D01*
X148502839Y-55658974D01*
X148564160Y-55625491D01*
X148633852Y-55630475D01*
X148664830Y-55647391D01*
X148667801Y-55649615D01*
X148667806Y-55649620D01*
X148675047Y-55655040D01*
X148678610Y-55657707D01*
X148685497Y-55663257D01*
X148723027Y-55695777D01*
X148727412Y-55697779D01*
X148750213Y-55711308D01*
X148754069Y-55714195D01*
X148777137Y-55722799D01*
X148800595Y-55731549D01*
X148808772Y-55734936D01*
X148853943Y-55755565D01*
X148858716Y-55756251D01*
X148884404Y-55762808D01*
X148888917Y-55764491D01*
X148938435Y-55768032D01*
X148947236Y-55768978D01*
X148960601Y-55770900D01*
X148974101Y-55770900D01*
X148982947Y-55771216D01*
X149032473Y-55774758D01*
X149035702Y-55774055D01*
X149037181Y-55773734D01*
X149063538Y-55770900D01*
X153585524Y-55770900D01*
X153632972Y-55780337D01*
X153696691Y-55806730D01*
X153792497Y-55819343D01*
X153840399Y-55825650D01*
X153840400Y-55825650D01*
X153840401Y-55825650D01*
X153855377Y-55823678D01*
X153984109Y-55806730D01*
X154118025Y-55751261D01*
X154233021Y-55663021D01*
X154321261Y-55548025D01*
X154376730Y-55414109D01*
X154382274Y-55372000D01*
X164084000Y-55372000D01*
X164084000Y-62484000D01*
X170688000Y-62484000D01*
X170688000Y-55372000D01*
X164084000Y-55372000D01*
X154382274Y-55372000D01*
X154395650Y-55270400D01*
X154376730Y-55126691D01*
X154321261Y-54992775D01*
X154233021Y-54877779D01*
X154118025Y-54789539D01*
X154118024Y-54789538D01*
X154118022Y-54789537D01*
X153984112Y-54734071D01*
X153984110Y-54734070D01*
X153984109Y-54734070D01*
X153912254Y-54724610D01*
X153840401Y-54715150D01*
X153840399Y-54715150D01*
X153696693Y-54734069D01*
X153680312Y-54740853D01*
X153632972Y-54760462D01*
X153585524Y-54769900D01*
X149255076Y-54769900D01*
X149188037Y-54750215D01*
X149167395Y-54733581D01*
X149124131Y-54690317D01*
X149097251Y-54650089D01*
X149070861Y-54586375D01*
X148982621Y-54471379D01*
X148867625Y-54383139D01*
X148867624Y-54383138D01*
X148867622Y-54383137D01*
X148733712Y-54327671D01*
X148733710Y-54327670D01*
X148733709Y-54327670D01*
X148661854Y-54318210D01*
X148590001Y-54308750D01*
X148589999Y-54308750D01*
X148446291Y-54327670D01*
X148446287Y-54327671D01*
X148312377Y-54383137D01*
X148197379Y-54471379D01*
X148109137Y-54586378D01*
X148082747Y-54650089D01*
X148055867Y-54690317D01*
X145879005Y-56867181D01*
X145817682Y-56900666D01*
X145791324Y-56903500D01*
X142408738Y-56903500D01*
X142382381Y-56900666D01*
X142377676Y-56899642D01*
X142377668Y-56899642D01*
X142328147Y-56903184D01*
X142319301Y-56903500D01*
X142305797Y-56903500D01*
X142292435Y-56905421D01*
X142283645Y-56906366D01*
X142234117Y-56909909D01*
X142234114Y-56909910D01*
X142229596Y-56911595D01*
X142203920Y-56918148D01*
X142199141Y-56918835D01*
X142153967Y-56939465D01*
X142145794Y-56942851D01*
X142099267Y-56960205D01*
X142099267Y-56960206D01*
X142095402Y-56963099D01*
X142072620Y-56976616D01*
X142068231Y-56978620D01*
X142068230Y-56978621D01*
X142068228Y-56978622D01*
X142068227Y-56978623D01*
X142042032Y-57001319D01*
X142030689Y-57011149D01*
X142023815Y-57016688D01*
X142013006Y-57024780D01*
X142013002Y-57024783D01*
X142003453Y-57034331D01*
X141996987Y-57040350D01*
X141959462Y-57072866D01*
X141959454Y-57072876D01*
X141956843Y-57076938D01*
X141940216Y-57097568D01*
X134262768Y-64775016D01*
X134242138Y-64791643D01*
X134238076Y-64794254D01*
X134238067Y-64794261D01*
X134205553Y-64831784D01*
X134199532Y-64838252D01*
X134195013Y-64842772D01*
X134133694Y-64876263D01*
X134107322Y-64879100D01*
X132542500Y-64879100D01*
X132475461Y-64859415D01*
X132429706Y-64806611D01*
X132418500Y-64755100D01*
X132418500Y-64504923D01*
X132418499Y-64504921D01*
X132403967Y-64431864D01*
X132403966Y-64431860D01*
X132394672Y-64417950D01*
X132348601Y-64348999D01*
X132265740Y-64293634D01*
X132265739Y-64293633D01*
X132265735Y-64293632D01*
X132192677Y-64279100D01*
X132192674Y-64279100D01*
X130443326Y-64279100D01*
X130443323Y-64279100D01*
X130370264Y-64293632D01*
X130370260Y-64293633D01*
X130287399Y-64348999D01*
X130232033Y-64431860D01*
X130232032Y-64431864D01*
X130217500Y-64504921D01*
X130217500Y-66254278D01*
X130232032Y-66327335D01*
X130232033Y-66327339D01*
X130232034Y-66327340D01*
X130287399Y-66410201D01*
X130341640Y-66446443D01*
X130370260Y-66465566D01*
X130370264Y-66465567D01*
X130443321Y-66480099D01*
X130443324Y-66480100D01*
X130443326Y-66480100D01*
X132192676Y-66480100D01*
X132192677Y-66480099D01*
X132265740Y-66465566D01*
X132348601Y-66410201D01*
X132403966Y-66327340D01*
X132418500Y-66254274D01*
X132418500Y-66004100D01*
X132438185Y-65937061D01*
X132490989Y-65891306D01*
X132542500Y-65880100D01*
X133944700Y-65880100D01*
X134011739Y-65899785D01*
X134057494Y-65952589D01*
X134068700Y-66004100D01*
X134068700Y-71267724D01*
X134049015Y-71334763D01*
X134032381Y-71355405D01*
X132630181Y-72757605D01*
X132568858Y-72791090D01*
X132499166Y-72786106D01*
X132443233Y-72744234D01*
X132418816Y-72678770D01*
X132418500Y-72669924D01*
X132418500Y-72632923D01*
X132418499Y-72632921D01*
X132403967Y-72559864D01*
X132403966Y-72559860D01*
X132387477Y-72535182D01*
X132348601Y-72476999D01*
X132265740Y-72421634D01*
X132265739Y-72421633D01*
X132265735Y-72421632D01*
X132192677Y-72407100D01*
X132192674Y-72407100D01*
X130443326Y-72407100D01*
X130443323Y-72407100D01*
X130370264Y-72421632D01*
X130370260Y-72421633D01*
X130287399Y-72476999D01*
X130232033Y-72559860D01*
X130232032Y-72559864D01*
X130217500Y-72632921D01*
X130217500Y-74382278D01*
X128016000Y-74382278D01*
X128016000Y-70967600D01*
X130212785Y-70967600D01*
X130231602Y-71170682D01*
X130287417Y-71366847D01*
X130287422Y-71366860D01*
X130378327Y-71549421D01*
X130501237Y-71712181D01*
X130651958Y-71849580D01*
X130651960Y-71849582D01*
X130681169Y-71867667D01*
X130825363Y-71956948D01*
X131015544Y-72030624D01*
X131216024Y-72068100D01*
X131216026Y-72068100D01*
X131419974Y-72068100D01*
X131419976Y-72068100D01*
X131620456Y-72030624D01*
X131810637Y-71956948D01*
X131984041Y-71849581D01*
X132134764Y-71712179D01*
X132257673Y-71549421D01*
X132348582Y-71366850D01*
X132404397Y-71170683D01*
X132423215Y-70967600D01*
X132404397Y-70764517D01*
X132348582Y-70568350D01*
X132309225Y-70489311D01*
X132304272Y-70479364D01*
X132257673Y-70385779D01*
X132134764Y-70223021D01*
X132134762Y-70223018D01*
X131984041Y-70085619D01*
X131984039Y-70085617D01*
X131810642Y-69978255D01*
X131810635Y-69978251D01*
X131685288Y-69929692D01*
X131620456Y-69904576D01*
X131419976Y-69867100D01*
X131216024Y-69867100D01*
X131015544Y-69904576D01*
X131015541Y-69904576D01*
X131015541Y-69904577D01*
X130825364Y-69978251D01*
X130825357Y-69978255D01*
X130651960Y-70085617D01*
X130651958Y-70085619D01*
X130501237Y-70223018D01*
X130378327Y-70385778D01*
X130287422Y-70568339D01*
X130287417Y-70568352D01*
X130231602Y-70764517D01*
X130212785Y-70967599D01*
X130212785Y-70967600D01*
X128016000Y-70967600D01*
X128016000Y-62839600D01*
X130212785Y-62839600D01*
X130231602Y-63042682D01*
X130287417Y-63238847D01*
X130287422Y-63238860D01*
X130378327Y-63421421D01*
X130501237Y-63584181D01*
X130651958Y-63721580D01*
X130651960Y-63721582D01*
X130751141Y-63782992D01*
X130825363Y-63828948D01*
X131015544Y-63902624D01*
X131216024Y-63940100D01*
X131216026Y-63940100D01*
X131419974Y-63940100D01*
X131419976Y-63940100D01*
X131620456Y-63902624D01*
X131810637Y-63828948D01*
X131984041Y-63721581D01*
X132134764Y-63584179D01*
X132257673Y-63421421D01*
X132348582Y-63238850D01*
X132404397Y-63042683D01*
X132423215Y-62839600D01*
X132404397Y-62636517D01*
X132348582Y-62440350D01*
X132257673Y-62257779D01*
X132134764Y-62095021D01*
X132134762Y-62095018D01*
X131984041Y-61957619D01*
X131984039Y-61957617D01*
X131810642Y-61850255D01*
X131810635Y-61850251D01*
X131715546Y-61813414D01*
X131620456Y-61776576D01*
X131419976Y-61739100D01*
X131216024Y-61739100D01*
X131015544Y-61776576D01*
X131015541Y-61776576D01*
X131015541Y-61776577D01*
X130825364Y-61850251D01*
X130825357Y-61850255D01*
X130651960Y-61957617D01*
X130651958Y-61957619D01*
X130501237Y-62095018D01*
X130378327Y-62257778D01*
X130287422Y-62440339D01*
X130287417Y-62440352D01*
X130231602Y-62636517D01*
X130212785Y-62839599D01*
X130212785Y-62839600D01*
X128016000Y-62839600D01*
X128016000Y-53046278D01*
X129404700Y-53046278D01*
X129419232Y-53119335D01*
X129419233Y-53119339D01*
X129419234Y-53119340D01*
X129474599Y-53202201D01*
X129557460Y-53257566D01*
X129557464Y-53257567D01*
X129630521Y-53272099D01*
X129630524Y-53272100D01*
X129630526Y-53272100D01*
X131379876Y-53272100D01*
X131379877Y-53272099D01*
X131452940Y-53257566D01*
X131535801Y-53202201D01*
X131591166Y-53119340D01*
X131605700Y-53046274D01*
X131605700Y-51296926D01*
X131605700Y-51296923D01*
X131605699Y-51296921D01*
X131591167Y-51223864D01*
X131591166Y-51223860D01*
X131588636Y-51220073D01*
X131535801Y-51140999D01*
X131452940Y-51085634D01*
X131452939Y-51085633D01*
X131452935Y-51085632D01*
X131379877Y-51071100D01*
X131379874Y-51071100D01*
X129630526Y-51071100D01*
X129630523Y-51071100D01*
X129557464Y-51085632D01*
X129557460Y-51085633D01*
X129474599Y-51140999D01*
X129419233Y-51223860D01*
X129419232Y-51223864D01*
X129404700Y-51296921D01*
X129404700Y-53046278D01*
X128016000Y-53046278D01*
X128016000Y-49631600D01*
X129399985Y-49631600D01*
X129418802Y-49834682D01*
X129474617Y-50030847D01*
X129474622Y-50030860D01*
X129565527Y-50213421D01*
X129688437Y-50376181D01*
X129839158Y-50513580D01*
X129839160Y-50513582D01*
X129890277Y-50545232D01*
X130012563Y-50620948D01*
X130202744Y-50694624D01*
X130403224Y-50732100D01*
X130403226Y-50732100D01*
X130607174Y-50732100D01*
X130607176Y-50732100D01*
X130807656Y-50694624D01*
X130997837Y-50620948D01*
X131171241Y-50513581D01*
X131321964Y-50376179D01*
X131444873Y-50213421D01*
X131506798Y-50089056D01*
X131532017Y-50038412D01*
X131579519Y-49987175D01*
X131647182Y-49969753D01*
X131713523Y-49991678D01*
X131757478Y-50045989D01*
X131762792Y-50061589D01*
X131771767Y-50095085D01*
X131771770Y-50095092D01*
X131871599Y-50309178D01*
X132007094Y-50502682D01*
X132174117Y-50669705D01*
X132367621Y-50805200D01*
X132581707Y-50905029D01*
X132581716Y-50905033D01*
X132620783Y-50915501D01*
X132680444Y-50951866D01*
X132710973Y-51014713D01*
X132702679Y-51084088D01*
X132658193Y-51137966D01*
X132633484Y-51150902D01*
X132552573Y-51182247D01*
X132552557Y-51182255D01*
X132379160Y-51289617D01*
X132379158Y-51289619D01*
X132228437Y-51427018D01*
X132105527Y-51589778D01*
X132014622Y-51772339D01*
X132014617Y-51772352D01*
X131958802Y-51968517D01*
X131939985Y-52171599D01*
X131939985Y-52171600D01*
X131958802Y-52374682D01*
X132014617Y-52570847D01*
X132014622Y-52570860D01*
X132105527Y-52753421D01*
X132228437Y-52916181D01*
X132379158Y-53053580D01*
X132379160Y-53053582D01*
X132478341Y-53114992D01*
X132552563Y-53160948D01*
X132742744Y-53234624D01*
X132943224Y-53272100D01*
X132943226Y-53272100D01*
X133147174Y-53272100D01*
X133147176Y-53272100D01*
X133347656Y-53234624D01*
X133537837Y-53160948D01*
X133711241Y-53053581D01*
X133861964Y-52916179D01*
X133984873Y-52753421D01*
X134075782Y-52570850D01*
X134131597Y-52374683D01*
X134150415Y-52171600D01*
X134479985Y-52171600D01*
X134498802Y-52374682D01*
X134554617Y-52570847D01*
X134554622Y-52570860D01*
X134645527Y-52753421D01*
X134768437Y-52916181D01*
X134919158Y-53053580D01*
X134919160Y-53053582D01*
X135018341Y-53114992D01*
X135092563Y-53160948D01*
X135092568Y-53160949D01*
X135092570Y-53160951D01*
X135123001Y-53172739D01*
X135155492Y-53185326D01*
X135210894Y-53227898D01*
X135234486Y-53293664D01*
X135234700Y-53300953D01*
X135234700Y-55576788D01*
X135232061Y-55602232D01*
X135230157Y-55611311D01*
X135230157Y-55611316D01*
X135233748Y-55640121D01*
X135234596Y-55653795D01*
X135234699Y-55655032D01*
X135234700Y-55655037D01*
X135234700Y-55655040D01*
X135237866Y-55674015D01*
X135238603Y-55679077D01*
X135244626Y-55727390D01*
X135246724Y-55734435D01*
X135249107Y-55741379D01*
X135249108Y-55741381D01*
X135256783Y-55755563D01*
X135272282Y-55784203D01*
X135274621Y-55788747D01*
X135296002Y-55832484D01*
X135296004Y-55832486D01*
X135296005Y-55832488D01*
X135300262Y-55838451D01*
X135304783Y-55844259D01*
X135340598Y-55877230D01*
X135344296Y-55880778D01*
X136173860Y-56710342D01*
X136207345Y-56771665D01*
X136209118Y-56814208D01*
X136198350Y-56896000D01*
X136214240Y-57016698D01*
X136217270Y-57039708D01*
X136217271Y-57039712D01*
X136272737Y-57173622D01*
X136272738Y-57173624D01*
X136272739Y-57173625D01*
X136360979Y-57288621D01*
X136475975Y-57376861D01*
X136609891Y-57432330D01*
X136736880Y-57449048D01*
X136753599Y-57451250D01*
X136753600Y-57451250D01*
X136753601Y-57451250D01*
X136768577Y-57449278D01*
X136897309Y-57432330D01*
X137031225Y-57376861D01*
X137146221Y-57288621D01*
X137234461Y-57173625D01*
X137289930Y-57039709D01*
X137308850Y-56896000D01*
X137289930Y-56752291D01*
X137234461Y-56618375D01*
X137146221Y-56503379D01*
X137031225Y-56415139D01*
X137031224Y-56415138D01*
X137031222Y-56415137D01*
X136897310Y-56359670D01*
X136843734Y-56352616D01*
X136779838Y-56324348D01*
X136772240Y-56317358D01*
X135972019Y-55517137D01*
X135938534Y-55455814D01*
X135935700Y-55429456D01*
X135935700Y-53300953D01*
X135955385Y-53233914D01*
X136008189Y-53188159D01*
X136014899Y-53185329D01*
X136077837Y-53160948D01*
X136251241Y-53053581D01*
X136401964Y-52916179D01*
X136524873Y-52753421D01*
X136615782Y-52570850D01*
X136671597Y-52374683D01*
X136690415Y-52171600D01*
X136671597Y-51968517D01*
X136615782Y-51772350D01*
X136524873Y-51589779D01*
X136429169Y-51463046D01*
X136401962Y-51427018D01*
X136251241Y-51289619D01*
X136251239Y-51289617D01*
X136077842Y-51182255D01*
X136077835Y-51182251D01*
X135963521Y-51137966D01*
X135887656Y-51108576D01*
X135687176Y-51071100D01*
X135483224Y-51071100D01*
X135282744Y-51108576D01*
X135282741Y-51108576D01*
X135282741Y-51108577D01*
X135092564Y-51182251D01*
X135092557Y-51182255D01*
X134919160Y-51289617D01*
X134919158Y-51289619D01*
X134768437Y-51427018D01*
X134645527Y-51589778D01*
X134554622Y-51772339D01*
X134554617Y-51772352D01*
X134498802Y-51968517D01*
X134479985Y-52171599D01*
X134479985Y-52171600D01*
X134150415Y-52171600D01*
X134131597Y-51968517D01*
X134075782Y-51772350D01*
X133984873Y-51589779D01*
X133889169Y-51463046D01*
X133861962Y-51427018D01*
X133711241Y-51289619D01*
X133711239Y-51289617D01*
X133537842Y-51182255D01*
X133537835Y-51182251D01*
X133482938Y-51160984D01*
X133456914Y-51150902D01*
X133401513Y-51108330D01*
X133377923Y-51042563D01*
X133393634Y-50974483D01*
X133443658Y-50925704D01*
X133469617Y-50915501D01*
X133508681Y-50905034D01*
X133508692Y-50905029D01*
X133722778Y-50805200D01*
X133916282Y-50669705D01*
X134083305Y-50502682D01*
X134218800Y-50309178D01*
X134318629Y-50095092D01*
X134318631Y-50095089D01*
X134327606Y-50061592D01*
X134363970Y-50001931D01*
X134426816Y-49971400D01*
X134496192Y-49979694D01*
X134550071Y-50024178D01*
X134558382Y-50038411D01*
X134645527Y-50213421D01*
X134768437Y-50376181D01*
X134919158Y-50513580D01*
X134919160Y-50513582D01*
X134970277Y-50545232D01*
X135092563Y-50620948D01*
X135282744Y-50694624D01*
X135483224Y-50732100D01*
X135483226Y-50732100D01*
X135687174Y-50732100D01*
X135687176Y-50732100D01*
X135887656Y-50694624D01*
X136077837Y-50620948D01*
X136251241Y-50513581D01*
X136401964Y-50376179D01*
X136524873Y-50213421D01*
X136573243Y-50116280D01*
X136605835Y-50050828D01*
X136653338Y-49999591D01*
X136716835Y-49982100D01*
X136963456Y-49982100D01*
X137030495Y-50001785D01*
X137051137Y-50018419D01*
X137941581Y-50908863D01*
X137975066Y-50970186D01*
X137977900Y-50996544D01*
X137977900Y-54784308D01*
X137958215Y-54851347D01*
X137940313Y-54870812D01*
X137941529Y-54872028D01*
X137935784Y-54877772D01*
X137847537Y-54992777D01*
X137792071Y-55126687D01*
X137792070Y-55126691D01*
X137773150Y-55270399D01*
X137773150Y-55270400D01*
X137792070Y-55414108D01*
X137792071Y-55414112D01*
X137847537Y-55548022D01*
X137847538Y-55548024D01*
X137847539Y-55548025D01*
X137935779Y-55663021D01*
X138050775Y-55751261D01*
X138050776Y-55751261D01*
X138050777Y-55751262D01*
X138091264Y-55768032D01*
X138184691Y-55806730D01*
X138311680Y-55823448D01*
X138328399Y-55825650D01*
X138328400Y-55825650D01*
X138328401Y-55825650D01*
X138343377Y-55823678D01*
X138472109Y-55806730D01*
X138606025Y-55751261D01*
X138721021Y-55663021D01*
X138809261Y-55548025D01*
X138864730Y-55414109D01*
X138883650Y-55270400D01*
X138864730Y-55126691D01*
X138809261Y-54992775D01*
X138721021Y-54877779D01*
X138721019Y-54877777D01*
X138721015Y-54877772D01*
X138715271Y-54872028D01*
X138717787Y-54869511D01*
X138686197Y-54826217D01*
X138678900Y-54784308D01*
X138678900Y-53773709D01*
X145929500Y-53773709D01*
X145943063Y-53889749D01*
X145944759Y-53904256D01*
X145944760Y-53904259D01*
X146004762Y-54069115D01*
X146004764Y-54069119D01*
X146101167Y-54215693D01*
X146101168Y-54215694D01*
X146228778Y-54336089D01*
X146228780Y-54336090D01*
X146228782Y-54336092D01*
X146380719Y-54423812D01*
X146548790Y-54474130D01*
X146723935Y-54484331D01*
X146896711Y-54453865D01*
X147057804Y-54384377D01*
X147198530Y-54279610D01*
X147311302Y-54145214D01*
X147390040Y-53988433D01*
X147430500Y-53817721D01*
X147430500Y-52586291D01*
X147415241Y-52455745D01*
X147355237Y-52290883D01*
X147305187Y-52214786D01*
X147258832Y-52144306D01*
X147258831Y-52144305D01*
X147131222Y-52023911D01*
X147131219Y-52023909D01*
X147131218Y-52023908D01*
X147092498Y-52001553D01*
X147044284Y-51950986D01*
X147030500Y-51894167D01*
X147030500Y-51585744D01*
X147050185Y-51518705D01*
X147066819Y-51498063D01*
X147073263Y-51491619D01*
X147134586Y-51458134D01*
X147160944Y-51455300D01*
X154743456Y-51455300D01*
X154810495Y-51474985D01*
X154831137Y-51491619D01*
X154933181Y-51593663D01*
X154966666Y-51654986D01*
X154969500Y-51681344D01*
X154969500Y-51893020D01*
X154949815Y-51960059D01*
X154919548Y-51992483D01*
X154801469Y-52080390D01*
X154688698Y-52214785D01*
X154688697Y-52214787D01*
X154609961Y-52371562D01*
X154609960Y-52371567D01*
X154569500Y-52542279D01*
X154569500Y-53773709D01*
X154583063Y-53889749D01*
X154584759Y-53904256D01*
X154584760Y-53904259D01*
X154644762Y-54069115D01*
X154644764Y-54069119D01*
X154741167Y-54215693D01*
X154741168Y-54215694D01*
X154868778Y-54336089D01*
X154868780Y-54336090D01*
X154868782Y-54336092D01*
X155020719Y-54423812D01*
X155188790Y-54474130D01*
X155363935Y-54484331D01*
X155536711Y-54453865D01*
X155697804Y-54384377D01*
X155838530Y-54279610D01*
X155951302Y-54145214D01*
X156030040Y-53988433D01*
X156070500Y-53817721D01*
X156070500Y-52586291D01*
X156055241Y-52455745D01*
X155995237Y-52290883D01*
X155945187Y-52214786D01*
X155898832Y-52144306D01*
X155898831Y-52144305D01*
X155771222Y-52023911D01*
X155771219Y-52023909D01*
X155771218Y-52023908D01*
X155732498Y-52001553D01*
X155684284Y-51950986D01*
X155670500Y-51894167D01*
X155670500Y-51534006D01*
X155673139Y-51508560D01*
X155675042Y-51499485D01*
X155671451Y-51470683D01*
X155670603Y-51457008D01*
X155670500Y-51455770D01*
X155670500Y-51455760D01*
X155667328Y-51436759D01*
X155666594Y-51431715D01*
X155666009Y-51427018D01*
X155660573Y-51383407D01*
X155660572Y-51383404D01*
X155658477Y-51376366D01*
X155656092Y-51369418D01*
X155632928Y-51326617D01*
X155630579Y-51322054D01*
X155609199Y-51278318D01*
X155604926Y-51272334D01*
X155600420Y-51266545D01*
X155600419Y-51266544D01*
X155600418Y-51266542D01*
X155564587Y-51233557D01*
X155560914Y-51230032D01*
X155222637Y-50891755D01*
X155206511Y-50871898D01*
X155201437Y-50864131D01*
X155178524Y-50846297D01*
X155168248Y-50837222D01*
X155167309Y-50836427D01*
X155167307Y-50836425D01*
X155151651Y-50825247D01*
X155147544Y-50822185D01*
X155137907Y-50814684D01*
X155109126Y-50792283D01*
X155109124Y-50792282D01*
X155102640Y-50788773D01*
X155096067Y-50785559D01*
X155049409Y-50771668D01*
X155044532Y-50770106D01*
X154998484Y-50754298D01*
X154991287Y-50753097D01*
X154983951Y-50752182D01*
X154935332Y-50754194D01*
X154930207Y-50754300D01*
X147013606Y-50754300D01*
X146988161Y-50751661D01*
X146987416Y-50751504D01*
X146979085Y-50749758D01*
X146979084Y-50749758D01*
X146950284Y-50753348D01*
X146936581Y-50754198D01*
X146935362Y-50754299D01*
X146916390Y-50757465D01*
X146911323Y-50758203D01*
X146863005Y-50764226D01*
X146855984Y-50766316D01*
X146849017Y-50768708D01*
X146806212Y-50791872D01*
X146801661Y-50794215D01*
X146757913Y-50815603D01*
X146751966Y-50819847D01*
X146746138Y-50824384D01*
X146713180Y-50860186D01*
X146709633Y-50863883D01*
X146466955Y-51106561D01*
X146447106Y-51122682D01*
X146439331Y-51127762D01*
X146421499Y-51150672D01*
X146412394Y-51160984D01*
X146411624Y-51161894D01*
X146400439Y-51177559D01*
X146397378Y-51181663D01*
X146367482Y-51220073D01*
X146363980Y-51226544D01*
X146360760Y-51233132D01*
X146346871Y-51279782D01*
X146345309Y-51284657D01*
X146329499Y-51330713D01*
X146328296Y-51337917D01*
X146327382Y-51345248D01*
X146329394Y-51393867D01*
X146329500Y-51398992D01*
X146329500Y-51893020D01*
X146309815Y-51960059D01*
X146279548Y-51992483D01*
X146161469Y-52080390D01*
X146048698Y-52214785D01*
X146048697Y-52214787D01*
X145969961Y-52371562D01*
X145969960Y-52371567D01*
X145929500Y-52542279D01*
X145929500Y-53773709D01*
X138678900Y-53773709D01*
X138678900Y-50849206D01*
X138681539Y-50823760D01*
X138682149Y-50820850D01*
X138683442Y-50814685D01*
X138679851Y-50785883D01*
X138679003Y-50772208D01*
X138678900Y-50770970D01*
X138678900Y-50770960D01*
X138675728Y-50751959D01*
X138674994Y-50746915D01*
X138668973Y-50698607D01*
X138668972Y-50698604D01*
X138666877Y-50691566D01*
X138664492Y-50684618D01*
X138641328Y-50641817D01*
X138638979Y-50637254D01*
X138617599Y-50593518D01*
X138613326Y-50587534D01*
X138608820Y-50581745D01*
X138608819Y-50581744D01*
X138608818Y-50581742D01*
X138572987Y-50548757D01*
X138569314Y-50545232D01*
X137502928Y-49478846D01*
X145879500Y-49478846D01*
X145910261Y-49633489D01*
X145910264Y-49633501D01*
X145970602Y-49779172D01*
X145970609Y-49779185D01*
X146058210Y-49910288D01*
X146058213Y-49910292D01*
X146169707Y-50021786D01*
X146169711Y-50021789D01*
X146300814Y-50109390D01*
X146300827Y-50109397D01*
X146354431Y-50131600D01*
X146446503Y-50169737D01*
X146601153Y-50200499D01*
X146601156Y-50200500D01*
X146601158Y-50200500D01*
X146758844Y-50200500D01*
X146758845Y-50200499D01*
X146913497Y-50169737D01*
X147059179Y-50109394D01*
X147190289Y-50021789D01*
X147301789Y-49910289D01*
X147389394Y-49779179D01*
X147449737Y-49633497D01*
X147480499Y-49478846D01*
X154519500Y-49478846D01*
X154550261Y-49633489D01*
X154550264Y-49633501D01*
X154610602Y-49779172D01*
X154610609Y-49779185D01*
X154698210Y-49910288D01*
X154698213Y-49910292D01*
X154809707Y-50021786D01*
X154809711Y-50021789D01*
X154940814Y-50109390D01*
X154940827Y-50109397D01*
X154994431Y-50131600D01*
X155086503Y-50169737D01*
X155241153Y-50200499D01*
X155241156Y-50200500D01*
X155241158Y-50200500D01*
X155398844Y-50200500D01*
X155398845Y-50200499D01*
X155553497Y-50169737D01*
X155699179Y-50109394D01*
X155830289Y-50021789D01*
X155941789Y-49910289D01*
X156029394Y-49779179D01*
X156089737Y-49633497D01*
X156120500Y-49478842D01*
X156120500Y-49400000D01*
X156120500Y-49334108D01*
X156120500Y-48564201D01*
X156120500Y-48521158D01*
X156120500Y-48521155D01*
X156120499Y-48521153D01*
X156089738Y-48366510D01*
X156089737Y-48366503D01*
X156062590Y-48300964D01*
X156029397Y-48220827D01*
X156029390Y-48220814D01*
X155941789Y-48089711D01*
X155941786Y-48089707D01*
X155830292Y-47978213D01*
X155830288Y-47978210D01*
X155699185Y-47890609D01*
X155699172Y-47890602D01*
X155553501Y-47830264D01*
X155553489Y-47830261D01*
X155398845Y-47799500D01*
X155398842Y-47799500D01*
X155385892Y-47799500D01*
X155320000Y-47799500D01*
X155241158Y-47799500D01*
X155241155Y-47799500D01*
X155086510Y-47830261D01*
X155086498Y-47830264D01*
X154940827Y-47890602D01*
X154940814Y-47890609D01*
X154809711Y-47978210D01*
X154809707Y-47978213D01*
X154698213Y-48089707D01*
X154698210Y-48089711D01*
X154610609Y-48220814D01*
X154610602Y-48220827D01*
X154550264Y-48366498D01*
X154550261Y-48366510D01*
X154519500Y-48521153D01*
X154519500Y-49478846D01*
X147480499Y-49478846D01*
X147480500Y-49478842D01*
X147480500Y-49400000D01*
X147480500Y-49334108D01*
X147480500Y-48564201D01*
X147480500Y-48521158D01*
X147480500Y-48521155D01*
X147480499Y-48521153D01*
X147449738Y-48366510D01*
X147449737Y-48366503D01*
X147422590Y-48300964D01*
X147389397Y-48220827D01*
X147389390Y-48220814D01*
X147301789Y-48089711D01*
X147301786Y-48089707D01*
X147190292Y-47978213D01*
X147190288Y-47978210D01*
X147059185Y-47890609D01*
X147059172Y-47890602D01*
X146913501Y-47830264D01*
X146913489Y-47830261D01*
X146758845Y-47799500D01*
X146758842Y-47799500D01*
X146745892Y-47799500D01*
X146680000Y-47799500D01*
X146601158Y-47799500D01*
X146601155Y-47799500D01*
X146446510Y-47830261D01*
X146446498Y-47830264D01*
X146300827Y-47890602D01*
X146300814Y-47890609D01*
X146169711Y-47978210D01*
X146169707Y-47978213D01*
X146058213Y-48089707D01*
X146058210Y-48089711D01*
X145970609Y-48220814D01*
X145970602Y-48220827D01*
X145910264Y-48366498D01*
X145910261Y-48366510D01*
X145879500Y-48521153D01*
X145879500Y-49478846D01*
X137502928Y-49478846D01*
X137442637Y-49418555D01*
X137426511Y-49398698D01*
X137421437Y-49390931D01*
X137398524Y-49373097D01*
X137388248Y-49364022D01*
X137387309Y-49363227D01*
X137387307Y-49363225D01*
X137371651Y-49352047D01*
X137367544Y-49348985D01*
X137348430Y-49334108D01*
X137329126Y-49319083D01*
X137329124Y-49319082D01*
X137322640Y-49315573D01*
X137316067Y-49312359D01*
X137269409Y-49298468D01*
X137264532Y-49296906D01*
X137218484Y-49281098D01*
X137211287Y-49279897D01*
X137203951Y-49278982D01*
X137155332Y-49280994D01*
X137150207Y-49281100D01*
X136716835Y-49281100D01*
X136649796Y-49261415D01*
X136605835Y-49212372D01*
X136556063Y-49112417D01*
X136524873Y-49049779D01*
X136401964Y-48887021D01*
X136401962Y-48887018D01*
X136251241Y-48749619D01*
X136251239Y-48749617D01*
X136077842Y-48642255D01*
X136077835Y-48642251D01*
X135951969Y-48593491D01*
X135887656Y-48568576D01*
X135687176Y-48531100D01*
X135483224Y-48531100D01*
X135282744Y-48568576D01*
X135282741Y-48568576D01*
X135282741Y-48568577D01*
X135092564Y-48642251D01*
X135092557Y-48642255D01*
X134919160Y-48749617D01*
X134919158Y-48749619D01*
X134768437Y-48887018D01*
X134645527Y-49049778D01*
X134558382Y-49224788D01*
X134510879Y-49276025D01*
X134443216Y-49293446D01*
X134376876Y-49271520D01*
X134332921Y-49217209D01*
X134327607Y-49201608D01*
X134318634Y-49168118D01*
X134318629Y-49168107D01*
X134218800Y-48954022D01*
X134218799Y-48954020D01*
X134083313Y-48760526D01*
X134083308Y-48760520D01*
X133916282Y-48593494D01*
X133722778Y-48457999D01*
X133508692Y-48358170D01*
X133508686Y-48358167D01*
X133295200Y-48300964D01*
X133295200Y-49196098D01*
X133187515Y-49146920D01*
X133080963Y-49131600D01*
X133009437Y-49131600D01*
X132902885Y-49146920D01*
X132795200Y-49196098D01*
X132795200Y-48300964D01*
X132795199Y-48300964D01*
X132581713Y-48358167D01*
X132581707Y-48358170D01*
X132367622Y-48457999D01*
X132367620Y-48458000D01*
X132174126Y-48593486D01*
X132174120Y-48593491D01*
X132007091Y-48760520D01*
X132007086Y-48760526D01*
X131871600Y-48954020D01*
X131871599Y-48954022D01*
X131771770Y-49168107D01*
X131771768Y-49168111D01*
X131762792Y-49201611D01*
X131726426Y-49261271D01*
X131663579Y-49291799D01*
X131594203Y-49283504D01*
X131540326Y-49239018D01*
X131532017Y-49224788D01*
X131485615Y-49131600D01*
X131444873Y-49049779D01*
X131321964Y-48887021D01*
X131321962Y-48887018D01*
X131171241Y-48749619D01*
X131171239Y-48749617D01*
X130997842Y-48642255D01*
X130997835Y-48642251D01*
X130871969Y-48593491D01*
X130807656Y-48568576D01*
X130607176Y-48531100D01*
X130403224Y-48531100D01*
X130202744Y-48568576D01*
X130202741Y-48568576D01*
X130202741Y-48568577D01*
X130012564Y-48642251D01*
X130012557Y-48642255D01*
X129839160Y-48749617D01*
X129839158Y-48749619D01*
X129688437Y-48887018D01*
X129565527Y-49049778D01*
X129474622Y-49232339D01*
X129474617Y-49232352D01*
X129418802Y-49428517D01*
X129399985Y-49631599D01*
X129399985Y-49631600D01*
X128016000Y-49631600D01*
X128016000Y-47563700D01*
X128035685Y-47496661D01*
X128088489Y-47450906D01*
X128140000Y-47439700D01*
X173866000Y-47439700D01*
X173933039Y-47459385D01*
G37*
G04 #@! TD.AperFunction*
M02*
